M48
; DRILL file {KiCad (6.0.2)} date Wed Mar  9 23:50:55 2022
; FORMAT={-:-/ absolute / inch / decimal}
; #@! TF.CreationDate,2022-03-09T23:50:55-05:00
; #@! TF.GenerationSoftware,Kicad,Pcbnew,(6.0.2)
; #@! TF.FileFunction,Plated,1,2,PTH
FMAT,2
INCH
; #@! TA.AperFunction,Plated,PTH,ViaDrill
T1C0.0157
; #@! TA.AperFunction,Plated,PTH,ComponentDrill
T2C0.0315
; #@! TA.AperFunction,Plated,PTH,ComponentDrill
T3C0.0394
; #@! TA.AperFunction,Plated,PTH,ComponentDrill
T4C0.0984
%
G90
G05
T1
X2.396Y-2.95
X2.6598Y-2.7738
X2.666Y-2.286
X2.6708Y-2.1928
X2.704Y-3.298
X2.7598Y-2.2638
X2.768Y-2.068
X2.802Y-2.324
X2.984Y-3.63
X3.014Y-3.56
X3.394Y-3.078
X3.402Y-2.89
X3.466Y-2.778
X3.494Y-3.55
X3.556Y-3.376
X3.5662Y-2.7278
X3.6395Y-2.6138
X3.644Y-3.06
X3.672Y-2.572
X3.674Y-2.504
X3.6918Y-2.9814
X3.7Y-2.382
X3.744Y-2.6875
X3.792Y-2.46
X3.8Y-4.004
X3.806Y-3.44
X3.854Y-2.348
X3.86Y-2.576
X3.874Y-3.678
X3.88Y-2.07
X3.924Y-2.588
X3.966Y-2.074
X3.978Y-3.096
X4.0075Y-3.472
X4.008Y-2.864
X4.0198Y-3.7082
X4.048Y-3.19
X4.09Y-3.49
X4.102Y-2.862
X4.13Y-3.18
X4.18Y-2.868
X4.236Y-3.188
X4.238Y-3.462
X4.258Y-3.734
X4.324Y-3.6073
X4.366Y-3.454
X4.424Y-2.602
X4.43Y-2.37
T2
X3.042Y-3.102
X3.2389Y-3.102
X3.6134Y-3.26
X3.8103Y-3.26
T3
X2.192Y-2.094
X2.192Y-2.194
X2.192Y-2.294
X2.192Y-2.394
X2.192Y-2.494
X2.194Y-3.294
X2.194Y-3.394
X2.2Y-3.62
X2.2Y-3.72
X2.2Y-3.82
X2.2Y-3.92
X2.2Y-4.02
X3.1827Y-3.3982
X3.1827Y-3.4982
X3.1827Y-3.5982
X3.1827Y-3.6982
X3.1827Y-3.7982
X3.1827Y-3.8982
X3.1827Y-3.9982
X3.3827Y-3.3482
X3.3827Y-3.4482
X3.3827Y-3.5482
X3.3827Y-3.6482
X3.3827Y-3.7482
X3.3827Y-3.8482
X3.3827Y-3.9482
X3.3827Y-4.0482
X4.4664Y-4.276
X4.5664Y-4.276
X4.6664Y-4.276
X4.738Y-2.082
X4.738Y-2.182
X4.738Y-2.282
X4.738Y-2.382
X4.738Y-2.482
X4.738Y-2.582
X4.738Y-2.682
X4.738Y-2.782
X4.738Y-2.882
X4.742Y-3.09
X4.742Y-3.19
X4.742Y-3.29
X4.742Y-3.39
X4.742Y-3.49
X4.742Y-3.59
X4.7664Y-4.276
T4
X2.27Y-4.224
X2.39Y-2.162
X4.178Y-4.158
X4.482Y-2.18
T0
M30
