%TF.GenerationSoftware,KiCad,Pcbnew,(6.0.2)*%
%TF.CreationDate,2022-03-09T23:50:45-05:00*%
%TF.ProjectId,car (1),63617220-2831-4292-9e6b-696361645f70,rev?*%
%TF.SameCoordinates,Original*%
%TF.FileFunction,Soldermask,Bot*%
%TF.FilePolarity,Negative*%
%FSLAX46Y46*%
G04 Gerber Fmt 4.6, Leading zero omitted, Abs format (unit mm)*
G04 Created by KiCad (PCBNEW (6.0.2)) date 2022-03-09 23:50:45*
%MOMM*%
%LPD*%
G01*
G04 APERTURE LIST*
G04 Aperture macros list*
%AMRoundRect*
0 Rectangle with rounded corners*
0 $1 Rounding radius*
0 $2 $3 $4 $5 $6 $7 $8 $9 X,Y pos of 4 corners*
0 Add a 4 corners polygon primitive as box body*
4,1,4,$2,$3,$4,$5,$6,$7,$8,$9,$2,$3,0*
0 Add four circle primitives for the rounded corners*
1,1,$1+$1,$2,$3*
1,1,$1+$1,$4,$5*
1,1,$1+$1,$6,$7*
1,1,$1+$1,$8,$9*
0 Add four rect primitives between the rounded corners*
20,1,$1+$1,$2,$3,$4,$5,0*
20,1,$1+$1,$4,$5,$6,$7,0*
20,1,$1+$1,$6,$7,$8,$9,0*
20,1,$1+$1,$8,$9,$2,$3,0*%
G04 Aperture macros list end*
%ADD10R,1.700000X1.700000*%
%ADD11O,1.700000X1.700000*%
%ADD12R,1.600000X1.600000*%
%ADD13C,1.600000*%
%ADD14C,5.000000*%
%ADD15R,1.800000X1.800000*%
%ADD16O,1.800000X1.800000*%
%ADD17RoundRect,0.250000X0.262500X0.450000X-0.262500X0.450000X-0.262500X-0.450000X0.262500X-0.450000X0*%
%ADD18RoundRect,0.250000X0.475000X-0.250000X0.475000X0.250000X-0.475000X0.250000X-0.475000X-0.250000X0*%
%ADD19RoundRect,0.250000X0.450000X-0.262500X0.450000X0.262500X-0.450000X0.262500X-0.450000X-0.262500X0*%
G04 APERTURE END LIST*
D10*
%TO.C,J4*%
X120446800Y-78486000D03*
D11*
X120446800Y-81026000D03*
X120446800Y-83566000D03*
X120446800Y-86106000D03*
X120446800Y-88646000D03*
X120446800Y-91186000D03*
%TD*%
D12*
%TO.C,C7*%
X77266800Y-78790800D03*
D13*
X82266800Y-78790800D03*
%TD*%
D10*
%TO.C,J1*%
X120345200Y-73202800D03*
D11*
X120345200Y-70662800D03*
X120345200Y-68122800D03*
X120345200Y-65582800D03*
X120345200Y-63042800D03*
X120345200Y-60502800D03*
X120345200Y-57962800D03*
X120345200Y-55422800D03*
X120345200Y-52882800D03*
%TD*%
D10*
%TO.C,J2*%
X113446400Y-108610400D03*
D11*
X115986400Y-108610400D03*
X118526400Y-108610400D03*
X121066400Y-108610400D03*
%TD*%
D14*
%TO.C,H3*%
X113842800Y-55372000D03*
%TD*%
%TO.C,H4*%
X57658000Y-107289600D03*
%TD*%
D10*
%TO.C,J3*%
X55727600Y-83667600D03*
D11*
X55727600Y-86207600D03*
%TD*%
D14*
%TO.C,H1*%
X60706000Y-54914800D03*
%TD*%
D15*
%TO.C,U1*%
X85919800Y-102824200D03*
D16*
X80839800Y-101554200D03*
X85919800Y-100284200D03*
X80839800Y-99014200D03*
X85919800Y-97744200D03*
X80839800Y-96474200D03*
X85919800Y-95204200D03*
X80839800Y-93934200D03*
X85919800Y-92664200D03*
X80839800Y-91394200D03*
X85919800Y-90124200D03*
X80839800Y-88854200D03*
X85919800Y-87584200D03*
X80839800Y-86314200D03*
X85919800Y-85044200D03*
%TD*%
D12*
%TO.C,C3*%
X91780549Y-82804000D03*
D13*
X96780549Y-82804000D03*
%TD*%
D10*
%TO.C,J6*%
X55880000Y-91948000D03*
D11*
X55880000Y-94488000D03*
X55880000Y-97028000D03*
X55880000Y-99568000D03*
X55880000Y-102108000D03*
%TD*%
D10*
%TO.C,J5*%
X55676800Y-53187600D03*
D11*
X55676800Y-55727600D03*
X55676800Y-58267600D03*
X55676800Y-60807600D03*
X55676800Y-63347600D03*
%TD*%
D14*
%TO.C,H2*%
X106121200Y-105613200D03*
%TD*%
D17*
%TO.C,R11*%
X74674100Y-73761600D03*
X72849100Y-73761600D03*
%TD*%
D18*
%TO.C,C2*%
X68935600Y-56525200D03*
X68935600Y-54625200D03*
%TD*%
D19*
%TO.C,R9*%
X65176400Y-60346600D03*
X65176400Y-58521600D03*
%TD*%
D18*
%TO.C,C1*%
X66395600Y-56626800D03*
X66395600Y-54726800D03*
%TD*%
%TO.C,C6*%
X68732400Y-61351200D03*
X68732400Y-59451200D03*
%TD*%
D17*
%TO.C,R12*%
X70264100Y-73761600D03*
X68439100Y-73761600D03*
%TD*%
M02*
