%TF.GenerationSoftware,KiCad,Pcbnew,(6.0.2)*%
%TF.CreationDate,2022-03-09T23:50:44-05:00*%
%TF.ProjectId,car (1),63617220-2831-4292-9e6b-696361645f70,rev?*%
%TF.SameCoordinates,Original*%
%TF.FileFunction,Legend,Top*%
%TF.FilePolarity,Positive*%
%FSLAX46Y46*%
G04 Gerber Fmt 4.6, Leading zero omitted, Abs format (unit mm)*
G04 Created by KiCad (PCBNEW (6.0.2)) date 2022-03-09 23:50:44*
%MOMM*%
%LPD*%
G01*
G04 APERTURE LIST*
%ADD10C,0.150000*%
%ADD11C,0.254000*%
%ADD12C,0.120000*%
%ADD13C,0.200000*%
%ADD14C,0.100000*%
G04 APERTURE END LIST*
D10*
X61543466Y-104126866D02*
X62019657Y-104126866D01*
X61448228Y-104412580D02*
X61781561Y-103412580D01*
X62114895Y-104412580D01*
X62448228Y-103745914D02*
X62448228Y-104412580D01*
X62448228Y-103841152D02*
X62495847Y-103793533D01*
X62591085Y-103745914D01*
X62733942Y-103745914D01*
X62829180Y-103793533D01*
X62876800Y-103888771D01*
X62876800Y-104412580D01*
X63781561Y-104412580D02*
X63781561Y-103412580D01*
X63781561Y-104364961D02*
X63686323Y-104412580D01*
X63495847Y-104412580D01*
X63400609Y-104364961D01*
X63352990Y-104317342D01*
X63305371Y-104222104D01*
X63305371Y-103936390D01*
X63352990Y-103841152D01*
X63400609Y-103793533D01*
X63495847Y-103745914D01*
X63686323Y-103745914D01*
X63781561Y-103793533D01*
X64257752Y-104412580D02*
X64257752Y-103745914D01*
X64257752Y-103936390D02*
X64305371Y-103841152D01*
X64352990Y-103793533D01*
X64448228Y-103745914D01*
X64543466Y-103745914D01*
X65257752Y-104364961D02*
X65162514Y-104412580D01*
X64972038Y-104412580D01*
X64876800Y-104364961D01*
X64829180Y-104269723D01*
X64829180Y-103888771D01*
X64876800Y-103793533D01*
X64972038Y-103745914D01*
X65162514Y-103745914D01*
X65257752Y-103793533D01*
X65305371Y-103888771D01*
X65305371Y-103984009D01*
X64829180Y-104079247D01*
X66495847Y-104412580D02*
X66495847Y-103412580D01*
X66495847Y-103888771D02*
X67067276Y-103888771D01*
X67067276Y-104412580D02*
X67067276Y-103412580D01*
X67972038Y-104412580D02*
X67972038Y-103888771D01*
X67924419Y-103793533D01*
X67829180Y-103745914D01*
X67638704Y-103745914D01*
X67543466Y-103793533D01*
X67972038Y-104364961D02*
X67876800Y-104412580D01*
X67638704Y-104412580D01*
X67543466Y-104364961D01*
X67495847Y-104269723D01*
X67495847Y-104174485D01*
X67543466Y-104079247D01*
X67638704Y-104031628D01*
X67876800Y-104031628D01*
X67972038Y-103984009D01*
X68305371Y-103745914D02*
X68686323Y-103745914D01*
X68448228Y-103412580D02*
X68448228Y-104269723D01*
X68495847Y-104364961D01*
X68591085Y-104412580D01*
X68686323Y-104412580D01*
X69448228Y-103745914D02*
X69448228Y-104412580D01*
X69019657Y-103745914D02*
X69019657Y-104269723D01*
X69067276Y-104364961D01*
X69162514Y-104412580D01*
X69305371Y-104412580D01*
X69400609Y-104364961D01*
X69448228Y-104317342D01*
X69876800Y-104364961D02*
X69972038Y-104412580D01*
X70162514Y-104412580D01*
X70257752Y-104364961D01*
X70305371Y-104269723D01*
X70305371Y-104222104D01*
X70257752Y-104126866D01*
X70162514Y-104079247D01*
X70019657Y-104079247D01*
X69924419Y-104031628D01*
X69876800Y-103936390D01*
X69876800Y-103888771D01*
X69924419Y-103793533D01*
X70019657Y-103745914D01*
X70162514Y-103745914D01*
X70257752Y-103793533D01*
X70733942Y-104412580D02*
X70733942Y-103412580D01*
X71162514Y-104412580D02*
X71162514Y-103888771D01*
X71114895Y-103793533D01*
X71019657Y-103745914D01*
X70876800Y-103745914D01*
X70781561Y-103793533D01*
X70733942Y-103841152D01*
X71638704Y-104412580D02*
X71638704Y-103745914D01*
X71638704Y-103412580D02*
X71591085Y-103460200D01*
X71638704Y-103507819D01*
X71686323Y-103460200D01*
X71638704Y-103412580D01*
X71638704Y-103507819D01*
X72114895Y-104412580D02*
X72114895Y-103412580D01*
X72210133Y-104031628D02*
X72495847Y-104412580D01*
X72495847Y-103745914D02*
X72114895Y-104126866D01*
X73352990Y-104412580D02*
X73352990Y-103888771D01*
X73305371Y-103793533D01*
X73210133Y-103745914D01*
X73019657Y-103745914D01*
X72924419Y-103793533D01*
X73352990Y-104364961D02*
X73257752Y-104412580D01*
X73019657Y-104412580D01*
X72924419Y-104364961D01*
X72876800Y-104269723D01*
X72876800Y-104174485D01*
X72924419Y-104079247D01*
X73019657Y-104031628D01*
X73257752Y-104031628D01*
X73352990Y-103984009D01*
X73829180Y-103745914D02*
X73829180Y-104412580D01*
X73829180Y-103841152D02*
X73876800Y-103793533D01*
X73972038Y-103745914D01*
X74114895Y-103745914D01*
X74210133Y-103793533D01*
X74257752Y-103888771D01*
X74257752Y-104412580D01*
X74876800Y-104412580D02*
X74781561Y-104364961D01*
X74733942Y-104317342D01*
X74686323Y-104222104D01*
X74686323Y-103936390D01*
X74733942Y-103841152D01*
X74781561Y-103793533D01*
X74876800Y-103745914D01*
X75019657Y-103745914D01*
X75114895Y-103793533D01*
X75162514Y-103841152D01*
X75210133Y-103936390D01*
X75210133Y-104222104D01*
X75162514Y-104317342D01*
X75114895Y-104364961D01*
X75019657Y-104412580D01*
X74876800Y-104412580D01*
X63495847Y-106022580D02*
X63495847Y-105022580D01*
X63733942Y-105022580D01*
X63876800Y-105070200D01*
X63972038Y-105165438D01*
X64019657Y-105260676D01*
X64067276Y-105451152D01*
X64067276Y-105594009D01*
X64019657Y-105784485D01*
X63972038Y-105879723D01*
X63876800Y-105974961D01*
X63733942Y-106022580D01*
X63495847Y-106022580D01*
X64924419Y-106022580D02*
X64924419Y-105498771D01*
X64876800Y-105403533D01*
X64781561Y-105355914D01*
X64591085Y-105355914D01*
X64495847Y-105403533D01*
X64924419Y-105974961D02*
X64829180Y-106022580D01*
X64591085Y-106022580D01*
X64495847Y-105974961D01*
X64448228Y-105879723D01*
X64448228Y-105784485D01*
X64495847Y-105689247D01*
X64591085Y-105641628D01*
X64829180Y-105641628D01*
X64924419Y-105594009D01*
X66352990Y-105546390D02*
X66352990Y-106022580D01*
X66019657Y-105022580D02*
X66352990Y-105546390D01*
X66686323Y-105022580D01*
X67400609Y-105974961D02*
X67305371Y-106022580D01*
X67114895Y-106022580D01*
X67019657Y-105974961D01*
X66972038Y-105879723D01*
X66972038Y-105498771D01*
X67019657Y-105403533D01*
X67114895Y-105355914D01*
X67305371Y-105355914D01*
X67400609Y-105403533D01*
X67448228Y-105498771D01*
X67448228Y-105594009D01*
X66972038Y-105689247D01*
X68019657Y-106022580D02*
X67924419Y-105974961D01*
X67876800Y-105927342D01*
X67829180Y-105832104D01*
X67829180Y-105546390D01*
X67876800Y-105451152D01*
X67924419Y-105403533D01*
X68019657Y-105355914D01*
X68162514Y-105355914D01*
X68257752Y-105403533D01*
X68305371Y-105451152D01*
X68352990Y-105546390D01*
X68352990Y-105832104D01*
X68305371Y-105927342D01*
X68257752Y-105974961D01*
X68162514Y-106022580D01*
X68019657Y-106022580D01*
X68781561Y-105355914D02*
X68781561Y-106022580D01*
X68781561Y-105451152D02*
X68829180Y-105403533D01*
X68924419Y-105355914D01*
X69067276Y-105355914D01*
X69162514Y-105403533D01*
X69210133Y-105498771D01*
X69210133Y-106022580D01*
X70448228Y-106022580D02*
X70448228Y-105022580D01*
X71019657Y-106022580D01*
X71019657Y-105022580D01*
X71924419Y-106022580D02*
X71924419Y-105498771D01*
X71876800Y-105403533D01*
X71781561Y-105355914D01*
X71591085Y-105355914D01*
X71495847Y-105403533D01*
X71924419Y-105974961D02*
X71829180Y-106022580D01*
X71591085Y-106022580D01*
X71495847Y-105974961D01*
X71448228Y-105879723D01*
X71448228Y-105784485D01*
X71495847Y-105689247D01*
X71591085Y-105641628D01*
X71829180Y-105641628D01*
X71924419Y-105594009D01*
X72400609Y-106022580D02*
X72400609Y-105355914D01*
X72400609Y-105451152D02*
X72448228Y-105403533D01*
X72543466Y-105355914D01*
X72686323Y-105355914D01*
X72781561Y-105403533D01*
X72829180Y-105498771D01*
X72829180Y-106022580D01*
X72829180Y-105498771D02*
X72876800Y-105403533D01*
X72972038Y-105355914D01*
X73114895Y-105355914D01*
X73210133Y-105403533D01*
X73257752Y-105498771D01*
X73257752Y-106022580D01*
X64995847Y-106632580D02*
X64995847Y-107346866D01*
X64948228Y-107489723D01*
X64852990Y-107584961D01*
X64710133Y-107632580D01*
X64614895Y-107632580D01*
X65900609Y-107632580D02*
X65900609Y-107108771D01*
X65852990Y-107013533D01*
X65757752Y-106965914D01*
X65567276Y-106965914D01*
X65472038Y-107013533D01*
X65900609Y-107584961D02*
X65805371Y-107632580D01*
X65567276Y-107632580D01*
X65472038Y-107584961D01*
X65424419Y-107489723D01*
X65424419Y-107394485D01*
X65472038Y-107299247D01*
X65567276Y-107251628D01*
X65805371Y-107251628D01*
X65900609Y-107204009D01*
X66376800Y-107632580D02*
X66376800Y-106632580D01*
X66472038Y-107251628D02*
X66757752Y-107632580D01*
X66757752Y-106965914D02*
X66376800Y-107346866D01*
X67567276Y-107584961D02*
X67472038Y-107632580D01*
X67281561Y-107632580D01*
X67186323Y-107584961D01*
X67138704Y-107489723D01*
X67138704Y-107108771D01*
X67186323Y-107013533D01*
X67281561Y-106965914D01*
X67472038Y-106965914D01*
X67567276Y-107013533D01*
X67614895Y-107108771D01*
X67614895Y-107204009D01*
X67138704Y-107299247D01*
X68805371Y-107632580D02*
X68805371Y-106632580D01*
X69043466Y-106632580D01*
X69186323Y-106680200D01*
X69281561Y-106775438D01*
X69329180Y-106870676D01*
X69376800Y-107061152D01*
X69376800Y-107204009D01*
X69329180Y-107394485D01*
X69281561Y-107489723D01*
X69186323Y-107584961D01*
X69043466Y-107632580D01*
X68805371Y-107632580D01*
X69948228Y-107632580D02*
X69852990Y-107584961D01*
X69805371Y-107537342D01*
X69757752Y-107442104D01*
X69757752Y-107156390D01*
X69805371Y-107061152D01*
X69852990Y-107013533D01*
X69948228Y-106965914D01*
X70091085Y-106965914D01*
X70186323Y-107013533D01*
X70233942Y-107061152D01*
X70281561Y-107156390D01*
X70281561Y-107442104D01*
X70233942Y-107537342D01*
X70186323Y-107584961D01*
X70091085Y-107632580D01*
X69948228Y-107632580D01*
X71138704Y-107632580D02*
X71138704Y-107108771D01*
X71091085Y-107013533D01*
X70995847Y-106965914D01*
X70805371Y-106965914D01*
X70710133Y-107013533D01*
X71138704Y-107584961D02*
X71043466Y-107632580D01*
X70805371Y-107632580D01*
X70710133Y-107584961D01*
X70662514Y-107489723D01*
X70662514Y-107394485D01*
X70710133Y-107299247D01*
X70805371Y-107251628D01*
X71043466Y-107251628D01*
X71138704Y-107204009D01*
X71614895Y-106965914D02*
X71614895Y-107632580D01*
X71614895Y-107061152D02*
X71662514Y-107013533D01*
X71757752Y-106965914D01*
X71900609Y-106965914D01*
X71995847Y-107013533D01*
X72043466Y-107108771D01*
X72043466Y-107632580D01*
X64448228Y-108242580D02*
X64448228Y-108956866D01*
X64400609Y-109099723D01*
X64305371Y-109194961D01*
X64162514Y-109242580D01*
X64067276Y-109242580D01*
X65067276Y-109242580D02*
X64972038Y-109194961D01*
X64924419Y-109147342D01*
X64876800Y-109052104D01*
X64876800Y-108766390D01*
X64924419Y-108671152D01*
X64972038Y-108623533D01*
X65067276Y-108575914D01*
X65210133Y-108575914D01*
X65305371Y-108623533D01*
X65352990Y-108671152D01*
X65400609Y-108766390D01*
X65400609Y-109052104D01*
X65352990Y-109147342D01*
X65305371Y-109194961D01*
X65210133Y-109242580D01*
X65067276Y-109242580D01*
X65829180Y-109242580D02*
X65829180Y-108575914D01*
X65829180Y-108766390D02*
X65876800Y-108671152D01*
X65924419Y-108623533D01*
X66019657Y-108575914D01*
X66114895Y-108575914D01*
X66876800Y-108575914D02*
X66876800Y-109385438D01*
X66829180Y-109480676D01*
X66781561Y-109528295D01*
X66686323Y-109575914D01*
X66543466Y-109575914D01*
X66448228Y-109528295D01*
X66876800Y-109194961D02*
X66781561Y-109242580D01*
X66591085Y-109242580D01*
X66495847Y-109194961D01*
X66448228Y-109147342D01*
X66400609Y-109052104D01*
X66400609Y-108766390D01*
X66448228Y-108671152D01*
X66495847Y-108623533D01*
X66591085Y-108575914D01*
X66781561Y-108575914D01*
X66876800Y-108623533D01*
X67733942Y-109194961D02*
X67638704Y-109242580D01*
X67448228Y-109242580D01*
X67352990Y-109194961D01*
X67305371Y-109099723D01*
X67305371Y-108718771D01*
X67352990Y-108623533D01*
X67448228Y-108575914D01*
X67638704Y-108575914D01*
X67733942Y-108623533D01*
X67781561Y-108718771D01*
X67781561Y-108814009D01*
X67305371Y-108909247D01*
X68924419Y-108956866D02*
X69400609Y-108956866D01*
X68829180Y-109242580D02*
X69162514Y-108242580D01*
X69495847Y-109242580D01*
X69829180Y-108575914D02*
X69829180Y-109575914D01*
X69829180Y-108623533D02*
X69924419Y-108575914D01*
X70114895Y-108575914D01*
X70210133Y-108623533D01*
X70257752Y-108671152D01*
X70305371Y-108766390D01*
X70305371Y-109052104D01*
X70257752Y-109147342D01*
X70210133Y-109194961D01*
X70114895Y-109242580D01*
X69924419Y-109242580D01*
X69829180Y-109194961D01*
X70876800Y-109242580D02*
X70781561Y-109194961D01*
X70733942Y-109147342D01*
X70686323Y-109052104D01*
X70686323Y-108766390D01*
X70733942Y-108671152D01*
X70781561Y-108623533D01*
X70876800Y-108575914D01*
X71019657Y-108575914D01*
X71114895Y-108623533D01*
X71162514Y-108671152D01*
X71210133Y-108766390D01*
X71210133Y-109052104D01*
X71162514Y-109147342D01*
X71114895Y-109194961D01*
X71019657Y-109242580D01*
X70876800Y-109242580D01*
X71781561Y-109242580D02*
X71686323Y-109194961D01*
X71638704Y-109099723D01*
X71638704Y-108242580D01*
X72305371Y-109242580D02*
X72210133Y-109194961D01*
X72162514Y-109147342D01*
X72114895Y-109052104D01*
X72114895Y-108766390D01*
X72162514Y-108671152D01*
X72210133Y-108623533D01*
X72305371Y-108575914D01*
X72448228Y-108575914D01*
X72543466Y-108623533D01*
X72591085Y-108671152D01*
X72638704Y-108766390D01*
X72638704Y-109052104D01*
X72591085Y-109147342D01*
X72543466Y-109194961D01*
X72448228Y-109242580D01*
X72305371Y-109242580D01*
X89249714Y-105479380D02*
X89249714Y-104479380D01*
X89583047Y-105193666D01*
X89916380Y-104479380D01*
X89916380Y-105479380D01*
X90821142Y-105479380D02*
X90821142Y-104955571D01*
X90773523Y-104860333D01*
X90678285Y-104812714D01*
X90487809Y-104812714D01*
X90392571Y-104860333D01*
X90821142Y-105431761D02*
X90725904Y-105479380D01*
X90487809Y-105479380D01*
X90392571Y-105431761D01*
X90344952Y-105336523D01*
X90344952Y-105241285D01*
X90392571Y-105146047D01*
X90487809Y-105098428D01*
X90725904Y-105098428D01*
X90821142Y-105050809D01*
X91297333Y-105479380D02*
X91297333Y-104812714D01*
X91297333Y-105003190D02*
X91344952Y-104907952D01*
X91392571Y-104860333D01*
X91487809Y-104812714D01*
X91583047Y-104812714D01*
X91916380Y-105479380D02*
X91916380Y-104812714D01*
X91916380Y-104479380D02*
X91868761Y-104527000D01*
X91916380Y-104574619D01*
X91964000Y-104527000D01*
X91916380Y-104479380D01*
X91916380Y-104574619D01*
X92535428Y-105479380D02*
X92440190Y-105431761D01*
X92392571Y-105384142D01*
X92344952Y-105288904D01*
X92344952Y-105003190D01*
X92392571Y-104907952D01*
X92440190Y-104860333D01*
X92535428Y-104812714D01*
X92678285Y-104812714D01*
X92773523Y-104860333D01*
X92821142Y-104907952D01*
X92868761Y-105003190D01*
X92868761Y-105288904D01*
X92821142Y-105384142D01*
X92773523Y-105431761D01*
X92678285Y-105479380D01*
X92535428Y-105479380D01*
X94059238Y-105479380D02*
X94059238Y-104479380D01*
X94630666Y-105479380D02*
X94202095Y-104907952D01*
X94630666Y-104479380D02*
X94059238Y-105050809D01*
X95487809Y-105479380D02*
X95487809Y-104955571D01*
X95440190Y-104860333D01*
X95344952Y-104812714D01*
X95154476Y-104812714D01*
X95059238Y-104860333D01*
X95487809Y-105431761D02*
X95392571Y-105479380D01*
X95154476Y-105479380D01*
X95059238Y-105431761D01*
X95011619Y-105336523D01*
X95011619Y-105241285D01*
X95059238Y-105146047D01*
X95154476Y-105098428D01*
X95392571Y-105098428D01*
X95487809Y-105050809D01*
X95964000Y-105479380D02*
X95964000Y-104812714D01*
X95964000Y-105003190D02*
X96011619Y-104907952D01*
X96059238Y-104860333D01*
X96154476Y-104812714D01*
X96249714Y-104812714D01*
X96440190Y-104812714D02*
X96821142Y-104812714D01*
X96583047Y-104479380D02*
X96583047Y-105336523D01*
X96630666Y-105431761D01*
X96725904Y-105479380D01*
X96821142Y-105479380D01*
X89606857Y-106565571D02*
X89940190Y-106565571D01*
X90083047Y-107089380D02*
X89606857Y-107089380D01*
X89606857Y-106089380D01*
X90083047Y-106089380D01*
X91083047Y-106994142D02*
X91035428Y-107041761D01*
X90892571Y-107089380D01*
X90797333Y-107089380D01*
X90654476Y-107041761D01*
X90559238Y-106946523D01*
X90511619Y-106851285D01*
X90464000Y-106660809D01*
X90464000Y-106517952D01*
X90511619Y-106327476D01*
X90559238Y-106232238D01*
X90654476Y-106137000D01*
X90797333Y-106089380D01*
X90892571Y-106089380D01*
X91035428Y-106137000D01*
X91083047Y-106184619D01*
X91511619Y-106565571D02*
X91844952Y-106565571D01*
X91987809Y-107089380D02*
X91511619Y-107089380D01*
X91511619Y-106089380D01*
X91987809Y-106089380D01*
X93606857Y-106422714D02*
X93606857Y-107089380D01*
X93368761Y-106041761D02*
X93130666Y-106756047D01*
X93749714Y-106756047D01*
X94035428Y-106089380D02*
X94702095Y-106089380D01*
X94273523Y-107089380D01*
X94987809Y-106089380D02*
X95654476Y-106089380D01*
X95225904Y-107089380D01*
X90273523Y-107699380D02*
X90844952Y-107699380D01*
X90559238Y-108699380D02*
X90559238Y-107699380D01*
X91559238Y-108651761D02*
X91464000Y-108699380D01*
X91273523Y-108699380D01*
X91178285Y-108651761D01*
X91130666Y-108556523D01*
X91130666Y-108175571D01*
X91178285Y-108080333D01*
X91273523Y-108032714D01*
X91464000Y-108032714D01*
X91559238Y-108080333D01*
X91606857Y-108175571D01*
X91606857Y-108270809D01*
X91130666Y-108366047D01*
X92464000Y-108699380D02*
X92464000Y-108175571D01*
X92416380Y-108080333D01*
X92321142Y-108032714D01*
X92130666Y-108032714D01*
X92035428Y-108080333D01*
X92464000Y-108651761D02*
X92368761Y-108699380D01*
X92130666Y-108699380D01*
X92035428Y-108651761D01*
X91987809Y-108556523D01*
X91987809Y-108461285D01*
X92035428Y-108366047D01*
X92130666Y-108318428D01*
X92368761Y-108318428D01*
X92464000Y-108270809D01*
X92940190Y-108699380D02*
X92940190Y-108032714D01*
X92940190Y-108127952D02*
X92987809Y-108080333D01*
X93083047Y-108032714D01*
X93225904Y-108032714D01*
X93321142Y-108080333D01*
X93368761Y-108175571D01*
X93368761Y-108699380D01*
X93368761Y-108175571D02*
X93416380Y-108080333D01*
X93511619Y-108032714D01*
X93654476Y-108032714D01*
X93749714Y-108080333D01*
X93797333Y-108175571D01*
X93797333Y-108699380D01*
X95464000Y-107699380D02*
X95273523Y-107699380D01*
X95178285Y-107747000D01*
X95130666Y-107794619D01*
X95035428Y-107937476D01*
X94987809Y-108127952D01*
X94987809Y-108508904D01*
X95035428Y-108604142D01*
X95083047Y-108651761D01*
X95178285Y-108699380D01*
X95368761Y-108699380D01*
X95464000Y-108651761D01*
X95511619Y-108604142D01*
X95559238Y-108508904D01*
X95559238Y-108270809D01*
X95511619Y-108175571D01*
X95464000Y-108127952D01*
X95368761Y-108080333D01*
X95178285Y-108080333D01*
X95083047Y-108127952D01*
X95035428Y-108175571D01*
X94987809Y-108270809D01*
X90630666Y-110214142D02*
X90583047Y-110261761D01*
X90440190Y-110309380D01*
X90344952Y-110309380D01*
X90202095Y-110261761D01*
X90106857Y-110166523D01*
X90059238Y-110071285D01*
X90011619Y-109880809D01*
X90011619Y-109737952D01*
X90059238Y-109547476D01*
X90106857Y-109452238D01*
X90202095Y-109357000D01*
X90344952Y-109309380D01*
X90440190Y-109309380D01*
X90583047Y-109357000D01*
X90630666Y-109404619D01*
X91487809Y-110309380D02*
X91487809Y-109785571D01*
X91440190Y-109690333D01*
X91344952Y-109642714D01*
X91154476Y-109642714D01*
X91059238Y-109690333D01*
X91487809Y-110261761D02*
X91392571Y-110309380D01*
X91154476Y-110309380D01*
X91059238Y-110261761D01*
X91011619Y-110166523D01*
X91011619Y-110071285D01*
X91059238Y-109976047D01*
X91154476Y-109928428D01*
X91392571Y-109928428D01*
X91487809Y-109880809D01*
X91964000Y-110309380D02*
X91964000Y-109642714D01*
X91964000Y-109833190D02*
X92011619Y-109737952D01*
X92059238Y-109690333D01*
X92154476Y-109642714D01*
X92249714Y-109642714D01*
X93344952Y-110309380D02*
X93344952Y-109309380D01*
X93725904Y-109309380D01*
X93821142Y-109357000D01*
X93868761Y-109404619D01*
X93916380Y-109499857D01*
X93916380Y-109642714D01*
X93868761Y-109737952D01*
X93821142Y-109785571D01*
X93725904Y-109833190D01*
X93344952Y-109833190D01*
X94916380Y-110214142D02*
X94868761Y-110261761D01*
X94725904Y-110309380D01*
X94630666Y-110309380D01*
X94487809Y-110261761D01*
X94392571Y-110166523D01*
X94344952Y-110071285D01*
X94297333Y-109880809D01*
X94297333Y-109737952D01*
X94344952Y-109547476D01*
X94392571Y-109452238D01*
X94487809Y-109357000D01*
X94630666Y-109309380D01*
X94725904Y-109309380D01*
X94868761Y-109357000D01*
X94916380Y-109404619D01*
X95678285Y-109785571D02*
X95821142Y-109833190D01*
X95868761Y-109880809D01*
X95916380Y-109976047D01*
X95916380Y-110118904D01*
X95868761Y-110214142D01*
X95821142Y-110261761D01*
X95725904Y-110309380D01*
X95344952Y-110309380D01*
X95344952Y-109309380D01*
X95678285Y-109309380D01*
X95773523Y-109357000D01*
X95821142Y-109404619D01*
X95868761Y-109499857D01*
X95868761Y-109595095D01*
X95821142Y-109690333D01*
X95773523Y-109737952D01*
X95678285Y-109785571D01*
X95344952Y-109785571D01*
%TO.C,SW2*%
X106310666Y-67951561D02*
X106453523Y-67999180D01*
X106691619Y-67999180D01*
X106786857Y-67951561D01*
X106834476Y-67903942D01*
X106882095Y-67808704D01*
X106882095Y-67713466D01*
X106834476Y-67618228D01*
X106786857Y-67570609D01*
X106691619Y-67522990D01*
X106501142Y-67475371D01*
X106405904Y-67427752D01*
X106358285Y-67380133D01*
X106310666Y-67284895D01*
X106310666Y-67189657D01*
X106358285Y-67094419D01*
X106405904Y-67046800D01*
X106501142Y-66999180D01*
X106739238Y-66999180D01*
X106882095Y-67046800D01*
X107215428Y-66999180D02*
X107453523Y-67999180D01*
X107644000Y-67284895D01*
X107834476Y-67999180D01*
X108072571Y-66999180D01*
X108405904Y-67094419D02*
X108453523Y-67046800D01*
X108548761Y-66999180D01*
X108786857Y-66999180D01*
X108882095Y-67046800D01*
X108929714Y-67094419D01*
X108977333Y-67189657D01*
X108977333Y-67284895D01*
X108929714Y-67427752D01*
X108358285Y-67999180D01*
X108977333Y-67999180D01*
%TO.C,R1*%
X67177180Y-80885966D02*
X66700990Y-81219300D01*
X67177180Y-81457395D02*
X66177180Y-81457395D01*
X66177180Y-81076442D01*
X66224800Y-80981204D01*
X66272419Y-80933585D01*
X66367657Y-80885966D01*
X66510514Y-80885966D01*
X66605752Y-80933585D01*
X66653371Y-80981204D01*
X66700990Y-81076442D01*
X66700990Y-81457395D01*
X67177180Y-79933585D02*
X67177180Y-80505014D01*
X67177180Y-80219300D02*
X66177180Y-80219300D01*
X66320038Y-80314538D01*
X66415276Y-80409776D01*
X66462895Y-80505014D01*
%TO.C,D4*%
X111831380Y-91492295D02*
X110831380Y-91492295D01*
X110831380Y-91254200D01*
X110879000Y-91111342D01*
X110974238Y-91016104D01*
X111069476Y-90968485D01*
X111259952Y-90920866D01*
X111402809Y-90920866D01*
X111593285Y-90968485D01*
X111688523Y-91016104D01*
X111783761Y-91111342D01*
X111831380Y-91254200D01*
X111831380Y-91492295D01*
X111164714Y-90063723D02*
X111831380Y-90063723D01*
X110783761Y-90301819D02*
X111498047Y-90539914D01*
X111498047Y-89920866D01*
%TO.C,J4*%
X117319466Y-83780380D02*
X117319466Y-84494666D01*
X117271847Y-84637523D01*
X117176609Y-84732761D01*
X117033752Y-84780380D01*
X116938514Y-84780380D01*
X118224228Y-84113714D02*
X118224228Y-84780380D01*
X117986133Y-83732761D02*
X117748038Y-84447047D01*
X118367085Y-84447047D01*
%TO.C,C7*%
X77658933Y-74118742D02*
X77611314Y-74166361D01*
X77468457Y-74213980D01*
X77373219Y-74213980D01*
X77230361Y-74166361D01*
X77135123Y-74071123D01*
X77087504Y-73975885D01*
X77039885Y-73785409D01*
X77039885Y-73642552D01*
X77087504Y-73452076D01*
X77135123Y-73356838D01*
X77230361Y-73261600D01*
X77373219Y-73213980D01*
X77468457Y-73213980D01*
X77611314Y-73261600D01*
X77658933Y-73309219D01*
X77992266Y-73213980D02*
X78658933Y-73213980D01*
X78230361Y-74213980D01*
%TO.C,R2*%
X75711580Y-89320666D02*
X75235390Y-89654000D01*
X75711580Y-89892095D02*
X74711580Y-89892095D01*
X74711580Y-89511142D01*
X74759200Y-89415904D01*
X74806819Y-89368285D01*
X74902057Y-89320666D01*
X75044914Y-89320666D01*
X75140152Y-89368285D01*
X75187771Y-89415904D01*
X75235390Y-89511142D01*
X75235390Y-89892095D01*
X74806819Y-88939714D02*
X74759200Y-88892095D01*
X74711580Y-88796857D01*
X74711580Y-88558761D01*
X74759200Y-88463523D01*
X74806819Y-88415904D01*
X74902057Y-88368285D01*
X74997295Y-88368285D01*
X75140152Y-88415904D01*
X75711580Y-88987333D01*
X75711580Y-88368285D01*
%TO.C,R7*%
X102052380Y-76061866D02*
X101576190Y-76395200D01*
X102052380Y-76633295D02*
X101052380Y-76633295D01*
X101052380Y-76252342D01*
X101100000Y-76157104D01*
X101147619Y-76109485D01*
X101242857Y-76061866D01*
X101385714Y-76061866D01*
X101480952Y-76109485D01*
X101528571Y-76157104D01*
X101576190Y-76252342D01*
X101576190Y-76633295D01*
X101052380Y-75728533D02*
X101052380Y-75061866D01*
X102052380Y-75490438D01*
%TO.C,D5*%
X92984580Y-98604295D02*
X91984580Y-98604295D01*
X91984580Y-98366200D01*
X92032200Y-98223342D01*
X92127438Y-98128104D01*
X92222676Y-98080485D01*
X92413152Y-98032866D01*
X92556009Y-98032866D01*
X92746485Y-98080485D01*
X92841723Y-98128104D01*
X92936961Y-98223342D01*
X92984580Y-98366200D01*
X92984580Y-98604295D01*
X91984580Y-97128104D02*
X91984580Y-97604295D01*
X92460771Y-97651914D01*
X92413152Y-97604295D01*
X92365533Y-97509057D01*
X92365533Y-97270961D01*
X92413152Y-97175723D01*
X92460771Y-97128104D01*
X92556009Y-97080485D01*
X92794104Y-97080485D01*
X92889342Y-97128104D01*
X92936961Y-97175723D01*
X92984580Y-97270961D01*
X92984580Y-97509057D01*
X92936961Y-97604295D01*
X92889342Y-97651914D01*
%TO.C,J1*%
X120011866Y-74985180D02*
X120011866Y-75699466D01*
X119964247Y-75842323D01*
X119869009Y-75937561D01*
X119726152Y-75985180D01*
X119630914Y-75985180D01*
X121011866Y-75985180D02*
X120440438Y-75985180D01*
X120726152Y-75985180D02*
X120726152Y-74985180D01*
X120630914Y-75128038D01*
X120535676Y-75223276D01*
X120440438Y-75270895D01*
%TO.C,J2*%
X110568780Y-108943733D02*
X111283066Y-108943733D01*
X111425923Y-108991352D01*
X111521161Y-109086590D01*
X111568780Y-109229447D01*
X111568780Y-109324685D01*
X110664019Y-108515161D02*
X110616400Y-108467542D01*
X110568780Y-108372304D01*
X110568780Y-108134209D01*
X110616400Y-108038971D01*
X110664019Y-107991352D01*
X110759257Y-107943733D01*
X110854495Y-107943733D01*
X110997352Y-107991352D01*
X111568780Y-108562780D01*
X111568780Y-107943733D01*
%TO.C,R4*%
X65805580Y-89320666D02*
X65329390Y-89654000D01*
X65805580Y-89892095D02*
X64805580Y-89892095D01*
X64805580Y-89511142D01*
X64853200Y-89415904D01*
X64900819Y-89368285D01*
X64996057Y-89320666D01*
X65138914Y-89320666D01*
X65234152Y-89368285D01*
X65281771Y-89415904D01*
X65329390Y-89511142D01*
X65329390Y-89892095D01*
X65138914Y-88463523D02*
X65805580Y-88463523D01*
X64757961Y-88701619D02*
X65472247Y-88939714D01*
X65472247Y-88320666D01*
%TO.C,H3*%
X113080895Y-52324380D02*
X113080895Y-51324380D01*
X113080895Y-51800571D02*
X113652323Y-51800571D01*
X113652323Y-52324380D02*
X113652323Y-51324380D01*
X114033276Y-51324380D02*
X114652323Y-51324380D01*
X114318990Y-51705333D01*
X114461847Y-51705333D01*
X114557085Y-51752952D01*
X114604704Y-51800571D01*
X114652323Y-51895809D01*
X114652323Y-52133904D01*
X114604704Y-52229142D01*
X114557085Y-52276761D01*
X114461847Y-52324380D01*
X114176133Y-52324380D01*
X114080895Y-52276761D01*
X114033276Y-52229142D01*
%TO.C,D3*%
X105176580Y-91746295D02*
X104176580Y-91746295D01*
X104176580Y-91508200D01*
X104224200Y-91365342D01*
X104319438Y-91270104D01*
X104414676Y-91222485D01*
X104605152Y-91174866D01*
X104748009Y-91174866D01*
X104938485Y-91222485D01*
X105033723Y-91270104D01*
X105128961Y-91365342D01*
X105176580Y-91508200D01*
X105176580Y-91746295D01*
X104176580Y-90841533D02*
X104176580Y-90222485D01*
X104557533Y-90555819D01*
X104557533Y-90412961D01*
X104605152Y-90317723D01*
X104652771Y-90270104D01*
X104748009Y-90222485D01*
X104986104Y-90222485D01*
X105081342Y-90270104D01*
X105128961Y-90317723D01*
X105176580Y-90412961D01*
X105176580Y-90698676D01*
X105128961Y-90793914D01*
X105081342Y-90841533D01*
D11*
%TO.C,Q2*%
X92182647Y-75269876D02*
X92061695Y-75209400D01*
X91940742Y-75088447D01*
X91759314Y-74907019D01*
X91638361Y-74846542D01*
X91517409Y-74846542D01*
X91577885Y-75148923D02*
X91456933Y-75088447D01*
X91335980Y-74967495D01*
X91275504Y-74725590D01*
X91275504Y-74302257D01*
X91335980Y-74060352D01*
X91456933Y-73939400D01*
X91577885Y-73878923D01*
X91819790Y-73878923D01*
X91940742Y-73939400D01*
X92061695Y-74060352D01*
X92122171Y-74302257D01*
X92122171Y-74725590D01*
X92061695Y-74967495D01*
X91940742Y-75088447D01*
X91819790Y-75148923D01*
X91577885Y-75148923D01*
X92605980Y-73999876D02*
X92666457Y-73939400D01*
X92787409Y-73878923D01*
X93089790Y-73878923D01*
X93210742Y-73939400D01*
X93271219Y-73999876D01*
X93331695Y-74120828D01*
X93331695Y-74241780D01*
X93271219Y-74423209D01*
X92545504Y-75148923D01*
X93331695Y-75148923D01*
%TO.C,D9*%
X107520619Y-58842123D02*
X107520619Y-57572123D01*
X107823000Y-57572123D01*
X108004428Y-57632600D01*
X108125380Y-57753552D01*
X108185857Y-57874504D01*
X108246333Y-58116409D01*
X108246333Y-58297838D01*
X108185857Y-58539742D01*
X108125380Y-58660695D01*
X108004428Y-58781647D01*
X107823000Y-58842123D01*
X107520619Y-58842123D01*
X108851095Y-58842123D02*
X109093000Y-58842123D01*
X109213952Y-58781647D01*
X109274428Y-58721171D01*
X109395380Y-58539742D01*
X109455857Y-58297838D01*
X109455857Y-57814028D01*
X109395380Y-57693076D01*
X109334904Y-57632600D01*
X109213952Y-57572123D01*
X108972047Y-57572123D01*
X108851095Y-57632600D01*
X108790619Y-57693076D01*
X108730142Y-57814028D01*
X108730142Y-58116409D01*
X108790619Y-58237361D01*
X108851095Y-58297838D01*
X108972047Y-58358314D01*
X109213952Y-58358314D01*
X109334904Y-58297838D01*
X109395380Y-58237361D01*
X109455857Y-58116409D01*
D10*
%TO.C,R8*%
X88479333Y-80309980D02*
X88146000Y-79833790D01*
X87907904Y-80309980D02*
X87907904Y-79309980D01*
X88288857Y-79309980D01*
X88384095Y-79357600D01*
X88431714Y-79405219D01*
X88479333Y-79500457D01*
X88479333Y-79643314D01*
X88431714Y-79738552D01*
X88384095Y-79786171D01*
X88288857Y-79833790D01*
X87907904Y-79833790D01*
X89050761Y-79738552D02*
X88955523Y-79690933D01*
X88907904Y-79643314D01*
X88860285Y-79548076D01*
X88860285Y-79500457D01*
X88907904Y-79405219D01*
X88955523Y-79357600D01*
X89050761Y-79309980D01*
X89241238Y-79309980D01*
X89336476Y-79357600D01*
X89384095Y-79405219D01*
X89431714Y-79500457D01*
X89431714Y-79548076D01*
X89384095Y-79643314D01*
X89336476Y-79690933D01*
X89241238Y-79738552D01*
X89050761Y-79738552D01*
X88955523Y-79786171D01*
X88907904Y-79833790D01*
X88860285Y-79929028D01*
X88860285Y-80119504D01*
X88907904Y-80214742D01*
X88955523Y-80262361D01*
X89050761Y-80309980D01*
X89241238Y-80309980D01*
X89336476Y-80262361D01*
X89384095Y-80214742D01*
X89431714Y-80119504D01*
X89431714Y-79929028D01*
X89384095Y-79833790D01*
X89336476Y-79786171D01*
X89241238Y-79738552D01*
%TO.C,H4*%
X60909295Y-108046780D02*
X60909295Y-107046780D01*
X60909295Y-107522971D02*
X61480723Y-107522971D01*
X61480723Y-108046780D02*
X61480723Y-107046780D01*
X62385485Y-107380114D02*
X62385485Y-108046780D01*
X62147390Y-106999161D02*
X61909295Y-107713447D01*
X62528342Y-107713447D01*
%TO.C,J3*%
X55394266Y-80789980D02*
X55394266Y-81504266D01*
X55346647Y-81647123D01*
X55251409Y-81742361D01*
X55108552Y-81789980D01*
X55013314Y-81789980D01*
X55775219Y-80789980D02*
X56394266Y-80789980D01*
X56060933Y-81170933D01*
X56203790Y-81170933D01*
X56299028Y-81218552D01*
X56346647Y-81266171D01*
X56394266Y-81361409D01*
X56394266Y-81599504D01*
X56346647Y-81694742D01*
X56299028Y-81742361D01*
X56203790Y-81789980D01*
X55918076Y-81789980D01*
X55822838Y-81742361D01*
X55775219Y-81694742D01*
%TO.C,R3*%
X70783980Y-89473066D02*
X70307790Y-89806400D01*
X70783980Y-90044495D02*
X69783980Y-90044495D01*
X69783980Y-89663542D01*
X69831600Y-89568304D01*
X69879219Y-89520685D01*
X69974457Y-89473066D01*
X70117314Y-89473066D01*
X70212552Y-89520685D01*
X70260171Y-89568304D01*
X70307790Y-89663542D01*
X70307790Y-90044495D01*
X69783980Y-89139733D02*
X69783980Y-88520685D01*
X70164933Y-88854019D01*
X70164933Y-88711161D01*
X70212552Y-88615923D01*
X70260171Y-88568304D01*
X70355409Y-88520685D01*
X70593504Y-88520685D01*
X70688742Y-88568304D01*
X70736361Y-88615923D01*
X70783980Y-88711161D01*
X70783980Y-88996876D01*
X70736361Y-89092114D01*
X70688742Y-89139733D01*
%TO.C,R5*%
X75305180Y-80940566D02*
X74828990Y-81273900D01*
X75305180Y-81511995D02*
X74305180Y-81511995D01*
X74305180Y-81131042D01*
X74352800Y-81035804D01*
X74400419Y-80988185D01*
X74495657Y-80940566D01*
X74638514Y-80940566D01*
X74733752Y-80988185D01*
X74781371Y-81035804D01*
X74828990Y-81131042D01*
X74828990Y-81511995D01*
X74305180Y-80035804D02*
X74305180Y-80511995D01*
X74781371Y-80559614D01*
X74733752Y-80511995D01*
X74686133Y-80416757D01*
X74686133Y-80178661D01*
X74733752Y-80083423D01*
X74781371Y-80035804D01*
X74876609Y-79988185D01*
X75114704Y-79988185D01*
X75209942Y-80035804D01*
X75257561Y-80083423D01*
X75305180Y-80178661D01*
X75305180Y-80416757D01*
X75257561Y-80511995D01*
X75209942Y-80559614D01*
%TO.C,H1*%
X62738095Y-52623980D02*
X62738095Y-51623980D01*
X62738095Y-52100171D02*
X63309523Y-52100171D01*
X63309523Y-52623980D02*
X63309523Y-51623980D01*
X64309523Y-52623980D02*
X63738095Y-52623980D01*
X64023809Y-52623980D02*
X64023809Y-51623980D01*
X63928571Y-51766838D01*
X63833333Y-51862076D01*
X63738095Y-51909695D01*
%TO.C,U1*%
X74672180Y-94696104D02*
X75481704Y-94696104D01*
X75576942Y-94648485D01*
X75624561Y-94600866D01*
X75672180Y-94505628D01*
X75672180Y-94315152D01*
X75624561Y-94219914D01*
X75576942Y-94172295D01*
X75481704Y-94124676D01*
X74672180Y-94124676D01*
X75672180Y-93124676D02*
X75672180Y-93696104D01*
X75672180Y-93410390D02*
X74672180Y-93410390D01*
X74815038Y-93505628D01*
X74910276Y-93600866D01*
X74957895Y-93696104D01*
%TO.C,C3*%
X100163333Y-83110342D02*
X100115714Y-83157961D01*
X99972857Y-83205580D01*
X99877619Y-83205580D01*
X99734761Y-83157961D01*
X99639523Y-83062723D01*
X99591904Y-82967485D01*
X99544285Y-82777009D01*
X99544285Y-82634152D01*
X99591904Y-82443676D01*
X99639523Y-82348438D01*
X99734761Y-82253200D01*
X99877619Y-82205580D01*
X99972857Y-82205580D01*
X100115714Y-82253200D01*
X100163333Y-82300819D01*
X100496666Y-82205580D02*
X101115714Y-82205580D01*
X100782380Y-82586533D01*
X100925238Y-82586533D01*
X101020476Y-82634152D01*
X101068095Y-82681771D01*
X101115714Y-82777009D01*
X101115714Y-83015104D01*
X101068095Y-83110342D01*
X101020476Y-83157961D01*
X100925238Y-83205580D01*
X100639523Y-83205580D01*
X100544285Y-83157961D01*
X100496666Y-83110342D01*
%TO.C,D6*%
X98801180Y-96851695D02*
X97801180Y-96851695D01*
X97801180Y-96613600D01*
X97848800Y-96470742D01*
X97944038Y-96375504D01*
X98039276Y-96327885D01*
X98229752Y-96280266D01*
X98372609Y-96280266D01*
X98563085Y-96327885D01*
X98658323Y-96375504D01*
X98753561Y-96470742D01*
X98801180Y-96613600D01*
X98801180Y-96851695D01*
X97801180Y-95423123D02*
X97801180Y-95613600D01*
X97848800Y-95708838D01*
X97896419Y-95756457D01*
X98039276Y-95851695D01*
X98229752Y-95899314D01*
X98610704Y-95899314D01*
X98705942Y-95851695D01*
X98753561Y-95804076D01*
X98801180Y-95708838D01*
X98801180Y-95518361D01*
X98753561Y-95423123D01*
X98705942Y-95375504D01*
X98610704Y-95327885D01*
X98372609Y-95327885D01*
X98277371Y-95375504D01*
X98229752Y-95423123D01*
X98182133Y-95518361D01*
X98182133Y-95708838D01*
X98229752Y-95804076D01*
X98277371Y-95851695D01*
X98372609Y-95899314D01*
%TO.C,D2*%
X99385380Y-91695495D02*
X98385380Y-91695495D01*
X98385380Y-91457400D01*
X98433000Y-91314542D01*
X98528238Y-91219304D01*
X98623476Y-91171685D01*
X98813952Y-91124066D01*
X98956809Y-91124066D01*
X99147285Y-91171685D01*
X99242523Y-91219304D01*
X99337761Y-91314542D01*
X99385380Y-91457400D01*
X99385380Y-91695495D01*
X98480619Y-90743114D02*
X98433000Y-90695495D01*
X98385380Y-90600257D01*
X98385380Y-90362161D01*
X98433000Y-90266923D01*
X98480619Y-90219304D01*
X98575857Y-90171685D01*
X98671095Y-90171685D01*
X98813952Y-90219304D01*
X99385380Y-90790733D01*
X99385380Y-90171685D01*
%TO.C,D1*%
X93517980Y-92381295D02*
X92517980Y-92381295D01*
X92517980Y-92143200D01*
X92565600Y-92000342D01*
X92660838Y-91905104D01*
X92756076Y-91857485D01*
X92946552Y-91809866D01*
X93089409Y-91809866D01*
X93279885Y-91857485D01*
X93375123Y-91905104D01*
X93470361Y-92000342D01*
X93517980Y-92143200D01*
X93517980Y-92381295D01*
X93517980Y-90857485D02*
X93517980Y-91428914D01*
X93517980Y-91143200D02*
X92517980Y-91143200D01*
X92660838Y-91238438D01*
X92756076Y-91333676D01*
X92803695Y-91428914D01*
%TO.C,SW1*%
X62115866Y-61396761D02*
X62258723Y-61444380D01*
X62496819Y-61444380D01*
X62592057Y-61396761D01*
X62639676Y-61349142D01*
X62687295Y-61253904D01*
X62687295Y-61158666D01*
X62639676Y-61063428D01*
X62592057Y-61015809D01*
X62496819Y-60968190D01*
X62306342Y-60920571D01*
X62211104Y-60872952D01*
X62163485Y-60825333D01*
X62115866Y-60730095D01*
X62115866Y-60634857D01*
X62163485Y-60539619D01*
X62211104Y-60492000D01*
X62306342Y-60444380D01*
X62544438Y-60444380D01*
X62687295Y-60492000D01*
X63020628Y-60444380D02*
X63258723Y-61444380D01*
X63449200Y-60730095D01*
X63639676Y-61444380D01*
X63877771Y-60444380D01*
X64782533Y-61444380D02*
X64211104Y-61444380D01*
X64496819Y-61444380D02*
X64496819Y-60444380D01*
X64401580Y-60587238D01*
X64306342Y-60682476D01*
X64211104Y-60730095D01*
%TO.C,J6*%
X59661466Y-97547180D02*
X59661466Y-98261466D01*
X59613847Y-98404323D01*
X59518609Y-98499561D01*
X59375752Y-98547180D01*
X59280514Y-98547180D01*
X60566228Y-97547180D02*
X60375752Y-97547180D01*
X60280514Y-97594800D01*
X60232895Y-97642419D01*
X60137657Y-97785276D01*
X60090038Y-97975752D01*
X60090038Y-98356704D01*
X60137657Y-98451942D01*
X60185276Y-98499561D01*
X60280514Y-98547180D01*
X60470990Y-98547180D01*
X60566228Y-98499561D01*
X60613847Y-98451942D01*
X60661466Y-98356704D01*
X60661466Y-98118609D01*
X60613847Y-98023371D01*
X60566228Y-97975752D01*
X60470990Y-97928133D01*
X60280514Y-97928133D01*
X60185276Y-97975752D01*
X60137657Y-98023371D01*
X60090038Y-98118609D01*
%TO.C,J5*%
X57883466Y-51471580D02*
X57883466Y-52185866D01*
X57835847Y-52328723D01*
X57740609Y-52423961D01*
X57597752Y-52471580D01*
X57502514Y-52471580D01*
X58835847Y-51471580D02*
X58359657Y-51471580D01*
X58312038Y-51947771D01*
X58359657Y-51900152D01*
X58454895Y-51852533D01*
X58692990Y-51852533D01*
X58788228Y-51900152D01*
X58835847Y-51947771D01*
X58883466Y-52043009D01*
X58883466Y-52281104D01*
X58835847Y-52376342D01*
X58788228Y-52423961D01*
X58692990Y-52471580D01*
X58454895Y-52471580D01*
X58359657Y-52423961D01*
X58312038Y-52376342D01*
%TO.C,R6*%
X71139580Y-80887866D02*
X70663390Y-81221200D01*
X71139580Y-81459295D02*
X70139580Y-81459295D01*
X70139580Y-81078342D01*
X70187200Y-80983104D01*
X70234819Y-80935485D01*
X70330057Y-80887866D01*
X70472914Y-80887866D01*
X70568152Y-80935485D01*
X70615771Y-80983104D01*
X70663390Y-81078342D01*
X70663390Y-81459295D01*
X70139580Y-80030723D02*
X70139580Y-80221200D01*
X70187200Y-80316438D01*
X70234819Y-80364057D01*
X70377676Y-80459295D01*
X70568152Y-80506914D01*
X70949104Y-80506914D01*
X71044342Y-80459295D01*
X71091961Y-80411676D01*
X71139580Y-80316438D01*
X71139580Y-80125961D01*
X71091961Y-80030723D01*
X71044342Y-79983104D01*
X70949104Y-79935485D01*
X70711009Y-79935485D01*
X70615771Y-79983104D01*
X70568152Y-80030723D01*
X70520533Y-80125961D01*
X70520533Y-80316438D01*
X70568152Y-80411676D01*
X70615771Y-80459295D01*
X70711009Y-80506914D01*
%TO.C,IC1*%
X79948209Y-71419980D02*
X79948209Y-70419980D01*
X80995828Y-71324742D02*
X80948209Y-71372361D01*
X80805352Y-71419980D01*
X80710114Y-71419980D01*
X80567257Y-71372361D01*
X80472019Y-71277123D01*
X80424400Y-71181885D01*
X80376780Y-70991409D01*
X80376780Y-70848552D01*
X80424400Y-70658076D01*
X80472019Y-70562838D01*
X80567257Y-70467600D01*
X80710114Y-70419980D01*
X80805352Y-70419980D01*
X80948209Y-70467600D01*
X80995828Y-70515219D01*
X81948209Y-71419980D02*
X81376780Y-71419980D01*
X81662495Y-71419980D02*
X81662495Y-70419980D01*
X81567257Y-70562838D01*
X81472019Y-70658076D01*
X81376780Y-70705695D01*
%TO.C,H2*%
X105359295Y-102565580D02*
X105359295Y-101565580D01*
X105359295Y-102041771D02*
X105930723Y-102041771D01*
X105930723Y-102565580D02*
X105930723Y-101565580D01*
X106359295Y-101660819D02*
X106406914Y-101613200D01*
X106502152Y-101565580D01*
X106740247Y-101565580D01*
X106835485Y-101613200D01*
X106883104Y-101660819D01*
X106930723Y-101756057D01*
X106930723Y-101851295D01*
X106883104Y-101994152D01*
X106311676Y-102565580D01*
X106930723Y-102565580D01*
%TO.C,D7*%
X105074980Y-98553495D02*
X104074980Y-98553495D01*
X104074980Y-98315400D01*
X104122600Y-98172542D01*
X104217838Y-98077304D01*
X104313076Y-98029685D01*
X104503552Y-97982066D01*
X104646409Y-97982066D01*
X104836885Y-98029685D01*
X104932123Y-98077304D01*
X105027361Y-98172542D01*
X105074980Y-98315400D01*
X105074980Y-98553495D01*
X104074980Y-97648733D02*
X104074980Y-96982066D01*
X105074980Y-97410638D01*
%TO.C,R10*%
X101820742Y-62808380D02*
X101487409Y-62332190D01*
X101249314Y-62808380D02*
X101249314Y-61808380D01*
X101630266Y-61808380D01*
X101725504Y-61856000D01*
X101773123Y-61903619D01*
X101820742Y-61998857D01*
X101820742Y-62141714D01*
X101773123Y-62236952D01*
X101725504Y-62284571D01*
X101630266Y-62332190D01*
X101249314Y-62332190D01*
X102773123Y-62808380D02*
X102201695Y-62808380D01*
X102487409Y-62808380D02*
X102487409Y-61808380D01*
X102392171Y-61951238D01*
X102296933Y-62046476D01*
X102201695Y-62094095D01*
X103392171Y-61808380D02*
X103487409Y-61808380D01*
X103582647Y-61856000D01*
X103630266Y-61903619D01*
X103677885Y-61998857D01*
X103725504Y-62189333D01*
X103725504Y-62427428D01*
X103677885Y-62617904D01*
X103630266Y-62713142D01*
X103582647Y-62760761D01*
X103487409Y-62808380D01*
X103392171Y-62808380D01*
X103296933Y-62760761D01*
X103249314Y-62713142D01*
X103201695Y-62617904D01*
X103154076Y-62427428D01*
X103154076Y-62189333D01*
X103201695Y-61998857D01*
X103249314Y-61903619D01*
X103296933Y-61856000D01*
X103392171Y-61808380D01*
%TO.C,C4*%
X104293333Y-58018742D02*
X104245714Y-58066361D01*
X104102857Y-58113980D01*
X104007619Y-58113980D01*
X103864761Y-58066361D01*
X103769523Y-57971123D01*
X103721904Y-57875885D01*
X103674285Y-57685409D01*
X103674285Y-57542552D01*
X103721904Y-57352076D01*
X103769523Y-57256838D01*
X103864761Y-57161600D01*
X104007619Y-57113980D01*
X104102857Y-57113980D01*
X104245714Y-57161600D01*
X104293333Y-57209219D01*
X105150476Y-57447314D02*
X105150476Y-58113980D01*
X104912380Y-57066361D02*
X104674285Y-57780647D01*
X105293333Y-57780647D01*
D11*
%TO.C,Q1*%
X81921047Y-74507876D02*
X81800095Y-74447400D01*
X81679142Y-74326447D01*
X81497714Y-74145019D01*
X81376761Y-74084542D01*
X81255809Y-74084542D01*
X81316285Y-74386923D02*
X81195333Y-74326447D01*
X81074380Y-74205495D01*
X81013904Y-73963590D01*
X81013904Y-73540257D01*
X81074380Y-73298352D01*
X81195333Y-73177400D01*
X81316285Y-73116923D01*
X81558190Y-73116923D01*
X81679142Y-73177400D01*
X81800095Y-73298352D01*
X81860571Y-73540257D01*
X81860571Y-73963590D01*
X81800095Y-74205495D01*
X81679142Y-74326447D01*
X81558190Y-74386923D01*
X81316285Y-74386923D01*
X83070095Y-74386923D02*
X82344380Y-74386923D01*
X82707238Y-74386923D02*
X82707238Y-73116923D01*
X82586285Y-73298352D01*
X82465333Y-73419304D01*
X82344380Y-73479780D01*
D10*
%TO.C,C5*%
X63348533Y-70965542D02*
X63300914Y-71013161D01*
X63158057Y-71060780D01*
X63062819Y-71060780D01*
X62919961Y-71013161D01*
X62824723Y-70917923D01*
X62777104Y-70822685D01*
X62729485Y-70632209D01*
X62729485Y-70489352D01*
X62777104Y-70298876D01*
X62824723Y-70203638D01*
X62919961Y-70108400D01*
X63062819Y-70060780D01*
X63158057Y-70060780D01*
X63300914Y-70108400D01*
X63348533Y-70156019D01*
X64253295Y-70060780D02*
X63777104Y-70060780D01*
X63729485Y-70536971D01*
X63777104Y-70489352D01*
X63872342Y-70441733D01*
X64110438Y-70441733D01*
X64205676Y-70489352D01*
X64253295Y-70536971D01*
X64300914Y-70632209D01*
X64300914Y-70870304D01*
X64253295Y-70965542D01*
X64205676Y-71013161D01*
X64110438Y-71060780D01*
X63872342Y-71060780D01*
X63777104Y-71013161D01*
X63729485Y-70965542D01*
%TO.C,D8*%
X111729780Y-98248695D02*
X110729780Y-98248695D01*
X110729780Y-98010600D01*
X110777400Y-97867742D01*
X110872638Y-97772504D01*
X110967876Y-97724885D01*
X111158352Y-97677266D01*
X111301209Y-97677266D01*
X111491685Y-97724885D01*
X111586923Y-97772504D01*
X111682161Y-97867742D01*
X111729780Y-98010600D01*
X111729780Y-98248695D01*
X111158352Y-97105838D02*
X111110733Y-97201076D01*
X111063114Y-97248695D01*
X110967876Y-97296314D01*
X110920257Y-97296314D01*
X110825019Y-97248695D01*
X110777400Y-97201076D01*
X110729780Y-97105838D01*
X110729780Y-96915361D01*
X110777400Y-96820123D01*
X110825019Y-96772504D01*
X110920257Y-96724885D01*
X110967876Y-96724885D01*
X111063114Y-96772504D01*
X111110733Y-96820123D01*
X111158352Y-96915361D01*
X111158352Y-97105838D01*
X111205971Y-97201076D01*
X111253590Y-97248695D01*
X111348828Y-97296314D01*
X111539304Y-97296314D01*
X111634542Y-97248695D01*
X111682161Y-97201076D01*
X111729780Y-97105838D01*
X111729780Y-96915361D01*
X111682161Y-96820123D01*
X111634542Y-96772504D01*
X111539304Y-96724885D01*
X111348828Y-96724885D01*
X111253590Y-96772504D01*
X111205971Y-96820123D01*
X111158352Y-96915361D01*
D12*
%TO.C,SW2*%
X109264000Y-66666800D02*
X106024000Y-66666800D01*
X109264000Y-66666800D02*
X109264000Y-66566800D01*
X106024000Y-64526800D02*
X106024000Y-64426800D01*
X106024000Y-66666800D02*
X106024000Y-66566800D01*
X109264000Y-64526800D02*
X109264000Y-64426800D01*
X109264000Y-64426800D02*
X106024000Y-64426800D01*
%TO.C,R1*%
X65809800Y-80492236D02*
X65809800Y-80946364D01*
X64339800Y-80492236D02*
X64339800Y-80946364D01*
%TO.C,D4*%
X112284000Y-92827200D02*
X112284000Y-88977200D01*
X112284000Y-92827200D02*
X114284000Y-92827200D01*
X114284000Y-92827200D02*
X114284000Y-88977200D01*
%TO.C,J4*%
X119116800Y-79756000D02*
X121776800Y-79756000D01*
X119116800Y-78486000D02*
X119116800Y-77156000D01*
X119116800Y-92516000D02*
X121776800Y-92516000D01*
X119116800Y-77156000D02*
X120446800Y-77156000D01*
X119116800Y-79756000D02*
X119116800Y-92516000D01*
X121776800Y-79756000D02*
X121776800Y-92516000D01*
%TO.C,C7*%
X81367800Y-75033800D02*
X81367800Y-77750800D01*
X81767800Y-75228800D02*
X81767800Y-77750800D01*
X82287800Y-79830800D02*
X82287800Y-82010800D01*
X82487800Y-79830800D02*
X82487800Y-81845800D01*
X82327800Y-75601800D02*
X82327800Y-77750800D01*
X82447800Y-75700800D02*
X82447800Y-77750800D01*
X82047800Y-79830800D02*
X82047800Y-82182800D01*
X83167800Y-76503800D02*
X83167800Y-77750800D01*
X82207800Y-79830800D02*
X82207800Y-82070800D01*
X81647800Y-79830800D02*
X81647800Y-82417800D01*
X81767800Y-79830800D02*
X81767800Y-82352800D01*
X81007800Y-74901800D02*
X81007800Y-82679800D01*
X83247800Y-79830800D02*
X83247800Y-80956800D01*
X82327800Y-79830800D02*
X82327800Y-81979800D01*
X82167800Y-79830800D02*
X82167800Y-82099800D01*
X81327800Y-75016800D02*
X81327800Y-77750800D01*
X79806800Y-74710800D02*
X79806800Y-82870800D01*
X80927800Y-74876800D02*
X80927800Y-82704800D01*
X82207800Y-75510800D02*
X82207800Y-77750800D01*
X81967800Y-75346800D02*
X81967800Y-77750800D01*
X79846800Y-74710800D02*
X79846800Y-82870800D01*
X82127800Y-75452800D02*
X82127800Y-77750800D01*
X81407800Y-75050800D02*
X81407800Y-77750800D01*
X80126800Y-74725800D02*
X80126800Y-82855800D01*
X81287800Y-75000800D02*
X81287800Y-77750800D01*
X82967800Y-76234800D02*
X82967800Y-77750800D01*
X82127800Y-79830800D02*
X82127800Y-82128800D01*
X82487800Y-75735800D02*
X82487800Y-77750800D01*
X83407800Y-76900800D02*
X83407800Y-80680800D01*
X81927800Y-75321800D02*
X81927800Y-77750800D01*
X82847800Y-76093800D02*
X82847800Y-77750800D01*
X81567800Y-75124800D02*
X81567800Y-77750800D01*
X83127800Y-79830800D02*
X83127800Y-81135800D01*
X82287800Y-75570800D02*
X82287800Y-77750800D01*
X81687800Y-79830800D02*
X81687800Y-82396800D01*
X81727800Y-79830800D02*
X81727800Y-82374800D01*
X81447800Y-79830800D02*
X81447800Y-82512800D01*
X80406800Y-74760800D02*
X80406800Y-82820800D01*
X81327800Y-79830800D02*
X81327800Y-82564800D01*
X81407800Y-79830800D02*
X81407800Y-82530800D01*
X80206800Y-74733800D02*
X80206800Y-82847800D01*
X80286800Y-74742800D02*
X80286800Y-82838800D01*
X75757102Y-76075800D02*
X75757102Y-76875800D01*
X81607800Y-75143800D02*
X81607800Y-77750800D01*
X82727800Y-79830800D02*
X82727800Y-81616800D01*
X80687800Y-74814800D02*
X80687800Y-82766800D01*
X83007800Y-76285800D02*
X83007800Y-77750800D01*
X80366800Y-74753800D02*
X80366800Y-82827800D01*
X82567800Y-75807800D02*
X82567800Y-77750800D01*
X82527800Y-79830800D02*
X82527800Y-81809800D01*
X83087800Y-79830800D02*
X83087800Y-81190800D01*
X79966800Y-74714800D02*
X79966800Y-82866800D01*
X81847800Y-79830800D02*
X81847800Y-82307800D01*
X81527800Y-79830800D02*
X81527800Y-82476800D01*
X80246800Y-74738800D02*
X80246800Y-82842800D01*
X82247800Y-75540800D02*
X82247800Y-77750800D01*
X83567800Y-77238800D02*
X83567800Y-80342800D01*
X81287800Y-79830800D02*
X81287800Y-82580800D01*
X83007800Y-79830800D02*
X83007800Y-81295800D01*
X83687800Y-77561800D02*
X83687800Y-80019800D01*
X81207800Y-74969800D02*
X81207800Y-82611800D01*
X81527800Y-75104800D02*
X81527800Y-77750800D01*
X82087800Y-79830800D02*
X82087800Y-82155800D01*
X83367800Y-76826800D02*
X83367800Y-80754800D01*
X83727800Y-77692800D02*
X83727800Y-79888800D01*
X81567800Y-79830800D02*
X81567800Y-82456800D01*
X82167800Y-75481800D02*
X82167800Y-77750800D01*
X83847800Y-78257800D02*
X83847800Y-79323800D01*
X81247800Y-79830800D02*
X81247800Y-82595800D01*
X81967800Y-79830800D02*
X81967800Y-82234800D01*
X81167800Y-74955800D02*
X81167800Y-82625800D01*
X82447800Y-79830800D02*
X82447800Y-81880800D01*
X80567800Y-74788800D02*
X80567800Y-82792800D01*
X81687800Y-75184800D02*
X81687800Y-77750800D01*
X80887800Y-74865800D02*
X80887800Y-82715800D01*
X82927800Y-79830800D02*
X82927800Y-81394800D01*
X80967800Y-74888800D02*
X80967800Y-82692800D01*
X82887800Y-79830800D02*
X82887800Y-81441800D01*
X80607800Y-74796800D02*
X80607800Y-82784800D01*
X81487800Y-79830800D02*
X81487800Y-82494800D01*
X82647800Y-79830800D02*
X82647800Y-81697800D01*
X83207800Y-76562800D02*
X83207800Y-77750800D01*
X82047800Y-75398800D02*
X82047800Y-77750800D01*
X80727800Y-74823800D02*
X80727800Y-82757800D01*
X80767800Y-74833800D02*
X80767800Y-82747800D01*
X83047800Y-79830800D02*
X83047800Y-81244800D01*
X81727800Y-75206800D02*
X81727800Y-77750800D01*
X80166800Y-74729800D02*
X80166800Y-82851800D01*
X82087800Y-75425800D02*
X82087800Y-77750800D01*
X82767800Y-79830800D02*
X82767800Y-81574800D01*
X81047800Y-74913800D02*
X81047800Y-82667800D01*
X81887800Y-75297800D02*
X81887800Y-77750800D01*
X82887800Y-76139800D02*
X82887800Y-77750800D01*
X81087800Y-74927800D02*
X81087800Y-82653800D01*
X83327800Y-76756800D02*
X83327800Y-80824800D01*
X83087800Y-76390800D02*
X83087800Y-77750800D01*
X80487800Y-74773800D02*
X80487800Y-82807800D01*
X81807800Y-79830800D02*
X81807800Y-82330800D01*
X82407800Y-79830800D02*
X82407800Y-81914800D01*
X81647800Y-75163800D02*
X81647800Y-77750800D01*
X83487800Y-77059800D02*
X83487800Y-80521800D01*
X81447800Y-75068800D02*
X81447800Y-77750800D01*
X79886800Y-74711800D02*
X79886800Y-82869800D01*
X82807800Y-79830800D02*
X82807800Y-81531800D01*
X83607800Y-77337800D02*
X83607800Y-80243800D01*
X82647800Y-75883800D02*
X82647800Y-77750800D01*
X79766800Y-74710800D02*
X79766800Y-82870800D01*
X83447800Y-76977800D02*
X83447800Y-80603800D01*
X80527800Y-74780800D02*
X80527800Y-82800800D01*
X83807800Y-78022800D02*
X83807800Y-79558800D01*
X80446800Y-74766800D02*
X80446800Y-82814800D01*
X82607800Y-79830800D02*
X82607800Y-81735800D01*
X83287800Y-79830800D02*
X83287800Y-80892800D01*
X83247800Y-76624800D02*
X83247800Y-77750800D01*
X82407800Y-75666800D02*
X82407800Y-77750800D01*
X83647800Y-77444800D02*
X83647800Y-80136800D01*
X80647800Y-74805800D02*
X80647800Y-82775800D01*
X81367800Y-79830800D02*
X81367800Y-82547800D01*
X82007800Y-75372800D02*
X82007800Y-77750800D01*
X82367800Y-75634800D02*
X82367800Y-77750800D01*
X81847800Y-75273800D02*
X81847800Y-77750800D01*
X80086800Y-74722800D02*
X80086800Y-82858800D01*
X81607800Y-79830800D02*
X81607800Y-82437800D01*
X82927800Y-76186800D02*
X82927800Y-77750800D01*
X80807800Y-74843800D02*
X80807800Y-82737800D01*
X82727800Y-75964800D02*
X82727800Y-77750800D01*
X83527800Y-77145800D02*
X83527800Y-80435800D01*
X82247800Y-79830800D02*
X82247800Y-82040800D01*
X83207800Y-79830800D02*
X83207800Y-81018800D01*
X81487800Y-75086800D02*
X81487800Y-77750800D01*
X80847800Y-74854800D02*
X80847800Y-82726800D01*
X81887800Y-79830800D02*
X81887800Y-82283800D01*
X82567800Y-79830800D02*
X82567800Y-81773800D01*
X81807800Y-75250800D02*
X81807800Y-77750800D01*
X83167800Y-79830800D02*
X83167800Y-81077800D01*
X83767800Y-77842800D02*
X83767800Y-79738800D01*
X82687800Y-79830800D02*
X82687800Y-81657800D01*
X80046800Y-74719800D02*
X80046800Y-82861800D01*
X82807800Y-76049800D02*
X82807800Y-77750800D01*
X82847800Y-79830800D02*
X82847800Y-81487800D01*
X83287800Y-76688800D02*
X83287800Y-77750800D01*
X82367800Y-79830800D02*
X82367800Y-81946800D01*
X81247800Y-74985800D02*
X81247800Y-77750800D01*
X82527800Y-75771800D02*
X82527800Y-77750800D01*
X79926800Y-74713800D02*
X79926800Y-82867800D01*
X75357102Y-76475800D02*
X76157102Y-76475800D01*
X82007800Y-79830800D02*
X82007800Y-82208800D01*
X81127800Y-74940800D02*
X81127800Y-82640800D01*
X81927800Y-79830800D02*
X81927800Y-82259800D01*
X82607800Y-75845800D02*
X82607800Y-77750800D01*
X82767800Y-76006800D02*
X82767800Y-77750800D01*
X82687800Y-75923800D02*
X82687800Y-77750800D01*
X82967800Y-79830800D02*
X82967800Y-81346800D01*
X80006800Y-74716800D02*
X80006800Y-82864800D01*
X83127800Y-76445800D02*
X83127800Y-77750800D01*
X83047800Y-76336800D02*
X83047800Y-77750800D01*
X80326800Y-74748800D02*
X80326800Y-82832800D01*
X83886800Y-78790800D02*
G75*
G03*
X83886800Y-78790800I-4120000J0D01*
G01*
%TO.C,R2*%
X72874200Y-88926936D02*
X72874200Y-89381064D01*
X74344200Y-88926936D02*
X74344200Y-89381064D01*
%TO.C,R7*%
X100506200Y-76071464D02*
X100506200Y-75617336D01*
X99036200Y-76071464D02*
X99036200Y-75617336D01*
%TO.C,D5*%
X93437200Y-99939200D02*
X95437200Y-99939200D01*
X93437200Y-99939200D02*
X93437200Y-96089200D01*
X95437200Y-99939200D02*
X95437200Y-96089200D01*
%TO.C,J1*%
X121675200Y-74532800D02*
X120345200Y-74532800D01*
X121675200Y-73202800D02*
X121675200Y-74532800D01*
X119015200Y-71932800D02*
X119015200Y-51552800D01*
X121675200Y-51552800D02*
X119015200Y-51552800D01*
X121675200Y-71932800D02*
X119015200Y-71932800D01*
X121675200Y-71932800D02*
X121675200Y-51552800D01*
%TO.C,J2*%
X112116400Y-109940400D02*
X112116400Y-108610400D01*
X122396400Y-109940400D02*
X122396400Y-107280400D01*
X114716400Y-107280400D02*
X122396400Y-107280400D01*
X114716400Y-109940400D02*
X122396400Y-109940400D01*
X114716400Y-109940400D02*
X114716400Y-107280400D01*
X113446400Y-109940400D02*
X112116400Y-109940400D01*
%TO.C,R4*%
X64438200Y-89333336D02*
X64438200Y-89787464D01*
X62968200Y-89333336D02*
X62968200Y-89787464D01*
%TO.C,D3*%
X105629200Y-93081200D02*
X105629200Y-89231200D01*
X105629200Y-93081200D02*
X107629200Y-93081200D01*
X107629200Y-93081200D02*
X107629200Y-89231200D01*
D13*
%TO.C,Q2*%
X95608800Y-71956000D02*
X96008800Y-71956000D01*
X95608800Y-74856000D02*
X95608800Y-71956000D01*
X96008800Y-74856000D02*
X95608800Y-74856000D01*
X96008800Y-71956000D02*
X96008800Y-74856000D01*
X97458800Y-74906000D02*
X96358800Y-74906000D01*
D14*
%TO.C,D9*%
X109640400Y-60807600D02*
X109640400Y-60807600D01*
X109540400Y-60807600D02*
X109540400Y-60807600D01*
X109540400Y-60807600D02*
G75*
G03*
X109640400Y-60807600I50000J0D01*
G01*
X109640400Y-60807600D02*
G75*
G03*
X109540400Y-60807600I-50000J0D01*
G01*
D12*
%TO.C,R8*%
X90141164Y-77293800D02*
X89687036Y-77293800D01*
X90141164Y-78763800D02*
X89687036Y-78763800D01*
%TO.C,J3*%
X54397600Y-84937600D02*
X57057600Y-84937600D01*
X54397600Y-84937600D02*
X54397600Y-87537600D01*
X54397600Y-83667600D02*
X54397600Y-82337600D01*
X54397600Y-87537600D02*
X57057600Y-87537600D01*
X57057600Y-84937600D02*
X57057600Y-87537600D01*
X54397600Y-82337600D02*
X55727600Y-82337600D01*
%TO.C,R3*%
X67946600Y-89079336D02*
X67946600Y-89533464D01*
X69416600Y-89079336D02*
X69416600Y-89533464D01*
%TO.C,R5*%
X73937800Y-80546836D02*
X73937800Y-81000964D01*
X72467800Y-80546836D02*
X72467800Y-81000964D01*
%TO.C,U1*%
X81460800Y-104154200D02*
X81460800Y-102478200D01*
X81460800Y-97744200D02*
X84854800Y-97744200D01*
X76219800Y-104154200D02*
X76219800Y-83714200D01*
X81460800Y-100284200D02*
X84854800Y-100284200D01*
X81460800Y-98089200D02*
X81460800Y-97398200D01*
X81460800Y-95204200D02*
X84854800Y-95204200D01*
X81460800Y-102824200D02*
X84869800Y-102824200D01*
X81460800Y-87584200D02*
X84854800Y-87584200D01*
X81460800Y-85389200D02*
X81460800Y-83714200D01*
X76219800Y-104154200D02*
X81460800Y-104154200D01*
X81460800Y-92664200D02*
X84854800Y-92664200D01*
X76219800Y-92084200D02*
X78059800Y-92084200D01*
X76219800Y-83714200D02*
X81460800Y-83714200D01*
X81460800Y-90124200D02*
X84854800Y-90124200D01*
X76219800Y-95783200D02*
X78059800Y-95783200D01*
X78059800Y-104154200D02*
X78059800Y-83714200D01*
X81460800Y-100629200D02*
X81460800Y-99938200D01*
X81460800Y-93009200D02*
X81460800Y-92318200D01*
X81460800Y-85044200D02*
X84854800Y-85044200D01*
X81460800Y-95549200D02*
X81460800Y-94858200D01*
X81460800Y-87929200D02*
X81460800Y-87238200D01*
X81460800Y-90469200D02*
X81460800Y-89778200D01*
%TO.C,C3*%
X98161549Y-81458000D02*
X98161549Y-84150000D01*
X96201549Y-79198000D02*
X96201549Y-81764000D01*
X97721549Y-83844000D02*
X97721549Y-85032000D01*
X96801549Y-83844000D02*
X96801549Y-86024000D01*
X97001549Y-83844000D02*
X97001549Y-85859000D01*
X96281549Y-83844000D02*
X96281549Y-86366000D01*
X96521549Y-79386000D02*
X96521549Y-81764000D01*
X97001549Y-79749000D02*
X97001549Y-81764000D01*
X96921549Y-79680000D02*
X96921549Y-81764000D01*
X98241549Y-81706000D02*
X98241549Y-83902000D01*
X95761549Y-83844000D02*
X95761549Y-86609000D01*
X95441549Y-78890000D02*
X95441549Y-86718000D01*
X97881549Y-80840000D02*
X97881549Y-84768000D01*
X96441549Y-83844000D02*
X96441549Y-86273000D01*
X94560549Y-78733000D02*
X94560549Y-86875000D01*
X97921549Y-80914000D02*
X97921549Y-84694000D01*
X96041549Y-79118000D02*
X96041549Y-81764000D01*
X98201549Y-81575000D02*
X98201549Y-84033000D01*
X96321549Y-83844000D02*
X96321549Y-86344000D01*
X95001549Y-78787000D02*
X95001549Y-86821000D01*
X94600549Y-78736000D02*
X94600549Y-86872000D01*
X96121549Y-83844000D02*
X96121549Y-86451000D01*
X94680549Y-78743000D02*
X94680549Y-86865000D01*
X94400549Y-78725000D02*
X94400549Y-86883000D01*
X96521549Y-83844000D02*
X96521549Y-86222000D01*
X97801549Y-83844000D02*
X97801549Y-84906000D01*
X97161549Y-79897000D02*
X97161549Y-81764000D01*
X96441549Y-79335000D02*
X96441549Y-81764000D01*
X94320549Y-78724000D02*
X94320549Y-86884000D01*
X90270851Y-80089000D02*
X90270851Y-80889000D01*
X97201549Y-83844000D02*
X97201549Y-85671000D01*
X95761549Y-78999000D02*
X95761549Y-81764000D01*
X97321549Y-80063000D02*
X97321549Y-81764000D01*
X97961549Y-80991000D02*
X97961549Y-84617000D01*
X97321549Y-83844000D02*
X97321549Y-85545000D01*
X95801549Y-79014000D02*
X95801549Y-81764000D01*
X94960549Y-78780000D02*
X94960549Y-86828000D01*
X97441549Y-80200000D02*
X97441549Y-81764000D01*
X95041549Y-78794000D02*
X95041549Y-86814000D01*
X94360549Y-78724000D02*
X94360549Y-86884000D01*
X96361549Y-79287000D02*
X96361549Y-81764000D01*
X95481549Y-78902000D02*
X95481549Y-86706000D01*
X97121549Y-83844000D02*
X97121549Y-85749000D01*
X94440549Y-78727000D02*
X94440549Y-86881000D01*
X96881549Y-83844000D02*
X96881549Y-85960000D01*
X94760549Y-78752000D02*
X94760549Y-86856000D01*
X97681549Y-80517000D02*
X97681549Y-81764000D01*
X96721549Y-79524000D02*
X96721549Y-81764000D01*
X96001549Y-83844000D02*
X96001549Y-86508000D01*
X95721549Y-78983000D02*
X95721549Y-86625000D01*
X89870851Y-80489000D02*
X90670851Y-80489000D01*
X96161549Y-83844000D02*
X96161549Y-86431000D01*
X94280549Y-78724000D02*
X94280549Y-86884000D01*
X97761549Y-83844000D02*
X97761549Y-84970000D01*
X97161549Y-83844000D02*
X97161549Y-85711000D01*
X95521549Y-78915000D02*
X95521549Y-86693000D01*
X94720549Y-78747000D02*
X94720549Y-86861000D01*
X95361549Y-78868000D02*
X95361549Y-86740000D01*
X96041549Y-83844000D02*
X96041549Y-86490000D01*
X96641549Y-79466000D02*
X96641549Y-81764000D01*
X96641549Y-83844000D02*
X96641549Y-86142000D01*
X98081549Y-81252000D02*
X98081549Y-84356000D01*
X97081549Y-79821000D02*
X97081549Y-81764000D01*
X97721549Y-80576000D02*
X97721549Y-81764000D01*
X98321549Y-82036000D02*
X98321549Y-83572000D01*
X96761549Y-79554000D02*
X96761549Y-81764000D01*
X95881549Y-83844000D02*
X95881549Y-86561000D01*
X95841549Y-79030000D02*
X95841549Y-81764000D01*
X94840549Y-78762000D02*
X94840549Y-86846000D01*
X96841549Y-79615000D02*
X96841549Y-81764000D01*
X97521549Y-80299000D02*
X97521549Y-81764000D01*
X97241549Y-83844000D02*
X97241549Y-85630000D01*
X95961549Y-83844000D02*
X95961549Y-86526000D01*
X97641549Y-83844000D02*
X97641549Y-85149000D01*
X97641549Y-80459000D02*
X97641549Y-81764000D01*
X95081549Y-78802000D02*
X95081549Y-86806000D01*
X97281549Y-83844000D02*
X97281549Y-85588000D01*
X95921549Y-79064000D02*
X95921549Y-81764000D01*
X96561549Y-79412000D02*
X96561549Y-81764000D01*
X95641549Y-78954000D02*
X95641549Y-86654000D01*
X95321549Y-78857000D02*
X95321549Y-86751000D01*
X98281549Y-81856000D02*
X98281549Y-83752000D01*
X95201549Y-78828000D02*
X95201549Y-86780000D01*
X97481549Y-80248000D02*
X97481549Y-81764000D01*
X97481549Y-83844000D02*
X97481549Y-85360000D01*
X98121549Y-81351000D02*
X98121549Y-84257000D01*
X97561549Y-80350000D02*
X97561549Y-81764000D01*
X96161549Y-79177000D02*
X96161549Y-81764000D01*
X95841549Y-83844000D02*
X95841549Y-86578000D01*
X98001549Y-81073000D02*
X98001549Y-84535000D01*
X97081549Y-83844000D02*
X97081549Y-85787000D01*
X96081549Y-79138000D02*
X96081549Y-81764000D01*
X96241549Y-79220000D02*
X96241549Y-81764000D01*
X97361549Y-80107000D02*
X97361549Y-81764000D01*
X97801549Y-80702000D02*
X97801549Y-81764000D01*
X96961549Y-83844000D02*
X96961549Y-85894000D01*
X96121549Y-79157000D02*
X96121549Y-81764000D01*
X97121549Y-79859000D02*
X97121549Y-81764000D01*
X94800549Y-78756000D02*
X94800549Y-86852000D01*
X96321549Y-79264000D02*
X96321549Y-81764000D01*
X97361549Y-83844000D02*
X97361549Y-85501000D01*
X95881549Y-79047000D02*
X95881549Y-81764000D01*
X96361549Y-83844000D02*
X96361549Y-86321000D01*
X94480549Y-78728000D02*
X94480549Y-86880000D01*
X96561549Y-83844000D02*
X96561549Y-86196000D01*
X95161549Y-78819000D02*
X95161549Y-86789000D01*
X96681549Y-83844000D02*
X96681549Y-86113000D01*
X97521549Y-83844000D02*
X97521549Y-85309000D01*
X97401549Y-83844000D02*
X97401549Y-85455000D01*
X98041549Y-81159000D02*
X98041549Y-84449000D01*
X97201549Y-79937000D02*
X97201549Y-81764000D01*
X97041549Y-79785000D02*
X97041549Y-81764000D01*
X95121549Y-78810000D02*
X95121549Y-86798000D01*
X95961549Y-79082000D02*
X95961549Y-81764000D01*
X97601549Y-83844000D02*
X97601549Y-85204000D01*
X95681549Y-78969000D02*
X95681549Y-86639000D01*
X97681549Y-83844000D02*
X97681549Y-85091000D01*
X95281549Y-78847000D02*
X95281549Y-86761000D01*
X96001549Y-79100000D02*
X96001549Y-81764000D01*
X96601549Y-83844000D02*
X96601549Y-86169000D01*
X96281549Y-79242000D02*
X96281549Y-81764000D01*
X97561549Y-83844000D02*
X97561549Y-85258000D01*
X96601549Y-79439000D02*
X96601549Y-81764000D01*
X96761549Y-83844000D02*
X96761549Y-86054000D01*
X95241549Y-78837000D02*
X95241549Y-86771000D01*
X96081549Y-83844000D02*
X96081549Y-86470000D01*
X95561549Y-78927000D02*
X95561549Y-86681000D01*
X97041549Y-83844000D02*
X97041549Y-85823000D01*
X97281549Y-80020000D02*
X97281549Y-81764000D01*
X96681549Y-79495000D02*
X96681549Y-81764000D01*
X96241549Y-83844000D02*
X96241549Y-86388000D01*
X97241549Y-79978000D02*
X97241549Y-81764000D01*
X97601549Y-80404000D02*
X97601549Y-81764000D01*
X96841549Y-83844000D02*
X96841549Y-85993000D01*
X96481549Y-79360000D02*
X96481549Y-81764000D01*
X97441549Y-83844000D02*
X97441549Y-85408000D01*
X94880549Y-78767000D02*
X94880549Y-86841000D01*
X96801549Y-79584000D02*
X96801549Y-81764000D01*
X94920549Y-78774000D02*
X94920549Y-86834000D01*
X96961549Y-79714000D02*
X96961549Y-81764000D01*
X97401549Y-80153000D02*
X97401549Y-81764000D01*
X95921549Y-83844000D02*
X95921549Y-86544000D01*
X95401549Y-78879000D02*
X95401549Y-86729000D01*
X95601549Y-78941000D02*
X95601549Y-86667000D01*
X96401549Y-83844000D02*
X96401549Y-86297000D01*
X96721549Y-83844000D02*
X96721549Y-86084000D01*
X94640549Y-78739000D02*
X94640549Y-86869000D01*
X98361549Y-82271000D02*
X98361549Y-83337000D01*
X96881549Y-79648000D02*
X96881549Y-81764000D01*
X96201549Y-83844000D02*
X96201549Y-86410000D01*
X97841549Y-80770000D02*
X97841549Y-84838000D01*
X97761549Y-80638000D02*
X97761549Y-81764000D01*
X96481549Y-83844000D02*
X96481549Y-86248000D01*
X96921549Y-83844000D02*
X96921549Y-85928000D01*
X96401549Y-79311000D02*
X96401549Y-81764000D01*
X95801549Y-83844000D02*
X95801549Y-86594000D01*
X94520549Y-78730000D02*
X94520549Y-86878000D01*
X98400549Y-82804000D02*
G75*
G03*
X98400549Y-82804000I-4120000J0D01*
G01*
%TO.C,D6*%
X99380800Y-100040800D02*
X101380800Y-100040800D01*
X101380800Y-100040800D02*
X101380800Y-96190800D01*
X99380800Y-100040800D02*
X99380800Y-96190800D01*
%TO.C,D2*%
X101838000Y-93030400D02*
X101838000Y-89180400D01*
X99838000Y-93030400D02*
X99838000Y-89180400D01*
X99838000Y-93030400D02*
X101838000Y-93030400D01*
%TO.C,D1*%
X96199200Y-92573200D02*
X96199200Y-88723200D01*
X94199200Y-92573200D02*
X94199200Y-88723200D01*
X94199200Y-92573200D02*
X96199200Y-92573200D01*
%TO.C,SW1*%
X61829200Y-64012000D02*
X61829200Y-64112000D01*
X61829200Y-61872000D02*
X61829200Y-61972000D01*
X61829200Y-64112000D02*
X65069200Y-64112000D01*
X65069200Y-64012000D02*
X65069200Y-64112000D01*
X65069200Y-61872000D02*
X65069200Y-61972000D01*
X61829200Y-61872000D02*
X65069200Y-61872000D01*
%TO.C,J6*%
X54550000Y-91948000D02*
X54550000Y-90618000D01*
X54550000Y-93218000D02*
X57210000Y-93218000D01*
X57210000Y-93218000D02*
X57210000Y-103438000D01*
X54550000Y-93218000D02*
X54550000Y-103438000D01*
X54550000Y-90618000D02*
X55880000Y-90618000D01*
X54550000Y-103438000D02*
X57210000Y-103438000D01*
%TO.C,J5*%
X57006800Y-54457600D02*
X57006800Y-64677600D01*
X54346800Y-51857600D02*
X55676800Y-51857600D01*
X54346800Y-54457600D02*
X57006800Y-54457600D01*
X54346800Y-53187600D02*
X54346800Y-51857600D01*
X54346800Y-54457600D02*
X54346800Y-64677600D01*
X54346800Y-64677600D02*
X57006800Y-64677600D01*
%TO.C,R6*%
X68302200Y-80494136D02*
X68302200Y-80948264D01*
X69772200Y-80494136D02*
X69772200Y-80948264D01*
%TO.C,IC1*%
X90676800Y-68666800D02*
X90676800Y-69446800D01*
X72436800Y-43701800D02*
X90676800Y-43701800D01*
X72436800Y-43701800D02*
X72436800Y-50121800D01*
X72436800Y-50121800D02*
X72056800Y-50121800D01*
X72436800Y-68666800D02*
X72436800Y-69446800D01*
X90676800Y-43701800D02*
X90676800Y-50121800D01*
X72436800Y-69446800D02*
X73436800Y-69446800D01*
X90676800Y-69446800D02*
X89676800Y-69446800D01*
%TO.C,D7*%
X105527600Y-99888400D02*
X105527600Y-96038400D01*
X105527600Y-99888400D02*
X107527600Y-99888400D01*
X107527600Y-99888400D02*
X107527600Y-96038400D01*
%TO.C,R10*%
X102690664Y-59971000D02*
X102236536Y-59971000D01*
X102690664Y-61441000D02*
X102236536Y-61441000D01*
%TO.C,C4*%
X104721252Y-55246600D02*
X104198748Y-55246600D01*
X104721252Y-56716600D02*
X104198748Y-56716600D01*
D13*
%TO.C,Q1*%
X84940800Y-75821200D02*
X84940800Y-72921200D01*
X85340800Y-75821200D02*
X84940800Y-75821200D01*
X83490800Y-72871200D02*
X84590800Y-72871200D01*
X85340800Y-72921200D02*
X85340800Y-75821200D01*
X84940800Y-72921200D02*
X85340800Y-72921200D01*
D12*
%TO.C,C5*%
X63253948Y-71553400D02*
X63776452Y-71553400D01*
X63253948Y-73023400D02*
X63776452Y-73023400D01*
%TO.C,D8*%
X114182400Y-99583600D02*
X114182400Y-95733600D01*
X112182400Y-99583600D02*
X114182400Y-99583600D01*
X112182400Y-99583600D02*
X112182400Y-95733600D01*
%TD*%
M02*
