%TF.GenerationSoftware,KiCad,Pcbnew,(6.0.2)*%
%TF.CreationDate,2022-03-09T23:50:45-05:00*%
%TF.ProjectId,car (1),63617220-2831-4292-9e6b-696361645f70,rev?*%
%TF.SameCoordinates,Original*%
%TF.FileFunction,Legend,Bot*%
%TF.FilePolarity,Positive*%
%FSLAX46Y46*%
G04 Gerber Fmt 4.6, Leading zero omitted, Abs format (unit mm)*
G04 Created by KiCad (PCBNEW (6.0.2)) date 2022-03-09 23:50:45*
%MOMM*%
%LPD*%
G01*
G04 APERTURE LIST*
%ADD10C,0.150000*%
%ADD11C,0.120000*%
G04 APERTURE END LIST*
D10*
%TO.C,R11*%
X74404457Y-72563980D02*
X74737790Y-72087790D01*
X74975885Y-72563980D02*
X74975885Y-71563980D01*
X74594933Y-71563980D01*
X74499695Y-71611600D01*
X74452076Y-71659219D01*
X74404457Y-71754457D01*
X74404457Y-71897314D01*
X74452076Y-71992552D01*
X74499695Y-72040171D01*
X74594933Y-72087790D01*
X74975885Y-72087790D01*
X73452076Y-72563980D02*
X74023504Y-72563980D01*
X73737790Y-72563980D02*
X73737790Y-71563980D01*
X73833028Y-71706838D01*
X73928266Y-71802076D01*
X74023504Y-71849695D01*
X72499695Y-72563980D02*
X73071123Y-72563980D01*
X72785409Y-72563980D02*
X72785409Y-71563980D01*
X72880647Y-71706838D01*
X72975885Y-71802076D01*
X73071123Y-71849695D01*
%TO.C,C2*%
X70972742Y-55408533D02*
X71020361Y-55360914D01*
X71067980Y-55218057D01*
X71067980Y-55122819D01*
X71020361Y-54979961D01*
X70925123Y-54884723D01*
X70829885Y-54837104D01*
X70639409Y-54789485D01*
X70496552Y-54789485D01*
X70306076Y-54837104D01*
X70210838Y-54884723D01*
X70115600Y-54979961D01*
X70067980Y-55122819D01*
X70067980Y-55218057D01*
X70115600Y-55360914D01*
X70163219Y-55408533D01*
X70163219Y-55789485D02*
X70115600Y-55837104D01*
X70067980Y-55932342D01*
X70067980Y-56170438D01*
X70115600Y-56265676D01*
X70163219Y-56313295D01*
X70258457Y-56360914D01*
X70353695Y-56360914D01*
X70496552Y-56313295D01*
X71067980Y-55741866D01*
X71067980Y-56360914D01*
%TO.C,R9*%
X67278780Y-59267433D02*
X66802590Y-58934100D01*
X67278780Y-58696004D02*
X66278780Y-58696004D01*
X66278780Y-59076957D01*
X66326400Y-59172195D01*
X66374019Y-59219814D01*
X66469257Y-59267433D01*
X66612114Y-59267433D01*
X66707352Y-59219814D01*
X66754971Y-59172195D01*
X66802590Y-59076957D01*
X66802590Y-58696004D01*
X67278780Y-59743623D02*
X67278780Y-59934100D01*
X67231161Y-60029338D01*
X67183542Y-60076957D01*
X67040685Y-60172195D01*
X66850209Y-60219814D01*
X66469257Y-60219814D01*
X66374019Y-60172195D01*
X66326400Y-60124576D01*
X66278780Y-60029338D01*
X66278780Y-59838861D01*
X66326400Y-59743623D01*
X66374019Y-59696004D01*
X66469257Y-59648385D01*
X66707352Y-59648385D01*
X66802590Y-59696004D01*
X66850209Y-59743623D01*
X66897828Y-59838861D01*
X66897828Y-60029338D01*
X66850209Y-60124576D01*
X66802590Y-60172195D01*
X66707352Y-60219814D01*
%TO.C,C1*%
X64669942Y-55205333D02*
X64717561Y-55157714D01*
X64765180Y-55014857D01*
X64765180Y-54919619D01*
X64717561Y-54776761D01*
X64622323Y-54681523D01*
X64527085Y-54633904D01*
X64336609Y-54586285D01*
X64193752Y-54586285D01*
X64003276Y-54633904D01*
X63908038Y-54681523D01*
X63812800Y-54776761D01*
X63765180Y-54919619D01*
X63765180Y-55014857D01*
X63812800Y-55157714D01*
X63860419Y-55205333D01*
X64765180Y-56157714D02*
X64765180Y-55586285D01*
X64765180Y-55872000D02*
X63765180Y-55872000D01*
X63908038Y-55776761D01*
X64003276Y-55681523D01*
X64050895Y-55586285D01*
%TO.C,C6*%
X70769542Y-60234533D02*
X70817161Y-60186914D01*
X70864780Y-60044057D01*
X70864780Y-59948819D01*
X70817161Y-59805961D01*
X70721923Y-59710723D01*
X70626685Y-59663104D01*
X70436209Y-59615485D01*
X70293352Y-59615485D01*
X70102876Y-59663104D01*
X70007638Y-59710723D01*
X69912400Y-59805961D01*
X69864780Y-59948819D01*
X69864780Y-60044057D01*
X69912400Y-60186914D01*
X69960019Y-60234533D01*
X69864780Y-61091676D02*
X69864780Y-60901200D01*
X69912400Y-60805961D01*
X69960019Y-60758342D01*
X70102876Y-60663104D01*
X70293352Y-60615485D01*
X70674304Y-60615485D01*
X70769542Y-60663104D01*
X70817161Y-60710723D01*
X70864780Y-60805961D01*
X70864780Y-60996438D01*
X70817161Y-61091676D01*
X70769542Y-61139295D01*
X70674304Y-61186914D01*
X70436209Y-61186914D01*
X70340971Y-61139295D01*
X70293352Y-61091676D01*
X70245733Y-60996438D01*
X70245733Y-60805961D01*
X70293352Y-60710723D01*
X70340971Y-60663104D01*
X70436209Y-60615485D01*
%TO.C,R12*%
X69994457Y-72563980D02*
X70327790Y-72087790D01*
X70565885Y-72563980D02*
X70565885Y-71563980D01*
X70184933Y-71563980D01*
X70089695Y-71611600D01*
X70042076Y-71659219D01*
X69994457Y-71754457D01*
X69994457Y-71897314D01*
X70042076Y-71992552D01*
X70089695Y-72040171D01*
X70184933Y-72087790D01*
X70565885Y-72087790D01*
X69042076Y-72563980D02*
X69613504Y-72563980D01*
X69327790Y-72563980D02*
X69327790Y-71563980D01*
X69423028Y-71706838D01*
X69518266Y-71802076D01*
X69613504Y-71849695D01*
X68661123Y-71659219D02*
X68613504Y-71611600D01*
X68518266Y-71563980D01*
X68280171Y-71563980D01*
X68184933Y-71611600D01*
X68137314Y-71659219D01*
X68089695Y-71754457D01*
X68089695Y-71849695D01*
X68137314Y-71992552D01*
X68708742Y-72563980D01*
X68089695Y-72563980D01*
D11*
%TO.C,R11*%
X73988664Y-74496600D02*
X73534536Y-74496600D01*
X73988664Y-73026600D02*
X73534536Y-73026600D01*
%TO.C,C2*%
X68200600Y-55836452D02*
X68200600Y-55313948D01*
X69670600Y-55836452D02*
X69670600Y-55313948D01*
%TO.C,R9*%
X65911400Y-59661164D02*
X65911400Y-59207036D01*
X64441400Y-59661164D02*
X64441400Y-59207036D01*
%TO.C,C1*%
X65660600Y-55938052D02*
X65660600Y-55415548D01*
X67130600Y-55938052D02*
X67130600Y-55415548D01*
%TO.C,C6*%
X67997400Y-60662452D02*
X67997400Y-60139948D01*
X69467400Y-60662452D02*
X69467400Y-60139948D01*
%TO.C,R12*%
X69578664Y-74496600D02*
X69124536Y-74496600D01*
X69578664Y-73026600D02*
X69124536Y-73026600D01*
%TD*%
M02*
