%TF.GenerationSoftware,KiCad,Pcbnew,(6.0.2)*%
%TF.CreationDate,2022-03-09T23:50:44-05:00*%
%TF.ProjectId,car (1),63617220-2831-4292-9e6b-696361645f70,rev?*%
%TF.SameCoordinates,Original*%
%TF.FileFunction,Paste,Top*%
%TF.FilePolarity,Positive*%
%FSLAX46Y46*%
G04 Gerber Fmt 4.6, Leading zero omitted, Abs format (unit mm)*
G04 Created by KiCad (PCBNEW (6.0.2)) date 2022-03-09 23:50:44*
%MOMM*%
%LPD*%
G01*
G04 APERTURE LIST*
G04 Aperture macros list*
%AMRoundRect*
0 Rectangle with rounded corners*
0 $1 Rounding radius*
0 $2 $3 $4 $5 $6 $7 $8 $9 X,Y pos of 4 corners*
0 Add a 4 corners polygon primitive as box body*
4,1,4,$2,$3,$4,$5,$6,$7,$8,$9,$2,$3,0*
0 Add four circle primitives for the rounded corners*
1,1,$1+$1,$2,$3*
1,1,$1+$1,$4,$5*
1,1,$1+$1,$6,$7*
1,1,$1+$1,$8,$9*
0 Add four rect primitives between the rounded corners*
20,1,$1+$1,$2,$3,$4,$5,0*
20,1,$1+$1,$4,$5,$6,$7,0*
20,1,$1+$1,$6,$7,$8,$9,0*
20,1,$1+$1,$8,$9,$2,$3,0*%
G04 Aperture macros list end*
%ADD10R,0.550000X1.500000*%
%ADD11RoundRect,0.250000X-0.450000X0.262500X-0.450000X-0.262500X0.450000X-0.262500X0.450000X0.262500X0*%
%ADD12R,1.100000X1.100000*%
%ADD13RoundRect,0.250000X0.450000X-0.262500X0.450000X0.262500X-0.450000X0.262500X-0.450000X-0.262500X0*%
%ADD14R,1.100000X0.600000*%
%ADD15R,1.200000X1.200000*%
%ADD16RoundRect,0.250000X0.262500X0.450000X-0.262500X0.450000X-0.262500X-0.450000X0.262500X-0.450000X0*%
%ADD17R,2.000000X0.900000*%
%ADD18R,0.900000X2.000000*%
%ADD19R,6.446400X5.783600*%
%ADD20RoundRect,0.250000X0.250000X0.475000X-0.250000X0.475000X-0.250000X-0.475000X0.250000X-0.475000X0*%
%ADD21RoundRect,0.250000X-0.250000X-0.475000X0.250000X-0.475000X0.250000X0.475000X-0.250000X0.475000X0*%
G04 APERTURE END LIST*
D10*
%TO.C,SW2*%
X109269000Y-65546800D03*
X106019000Y-65546800D03*
%TD*%
D11*
%TO.C,R1*%
X65074800Y-79806800D03*
X65074800Y-81631800D03*
%TD*%
D12*
%TO.C,D4*%
X113284000Y-92027200D03*
X113284000Y-89227200D03*
%TD*%
D11*
%TO.C,R2*%
X73609200Y-88241500D03*
X73609200Y-90066500D03*
%TD*%
D13*
%TO.C,R7*%
X99771200Y-76756900D03*
X99771200Y-74931900D03*
%TD*%
D12*
%TO.C,D5*%
X94437200Y-99139200D03*
X94437200Y-96339200D03*
%TD*%
D11*
%TO.C,R4*%
X63703200Y-88647900D03*
X63703200Y-90472900D03*
%TD*%
D12*
%TO.C,D3*%
X106629200Y-92281200D03*
X106629200Y-89481200D03*
%TD*%
D14*
%TO.C,Q2*%
X96908800Y-74356000D03*
X96908800Y-72456000D03*
X94708800Y-73406000D03*
%TD*%
D15*
%TO.C,D9*%
X108390400Y-60807600D03*
X106290400Y-60807600D03*
%TD*%
D16*
%TO.C,R8*%
X90826600Y-78028800D03*
X89001600Y-78028800D03*
%TD*%
D11*
%TO.C,R3*%
X68681600Y-88393900D03*
X68681600Y-90218900D03*
%TD*%
%TO.C,R5*%
X73202800Y-79861400D03*
X73202800Y-81686400D03*
%TD*%
D12*
%TO.C,D6*%
X100380800Y-99240800D03*
X100380800Y-96440800D03*
%TD*%
%TO.C,D2*%
X100838000Y-92230400D03*
X100838000Y-89430400D03*
%TD*%
%TO.C,D1*%
X95199200Y-91773200D03*
X95199200Y-88973200D03*
%TD*%
D10*
%TO.C,SW1*%
X61824200Y-62992000D03*
X65074200Y-62992000D03*
%TD*%
D11*
%TO.C,R6*%
X69037200Y-79808700D03*
X69037200Y-81633700D03*
%TD*%
D17*
%TO.C,IC1*%
X73056800Y-51311800D03*
X73056800Y-52581800D03*
X73056800Y-53851800D03*
X73056800Y-55121800D03*
X73056800Y-56391800D03*
X73056800Y-57661800D03*
X73056800Y-58931800D03*
X73056800Y-60201800D03*
X73056800Y-61471800D03*
X73056800Y-62741800D03*
X73056800Y-64011800D03*
X73056800Y-65281800D03*
X73056800Y-66551800D03*
X73056800Y-67821800D03*
D18*
X75841800Y-68821800D03*
X77111800Y-68821800D03*
X78381800Y-68821800D03*
X79651800Y-68821800D03*
X80921800Y-68821800D03*
X82191800Y-68821800D03*
X83461800Y-68821800D03*
X84731800Y-68821800D03*
X86001800Y-68821800D03*
X87271800Y-68821800D03*
D17*
X90056800Y-67821800D03*
X90056800Y-66551800D03*
X90056800Y-65281800D03*
X90056800Y-64011800D03*
X90056800Y-62741800D03*
X90056800Y-61471800D03*
X90056800Y-60201800D03*
X90056800Y-58931800D03*
X90056800Y-57661800D03*
X90056800Y-56391800D03*
X90056800Y-55121800D03*
X90056800Y-53851800D03*
X90056800Y-52581800D03*
X90056800Y-51311800D03*
D19*
X81280000Y-58420000D03*
%TD*%
D12*
%TO.C,D7*%
X106527600Y-99088400D03*
X106527600Y-96288400D03*
%TD*%
D16*
%TO.C,R10*%
X103376100Y-60706000D03*
X101551100Y-60706000D03*
%TD*%
D20*
%TO.C,C4*%
X105410000Y-55981600D03*
X103510000Y-55981600D03*
%TD*%
D14*
%TO.C,Q1*%
X84040800Y-73421200D03*
X84040800Y-75321200D03*
X86240800Y-74371200D03*
%TD*%
D21*
%TO.C,C5*%
X62565200Y-72288400D03*
X64465200Y-72288400D03*
%TD*%
D12*
%TO.C,D8*%
X113182400Y-98783600D03*
X113182400Y-95983600D03*
%TD*%
M02*
