%TF.GenerationSoftware,KiCad,Pcbnew,(6.0.2)*%
%TF.CreationDate,2022-03-10T00:50:20-05:00*%
%TF.ProjectId,controller,636f6e74-726f-46c6-9c65-722e6b696361,rev?*%
%TF.SameCoordinates,Original*%
%TF.FileFunction,Copper,L2,Bot*%
%TF.FilePolarity,Positive*%
%FSLAX46Y46*%
G04 Gerber Fmt 4.6, Leading zero omitted, Abs format (unit mm)*
G04 Created by KiCad (PCBNEW (6.0.2)) date 2022-03-10 00:50:20*
%MOMM*%
%LPD*%
G01*
G04 APERTURE LIST*
G04 Aperture macros list*
%AMRoundRect*
0 Rectangle with rounded corners*
0 $1 Rounding radius*
0 $2 $3 $4 $5 $6 $7 $8 $9 X,Y pos of 4 corners*
0 Add a 4 corners polygon primitive as box body*
4,1,4,$2,$3,$4,$5,$6,$7,$8,$9,$2,$3,0*
0 Add four circle primitives for the rounded corners*
1,1,$1+$1,$2,$3*
1,1,$1+$1,$4,$5*
1,1,$1+$1,$6,$7*
1,1,$1+$1,$8,$9*
0 Add four rect primitives between the rounded corners*
20,1,$1+$1,$2,$3,$4,$5,0*
20,1,$1+$1,$4,$5,$6,$7,0*
20,1,$1+$1,$6,$7,$8,$9,0*
20,1,$1+$1,$8,$9,$2,$3,0*%
G04 Aperture macros list end*
%TA.AperFunction,ComponentPad*%
%ADD10R,1.700000X1.700000*%
%TD*%
%TA.AperFunction,ComponentPad*%
%ADD11O,1.700000X1.700000*%
%TD*%
%TA.AperFunction,ComponentPad*%
%ADD12C,1.700000*%
%TD*%
%TA.AperFunction,ComponentPad*%
%ADD13C,5.600000*%
%TD*%
%TA.AperFunction,SMDPad,CuDef*%
%ADD14RoundRect,0.250000X0.250000X0.475000X-0.250000X0.475000X-0.250000X-0.475000X0.250000X-0.475000X0*%
%TD*%
%TA.AperFunction,ViaPad*%
%ADD15C,0.800000*%
%TD*%
%TA.AperFunction,Conductor*%
%ADD16C,0.250000*%
%TD*%
%TA.AperFunction,Conductor*%
%ADD17C,0.254000*%
%TD*%
G04 APERTURE END LIST*
D10*
%TO.P,J2,1,Pin_1*%
%TO.N,Vcc*%
X148590000Y-57658000D03*
D11*
%TO.P,J2,2,Pin_2*%
%TO.N,GND*%
X148590000Y-60198000D03*
%TO.P,J2,3,Pin_3*%
%TO.N,GPIO22*%
X148590000Y-62738000D03*
%TO.P,J2,4,Pin_4*%
%TO.N,GPIO23*%
X148590000Y-65278000D03*
%TO.P,J2,5,Pin_5*%
%TO.N,GPIO13*%
X148590000Y-67818000D03*
%TD*%
D12*
%TO.P,SW4,1,1*%
%TO.N,Vcc*%
X91440000Y-64770000D03*
%TO.P,SW4,2,2*%
X97940000Y-64770000D03*
%TO.P,SW4,3,3*%
%TO.N,S2*%
X91440000Y-69270000D03*
%TO.P,SW4,4,4*%
X97940000Y-69270000D03*
%TD*%
%TO.P,SW5,1,1*%
%TO.N,Vcc*%
X160020000Y-59944000D03*
%TO.P,SW5,2,2*%
X166520000Y-59944000D03*
%TO.P,SW5,3,3*%
%TO.N,S3*%
X160020000Y-64444000D03*
%TO.P,SW5,4,4*%
X166520000Y-64444000D03*
%TD*%
%TO.P,SW6,1,1*%
%TO.N,Vcc*%
X173228000Y-65532000D03*
%TO.P,SW6,2,2*%
X179728000Y-65532000D03*
%TO.P,SW6,3,3*%
%TO.N,S4*%
X173228000Y-70032000D03*
%TO.P,SW6,4,4*%
X179728000Y-70032000D03*
%TD*%
%TO.P,SW7,1,1*%
%TO.N,Vcc*%
X160020000Y-70612000D03*
%TO.P,SW7,2,2*%
X166520000Y-70612000D03*
%TO.P,SW7,3,3*%
%TO.N,S5*%
X160020000Y-75112000D03*
%TO.P,SW7,4,4*%
X166520000Y-75112000D03*
%TD*%
D10*
%TO.P,J1,1,Pin_1*%
%TO.N,BAT*%
X101346000Y-79756000D03*
D11*
%TO.P,J1,2,Pin_2*%
%TO.N,GND*%
X98806000Y-79756000D03*
%TO.P,J1,3,Pin_3*%
%TO.N,Dp*%
X96266000Y-79756000D03*
%TO.P,J1,4,Pin_4*%
%TO.N,Dn*%
X93726000Y-79756000D03*
%TO.P,J1,5,Pin_5*%
%TO.N,5v*%
X91186000Y-79756000D03*
%TD*%
D10*
%TO.P,J3,1,Pin_1*%
%TO.N,GND*%
X154940000Y-97790000D03*
D11*
%TO.P,J3,2,Pin_2*%
%TO.N,CTS*%
X152400000Y-97790000D03*
%TO.P,J3,3,Pin_3*%
%TO.N,unconnected-(J3-Pad3)*%
X149860000Y-97790000D03*
%TO.P,J3,4,Pin_4*%
%TO.N,TX*%
X147320000Y-97790000D03*
%TO.P,J3,5,Pin_5*%
%TO.N,RX*%
X144780000Y-97790000D03*
%TO.P,J3,6,Pin_6*%
%TO.N,DTR*%
X142240000Y-97790000D03*
%TD*%
D12*
%TO.P,SW3,1,1*%
%TO.N,Vcc*%
X106426000Y-64770000D03*
%TO.P,SW3,2,2*%
X112926000Y-64770000D03*
%TO.P,SW3,3,3*%
%TO.N,S1*%
X106426000Y-69270000D03*
%TO.P,SW3,4,4*%
X112926000Y-69270000D03*
%TD*%
D13*
%TO.P,REF\u002A\u002A,1*%
%TO.N,N/C*%
X179832000Y-97790000D03*
%TD*%
%TO.P,REF\u002A\u002A,1*%
%TO.N,N/C*%
X179832000Y-58674000D03*
%TD*%
%TO.P,REF\u002A\u002A,1*%
%TO.N,N/C*%
X88646000Y-97840000D03*
%TD*%
%TO.P,REF\u002A\u002A,1*%
%TO.N,N/C*%
X88646000Y-58674000D03*
%TD*%
D14*
%TO.P,C4,1*%
%TO.N,Vcc*%
X118298000Y-56554999D03*
%TO.P,C4,2*%
%TO.N,GND*%
X116398000Y-56554999D03*
%TD*%
%TO.P,C5,1*%
%TO.N,Vcc*%
X118298000Y-58674000D03*
%TO.P,C5,2*%
%TO.N,GND*%
X116398000Y-58674000D03*
%TD*%
D15*
%TO.N,GND*%
X90424000Y-89408000D03*
X94234000Y-57912000D03*
X148590000Y-77216000D03*
X104902000Y-89662000D03*
X172974000Y-98806000D03*
X181830000Y-90090000D03*
%TO.N,EN*%
X130302000Y-86614000D03*
X124714000Y-58928000D03*
X130302000Y-78740000D03*
%TO.N,Vcc*%
X141986000Y-77216000D03*
X149606000Y-81026000D03*
X119721999Y-57570001D03*
X138938000Y-75184000D03*
%TO.N,S2*%
X100076000Y-71120000D03*
X115090000Y-71180000D03*
%TO.N,GPIO13*%
X140970000Y-64008000D03*
%TO.N,S4*%
X140970000Y-66548000D03*
%TO.N,S3*%
X140970000Y-65278000D03*
%TO.N,S5*%
X140970000Y-67818000D03*
%TO.N,GPIO22*%
X141099347Y-59814653D03*
%TO.N,CTS*%
X141478000Y-89662000D03*
X146812000Y-92202000D03*
%TD*%
D16*
%TO.N,EN*%
X130302000Y-64516000D02*
X124714000Y-58928000D01*
X130302000Y-86614000D02*
X130302000Y-64516000D01*
D17*
%TO.N,Vcc*%
X160020000Y-70612000D02*
X166520000Y-70612000D01*
D16*
X138938000Y-75184000D02*
X139954000Y-75184000D01*
X141986000Y-77216000D02*
X145796000Y-81026000D01*
X119700000Y-57592000D02*
X119721999Y-57570001D01*
X139954000Y-75184000D02*
X141986000Y-77216000D01*
X118298000Y-57592000D02*
X118298000Y-56554999D01*
X118298000Y-58674000D02*
X118298000Y-57592000D01*
X118298000Y-57592000D02*
X119700000Y-57592000D01*
X145796000Y-81026000D02*
X149606000Y-81026000D01*
%TO.N,S2*%
X115030000Y-71120000D02*
X115090000Y-71180000D01*
X110998000Y-71120000D02*
X115030000Y-71120000D01*
X100076000Y-71120000D02*
X110998000Y-71120000D01*
%TO.N,GPIO13*%
X141478000Y-64516000D02*
X140970000Y-64008000D01*
X144780000Y-67818000D02*
X141478000Y-64516000D01*
X148590000Y-67818000D02*
X144780000Y-67818000D01*
%TO.N,S4*%
X173228000Y-70032000D02*
X172378001Y-69182001D01*
D17*
X173228000Y-70032000D02*
X179728000Y-70032000D01*
D16*
X157137774Y-71755224D02*
X146177224Y-71755224D01*
X146177224Y-71755224D02*
X140970000Y-66548000D01*
X172378001Y-69182001D02*
X159710997Y-69182001D01*
X159710997Y-69182001D02*
X157137774Y-71755224D01*
%TO.N,S3*%
X144700799Y-69008799D02*
X140970000Y-65278000D01*
X160020000Y-64444000D02*
X155455201Y-69008799D01*
D17*
X160020000Y-64444000D02*
X166520000Y-64444000D01*
D16*
X155455201Y-69008799D02*
X144700799Y-69008799D01*
%TO.N,S5*%
X148264000Y-75112000D02*
X140970000Y-67818000D01*
X160020000Y-75112000D02*
X148264000Y-75112000D01*
D17*
X160020000Y-75112000D02*
X166520000Y-75112000D01*
D16*
%TO.N,GPIO22*%
X144022694Y-62738000D02*
X141099347Y-59814653D01*
X148590000Y-62738000D02*
X144022694Y-62738000D01*
%TO.N,CTS*%
X144272000Y-89662000D02*
X141478000Y-89662000D01*
X146812000Y-92202000D02*
X144272000Y-89662000D01*
D17*
%TO.N,unconnected-(J3-Pad3)*%
X149606000Y-97536000D02*
X149860000Y-97790000D01*
%TD*%
%TA.AperFunction,Conductor*%
%TO.N,GND*%
G36*
X115928590Y-55138002D02*
G01*
X115975083Y-55191658D01*
X115985187Y-55261932D01*
X115955693Y-55326512D01*
X115900345Y-55363524D01*
X115831216Y-55386587D01*
X115818038Y-55392760D01*
X115680193Y-55478062D01*
X115668792Y-55487098D01*
X115554261Y-55601828D01*
X115545249Y-55613239D01*
X115460184Y-55751242D01*
X115454037Y-55764423D01*
X115402862Y-55918709D01*
X115399995Y-55932085D01*
X115390328Y-56026437D01*
X115390000Y-56032854D01*
X115390000Y-56282884D01*
X115394475Y-56298123D01*
X115395865Y-56299328D01*
X115403548Y-56300999D01*
X116526000Y-56300999D01*
X116594121Y-56321001D01*
X116640614Y-56374657D01*
X116652000Y-56426999D01*
X116652000Y-59888884D01*
X116656475Y-59904123D01*
X116657865Y-59905328D01*
X116665548Y-59906999D01*
X116695095Y-59906999D01*
X116701614Y-59906662D01*
X116797206Y-59896743D01*
X116810600Y-59893851D01*
X116964784Y-59842412D01*
X116977962Y-59836239D01*
X117115807Y-59750937D01*
X117127208Y-59741901D01*
X117241738Y-59627172D01*
X117248794Y-59618238D01*
X117306712Y-59577177D01*
X117377635Y-59573947D01*
X117439046Y-59609574D01*
X117445846Y-59617407D01*
X117449522Y-59623348D01*
X117574697Y-59748305D01*
X117580927Y-59752145D01*
X117580928Y-59752146D01*
X117718288Y-59836816D01*
X117725262Y-59841115D01*
X117771653Y-59856502D01*
X117886611Y-59894632D01*
X117886613Y-59894632D01*
X117893139Y-59896797D01*
X117899975Y-59897497D01*
X117899978Y-59897498D01*
X117943031Y-59901909D01*
X117997600Y-59907500D01*
X118598400Y-59907500D01*
X118601646Y-59907163D01*
X118601650Y-59907163D01*
X118697308Y-59897238D01*
X118697312Y-59897237D01*
X118704166Y-59896526D01*
X118710702Y-59894345D01*
X118710704Y-59894345D01*
X118842806Y-59850272D01*
X118871946Y-59840550D01*
X119022348Y-59747478D01*
X119147305Y-59622303D01*
X119177112Y-59573947D01*
X119236275Y-59477968D01*
X119236276Y-59477966D01*
X119240115Y-59471738D01*
X119266564Y-59391995D01*
X119293632Y-59310389D01*
X119293632Y-59310387D01*
X119295797Y-59303861D01*
X119296655Y-59295492D01*
X119300909Y-59253969D01*
X119306500Y-59199400D01*
X119306500Y-58928000D01*
X123800496Y-58928000D01*
X123801186Y-58934565D01*
X123819463Y-59108457D01*
X123820458Y-59117928D01*
X123879473Y-59299556D01*
X123882776Y-59305278D01*
X123882777Y-59305279D01*
X123915962Y-59362757D01*
X123974960Y-59464944D01*
X123979378Y-59469851D01*
X123979379Y-59469852D01*
X124076015Y-59577177D01*
X124102747Y-59606866D01*
X124257248Y-59719118D01*
X124263276Y-59721802D01*
X124263278Y-59721803D01*
X124425681Y-59794109D01*
X124431712Y-59796794D01*
X124515732Y-59814653D01*
X124612056Y-59835128D01*
X124612061Y-59835128D01*
X124618513Y-59836500D01*
X124674406Y-59836500D01*
X124742527Y-59856502D01*
X124763501Y-59873405D01*
X129631595Y-64741499D01*
X129665621Y-64803811D01*
X129668500Y-64830594D01*
X129668500Y-78037476D01*
X129648498Y-78105597D01*
X129636142Y-78121779D01*
X129562960Y-78203056D01*
X129467473Y-78368444D01*
X129408458Y-78550072D01*
X129407768Y-78556633D01*
X129407768Y-78556635D01*
X129397734Y-78652109D01*
X129388496Y-78740000D01*
X129389186Y-78746565D01*
X129407463Y-78920457D01*
X129408458Y-78929928D01*
X129467473Y-79111556D01*
X129562960Y-79276944D01*
X129636137Y-79358215D01*
X129666853Y-79422221D01*
X129668500Y-79442524D01*
X129668500Y-85911476D01*
X129648498Y-85979597D01*
X129636142Y-85995779D01*
X129562960Y-86077056D01*
X129467473Y-86242444D01*
X129408458Y-86424072D01*
X129388496Y-86614000D01*
X129408458Y-86803928D01*
X129467473Y-86985556D01*
X129562960Y-87150944D01*
X129690747Y-87292866D01*
X129845248Y-87405118D01*
X129851276Y-87407802D01*
X129851278Y-87407803D01*
X130013681Y-87480109D01*
X130019712Y-87482794D01*
X130113112Y-87502647D01*
X130200056Y-87521128D01*
X130200061Y-87521128D01*
X130206513Y-87522500D01*
X130397487Y-87522500D01*
X130403939Y-87521128D01*
X130403944Y-87521128D01*
X130490888Y-87502647D01*
X130584288Y-87482794D01*
X130590319Y-87480109D01*
X130752722Y-87407803D01*
X130752724Y-87407802D01*
X130758752Y-87405118D01*
X130913253Y-87292866D01*
X131041040Y-87150944D01*
X131136527Y-86985556D01*
X131195542Y-86803928D01*
X131215504Y-86614000D01*
X131195542Y-86424072D01*
X131136527Y-86242444D01*
X131041040Y-86077056D01*
X130967863Y-85995785D01*
X130937147Y-85931779D01*
X130935500Y-85911476D01*
X130935500Y-79442524D01*
X130955502Y-79374403D01*
X130967858Y-79358221D01*
X131041040Y-79276944D01*
X131136527Y-79111556D01*
X131195542Y-78929928D01*
X131196538Y-78920457D01*
X131214814Y-78746565D01*
X131215504Y-78740000D01*
X131206266Y-78652109D01*
X131196232Y-78556635D01*
X131196232Y-78556633D01*
X131195542Y-78550072D01*
X131136527Y-78368444D01*
X131041040Y-78203056D01*
X130967863Y-78121785D01*
X130937147Y-78057779D01*
X130935500Y-78037476D01*
X130935500Y-75184000D01*
X138024496Y-75184000D01*
X138044458Y-75373928D01*
X138103473Y-75555556D01*
X138106776Y-75561278D01*
X138106777Y-75561279D01*
X138123682Y-75590559D01*
X138198960Y-75720944D01*
X138203378Y-75725851D01*
X138203379Y-75725852D01*
X138222467Y-75747051D01*
X138326747Y-75862866D01*
X138481248Y-75975118D01*
X138487276Y-75977802D01*
X138487278Y-75977803D01*
X138649681Y-76050109D01*
X138655712Y-76052794D01*
X138749113Y-76072647D01*
X138836056Y-76091128D01*
X138836061Y-76091128D01*
X138842513Y-76092500D01*
X139033487Y-76092500D01*
X139039939Y-76091128D01*
X139039944Y-76091128D01*
X139126887Y-76072647D01*
X139220288Y-76052794D01*
X139226319Y-76050109D01*
X139388722Y-75977803D01*
X139388724Y-75977802D01*
X139394752Y-75975118D01*
X139549253Y-75862866D01*
X139553668Y-75857963D01*
X139558580Y-75853540D01*
X139560614Y-75855799D01*
X139609895Y-75825496D01*
X139680878Y-75826909D01*
X139732076Y-75857980D01*
X141038878Y-77164783D01*
X141072904Y-77227095D01*
X141075093Y-77240706D01*
X141092458Y-77405928D01*
X141151473Y-77587556D01*
X141246960Y-77752944D01*
X141374747Y-77894866D01*
X141529248Y-78007118D01*
X141535276Y-78009802D01*
X141535278Y-78009803D01*
X141643035Y-78057779D01*
X141703712Y-78084794D01*
X141797113Y-78104647D01*
X141884056Y-78123128D01*
X141884061Y-78123128D01*
X141890513Y-78124500D01*
X141946406Y-78124500D01*
X142014527Y-78144502D01*
X142035501Y-78161405D01*
X145292343Y-81418247D01*
X145299887Y-81426537D01*
X145304000Y-81433018D01*
X145309777Y-81438443D01*
X145353667Y-81479658D01*
X145356509Y-81482413D01*
X145376231Y-81502135D01*
X145379355Y-81504558D01*
X145379359Y-81504562D01*
X145379424Y-81504612D01*
X145388445Y-81512317D01*
X145420679Y-81542586D01*
X145427627Y-81546405D01*
X145427629Y-81546407D01*
X145438432Y-81552346D01*
X145454959Y-81563202D01*
X145464698Y-81570757D01*
X145464700Y-81570758D01*
X145470960Y-81575614D01*
X145511540Y-81593174D01*
X145522188Y-81598391D01*
X145560940Y-81619695D01*
X145568616Y-81621666D01*
X145568619Y-81621667D01*
X145580562Y-81624733D01*
X145599267Y-81631137D01*
X145617855Y-81639181D01*
X145625678Y-81640420D01*
X145625688Y-81640423D01*
X145661524Y-81646099D01*
X145673144Y-81648505D01*
X145708289Y-81657528D01*
X145715970Y-81659500D01*
X145736224Y-81659500D01*
X145755934Y-81661051D01*
X145775943Y-81664220D01*
X145783835Y-81663474D01*
X145819961Y-81660059D01*
X145831819Y-81659500D01*
X148897800Y-81659500D01*
X148965921Y-81679502D01*
X148985147Y-81695843D01*
X148985420Y-81695540D01*
X148990332Y-81699963D01*
X148994747Y-81704866D01*
X149149248Y-81817118D01*
X149155276Y-81819802D01*
X149155278Y-81819803D01*
X149317681Y-81892109D01*
X149323712Y-81894794D01*
X149417112Y-81914647D01*
X149504056Y-81933128D01*
X149504061Y-81933128D01*
X149510513Y-81934500D01*
X149701487Y-81934500D01*
X149707939Y-81933128D01*
X149707944Y-81933128D01*
X149794888Y-81914647D01*
X149888288Y-81894794D01*
X149894319Y-81892109D01*
X150056722Y-81819803D01*
X150056724Y-81819802D01*
X150062752Y-81817118D01*
X150217253Y-81704866D01*
X150253851Y-81664220D01*
X150340621Y-81567852D01*
X150340622Y-81567851D01*
X150345040Y-81562944D01*
X150420053Y-81433018D01*
X150437223Y-81403279D01*
X150437224Y-81403278D01*
X150440527Y-81397556D01*
X150499542Y-81215928D01*
X150509861Y-81117753D01*
X150518814Y-81032565D01*
X150519504Y-81026000D01*
X150502994Y-80868916D01*
X150500232Y-80842635D01*
X150500232Y-80842633D01*
X150499542Y-80836072D01*
X150440527Y-80654444D01*
X150345040Y-80489056D01*
X150317915Y-80458930D01*
X150221675Y-80352045D01*
X150221674Y-80352044D01*
X150217253Y-80347134D01*
X150094311Y-80257811D01*
X150068094Y-80238763D01*
X150068093Y-80238762D01*
X150062752Y-80234882D01*
X150056724Y-80232198D01*
X150056722Y-80232197D01*
X149894319Y-80159891D01*
X149894318Y-80159891D01*
X149888288Y-80157206D01*
X149794887Y-80137353D01*
X149707944Y-80118872D01*
X149707939Y-80118872D01*
X149701487Y-80117500D01*
X149510513Y-80117500D01*
X149504061Y-80118872D01*
X149504056Y-80118872D01*
X149417113Y-80137353D01*
X149323712Y-80157206D01*
X149317682Y-80159891D01*
X149317681Y-80159891D01*
X149155278Y-80232197D01*
X149155276Y-80232198D01*
X149149248Y-80234882D01*
X149143907Y-80238762D01*
X149143906Y-80238763D01*
X149117689Y-80257811D01*
X148994747Y-80347134D01*
X148990332Y-80352037D01*
X148985420Y-80356460D01*
X148984295Y-80355211D01*
X148930986Y-80388051D01*
X148897800Y-80392500D01*
X146110594Y-80392500D01*
X146042473Y-80372498D01*
X146021499Y-80355595D01*
X142933122Y-77267217D01*
X142899096Y-77204905D01*
X142896907Y-77191292D01*
X142880232Y-77032635D01*
X142880232Y-77032633D01*
X142879542Y-77026072D01*
X142820527Y-76844444D01*
X142725040Y-76679056D01*
X142597253Y-76537134D01*
X142471853Y-76446025D01*
X142448094Y-76428763D01*
X142448093Y-76428762D01*
X142442752Y-76424882D01*
X142436724Y-76422198D01*
X142436722Y-76422197D01*
X142274319Y-76349891D01*
X142274318Y-76349891D01*
X142268288Y-76347206D01*
X142174888Y-76327353D01*
X142087944Y-76308872D01*
X142087939Y-76308872D01*
X142081487Y-76307500D01*
X142025594Y-76307500D01*
X141957473Y-76287498D01*
X141936499Y-76270595D01*
X140457652Y-74791747D01*
X140450112Y-74783461D01*
X140446000Y-74776982D01*
X140396348Y-74730356D01*
X140393507Y-74727602D01*
X140373770Y-74707865D01*
X140370573Y-74705385D01*
X140361551Y-74697680D01*
X140335100Y-74672841D01*
X140329321Y-74667414D01*
X140322375Y-74663595D01*
X140322372Y-74663593D01*
X140311566Y-74657652D01*
X140295047Y-74646801D01*
X140289048Y-74642148D01*
X140279041Y-74634386D01*
X140271772Y-74631241D01*
X140271768Y-74631238D01*
X140238463Y-74616826D01*
X140227813Y-74611609D01*
X140189060Y-74590305D01*
X140169437Y-74585267D01*
X140150734Y-74578863D01*
X140139420Y-74573967D01*
X140139419Y-74573967D01*
X140132145Y-74570819D01*
X140124322Y-74569580D01*
X140124312Y-74569577D01*
X140088476Y-74563901D01*
X140076856Y-74561495D01*
X140041711Y-74552472D01*
X140041710Y-74552472D01*
X140034030Y-74550500D01*
X140013776Y-74550500D01*
X139994065Y-74548949D01*
X139981886Y-74547020D01*
X139974057Y-74545780D01*
X139966165Y-74546526D01*
X139930039Y-74549941D01*
X139918181Y-74550500D01*
X139646200Y-74550500D01*
X139578079Y-74530498D01*
X139558853Y-74514157D01*
X139558580Y-74514460D01*
X139553668Y-74510037D01*
X139549253Y-74505134D01*
X139504460Y-74472590D01*
X139400094Y-74396763D01*
X139400093Y-74396762D01*
X139394752Y-74392882D01*
X139388724Y-74390198D01*
X139388722Y-74390197D01*
X139226319Y-74317891D01*
X139226318Y-74317891D01*
X139220288Y-74315206D01*
X139126887Y-74295353D01*
X139039944Y-74276872D01*
X139039939Y-74276872D01*
X139033487Y-74275500D01*
X138842513Y-74275500D01*
X138836061Y-74276872D01*
X138836056Y-74276872D01*
X138749113Y-74295353D01*
X138655712Y-74315206D01*
X138649682Y-74317891D01*
X138649681Y-74317891D01*
X138487278Y-74390197D01*
X138487276Y-74390198D01*
X138481248Y-74392882D01*
X138326747Y-74505134D01*
X138322326Y-74510044D01*
X138322325Y-74510045D01*
X138213203Y-74631238D01*
X138198960Y-74647056D01*
X138103473Y-74812444D01*
X138044458Y-74994072D01*
X138024496Y-75184000D01*
X130935500Y-75184000D01*
X130935500Y-67818000D01*
X140056496Y-67818000D01*
X140057186Y-67824565D01*
X140070492Y-67951161D01*
X140076458Y-68007928D01*
X140135473Y-68189556D01*
X140230960Y-68354944D01*
X140235378Y-68359851D01*
X140235379Y-68359852D01*
X140286305Y-68416411D01*
X140358747Y-68496866D01*
X140445294Y-68559746D01*
X140502591Y-68601375D01*
X140513248Y-68609118D01*
X140519276Y-68611802D01*
X140519278Y-68611803D01*
X140681681Y-68684109D01*
X140687712Y-68686794D01*
X140771581Y-68704621D01*
X140868056Y-68725128D01*
X140868061Y-68725128D01*
X140874513Y-68726500D01*
X140930406Y-68726500D01*
X140998527Y-68746502D01*
X141019501Y-68763405D01*
X147760348Y-75504253D01*
X147767888Y-75512539D01*
X147772000Y-75519018D01*
X147777777Y-75524443D01*
X147821651Y-75565643D01*
X147824493Y-75568398D01*
X147844230Y-75588135D01*
X147847427Y-75590615D01*
X147856447Y-75598318D01*
X147888679Y-75628586D01*
X147895625Y-75632405D01*
X147895628Y-75632407D01*
X147906434Y-75638348D01*
X147922953Y-75649199D01*
X147938959Y-75661614D01*
X147946228Y-75664759D01*
X147946232Y-75664762D01*
X147979537Y-75679174D01*
X147990187Y-75684391D01*
X148028940Y-75705695D01*
X148036615Y-75707666D01*
X148036616Y-75707666D01*
X148048562Y-75710733D01*
X148067266Y-75717137D01*
X148076064Y-75720944D01*
X148085855Y-75725181D01*
X148093678Y-75726420D01*
X148093688Y-75726423D01*
X148129524Y-75732099D01*
X148141144Y-75734505D01*
X148176289Y-75743528D01*
X148183970Y-75745500D01*
X148204224Y-75745500D01*
X148223934Y-75747051D01*
X148243943Y-75750220D01*
X148251835Y-75749474D01*
X148287961Y-75746059D01*
X148299819Y-75745500D01*
X158744274Y-75745500D01*
X158812395Y-75765502D01*
X158851707Y-75805665D01*
X158919987Y-75917088D01*
X159066250Y-76085938D01*
X159238126Y-76228632D01*
X159431000Y-76341338D01*
X159435825Y-76343180D01*
X159435826Y-76343181D01*
X159453398Y-76349891D01*
X159639692Y-76421030D01*
X159644760Y-76422061D01*
X159644763Y-76422062D01*
X159752017Y-76443883D01*
X159858597Y-76465567D01*
X159863772Y-76465757D01*
X159863774Y-76465757D01*
X160076673Y-76473564D01*
X160076677Y-76473564D01*
X160081837Y-76473753D01*
X160086957Y-76473097D01*
X160086959Y-76473097D01*
X160298288Y-76446025D01*
X160298289Y-76446025D01*
X160303416Y-76445368D01*
X160371699Y-76424882D01*
X160512429Y-76382661D01*
X160512434Y-76382659D01*
X160517384Y-76381174D01*
X160717994Y-76282896D01*
X160899860Y-76153173D01*
X161058096Y-75995489D01*
X161150608Y-75866745D01*
X161185438Y-75818273D01*
X161185439Y-75818272D01*
X161188453Y-75814077D01*
X161190746Y-75809438D01*
X161191247Y-75808605D01*
X161243477Y-75760516D01*
X161299250Y-75747500D01*
X165245500Y-75747500D01*
X165313621Y-75767502D01*
X165352933Y-75807666D01*
X165417287Y-75912683D01*
X165417291Y-75912688D01*
X165419987Y-75917088D01*
X165566250Y-76085938D01*
X165738126Y-76228632D01*
X165931000Y-76341338D01*
X165935825Y-76343180D01*
X165935826Y-76343181D01*
X165953398Y-76349891D01*
X166139692Y-76421030D01*
X166144760Y-76422061D01*
X166144763Y-76422062D01*
X166252017Y-76443883D01*
X166358597Y-76465567D01*
X166363772Y-76465757D01*
X166363774Y-76465757D01*
X166576673Y-76473564D01*
X166576677Y-76473564D01*
X166581837Y-76473753D01*
X166586957Y-76473097D01*
X166586959Y-76473097D01*
X166798288Y-76446025D01*
X166798289Y-76446025D01*
X166803416Y-76445368D01*
X166871699Y-76424882D01*
X167012429Y-76382661D01*
X167012434Y-76382659D01*
X167017384Y-76381174D01*
X167217994Y-76282896D01*
X167399860Y-76153173D01*
X167558096Y-75995489D01*
X167688453Y-75814077D01*
X167691158Y-75808605D01*
X167785136Y-75618453D01*
X167785137Y-75618451D01*
X167787430Y-75613811D01*
X167852370Y-75400069D01*
X167881529Y-75178590D01*
X167883156Y-75112000D01*
X167864852Y-74889361D01*
X167810431Y-74672702D01*
X167721354Y-74467840D01*
X167675372Y-74396763D01*
X167602822Y-74284617D01*
X167602820Y-74284614D01*
X167600014Y-74280277D01*
X167449670Y-74115051D01*
X167445619Y-74111852D01*
X167445615Y-74111848D01*
X167278414Y-73979800D01*
X167278410Y-73979798D01*
X167274359Y-73976598D01*
X167078789Y-73868638D01*
X167073920Y-73866914D01*
X167073916Y-73866912D01*
X166873087Y-73795795D01*
X166873083Y-73795794D01*
X166868212Y-73794069D01*
X166863119Y-73793162D01*
X166863116Y-73793161D01*
X166653373Y-73755800D01*
X166653367Y-73755799D01*
X166648284Y-73754894D01*
X166574452Y-73753992D01*
X166430081Y-73752228D01*
X166430079Y-73752228D01*
X166424911Y-73752165D01*
X166204091Y-73785955D01*
X165991756Y-73855357D01*
X165793607Y-73958507D01*
X165789474Y-73961610D01*
X165789471Y-73961612D01*
X165765247Y-73979800D01*
X165614965Y-74092635D01*
X165460629Y-74254138D01*
X165365985Y-74392882D01*
X165346460Y-74421504D01*
X165291549Y-74466507D01*
X165242372Y-74476500D01*
X161295511Y-74476500D01*
X161227390Y-74456498D01*
X161189719Y-74418940D01*
X161102822Y-74284617D01*
X161102820Y-74284614D01*
X161100014Y-74280277D01*
X160949670Y-74115051D01*
X160945619Y-74111852D01*
X160945615Y-74111848D01*
X160778414Y-73979800D01*
X160778410Y-73979798D01*
X160774359Y-73976598D01*
X160578789Y-73868638D01*
X160573920Y-73866914D01*
X160573916Y-73866912D01*
X160373087Y-73795795D01*
X160373083Y-73795794D01*
X160368212Y-73794069D01*
X160363119Y-73793162D01*
X160363116Y-73793161D01*
X160153373Y-73755800D01*
X160153367Y-73755799D01*
X160148284Y-73754894D01*
X160074452Y-73753992D01*
X159930081Y-73752228D01*
X159930079Y-73752228D01*
X159924911Y-73752165D01*
X159704091Y-73785955D01*
X159491756Y-73855357D01*
X159293607Y-73958507D01*
X159289474Y-73961610D01*
X159289471Y-73961612D01*
X159265247Y-73979800D01*
X159114965Y-74092635D01*
X158960629Y-74254138D01*
X158957715Y-74258410D01*
X158957714Y-74258411D01*
X158845095Y-74423504D01*
X158790184Y-74468507D01*
X158741007Y-74478500D01*
X148578594Y-74478500D01*
X148510473Y-74458498D01*
X148489499Y-74441595D01*
X146651723Y-72603819D01*
X146617697Y-72541507D01*
X146622762Y-72470692D01*
X146665309Y-72413856D01*
X146731829Y-72389045D01*
X146740818Y-72388724D01*
X157059007Y-72388724D01*
X157070190Y-72389251D01*
X157077683Y-72390926D01*
X157085609Y-72390677D01*
X157085610Y-72390677D01*
X157145760Y-72388786D01*
X157149719Y-72388724D01*
X157177630Y-72388724D01*
X157181565Y-72388227D01*
X157181630Y-72388219D01*
X157193467Y-72387286D01*
X157225725Y-72386272D01*
X157229744Y-72386146D01*
X157237663Y-72385897D01*
X157257117Y-72380245D01*
X157276474Y-72376237D01*
X157288704Y-72374692D01*
X157288705Y-72374692D01*
X157296571Y-72373698D01*
X157303942Y-72370779D01*
X157303944Y-72370779D01*
X157337686Y-72357420D01*
X157348916Y-72353575D01*
X157383757Y-72343453D01*
X157383758Y-72343453D01*
X157391367Y-72341242D01*
X157398186Y-72337209D01*
X157398191Y-72337207D01*
X157408802Y-72330931D01*
X157426550Y-72322236D01*
X157445391Y-72314776D01*
X157481161Y-72288788D01*
X157491081Y-72282272D01*
X157522309Y-72263804D01*
X157522312Y-72263802D01*
X157529136Y-72259766D01*
X157543457Y-72245445D01*
X157558491Y-72232604D01*
X157568468Y-72225355D01*
X157574881Y-72220696D01*
X157603072Y-72186619D01*
X157611062Y-72177840D01*
X158599626Y-71189276D01*
X158661938Y-71155250D01*
X158732753Y-71160315D01*
X158789589Y-71202862D01*
X158801188Y-71221562D01*
X158801320Y-71221822D01*
X158803266Y-71226616D01*
X158805966Y-71231022D01*
X158805968Y-71231026D01*
X158917291Y-71412689D01*
X158919987Y-71417088D01*
X159066250Y-71585938D01*
X159238126Y-71728632D01*
X159431000Y-71841338D01*
X159435825Y-71843180D01*
X159435826Y-71843181D01*
X159476901Y-71858866D01*
X159639692Y-71921030D01*
X159644760Y-71922061D01*
X159644763Y-71922062D01*
X159752017Y-71943883D01*
X159858597Y-71965567D01*
X159863772Y-71965757D01*
X159863774Y-71965757D01*
X160076673Y-71973564D01*
X160076677Y-71973564D01*
X160081837Y-71973753D01*
X160086957Y-71973097D01*
X160086959Y-71973097D01*
X160298288Y-71946025D01*
X160298289Y-71946025D01*
X160303416Y-71945368D01*
X160308366Y-71943883D01*
X160512429Y-71882661D01*
X160512434Y-71882659D01*
X160517384Y-71881174D01*
X160717994Y-71782896D01*
X160899860Y-71653173D01*
X161058096Y-71495489D01*
X161065439Y-71485271D01*
X161185438Y-71318273D01*
X161185439Y-71318272D01*
X161188453Y-71314077D01*
X161190746Y-71309438D01*
X161191247Y-71308605D01*
X161243477Y-71260516D01*
X161299250Y-71247500D01*
X165245500Y-71247500D01*
X165313621Y-71267502D01*
X165352933Y-71307666D01*
X165417287Y-71412683D01*
X165417291Y-71412688D01*
X165419987Y-71417088D01*
X165566250Y-71585938D01*
X165738126Y-71728632D01*
X165931000Y-71841338D01*
X165935825Y-71843180D01*
X165935826Y-71843181D01*
X165976901Y-71858866D01*
X166139692Y-71921030D01*
X166144760Y-71922061D01*
X166144763Y-71922062D01*
X166252017Y-71943883D01*
X166358597Y-71965567D01*
X166363772Y-71965757D01*
X166363774Y-71965757D01*
X166576673Y-71973564D01*
X166576677Y-71973564D01*
X166581837Y-71973753D01*
X166586957Y-71973097D01*
X166586959Y-71973097D01*
X166798288Y-71946025D01*
X166798289Y-71946025D01*
X166803416Y-71945368D01*
X166808366Y-71943883D01*
X167012429Y-71882661D01*
X167012434Y-71882659D01*
X167017384Y-71881174D01*
X167217994Y-71782896D01*
X167399860Y-71653173D01*
X167558096Y-71495489D01*
X167617594Y-71412689D01*
X167685435Y-71318277D01*
X167688453Y-71314077D01*
X167691158Y-71308605D01*
X167785136Y-71118453D01*
X167785137Y-71118451D01*
X167787430Y-71113811D01*
X167852370Y-70900069D01*
X167881529Y-70678590D01*
X167882203Y-70651020D01*
X167883074Y-70615365D01*
X167883074Y-70615361D01*
X167883156Y-70612000D01*
X167864852Y-70389361D01*
X167810431Y-70172702D01*
X167731747Y-69991741D01*
X167722927Y-69921297D01*
X167753594Y-69857265D01*
X167814010Y-69819977D01*
X167847297Y-69815501D01*
X171744645Y-69815501D01*
X171812766Y-69835503D01*
X171859259Y-69889159D01*
X171869932Y-69954889D01*
X171868591Y-69967438D01*
X171865251Y-69998695D01*
X171865548Y-70003848D01*
X171865548Y-70003851D01*
X171875011Y-70167964D01*
X171878110Y-70221715D01*
X171879247Y-70226761D01*
X171879248Y-70226767D01*
X171898278Y-70311206D01*
X171927222Y-70439639D01*
X171983073Y-70577185D01*
X172007828Y-70638148D01*
X172011266Y-70646616D01*
X172013965Y-70651020D01*
X172125288Y-70832683D01*
X172127987Y-70837088D01*
X172274250Y-71005938D01*
X172446126Y-71148632D01*
X172639000Y-71261338D01*
X172847692Y-71341030D01*
X172852760Y-71342061D01*
X172852763Y-71342062D01*
X172957471Y-71363365D01*
X173066597Y-71385567D01*
X173071772Y-71385757D01*
X173071774Y-71385757D01*
X173284673Y-71393564D01*
X173284677Y-71393564D01*
X173289837Y-71393753D01*
X173294957Y-71393097D01*
X173294959Y-71393097D01*
X173506288Y-71366025D01*
X173506289Y-71366025D01*
X173511416Y-71365368D01*
X173516366Y-71363883D01*
X173720429Y-71302661D01*
X173720434Y-71302659D01*
X173725384Y-71301174D01*
X173925994Y-71202896D01*
X174107860Y-71073173D01*
X174266096Y-70915489D01*
X174325594Y-70832689D01*
X174393438Y-70738273D01*
X174393439Y-70738272D01*
X174396453Y-70734077D01*
X174398746Y-70729438D01*
X174399247Y-70728605D01*
X174451477Y-70680516D01*
X174507250Y-70667500D01*
X178453500Y-70667500D01*
X178521621Y-70687502D01*
X178560933Y-70727666D01*
X178625287Y-70832683D01*
X178625291Y-70832688D01*
X178627987Y-70837088D01*
X178774250Y-71005938D01*
X178946126Y-71148632D01*
X179139000Y-71261338D01*
X179347692Y-71341030D01*
X179352760Y-71342061D01*
X179352763Y-71342062D01*
X179457471Y-71363365D01*
X179566597Y-71385567D01*
X179571772Y-71385757D01*
X179571774Y-71385757D01*
X179784673Y-71393564D01*
X179784677Y-71393564D01*
X179789837Y-71393753D01*
X179794957Y-71393097D01*
X179794959Y-71393097D01*
X180006288Y-71366025D01*
X180006289Y-71366025D01*
X180011416Y-71365368D01*
X180016366Y-71363883D01*
X180220429Y-71302661D01*
X180220434Y-71302659D01*
X180225384Y-71301174D01*
X180425994Y-71202896D01*
X180607860Y-71073173D01*
X180766096Y-70915489D01*
X180825594Y-70832689D01*
X180893435Y-70738277D01*
X180896453Y-70734077D01*
X180899158Y-70728605D01*
X180993136Y-70538453D01*
X180993137Y-70538451D01*
X180995430Y-70533811D01*
X181056513Y-70332763D01*
X181058865Y-70325023D01*
X181058865Y-70325021D01*
X181060370Y-70320069D01*
X181089529Y-70098590D01*
X181091156Y-70032000D01*
X181072852Y-69809361D01*
X181018431Y-69592702D01*
X180929354Y-69387840D01*
X180850950Y-69266646D01*
X180810822Y-69204617D01*
X180810820Y-69204614D01*
X180808014Y-69200277D01*
X180657670Y-69035051D01*
X180653619Y-69031852D01*
X180653615Y-69031848D01*
X180486414Y-68899800D01*
X180486410Y-68899798D01*
X180482359Y-68896598D01*
X180286789Y-68788638D01*
X180281920Y-68786914D01*
X180281916Y-68786912D01*
X180081087Y-68715795D01*
X180081083Y-68715794D01*
X180076212Y-68714069D01*
X180071119Y-68713162D01*
X180071116Y-68713161D01*
X179861373Y-68675800D01*
X179861367Y-68675799D01*
X179856284Y-68674894D01*
X179782452Y-68673992D01*
X179638081Y-68672228D01*
X179638079Y-68672228D01*
X179632911Y-68672165D01*
X179412091Y-68705955D01*
X179199756Y-68775357D01*
X179001607Y-68878507D01*
X178997474Y-68881610D01*
X178997471Y-68881612D01*
X178973247Y-68899800D01*
X178822965Y-69012635D01*
X178668629Y-69174138D01*
X178555549Y-69339908D01*
X178554460Y-69341504D01*
X178499549Y-69386507D01*
X178450372Y-69396500D01*
X174503511Y-69396500D01*
X174435390Y-69376498D01*
X174397719Y-69338940D01*
X174310822Y-69204617D01*
X174310820Y-69204614D01*
X174308014Y-69200277D01*
X174157670Y-69035051D01*
X174153619Y-69031852D01*
X174153615Y-69031848D01*
X173986414Y-68899800D01*
X173986410Y-68899798D01*
X173982359Y-68896598D01*
X173786789Y-68788638D01*
X173781920Y-68786914D01*
X173781916Y-68786912D01*
X173581087Y-68715795D01*
X173581083Y-68715794D01*
X173576212Y-68714069D01*
X173571119Y-68713162D01*
X173571116Y-68713161D01*
X173361373Y-68675800D01*
X173361367Y-68675799D01*
X173356284Y-68674894D01*
X173282452Y-68673992D01*
X173138081Y-68672228D01*
X173138079Y-68672228D01*
X173132911Y-68672165D01*
X173004726Y-68691780D01*
X172917200Y-68705173D01*
X172917197Y-68705174D01*
X172912091Y-68705955D01*
X172907181Y-68707560D01*
X172907172Y-68707562D01*
X172897308Y-68710786D01*
X172826344Y-68712937D01*
X172771912Y-68682872D01*
X172763349Y-68674831D01*
X172753322Y-68665415D01*
X172746376Y-68661596D01*
X172746373Y-68661594D01*
X172735567Y-68655653D01*
X172719048Y-68644802D01*
X172718584Y-68644442D01*
X172703042Y-68632387D01*
X172695773Y-68629242D01*
X172695769Y-68629239D01*
X172662464Y-68614827D01*
X172651814Y-68609610D01*
X172613061Y-68588306D01*
X172593438Y-68583268D01*
X172574735Y-68576864D01*
X172563421Y-68571968D01*
X172563420Y-68571968D01*
X172556146Y-68568820D01*
X172548323Y-68567581D01*
X172548313Y-68567578D01*
X172512477Y-68561902D01*
X172500857Y-68559496D01*
X172465712Y-68550473D01*
X172465711Y-68550473D01*
X172458031Y-68548501D01*
X172437777Y-68548501D01*
X172418066Y-68546950D01*
X172405887Y-68545021D01*
X172398058Y-68543781D01*
X172368787Y-68546548D01*
X172354040Y-68547942D01*
X172342182Y-68548501D01*
X159789764Y-68548501D01*
X159778581Y-68547974D01*
X159771088Y-68546299D01*
X159763162Y-68546548D01*
X159763161Y-68546548D01*
X159702998Y-68548439D01*
X159699040Y-68548501D01*
X159671141Y-68548501D01*
X159667151Y-68549005D01*
X159655317Y-68549937D01*
X159611108Y-68551327D01*
X159603494Y-68553539D01*
X159603489Y-68553540D01*
X159591656Y-68556978D01*
X159572293Y-68560989D01*
X159552200Y-68563527D01*
X159544833Y-68566444D01*
X159544828Y-68566445D01*
X159511089Y-68579803D01*
X159499862Y-68583647D01*
X159457404Y-68595983D01*
X159450578Y-68600020D01*
X159439969Y-68606294D01*
X159422221Y-68614989D01*
X159403380Y-68622449D01*
X159396964Y-68627111D01*
X159396963Y-68627111D01*
X159367610Y-68648437D01*
X159357690Y-68654953D01*
X159326462Y-68673421D01*
X159326459Y-68673423D01*
X159319635Y-68677459D01*
X159305314Y-68691780D01*
X159290281Y-68704620D01*
X159273890Y-68716529D01*
X159265214Y-68727017D01*
X159245699Y-68750606D01*
X159237709Y-68759385D01*
X156912274Y-71084819D01*
X156849962Y-71118845D01*
X156823179Y-71121724D01*
X146491818Y-71121724D01*
X146423697Y-71101722D01*
X146402723Y-71084819D01*
X145175298Y-69857394D01*
X145141272Y-69795082D01*
X145146337Y-69724267D01*
X145188884Y-69667431D01*
X145255404Y-69642620D01*
X145264393Y-69642299D01*
X155376434Y-69642299D01*
X155387617Y-69642826D01*
X155395110Y-69644501D01*
X155403036Y-69644252D01*
X155403037Y-69644252D01*
X155463187Y-69642361D01*
X155467146Y-69642299D01*
X155495057Y-69642299D01*
X155498992Y-69641802D01*
X155499057Y-69641794D01*
X155510894Y-69640861D01*
X155543152Y-69639847D01*
X155547171Y-69639721D01*
X155555090Y-69639472D01*
X155574544Y-69633820D01*
X155593901Y-69629812D01*
X155606131Y-69628267D01*
X155606132Y-69628267D01*
X155613998Y-69627273D01*
X155621369Y-69624354D01*
X155621371Y-69624354D01*
X155655113Y-69610995D01*
X155666343Y-69607150D01*
X155701184Y-69597028D01*
X155701185Y-69597028D01*
X155708794Y-69594817D01*
X155715613Y-69590784D01*
X155715618Y-69590782D01*
X155726229Y-69584506D01*
X155743977Y-69575811D01*
X155762818Y-69568351D01*
X155770152Y-69563023D01*
X155798588Y-69542363D01*
X155808508Y-69535847D01*
X155839736Y-69517379D01*
X155839739Y-69517377D01*
X155846563Y-69513341D01*
X155860884Y-69499020D01*
X155875918Y-69486179D01*
X155885895Y-69478930D01*
X155892308Y-69474271D01*
X155920499Y-69440194D01*
X155928489Y-69431415D01*
X159564549Y-65795355D01*
X159626861Y-65761329D01*
X159678762Y-65760979D01*
X159858597Y-65797567D01*
X159863772Y-65797757D01*
X159863774Y-65797757D01*
X160076673Y-65805564D01*
X160076677Y-65805564D01*
X160081837Y-65805753D01*
X160086957Y-65805097D01*
X160086959Y-65805097D01*
X160298288Y-65778025D01*
X160298289Y-65778025D01*
X160303416Y-65777368D01*
X160311786Y-65774857D01*
X160512429Y-65714661D01*
X160512434Y-65714659D01*
X160517384Y-65713174D01*
X160717994Y-65614896D01*
X160899860Y-65485173D01*
X160910866Y-65474206D01*
X161005573Y-65379829D01*
X161058096Y-65327489D01*
X161098105Y-65271811D01*
X161185438Y-65150273D01*
X161185439Y-65150272D01*
X161188453Y-65146077D01*
X161190746Y-65141438D01*
X161191247Y-65140605D01*
X161243477Y-65092516D01*
X161299250Y-65079500D01*
X165245500Y-65079500D01*
X165313621Y-65099502D01*
X165352933Y-65139666D01*
X165417287Y-65244683D01*
X165417291Y-65244688D01*
X165419987Y-65249088D01*
X165566250Y-65417938D01*
X165738126Y-65560632D01*
X165931000Y-65673338D01*
X165935825Y-65675180D01*
X165935826Y-65675181D01*
X165963213Y-65685639D01*
X166139692Y-65753030D01*
X166144760Y-65754061D01*
X166144763Y-65754062D01*
X166246974Y-65774857D01*
X166358597Y-65797567D01*
X166363772Y-65797757D01*
X166363774Y-65797757D01*
X166576673Y-65805564D01*
X166576677Y-65805564D01*
X166581837Y-65805753D01*
X166586957Y-65805097D01*
X166586959Y-65805097D01*
X166798288Y-65778025D01*
X166798289Y-65778025D01*
X166803416Y-65777368D01*
X166811786Y-65774857D01*
X167012429Y-65714661D01*
X167012434Y-65714659D01*
X167017384Y-65713174D01*
X167217994Y-65614896D01*
X167380903Y-65498695D01*
X171865251Y-65498695D01*
X171865548Y-65503848D01*
X171865548Y-65503851D01*
X171875170Y-65670731D01*
X171878110Y-65721715D01*
X171879247Y-65726761D01*
X171879248Y-65726767D01*
X171898946Y-65814171D01*
X171927222Y-65939639D01*
X172011266Y-66146616D01*
X172013965Y-66151020D01*
X172117009Y-66319173D01*
X172127987Y-66337088D01*
X172274250Y-66505938D01*
X172446126Y-66648632D01*
X172639000Y-66761338D01*
X172847692Y-66841030D01*
X172852760Y-66842061D01*
X172852763Y-66842062D01*
X172960017Y-66863883D01*
X173066597Y-66885567D01*
X173071772Y-66885757D01*
X173071774Y-66885757D01*
X173284673Y-66893564D01*
X173284677Y-66893564D01*
X173289837Y-66893753D01*
X173294957Y-66893097D01*
X173294959Y-66893097D01*
X173506288Y-66866025D01*
X173506289Y-66866025D01*
X173511416Y-66865368D01*
X173516366Y-66863883D01*
X173720429Y-66802661D01*
X173720434Y-66802659D01*
X173725384Y-66801174D01*
X173925994Y-66702896D01*
X174107860Y-66573173D01*
X174119718Y-66561357D01*
X174262435Y-66419137D01*
X174266096Y-66415489D01*
X174325594Y-66332689D01*
X174393435Y-66238277D01*
X174396453Y-66234077D01*
X174427766Y-66170721D01*
X174493136Y-66038453D01*
X174493137Y-66038451D01*
X174495430Y-66033811D01*
X174538304Y-65892697D01*
X174558865Y-65825023D01*
X174558865Y-65825021D01*
X174560370Y-65820069D01*
X174589529Y-65598590D01*
X174590449Y-65560939D01*
X174591074Y-65535365D01*
X174591074Y-65535361D01*
X174591156Y-65532000D01*
X174588418Y-65498695D01*
X178365251Y-65498695D01*
X178365548Y-65503848D01*
X178365548Y-65503851D01*
X178375170Y-65670731D01*
X178378110Y-65721715D01*
X178379247Y-65726761D01*
X178379248Y-65726767D01*
X178398946Y-65814171D01*
X178427222Y-65939639D01*
X178511266Y-66146616D01*
X178513965Y-66151020D01*
X178617009Y-66319173D01*
X178627987Y-66337088D01*
X178774250Y-66505938D01*
X178946126Y-66648632D01*
X179139000Y-66761338D01*
X179347692Y-66841030D01*
X179352760Y-66842061D01*
X179352763Y-66842062D01*
X179460017Y-66863883D01*
X179566597Y-66885567D01*
X179571772Y-66885757D01*
X179571774Y-66885757D01*
X179784673Y-66893564D01*
X179784677Y-66893564D01*
X179789837Y-66893753D01*
X179794957Y-66893097D01*
X179794959Y-66893097D01*
X180006288Y-66866025D01*
X180006289Y-66866025D01*
X180011416Y-66865368D01*
X180016366Y-66863883D01*
X180220429Y-66802661D01*
X180220434Y-66802659D01*
X180225384Y-66801174D01*
X180425994Y-66702896D01*
X180607860Y-66573173D01*
X180619718Y-66561357D01*
X180762435Y-66419137D01*
X180766096Y-66415489D01*
X180825594Y-66332689D01*
X180893435Y-66238277D01*
X180896453Y-66234077D01*
X180927766Y-66170721D01*
X180993136Y-66038453D01*
X180993137Y-66038451D01*
X180995430Y-66033811D01*
X181038304Y-65892697D01*
X181058865Y-65825023D01*
X181058865Y-65825021D01*
X181060370Y-65820069D01*
X181089529Y-65598590D01*
X181090449Y-65560939D01*
X181091074Y-65535365D01*
X181091074Y-65535361D01*
X181091156Y-65532000D01*
X181072852Y-65309361D01*
X181018431Y-65092702D01*
X180929354Y-64887840D01*
X180838094Y-64746774D01*
X180810822Y-64704617D01*
X180810820Y-64704614D01*
X180808014Y-64700277D01*
X180657670Y-64535051D01*
X180653619Y-64531852D01*
X180653615Y-64531848D01*
X180486414Y-64399800D01*
X180486410Y-64399798D01*
X180482359Y-64396598D01*
X180465221Y-64387137D01*
X180354387Y-64325954D01*
X180286789Y-64288638D01*
X180281920Y-64286914D01*
X180281916Y-64286912D01*
X180081087Y-64215795D01*
X180081083Y-64215794D01*
X180076212Y-64214069D01*
X180071119Y-64213162D01*
X180071116Y-64213161D01*
X179861373Y-64175800D01*
X179861367Y-64175799D01*
X179856284Y-64174894D01*
X179782452Y-64173992D01*
X179638081Y-64172228D01*
X179638079Y-64172228D01*
X179632911Y-64172165D01*
X179412091Y-64205955D01*
X179199756Y-64275357D01*
X179169443Y-64291137D01*
X179042532Y-64357203D01*
X179001607Y-64378507D01*
X178997474Y-64381610D01*
X178997471Y-64381612D01*
X178831722Y-64506060D01*
X178822965Y-64512635D01*
X178668629Y-64674138D01*
X178665715Y-64678410D01*
X178665714Y-64678411D01*
X178625732Y-64737023D01*
X178542743Y-64858680D01*
X178504598Y-64940857D01*
X178464284Y-65027707D01*
X178448688Y-65061305D01*
X178388989Y-65276570D01*
X178365251Y-65498695D01*
X174588418Y-65498695D01*
X174572852Y-65309361D01*
X174518431Y-65092702D01*
X174429354Y-64887840D01*
X174338094Y-64746774D01*
X174310822Y-64704617D01*
X174310820Y-64704614D01*
X174308014Y-64700277D01*
X174157670Y-64535051D01*
X174153619Y-64531852D01*
X174153615Y-64531848D01*
X173986414Y-64399800D01*
X173986410Y-64399798D01*
X173982359Y-64396598D01*
X173965221Y-64387137D01*
X173854387Y-64325954D01*
X173786789Y-64288638D01*
X173781920Y-64286914D01*
X173781916Y-64286912D01*
X173581087Y-64215795D01*
X173581083Y-64215794D01*
X173576212Y-64214069D01*
X173571119Y-64213162D01*
X173571116Y-64213161D01*
X173361373Y-64175800D01*
X173361367Y-64175799D01*
X173356284Y-64174894D01*
X173282452Y-64173992D01*
X173138081Y-64172228D01*
X173138079Y-64172228D01*
X173132911Y-64172165D01*
X172912091Y-64205955D01*
X172699756Y-64275357D01*
X172669443Y-64291137D01*
X172542532Y-64357203D01*
X172501607Y-64378507D01*
X172497474Y-64381610D01*
X172497471Y-64381612D01*
X172331722Y-64506060D01*
X172322965Y-64512635D01*
X172168629Y-64674138D01*
X172165715Y-64678410D01*
X172165714Y-64678411D01*
X172125732Y-64737023D01*
X172042743Y-64858680D01*
X172004598Y-64940857D01*
X171964284Y-65027707D01*
X171948688Y-65061305D01*
X171888989Y-65276570D01*
X171865251Y-65498695D01*
X167380903Y-65498695D01*
X167399860Y-65485173D01*
X167410866Y-65474206D01*
X167505573Y-65379829D01*
X167558096Y-65327489D01*
X167598105Y-65271811D01*
X167685435Y-65150277D01*
X167688453Y-65146077D01*
X167691158Y-65140605D01*
X167785136Y-64950453D01*
X167785137Y-64950451D01*
X167787430Y-64945811D01*
X167827995Y-64812297D01*
X167850865Y-64737023D01*
X167850865Y-64737021D01*
X167852370Y-64732069D01*
X167881529Y-64510590D01*
X167882371Y-64476144D01*
X167883074Y-64447365D01*
X167883074Y-64447361D01*
X167883156Y-64444000D01*
X167864852Y-64221361D01*
X167810431Y-64004702D01*
X167721354Y-63799840D01*
X167661960Y-63708031D01*
X167602822Y-63616617D01*
X167602820Y-63616614D01*
X167600014Y-63612277D01*
X167449670Y-63447051D01*
X167445619Y-63443852D01*
X167445615Y-63443848D01*
X167278414Y-63311800D01*
X167278410Y-63311798D01*
X167274359Y-63308598D01*
X167268157Y-63305174D01*
X167149751Y-63239811D01*
X167078789Y-63200638D01*
X167073920Y-63198914D01*
X167073916Y-63198912D01*
X166873087Y-63127795D01*
X166873083Y-63127794D01*
X166868212Y-63126069D01*
X166863119Y-63125162D01*
X166863116Y-63125161D01*
X166653373Y-63087800D01*
X166653367Y-63087799D01*
X166648284Y-63086894D01*
X166574452Y-63085992D01*
X166430081Y-63084228D01*
X166430079Y-63084228D01*
X166424911Y-63084165D01*
X166204091Y-63117955D01*
X165991756Y-63187357D01*
X165940316Y-63214135D01*
X165808493Y-63282758D01*
X165793607Y-63290507D01*
X165789474Y-63293610D01*
X165789471Y-63293612D01*
X165619100Y-63421530D01*
X165614965Y-63424635D01*
X165587099Y-63453795D01*
X165501769Y-63543088D01*
X165460629Y-63586138D01*
X165457715Y-63590410D01*
X165457714Y-63590411D01*
X165346460Y-63753504D01*
X165291549Y-63798507D01*
X165242372Y-63808500D01*
X161295511Y-63808500D01*
X161227390Y-63788498D01*
X161189719Y-63750940D01*
X161102822Y-63616617D01*
X161102820Y-63616614D01*
X161100014Y-63612277D01*
X160949670Y-63447051D01*
X160945619Y-63443852D01*
X160945615Y-63443848D01*
X160778414Y-63311800D01*
X160778410Y-63311798D01*
X160774359Y-63308598D01*
X160768157Y-63305174D01*
X160649751Y-63239811D01*
X160578789Y-63200638D01*
X160573920Y-63198914D01*
X160573916Y-63198912D01*
X160373087Y-63127795D01*
X160373083Y-63127794D01*
X160368212Y-63126069D01*
X160363119Y-63125162D01*
X160363116Y-63125161D01*
X160153373Y-63087800D01*
X160153367Y-63087799D01*
X160148284Y-63086894D01*
X160074452Y-63085992D01*
X159930081Y-63084228D01*
X159930079Y-63084228D01*
X159924911Y-63084165D01*
X159704091Y-63117955D01*
X159491756Y-63187357D01*
X159440316Y-63214135D01*
X159308493Y-63282758D01*
X159293607Y-63290507D01*
X159289474Y-63293610D01*
X159289471Y-63293612D01*
X159119100Y-63421530D01*
X159114965Y-63424635D01*
X159087099Y-63453795D01*
X159001769Y-63543088D01*
X158960629Y-63586138D01*
X158957715Y-63590410D01*
X158957714Y-63590411D01*
X158922025Y-63642729D01*
X158834743Y-63770680D01*
X158809698Y-63824635D01*
X158743458Y-63967338D01*
X158740688Y-63973305D01*
X158680989Y-64188570D01*
X158657251Y-64410695D01*
X158657548Y-64415848D01*
X158657548Y-64415851D01*
X158665784Y-64558689D01*
X158670110Y-64633715D01*
X158671247Y-64638761D01*
X158671248Y-64638767D01*
X158703453Y-64781668D01*
X158698917Y-64852520D01*
X158669631Y-64898464D01*
X155229701Y-68338394D01*
X155167389Y-68372420D01*
X155140606Y-68375299D01*
X150010540Y-68375299D01*
X149942419Y-68355297D01*
X149895926Y-68301641D01*
X149885822Y-68231367D01*
X149889982Y-68212670D01*
X149920865Y-68111023D01*
X149920865Y-68111021D01*
X149922370Y-68106069D01*
X149951529Y-67884590D01*
X149953156Y-67818000D01*
X149934852Y-67595361D01*
X149880431Y-67378702D01*
X149791354Y-67173840D01*
X149742737Y-67098689D01*
X149672822Y-66990617D01*
X149672820Y-66990614D01*
X149670014Y-66986277D01*
X149519670Y-66821051D01*
X149515619Y-66817852D01*
X149515615Y-66817848D01*
X149348414Y-66685800D01*
X149348410Y-66685798D01*
X149344359Y-66682598D01*
X149303053Y-66659796D01*
X149253084Y-66609364D01*
X149238312Y-66539921D01*
X149263428Y-66473516D01*
X149290780Y-66446909D01*
X149340713Y-66411292D01*
X149469860Y-66319173D01*
X149628096Y-66161489D01*
X149649464Y-66131753D01*
X149755435Y-65984277D01*
X149758453Y-65980077D01*
X149777818Y-65940896D01*
X149855136Y-65784453D01*
X149855137Y-65784451D01*
X149857430Y-65779811D01*
X149922370Y-65566069D01*
X149951529Y-65344590D01*
X149951947Y-65327489D01*
X149953074Y-65281365D01*
X149953074Y-65281361D01*
X149953156Y-65278000D01*
X149934852Y-65055361D01*
X149880431Y-64838702D01*
X149791354Y-64633840D01*
X149738747Y-64552522D01*
X149672822Y-64450617D01*
X149672820Y-64450614D01*
X149670014Y-64446277D01*
X149519670Y-64281051D01*
X149515619Y-64277852D01*
X149515615Y-64277848D01*
X149348414Y-64145800D01*
X149348410Y-64145798D01*
X149344359Y-64142598D01*
X149303053Y-64119796D01*
X149253084Y-64069364D01*
X149238312Y-63999921D01*
X149263428Y-63933516D01*
X149290780Y-63906909D01*
X149334603Y-63875650D01*
X149469860Y-63779173D01*
X149473672Y-63775375D01*
X149551209Y-63698107D01*
X149628096Y-63621489D01*
X149634716Y-63612277D01*
X149755435Y-63444277D01*
X149758453Y-63440077D01*
X149762611Y-63431665D01*
X149855136Y-63244453D01*
X149855137Y-63244451D01*
X149857430Y-63239811D01*
X149922370Y-63026069D01*
X149951529Y-62804590D01*
X149953156Y-62738000D01*
X149934852Y-62515361D01*
X149880431Y-62298702D01*
X149791354Y-62093840D01*
X149719909Y-61983403D01*
X149672822Y-61910617D01*
X149672820Y-61910614D01*
X149670014Y-61906277D01*
X149519670Y-61741051D01*
X149515619Y-61737852D01*
X149515615Y-61737848D01*
X149348414Y-61605800D01*
X149348410Y-61605798D01*
X149344359Y-61602598D01*
X149302569Y-61579529D01*
X149252598Y-61529097D01*
X149237826Y-61459654D01*
X149262942Y-61393248D01*
X149290294Y-61366641D01*
X149465328Y-61241792D01*
X149473200Y-61235139D01*
X149624052Y-61084812D01*
X149630730Y-61076965D01*
X149755003Y-60904020D01*
X149760313Y-60895183D01*
X149854670Y-60704267D01*
X149858469Y-60694672D01*
X149920377Y-60490910D01*
X149922555Y-60480837D01*
X149923986Y-60469962D01*
X149921775Y-60455778D01*
X149908617Y-60452000D01*
X147273225Y-60452000D01*
X147259694Y-60455973D01*
X147258257Y-60465966D01*
X147288565Y-60600446D01*
X147291645Y-60610275D01*
X147371770Y-60807603D01*
X147376413Y-60816794D01*
X147487694Y-60998388D01*
X147493777Y-61006699D01*
X147633213Y-61167667D01*
X147640580Y-61174883D01*
X147804434Y-61310916D01*
X147812881Y-61316831D01*
X147881969Y-61357203D01*
X147930693Y-61408842D01*
X147943764Y-61478625D01*
X147917033Y-61544396D01*
X147876584Y-61577752D01*
X147863607Y-61584507D01*
X147859474Y-61587610D01*
X147859471Y-61587612D01*
X147689100Y-61715530D01*
X147684965Y-61718635D01*
X147530629Y-61880138D01*
X147527715Y-61884410D01*
X147527714Y-61884411D01*
X147415095Y-62049504D01*
X147360184Y-62094507D01*
X147311007Y-62104500D01*
X144337288Y-62104500D01*
X144269167Y-62084498D01*
X144248193Y-62067595D01*
X143147918Y-60967319D01*
X142046469Y-59865870D01*
X142012443Y-59803558D01*
X142010254Y-59789945D01*
X141993579Y-59631288D01*
X141993579Y-59631286D01*
X141992889Y-59624725D01*
X141933874Y-59443097D01*
X141838387Y-59277709D01*
X141710600Y-59135787D01*
X141556099Y-59023535D01*
X141550071Y-59020851D01*
X141550069Y-59020850D01*
X141387666Y-58948544D01*
X141387665Y-58948544D01*
X141381635Y-58945859D01*
X141288235Y-58926006D01*
X141201291Y-58907525D01*
X141201286Y-58907525D01*
X141194834Y-58906153D01*
X141003860Y-58906153D01*
X140997408Y-58907525D01*
X140997403Y-58907525D01*
X140910459Y-58926006D01*
X140817059Y-58945859D01*
X140811029Y-58948544D01*
X140811028Y-58948544D01*
X140648625Y-59020850D01*
X140648623Y-59020851D01*
X140642595Y-59023535D01*
X140488094Y-59135787D01*
X140360307Y-59277709D01*
X140264820Y-59443097D01*
X140205805Y-59624725D01*
X140205115Y-59631286D01*
X140205115Y-59631288D01*
X140191180Y-59763875D01*
X140185843Y-59814653D01*
X140186533Y-59821218D01*
X140195247Y-59904123D01*
X140205805Y-60004581D01*
X140264820Y-60186209D01*
X140268123Y-60191931D01*
X140268124Y-60191932D01*
X140302033Y-60250663D01*
X140360307Y-60351597D01*
X140364725Y-60356504D01*
X140364726Y-60356505D01*
X140449317Y-60450453D01*
X140488094Y-60493519D01*
X140642595Y-60605771D01*
X140648623Y-60608455D01*
X140648625Y-60608456D01*
X140782429Y-60668029D01*
X140817059Y-60683447D01*
X140886551Y-60698218D01*
X140997403Y-60721781D01*
X140997408Y-60721781D01*
X141003860Y-60723153D01*
X141059753Y-60723153D01*
X141127874Y-60743155D01*
X141148848Y-60760058D01*
X142334640Y-61945851D01*
X143519042Y-63130253D01*
X143526582Y-63138539D01*
X143530694Y-63145018D01*
X143536471Y-63150443D01*
X143580345Y-63191643D01*
X143583187Y-63194398D01*
X143602924Y-63214135D01*
X143606121Y-63216615D01*
X143615141Y-63224318D01*
X143647373Y-63254586D01*
X143654319Y-63258405D01*
X143654322Y-63258407D01*
X143665128Y-63264348D01*
X143681647Y-63275199D01*
X143697653Y-63287614D01*
X143704922Y-63290759D01*
X143704926Y-63290762D01*
X143738231Y-63305174D01*
X143748881Y-63310391D01*
X143787634Y-63331695D01*
X143795309Y-63333666D01*
X143795310Y-63333666D01*
X143807256Y-63336733D01*
X143825961Y-63343137D01*
X143844549Y-63351181D01*
X143852372Y-63352420D01*
X143852382Y-63352423D01*
X143888218Y-63358099D01*
X143899838Y-63360505D01*
X143934983Y-63369528D01*
X143942664Y-63371500D01*
X143962918Y-63371500D01*
X143982628Y-63373051D01*
X144002637Y-63376220D01*
X144010529Y-63375474D01*
X144046655Y-63372059D01*
X144058513Y-63371500D01*
X147314274Y-63371500D01*
X147382395Y-63391502D01*
X147421707Y-63431665D01*
X147489987Y-63543088D01*
X147636250Y-63711938D01*
X147808126Y-63854632D01*
X147878595Y-63895811D01*
X147881445Y-63897476D01*
X147930169Y-63949114D01*
X147943240Y-64018897D01*
X147916509Y-64084669D01*
X147876055Y-64118027D01*
X147863607Y-64124507D01*
X147859474Y-64127610D01*
X147859471Y-64127612D01*
X147689100Y-64255530D01*
X147684965Y-64258635D01*
X147646100Y-64299305D01*
X147555511Y-64394101D01*
X147530629Y-64420138D01*
X147404743Y-64604680D01*
X147372502Y-64674138D01*
X147341071Y-64741851D01*
X147310688Y-64807305D01*
X147250989Y-65022570D01*
X147227251Y-65244695D01*
X147227548Y-65249848D01*
X147227548Y-65249851D01*
X147237015Y-65414031D01*
X147240110Y-65467715D01*
X147241247Y-65472761D01*
X147241248Y-65472767D01*
X147263392Y-65571023D01*
X147289222Y-65685639D01*
X147373266Y-65892616D01*
X147416489Y-65963150D01*
X147486370Y-66077185D01*
X147489987Y-66083088D01*
X147636250Y-66251938D01*
X147808126Y-66394632D01*
X147878595Y-66435811D01*
X147881445Y-66437476D01*
X147930169Y-66489114D01*
X147943240Y-66558897D01*
X147916509Y-66624669D01*
X147876055Y-66658027D01*
X147863607Y-66664507D01*
X147859474Y-66667610D01*
X147859471Y-66667612D01*
X147738112Y-66758731D01*
X147684965Y-66798635D01*
X147530629Y-66960138D01*
X147527715Y-66964410D01*
X147527714Y-66964411D01*
X147415095Y-67129504D01*
X147360184Y-67174507D01*
X147311007Y-67184500D01*
X145094595Y-67184500D01*
X145026474Y-67164498D01*
X145005500Y-67147595D01*
X141917122Y-64059217D01*
X141883096Y-63996905D01*
X141880907Y-63983292D01*
X141875676Y-63933516D01*
X141863542Y-63818072D01*
X141804527Y-63636444D01*
X141709040Y-63471056D01*
X141691127Y-63451161D01*
X141585675Y-63334045D01*
X141585674Y-63334044D01*
X141581253Y-63329134D01*
X141458311Y-63239811D01*
X141432094Y-63220763D01*
X141432093Y-63220762D01*
X141426752Y-63216882D01*
X141420724Y-63214198D01*
X141420722Y-63214197D01*
X141258319Y-63141891D01*
X141258318Y-63141891D01*
X141252288Y-63139206D01*
X141158887Y-63119353D01*
X141071944Y-63100872D01*
X141071939Y-63100872D01*
X141065487Y-63099500D01*
X140874513Y-63099500D01*
X140868061Y-63100872D01*
X140868056Y-63100872D01*
X140781113Y-63119353D01*
X140687712Y-63139206D01*
X140681682Y-63141891D01*
X140681681Y-63141891D01*
X140519278Y-63214197D01*
X140519276Y-63214198D01*
X140513248Y-63216882D01*
X140507907Y-63220762D01*
X140507906Y-63220763D01*
X140481689Y-63239811D01*
X140358747Y-63329134D01*
X140354326Y-63334044D01*
X140354325Y-63334045D01*
X140248874Y-63451161D01*
X140230960Y-63471056D01*
X140135473Y-63636444D01*
X140076458Y-63818072D01*
X140056496Y-64008000D01*
X140057186Y-64014565D01*
X140073833Y-64172948D01*
X140076458Y-64197928D01*
X140135473Y-64379556D01*
X140138776Y-64385278D01*
X140138777Y-64385279D01*
X140158903Y-64420138D01*
X140230960Y-64544944D01*
X140243338Y-64558691D01*
X140274054Y-64622697D01*
X140265290Y-64693150D01*
X140243339Y-64727307D01*
X140230960Y-64741056D01*
X140209397Y-64778404D01*
X140143472Y-64892590D01*
X140135473Y-64906444D01*
X140076458Y-65088072D01*
X140075768Y-65094633D01*
X140075768Y-65094635D01*
X140069920Y-65150273D01*
X140056496Y-65278000D01*
X140057186Y-65284565D01*
X140068165Y-65389020D01*
X140076458Y-65467928D01*
X140135473Y-65649556D01*
X140138776Y-65655278D01*
X140138777Y-65655279D01*
X140159069Y-65690425D01*
X140230960Y-65814944D01*
X140243338Y-65828691D01*
X140274054Y-65892697D01*
X140265290Y-65963150D01*
X140243339Y-65997307D01*
X140230960Y-66011056D01*
X140214726Y-66039174D01*
X140150152Y-66151020D01*
X140135473Y-66176444D01*
X140076458Y-66358072D01*
X140056496Y-66548000D01*
X140057186Y-66554565D01*
X140070381Y-66680104D01*
X140076458Y-66737928D01*
X140135473Y-66919556D01*
X140138776Y-66925278D01*
X140138777Y-66925279D01*
X140158903Y-66960138D01*
X140230960Y-67084944D01*
X140243338Y-67098691D01*
X140274054Y-67162697D01*
X140265290Y-67233150D01*
X140243339Y-67267307D01*
X140230960Y-67281056D01*
X140135473Y-67446444D01*
X140076458Y-67628072D01*
X140056496Y-67818000D01*
X130935500Y-67818000D01*
X130935500Y-64594763D01*
X130936027Y-64583579D01*
X130937701Y-64576091D01*
X130935562Y-64508032D01*
X130935500Y-64504075D01*
X130935500Y-64476144D01*
X130934994Y-64472138D01*
X130934061Y-64460292D01*
X130932922Y-64424037D01*
X130932673Y-64416110D01*
X130927022Y-64396658D01*
X130923014Y-64377306D01*
X130921468Y-64365068D01*
X130921467Y-64365066D01*
X130920474Y-64357203D01*
X130904194Y-64316086D01*
X130900359Y-64304885D01*
X130888018Y-64262406D01*
X130883985Y-64255587D01*
X130883983Y-64255582D01*
X130877707Y-64244971D01*
X130869010Y-64227221D01*
X130861552Y-64208383D01*
X130835571Y-64172623D01*
X130829053Y-64162701D01*
X130810578Y-64131460D01*
X130810574Y-64131455D01*
X130806542Y-64124637D01*
X130792218Y-64110313D01*
X130779376Y-64095278D01*
X130777286Y-64092401D01*
X130767472Y-64078893D01*
X130733406Y-64050711D01*
X130724627Y-64042722D01*
X125661122Y-58979217D01*
X125627096Y-58916905D01*
X125624907Y-58903292D01*
X125608232Y-58744635D01*
X125608232Y-58744633D01*
X125607542Y-58738072D01*
X125548527Y-58556444D01*
X125548348Y-58556134D01*
X147231500Y-58556134D01*
X147238255Y-58618316D01*
X147289385Y-58754705D01*
X147376739Y-58871261D01*
X147493295Y-58958615D01*
X147501704Y-58961767D01*
X147501705Y-58961768D01*
X147610960Y-59002726D01*
X147667725Y-59045367D01*
X147692425Y-59111929D01*
X147677218Y-59181278D01*
X147657825Y-59207759D01*
X147534590Y-59336717D01*
X147528104Y-59344727D01*
X147408098Y-59520649D01*
X147403000Y-59529623D01*
X147313338Y-59722783D01*
X147309775Y-59732470D01*
X147254389Y-59932183D01*
X147255912Y-59940607D01*
X147268292Y-59944000D01*
X149908344Y-59944000D01*
X149921875Y-59940027D01*
X149923180Y-59930947D01*
X149918093Y-59910695D01*
X158657251Y-59910695D01*
X158657548Y-59915848D01*
X158657548Y-59915851D01*
X158667105Y-60081594D01*
X158670110Y-60133715D01*
X158671247Y-60138761D01*
X158671248Y-60138767D01*
X158681940Y-60186209D01*
X158719222Y-60351639D01*
X158803266Y-60558616D01*
X158919987Y-60749088D01*
X159066250Y-60917938D01*
X159238126Y-61060632D01*
X159431000Y-61173338D01*
X159639692Y-61253030D01*
X159644760Y-61254061D01*
X159644763Y-61254062D01*
X159752017Y-61275883D01*
X159858597Y-61297567D01*
X159863772Y-61297757D01*
X159863774Y-61297757D01*
X160076673Y-61305564D01*
X160076677Y-61305564D01*
X160081837Y-61305753D01*
X160086957Y-61305097D01*
X160086959Y-61305097D01*
X160298288Y-61278025D01*
X160298289Y-61278025D01*
X160303416Y-61277368D01*
X160308366Y-61275883D01*
X160512429Y-61214661D01*
X160512434Y-61214659D01*
X160517384Y-61213174D01*
X160717994Y-61114896D01*
X160899860Y-60985173D01*
X160915446Y-60969642D01*
X161054435Y-60831137D01*
X161058096Y-60827489D01*
X161072386Y-60807603D01*
X161185435Y-60650277D01*
X161188453Y-60646077D01*
X161206148Y-60610275D01*
X161285136Y-60450453D01*
X161285137Y-60450451D01*
X161287430Y-60445811D01*
X161352370Y-60232069D01*
X161381529Y-60010590D01*
X161383156Y-59944000D01*
X161380418Y-59910695D01*
X165157251Y-59910695D01*
X165157548Y-59915848D01*
X165157548Y-59915851D01*
X165167105Y-60081594D01*
X165170110Y-60133715D01*
X165171247Y-60138761D01*
X165171248Y-60138767D01*
X165181940Y-60186209D01*
X165219222Y-60351639D01*
X165303266Y-60558616D01*
X165419987Y-60749088D01*
X165566250Y-60917938D01*
X165738126Y-61060632D01*
X165931000Y-61173338D01*
X166139692Y-61253030D01*
X166144760Y-61254061D01*
X166144763Y-61254062D01*
X166252017Y-61275883D01*
X166358597Y-61297567D01*
X166363772Y-61297757D01*
X166363774Y-61297757D01*
X166576673Y-61305564D01*
X166576677Y-61305564D01*
X166581837Y-61305753D01*
X166586957Y-61305097D01*
X166586959Y-61305097D01*
X166798288Y-61278025D01*
X166798289Y-61278025D01*
X166803416Y-61277368D01*
X166808366Y-61275883D01*
X167012429Y-61214661D01*
X167012434Y-61214659D01*
X167017384Y-61213174D01*
X167217994Y-61114896D01*
X167399860Y-60985173D01*
X167415446Y-60969642D01*
X167554435Y-60831137D01*
X167558096Y-60827489D01*
X167572386Y-60807603D01*
X167685435Y-60650277D01*
X167688453Y-60646077D01*
X167706148Y-60610275D01*
X167785136Y-60450453D01*
X167785137Y-60450451D01*
X167787430Y-60445811D01*
X167852370Y-60232069D01*
X167881529Y-60010590D01*
X167883156Y-59944000D01*
X167864852Y-59721361D01*
X167810431Y-59504702D01*
X167721354Y-59299840D01*
X167658445Y-59202598D01*
X167602822Y-59116617D01*
X167602820Y-59116614D01*
X167600014Y-59112277D01*
X167449670Y-58947051D01*
X167445619Y-58943852D01*
X167445615Y-58943848D01*
X167278414Y-58811800D01*
X167278410Y-58811798D01*
X167274359Y-58808598D01*
X167078789Y-58700638D01*
X167073920Y-58698914D01*
X167073916Y-58698912D01*
X166873087Y-58627795D01*
X166873083Y-58627794D01*
X166868212Y-58626069D01*
X166863119Y-58625162D01*
X166863116Y-58625161D01*
X166653373Y-58587800D01*
X166653367Y-58587799D01*
X166648284Y-58586894D01*
X166574452Y-58585992D01*
X166430081Y-58584228D01*
X166430079Y-58584228D01*
X166424911Y-58584165D01*
X166204091Y-58617955D01*
X165991756Y-58687357D01*
X165961443Y-58703137D01*
X165817220Y-58778215D01*
X165793607Y-58790507D01*
X165789474Y-58793610D01*
X165789471Y-58793612D01*
X165637753Y-58907525D01*
X165614965Y-58924635D01*
X165609001Y-58930876D01*
X165475733Y-59070333D01*
X165460629Y-59086138D01*
X165457715Y-59090410D01*
X165457714Y-59090411D01*
X165426761Y-59135787D01*
X165334743Y-59270680D01*
X165319341Y-59303861D01*
X165251793Y-59449382D01*
X165240688Y-59473305D01*
X165180989Y-59688570D01*
X165157251Y-59910695D01*
X161380418Y-59910695D01*
X161364852Y-59721361D01*
X161310431Y-59504702D01*
X161221354Y-59299840D01*
X161158445Y-59202598D01*
X161102822Y-59116617D01*
X161102820Y-59116614D01*
X161100014Y-59112277D01*
X160949670Y-58947051D01*
X160945619Y-58943852D01*
X160945615Y-58943848D01*
X160778414Y-58811800D01*
X160778410Y-58811798D01*
X160774359Y-58808598D01*
X160578789Y-58700638D01*
X160573920Y-58698914D01*
X160573916Y-58698912D01*
X160373087Y-58627795D01*
X160373083Y-58627794D01*
X160368212Y-58626069D01*
X160363119Y-58625162D01*
X160363116Y-58625161D01*
X160153373Y-58587800D01*
X160153367Y-58587799D01*
X160148284Y-58586894D01*
X160074452Y-58585992D01*
X159930081Y-58584228D01*
X159930079Y-58584228D01*
X159924911Y-58584165D01*
X159704091Y-58617955D01*
X159491756Y-58687357D01*
X159461443Y-58703137D01*
X159317220Y-58778215D01*
X159293607Y-58790507D01*
X159289474Y-58793610D01*
X159289471Y-58793612D01*
X159137753Y-58907525D01*
X159114965Y-58924635D01*
X159109001Y-58930876D01*
X158975733Y-59070333D01*
X158960629Y-59086138D01*
X158957715Y-59090410D01*
X158957714Y-59090411D01*
X158926761Y-59135787D01*
X158834743Y-59270680D01*
X158819341Y-59303861D01*
X158751793Y-59449382D01*
X158740688Y-59473305D01*
X158680989Y-59688570D01*
X158657251Y-59910695D01*
X149918093Y-59910695D01*
X149881214Y-59763875D01*
X149877894Y-59754124D01*
X149792972Y-59558814D01*
X149788105Y-59549739D01*
X149672426Y-59370926D01*
X149666136Y-59362757D01*
X149522293Y-59204677D01*
X149491241Y-59140831D01*
X149499635Y-59070333D01*
X149544812Y-59015564D01*
X149571256Y-59001895D01*
X149678297Y-58961767D01*
X149686705Y-58958615D01*
X149803261Y-58871261D01*
X149890615Y-58754705D01*
X149941745Y-58618316D01*
X149948500Y-58556134D01*
X149948500Y-56759866D01*
X149941745Y-56697684D01*
X149890615Y-56561295D01*
X149803261Y-56444739D01*
X149686705Y-56357385D01*
X149550316Y-56306255D01*
X149488134Y-56299500D01*
X147691866Y-56299500D01*
X147629684Y-56306255D01*
X147493295Y-56357385D01*
X147376739Y-56444739D01*
X147289385Y-56561295D01*
X147238255Y-56697684D01*
X147231500Y-56759866D01*
X147231500Y-58556134D01*
X125548348Y-58556134D01*
X125453040Y-58391056D01*
X125442623Y-58379486D01*
X125329675Y-58254045D01*
X125329674Y-58254044D01*
X125325253Y-58249134D01*
X125226157Y-58177136D01*
X125176094Y-58140763D01*
X125176093Y-58140762D01*
X125170752Y-58136882D01*
X125164724Y-58134198D01*
X125164722Y-58134197D01*
X125002319Y-58061891D01*
X125002318Y-58061891D01*
X124996288Y-58059206D01*
X124895158Y-58037710D01*
X124815944Y-58020872D01*
X124815939Y-58020872D01*
X124809487Y-58019500D01*
X124618513Y-58019500D01*
X124612061Y-58020872D01*
X124612056Y-58020872D01*
X124532842Y-58037710D01*
X124431712Y-58059206D01*
X124425682Y-58061891D01*
X124425681Y-58061891D01*
X124263278Y-58134197D01*
X124263276Y-58134198D01*
X124257248Y-58136882D01*
X124251907Y-58140762D01*
X124251906Y-58140763D01*
X124201843Y-58177136D01*
X124102747Y-58249134D01*
X124098326Y-58254044D01*
X124098325Y-58254045D01*
X123985378Y-58379486D01*
X123974960Y-58391056D01*
X123879473Y-58556444D01*
X123820458Y-58738072D01*
X123819768Y-58744633D01*
X123819768Y-58744635D01*
X123812709Y-58811800D01*
X123800496Y-58928000D01*
X119306500Y-58928000D01*
X119306500Y-58566078D01*
X119326502Y-58497957D01*
X119380158Y-58451464D01*
X119450432Y-58441360D01*
X119458697Y-58442831D01*
X119620055Y-58477129D01*
X119620060Y-58477129D01*
X119626512Y-58478501D01*
X119817486Y-58478501D01*
X119823938Y-58477129D01*
X119823943Y-58477129D01*
X119910887Y-58458648D01*
X120004287Y-58438795D01*
X120010318Y-58436110D01*
X120172721Y-58363804D01*
X120172723Y-58363803D01*
X120178751Y-58361119D01*
X120333252Y-58248867D01*
X120461039Y-58106945D01*
X120546336Y-57959206D01*
X120553222Y-57947280D01*
X120553223Y-57947279D01*
X120556526Y-57941557D01*
X120615541Y-57759929D01*
X120619760Y-57719793D01*
X120634813Y-57576566D01*
X120635503Y-57570001D01*
X120634813Y-57563436D01*
X120616231Y-57386636D01*
X120616231Y-57386634D01*
X120615541Y-57380073D01*
X120556526Y-57198445D01*
X120461039Y-57033057D01*
X120395790Y-56960590D01*
X120337674Y-56896046D01*
X120337673Y-56896045D01*
X120333252Y-56891135D01*
X120178751Y-56778883D01*
X120172723Y-56776199D01*
X120172721Y-56776198D01*
X120010318Y-56703892D01*
X120010317Y-56703892D01*
X120004287Y-56701207D01*
X119910887Y-56681354D01*
X119823943Y-56662873D01*
X119823938Y-56662873D01*
X119817486Y-56661501D01*
X119626512Y-56661501D01*
X119620060Y-56662873D01*
X119620055Y-56662873D01*
X119458697Y-56697171D01*
X119387906Y-56691769D01*
X119331273Y-56648952D01*
X119306780Y-56582314D01*
X119306500Y-56573924D01*
X119306500Y-56029599D01*
X119296538Y-55933585D01*
X119296238Y-55930691D01*
X119296237Y-55930687D01*
X119295526Y-55923833D01*
X119239550Y-55756053D01*
X119146478Y-55605651D01*
X119134123Y-55593317D01*
X119026483Y-55485865D01*
X119021303Y-55480694D01*
X119015072Y-55476853D01*
X118876968Y-55391724D01*
X118876966Y-55391723D01*
X118870738Y-55387884D01*
X118797502Y-55363593D01*
X118739142Y-55323163D01*
X118711905Y-55257599D01*
X118724438Y-55187717D01*
X118772763Y-55135705D01*
X118837169Y-55118000D01*
X179606791Y-55118000D01*
X179674912Y-55138002D01*
X179721405Y-55191658D01*
X179731509Y-55261932D01*
X179702015Y-55326512D01*
X179642289Y-55364896D01*
X179620180Y-55369287D01*
X179305639Y-55402901D01*
X179305631Y-55402902D01*
X179302256Y-55403263D01*
X178952117Y-55479606D01*
X178612271Y-55593317D01*
X178609178Y-55594739D01*
X178609177Y-55594740D01*
X178555504Y-55619427D01*
X178286694Y-55743066D01*
X178283760Y-55744822D01*
X178283758Y-55744823D01*
X177995578Y-55917295D01*
X177979193Y-55927101D01*
X177976467Y-55929163D01*
X177976465Y-55929164D01*
X177839363Y-56032854D01*
X177693367Y-56143270D01*
X177432559Y-56389043D01*
X177199819Y-56661546D01*
X177197900Y-56664358D01*
X177197897Y-56664363D01*
X177169808Y-56705540D01*
X176997871Y-56957591D01*
X176829077Y-57273714D01*
X176695411Y-57606218D01*
X176694491Y-57609492D01*
X176694489Y-57609497D01*
X176599543Y-57947280D01*
X176598437Y-57951213D01*
X176597875Y-57954570D01*
X176597875Y-57954571D01*
X176547761Y-58254045D01*
X176539290Y-58304663D01*
X176518661Y-58662434D01*
X176518833Y-58665829D01*
X176518833Y-58665830D01*
X176532917Y-58943848D01*
X176536792Y-59020340D01*
X176537329Y-59023695D01*
X176537330Y-59023701D01*
X176565985Y-59202598D01*
X176593470Y-59374195D01*
X176688033Y-59719859D01*
X176819374Y-60053288D01*
X176850151Y-60111909D01*
X176976012Y-60351639D01*
X176985957Y-60370582D01*
X176987858Y-60373411D01*
X176987864Y-60373421D01*
X177171083Y-60646077D01*
X177185834Y-60668029D01*
X177416665Y-60942150D01*
X177675751Y-61189738D01*
X177960061Y-61407897D01*
X177992056Y-61427350D01*
X178263355Y-61592303D01*
X178263360Y-61592306D01*
X178266270Y-61594075D01*
X178269358Y-61595521D01*
X178269357Y-61595521D01*
X178587710Y-61744649D01*
X178587720Y-61744653D01*
X178590794Y-61746093D01*
X178594012Y-61747195D01*
X178594015Y-61747196D01*
X178926615Y-61861071D01*
X178926623Y-61861073D01*
X178929838Y-61862174D01*
X179279435Y-61940959D01*
X179331728Y-61946917D01*
X179632114Y-61981142D01*
X179632122Y-61981142D01*
X179635497Y-61981527D01*
X179638901Y-61981545D01*
X179638904Y-61981545D01*
X179833227Y-61982562D01*
X179993857Y-61983403D01*
X179997243Y-61983053D01*
X179997245Y-61983053D01*
X180346932Y-61946917D01*
X180346941Y-61946916D01*
X180350324Y-61946566D01*
X180353657Y-61945852D01*
X180353660Y-61945851D01*
X180556074Y-61902457D01*
X180700727Y-61871446D01*
X181040968Y-61758922D01*
X181367066Y-61610311D01*
X181503846Y-61529097D01*
X181672262Y-61429099D01*
X181672267Y-61429096D01*
X181675207Y-61427350D01*
X181684905Y-61420069D01*
X181830282Y-61310916D01*
X181961786Y-61212180D01*
X182223451Y-60967319D01*
X182457140Y-60695630D01*
X182624582Y-60452000D01*
X182658190Y-60403101D01*
X182658195Y-60403094D01*
X182660120Y-60400292D01*
X182661732Y-60397298D01*
X182661737Y-60397290D01*
X182828395Y-60087772D01*
X182830017Y-60084760D01*
X182937030Y-59821218D01*
X182963562Y-59755877D01*
X182963564Y-59755872D01*
X182964842Y-59752724D01*
X182966337Y-59747478D01*
X183036846Y-59499954D01*
X183063020Y-59408070D01*
X183070766Y-59362757D01*
X183122829Y-59058175D01*
X183122829Y-59058173D01*
X183123401Y-59054828D01*
X183125480Y-59020850D01*
X183136235Y-58844987D01*
X183160358Y-58778215D01*
X183216752Y-58735084D01*
X183287512Y-58729289D01*
X183350172Y-58762669D01*
X183384838Y-58824627D01*
X183388000Y-58852679D01*
X183388000Y-97613775D01*
X183367998Y-97681896D01*
X183314342Y-97728389D01*
X183244068Y-97738493D01*
X183179488Y-97708999D01*
X183141104Y-97649273D01*
X183136184Y-97620589D01*
X183133301Y-97567361D01*
X183125979Y-97432159D01*
X183068066Y-97078505D01*
X182972297Y-96733173D01*
X182969243Y-96725497D01*
X182864299Y-96461787D01*
X182839793Y-96400205D01*
X182809768Y-96343498D01*
X182673702Y-96086513D01*
X182673698Y-96086506D01*
X182672103Y-96083494D01*
X182471190Y-95786746D01*
X182239403Y-95513432D01*
X181979454Y-95266750D01*
X181694384Y-95049585D01*
X181691472Y-95047828D01*
X181691467Y-95047825D01*
X181390443Y-94866236D01*
X181390437Y-94866233D01*
X181387528Y-94864478D01*
X181062475Y-94713593D01*
X180892752Y-94656145D01*
X180726255Y-94599789D01*
X180726250Y-94599788D01*
X180723028Y-94598697D01*
X180524681Y-94554724D01*
X180376493Y-94521871D01*
X180376487Y-94521870D01*
X180373158Y-94521132D01*
X180369769Y-94520758D01*
X180369764Y-94520757D01*
X180020338Y-94482180D01*
X180020333Y-94482180D01*
X180016957Y-94481807D01*
X180013558Y-94481801D01*
X180013557Y-94481801D01*
X179844080Y-94481505D01*
X179658592Y-94481182D01*
X179545413Y-94493277D01*
X179305639Y-94518901D01*
X179305631Y-94518902D01*
X179302256Y-94519263D01*
X178952117Y-94595606D01*
X178612271Y-94709317D01*
X178609178Y-94710739D01*
X178609177Y-94710740D01*
X178427090Y-94794491D01*
X178286694Y-94859066D01*
X178283760Y-94860822D01*
X178283758Y-94860823D01*
X178191170Y-94916236D01*
X177979193Y-95043101D01*
X177976467Y-95045163D01*
X177976465Y-95045164D01*
X177910354Y-95095164D01*
X177693367Y-95259270D01*
X177690882Y-95261612D01*
X177690877Y-95261616D01*
X177632371Y-95316750D01*
X177432559Y-95505043D01*
X177199819Y-95777546D01*
X177197900Y-95780358D01*
X177197897Y-95780363D01*
X177157509Y-95839570D01*
X176997871Y-96073591D01*
X176829077Y-96389714D01*
X176695411Y-96722218D01*
X176694491Y-96725492D01*
X176694489Y-96725497D01*
X176627838Y-96962617D01*
X176598437Y-97067213D01*
X176597875Y-97070570D01*
X176597875Y-97070571D01*
X176591020Y-97111538D01*
X176539290Y-97420663D01*
X176518661Y-97778434D01*
X176518833Y-97781829D01*
X176518833Y-97781830D01*
X176533032Y-98062115D01*
X176536792Y-98136340D01*
X176537329Y-98139695D01*
X176537330Y-98139701D01*
X176550861Y-98224175D01*
X176593470Y-98490195D01*
X176688033Y-98835859D01*
X176819374Y-99169288D01*
X176985957Y-99486582D01*
X176987858Y-99489411D01*
X176987864Y-99489421D01*
X177171569Y-99762800D01*
X177185834Y-99784029D01*
X177416665Y-100058150D01*
X177675751Y-100305738D01*
X177960061Y-100523897D01*
X177992056Y-100543350D01*
X178263355Y-100708303D01*
X178263360Y-100708306D01*
X178266270Y-100710075D01*
X178269358Y-100711521D01*
X178269357Y-100711521D01*
X178587710Y-100860649D01*
X178587720Y-100860653D01*
X178590794Y-100862093D01*
X178594012Y-100863195D01*
X178594015Y-100863196D01*
X178926615Y-100977071D01*
X178926623Y-100977073D01*
X178929838Y-100978174D01*
X179279435Y-101056959D01*
X179580914Y-101091308D01*
X179611650Y-101094810D01*
X179677068Y-101122395D01*
X179717188Y-101180969D01*
X179719272Y-101251935D01*
X179682658Y-101312762D01*
X179618970Y-101344137D01*
X179597386Y-101346000D01*
X89264282Y-101346000D01*
X89196161Y-101325998D01*
X89149668Y-101272342D01*
X89139564Y-101202068D01*
X89169058Y-101137488D01*
X89228784Y-101099104D01*
X89237870Y-101096799D01*
X89247815Y-101094667D01*
X89514727Y-101037446D01*
X89854968Y-100924922D01*
X90181066Y-100776311D01*
X90295604Y-100708303D01*
X90486262Y-100595099D01*
X90486267Y-100595096D01*
X90489207Y-100593350D01*
X90775786Y-100378180D01*
X91037451Y-100133319D01*
X91271140Y-99861630D01*
X91377750Y-99706512D01*
X91472190Y-99569101D01*
X91472195Y-99569094D01*
X91474120Y-99566292D01*
X91475732Y-99563298D01*
X91475737Y-99563290D01*
X91642395Y-99253772D01*
X91644017Y-99250760D01*
X91778842Y-98918724D01*
X91789142Y-98882568D01*
X91824738Y-98757606D01*
X91877020Y-98574070D01*
X91937401Y-98220828D01*
X91938820Y-98197639D01*
X91959168Y-97864928D01*
X91959278Y-97863131D01*
X91959320Y-97851084D01*
X91959353Y-97841819D01*
X91959353Y-97841806D01*
X91959359Y-97840000D01*
X91954847Y-97756695D01*
X140877251Y-97756695D01*
X140877548Y-97761848D01*
X140877548Y-97761851D01*
X140884284Y-97878669D01*
X140890110Y-97979715D01*
X140891247Y-97984761D01*
X140891248Y-97984767D01*
X140905606Y-98048475D01*
X140939222Y-98197639D01*
X141023266Y-98404616D01*
X141073646Y-98486829D01*
X141137291Y-98590688D01*
X141139987Y-98595088D01*
X141286250Y-98763938D01*
X141458126Y-98906632D01*
X141651000Y-99019338D01*
X141859692Y-99099030D01*
X141864760Y-99100061D01*
X141864763Y-99100062D01*
X141972017Y-99121883D01*
X142078597Y-99143567D01*
X142083772Y-99143757D01*
X142083774Y-99143757D01*
X142296673Y-99151564D01*
X142296677Y-99151564D01*
X142301837Y-99151753D01*
X142306957Y-99151097D01*
X142306959Y-99151097D01*
X142518288Y-99124025D01*
X142518289Y-99124025D01*
X142523416Y-99123368D01*
X142528366Y-99121883D01*
X142732429Y-99060661D01*
X142732434Y-99060659D01*
X142737384Y-99059174D01*
X142937994Y-98960896D01*
X143119860Y-98831173D01*
X143278096Y-98673489D01*
X143337594Y-98590689D01*
X143408453Y-98492077D01*
X143409776Y-98493028D01*
X143456645Y-98449857D01*
X143526580Y-98437625D01*
X143592026Y-98465144D01*
X143619875Y-98496994D01*
X143679987Y-98595088D01*
X143826250Y-98763938D01*
X143998126Y-98906632D01*
X144191000Y-99019338D01*
X144399692Y-99099030D01*
X144404760Y-99100061D01*
X144404763Y-99100062D01*
X144512017Y-99121883D01*
X144618597Y-99143567D01*
X144623772Y-99143757D01*
X144623774Y-99143757D01*
X144836673Y-99151564D01*
X144836677Y-99151564D01*
X144841837Y-99151753D01*
X144846957Y-99151097D01*
X144846959Y-99151097D01*
X145058288Y-99124025D01*
X145058289Y-99124025D01*
X145063416Y-99123368D01*
X145068366Y-99121883D01*
X145272429Y-99060661D01*
X145272434Y-99060659D01*
X145277384Y-99059174D01*
X145477994Y-98960896D01*
X145659860Y-98831173D01*
X145818096Y-98673489D01*
X145877594Y-98590689D01*
X145948453Y-98492077D01*
X145949776Y-98493028D01*
X145996645Y-98449857D01*
X146066580Y-98437625D01*
X146132026Y-98465144D01*
X146159875Y-98496994D01*
X146219987Y-98595088D01*
X146366250Y-98763938D01*
X146538126Y-98906632D01*
X146731000Y-99019338D01*
X146939692Y-99099030D01*
X146944760Y-99100061D01*
X146944763Y-99100062D01*
X147052017Y-99121883D01*
X147158597Y-99143567D01*
X147163772Y-99143757D01*
X147163774Y-99143757D01*
X147376673Y-99151564D01*
X147376677Y-99151564D01*
X147381837Y-99151753D01*
X147386957Y-99151097D01*
X147386959Y-99151097D01*
X147598288Y-99124025D01*
X147598289Y-99124025D01*
X147603416Y-99123368D01*
X147608366Y-99121883D01*
X147812429Y-99060661D01*
X147812434Y-99060659D01*
X147817384Y-99059174D01*
X148017994Y-98960896D01*
X148199860Y-98831173D01*
X148358096Y-98673489D01*
X148417594Y-98590689D01*
X148488453Y-98492077D01*
X148489776Y-98493028D01*
X148536645Y-98449857D01*
X148606580Y-98437625D01*
X148672026Y-98465144D01*
X148699875Y-98496994D01*
X148759987Y-98595088D01*
X148906250Y-98763938D01*
X149078126Y-98906632D01*
X149271000Y-99019338D01*
X149479692Y-99099030D01*
X149484760Y-99100061D01*
X149484763Y-99100062D01*
X149592017Y-99121883D01*
X149698597Y-99143567D01*
X149703772Y-99143757D01*
X149703774Y-99143757D01*
X149916673Y-99151564D01*
X149916677Y-99151564D01*
X149921837Y-99151753D01*
X149926957Y-99151097D01*
X149926959Y-99151097D01*
X150138288Y-99124025D01*
X150138289Y-99124025D01*
X150143416Y-99123368D01*
X150148366Y-99121883D01*
X150352429Y-99060661D01*
X150352434Y-99060659D01*
X150357384Y-99059174D01*
X150557994Y-98960896D01*
X150739860Y-98831173D01*
X150898096Y-98673489D01*
X150957594Y-98590689D01*
X151028453Y-98492077D01*
X151029776Y-98493028D01*
X151076645Y-98449857D01*
X151146580Y-98437625D01*
X151212026Y-98465144D01*
X151239875Y-98496994D01*
X151299987Y-98595088D01*
X151446250Y-98763938D01*
X151618126Y-98906632D01*
X151811000Y-99019338D01*
X152019692Y-99099030D01*
X152024760Y-99100061D01*
X152024763Y-99100062D01*
X152132017Y-99121883D01*
X152238597Y-99143567D01*
X152243772Y-99143757D01*
X152243774Y-99143757D01*
X152456673Y-99151564D01*
X152456677Y-99151564D01*
X152461837Y-99151753D01*
X152466957Y-99151097D01*
X152466959Y-99151097D01*
X152678288Y-99124025D01*
X152678289Y-99124025D01*
X152683416Y-99123368D01*
X152688366Y-99121883D01*
X152892429Y-99060661D01*
X152892434Y-99060659D01*
X152897384Y-99059174D01*
X153097994Y-98960896D01*
X153279860Y-98831173D01*
X153347331Y-98763938D01*
X153388479Y-98722933D01*
X153450851Y-98689017D01*
X153521658Y-98694205D01*
X153578419Y-98736851D01*
X153595401Y-98767954D01*
X153636676Y-98878054D01*
X153645214Y-98893649D01*
X153721715Y-98995724D01*
X153734276Y-99008285D01*
X153836351Y-99084786D01*
X153851946Y-99093324D01*
X153972394Y-99138478D01*
X153987649Y-99142105D01*
X154038514Y-99147631D01*
X154045328Y-99148000D01*
X154667885Y-99148000D01*
X154683124Y-99143525D01*
X154684329Y-99142135D01*
X154686000Y-99134452D01*
X154686000Y-99129884D01*
X155194000Y-99129884D01*
X155198475Y-99145123D01*
X155199865Y-99146328D01*
X155207548Y-99147999D01*
X155834669Y-99147999D01*
X155841490Y-99147629D01*
X155892352Y-99142105D01*
X155907604Y-99138479D01*
X156028054Y-99093324D01*
X156043649Y-99084786D01*
X156145724Y-99008285D01*
X156158285Y-98995724D01*
X156234786Y-98893649D01*
X156243324Y-98878054D01*
X156288478Y-98757606D01*
X156292105Y-98742351D01*
X156297631Y-98691486D01*
X156298000Y-98684672D01*
X156298000Y-98062115D01*
X156293525Y-98046876D01*
X156292135Y-98045671D01*
X156284452Y-98044000D01*
X155212115Y-98044000D01*
X155196876Y-98048475D01*
X155195671Y-98049865D01*
X155194000Y-98057548D01*
X155194000Y-99129884D01*
X154686000Y-99129884D01*
X154686000Y-97517885D01*
X155194000Y-97517885D01*
X155198475Y-97533124D01*
X155199865Y-97534329D01*
X155207548Y-97536000D01*
X156279884Y-97536000D01*
X156295123Y-97531525D01*
X156296328Y-97530135D01*
X156297999Y-97522452D01*
X156297999Y-96895331D01*
X156297629Y-96888510D01*
X156292105Y-96837648D01*
X156288479Y-96822396D01*
X156243324Y-96701946D01*
X156234786Y-96686351D01*
X156158285Y-96584276D01*
X156145724Y-96571715D01*
X156043649Y-96495214D01*
X156028054Y-96486676D01*
X155907606Y-96441522D01*
X155892351Y-96437895D01*
X155841486Y-96432369D01*
X155834672Y-96432000D01*
X155212115Y-96432000D01*
X155196876Y-96436475D01*
X155195671Y-96437865D01*
X155194000Y-96445548D01*
X155194000Y-97517885D01*
X154686000Y-97517885D01*
X154686000Y-96450116D01*
X154681525Y-96434877D01*
X154680135Y-96433672D01*
X154672452Y-96432001D01*
X154045331Y-96432001D01*
X154038510Y-96432371D01*
X153987648Y-96437895D01*
X153972396Y-96441521D01*
X153851946Y-96486676D01*
X153836351Y-96495214D01*
X153734276Y-96571715D01*
X153721715Y-96584276D01*
X153645214Y-96686351D01*
X153636676Y-96701946D01*
X153595297Y-96812322D01*
X153552655Y-96869087D01*
X153486093Y-96893786D01*
X153416744Y-96878578D01*
X153384121Y-96852891D01*
X153333151Y-96796876D01*
X153333145Y-96796870D01*
X153329670Y-96793051D01*
X153325619Y-96789852D01*
X153325615Y-96789848D01*
X153158414Y-96657800D01*
X153158410Y-96657798D01*
X153154359Y-96654598D01*
X152958789Y-96546638D01*
X152953920Y-96544914D01*
X152953916Y-96544912D01*
X152753087Y-96473795D01*
X152753083Y-96473794D01*
X152748212Y-96472069D01*
X152743119Y-96471162D01*
X152743116Y-96471161D01*
X152533373Y-96433800D01*
X152533367Y-96433799D01*
X152528284Y-96432894D01*
X152454452Y-96431992D01*
X152310081Y-96430228D01*
X152310079Y-96430228D01*
X152304911Y-96430165D01*
X152084091Y-96463955D01*
X151871756Y-96533357D01*
X151673607Y-96636507D01*
X151669474Y-96639610D01*
X151669471Y-96639612D01*
X151499100Y-96767530D01*
X151494965Y-96770635D01*
X151340629Y-96932138D01*
X151233201Y-97089621D01*
X151178293Y-97134621D01*
X151107768Y-97142792D01*
X151044021Y-97111538D01*
X151023324Y-97087054D01*
X150942822Y-96962617D01*
X150942820Y-96962614D01*
X150940014Y-96958277D01*
X150789670Y-96793051D01*
X150785619Y-96789852D01*
X150785615Y-96789848D01*
X150618414Y-96657800D01*
X150618410Y-96657798D01*
X150614359Y-96654598D01*
X150418789Y-96546638D01*
X150413920Y-96544914D01*
X150413916Y-96544912D01*
X150213087Y-96473795D01*
X150213083Y-96473794D01*
X150208212Y-96472069D01*
X150203119Y-96471162D01*
X150203116Y-96471161D01*
X149993373Y-96433800D01*
X149993367Y-96433799D01*
X149988284Y-96432894D01*
X149914452Y-96431992D01*
X149770081Y-96430228D01*
X149770079Y-96430228D01*
X149764911Y-96430165D01*
X149544091Y-96463955D01*
X149331756Y-96533357D01*
X149133607Y-96636507D01*
X149129474Y-96639610D01*
X149129471Y-96639612D01*
X148959100Y-96767530D01*
X148954965Y-96770635D01*
X148800629Y-96932138D01*
X148693201Y-97089621D01*
X148638293Y-97134621D01*
X148567768Y-97142792D01*
X148504021Y-97111538D01*
X148483324Y-97087054D01*
X148402822Y-96962617D01*
X148402820Y-96962614D01*
X148400014Y-96958277D01*
X148249670Y-96793051D01*
X148245619Y-96789852D01*
X148245615Y-96789848D01*
X148078414Y-96657800D01*
X148078410Y-96657798D01*
X148074359Y-96654598D01*
X147878789Y-96546638D01*
X147873920Y-96544914D01*
X147873916Y-96544912D01*
X147673087Y-96473795D01*
X147673083Y-96473794D01*
X147668212Y-96472069D01*
X147663119Y-96471162D01*
X147663116Y-96471161D01*
X147453373Y-96433800D01*
X147453367Y-96433799D01*
X147448284Y-96432894D01*
X147374452Y-96431992D01*
X147230081Y-96430228D01*
X147230079Y-96430228D01*
X147224911Y-96430165D01*
X147004091Y-96463955D01*
X146791756Y-96533357D01*
X146593607Y-96636507D01*
X146589474Y-96639610D01*
X146589471Y-96639612D01*
X146419100Y-96767530D01*
X146414965Y-96770635D01*
X146260629Y-96932138D01*
X146153201Y-97089621D01*
X146098293Y-97134621D01*
X146027768Y-97142792D01*
X145964021Y-97111538D01*
X145943324Y-97087054D01*
X145862822Y-96962617D01*
X145862820Y-96962614D01*
X145860014Y-96958277D01*
X145709670Y-96793051D01*
X145705619Y-96789852D01*
X145705615Y-96789848D01*
X145538414Y-96657800D01*
X145538410Y-96657798D01*
X145534359Y-96654598D01*
X145338789Y-96546638D01*
X145333920Y-96544914D01*
X145333916Y-96544912D01*
X145133087Y-96473795D01*
X145133083Y-96473794D01*
X145128212Y-96472069D01*
X145123119Y-96471162D01*
X145123116Y-96471161D01*
X144913373Y-96433800D01*
X144913367Y-96433799D01*
X144908284Y-96432894D01*
X144834452Y-96431992D01*
X144690081Y-96430228D01*
X144690079Y-96430228D01*
X144684911Y-96430165D01*
X144464091Y-96463955D01*
X144251756Y-96533357D01*
X144053607Y-96636507D01*
X144049474Y-96639610D01*
X144049471Y-96639612D01*
X143879100Y-96767530D01*
X143874965Y-96770635D01*
X143720629Y-96932138D01*
X143613201Y-97089621D01*
X143558293Y-97134621D01*
X143487768Y-97142792D01*
X143424021Y-97111538D01*
X143403324Y-97087054D01*
X143322822Y-96962617D01*
X143322820Y-96962614D01*
X143320014Y-96958277D01*
X143169670Y-96793051D01*
X143165619Y-96789852D01*
X143165615Y-96789848D01*
X142998414Y-96657800D01*
X142998410Y-96657798D01*
X142994359Y-96654598D01*
X142798789Y-96546638D01*
X142793920Y-96544914D01*
X142793916Y-96544912D01*
X142593087Y-96473795D01*
X142593083Y-96473794D01*
X142588212Y-96472069D01*
X142583119Y-96471162D01*
X142583116Y-96471161D01*
X142373373Y-96433800D01*
X142373367Y-96433799D01*
X142368284Y-96432894D01*
X142294452Y-96431992D01*
X142150081Y-96430228D01*
X142150079Y-96430228D01*
X142144911Y-96430165D01*
X141924091Y-96463955D01*
X141711756Y-96533357D01*
X141513607Y-96636507D01*
X141509474Y-96639610D01*
X141509471Y-96639612D01*
X141339100Y-96767530D01*
X141334965Y-96770635D01*
X141180629Y-96932138D01*
X141054743Y-97116680D01*
X140960688Y-97319305D01*
X140900989Y-97534570D01*
X140877251Y-97756695D01*
X91954847Y-97756695D01*
X91939979Y-97482159D01*
X91882066Y-97128505D01*
X91786297Y-96783173D01*
X91783243Y-96775497D01*
X91655052Y-96453369D01*
X91653793Y-96450205D01*
X91620175Y-96386711D01*
X91487702Y-96136513D01*
X91487698Y-96136506D01*
X91486103Y-96133494D01*
X91285190Y-95836746D01*
X91053403Y-95563432D01*
X90793454Y-95316750D01*
X90508384Y-95099585D01*
X90505472Y-95097828D01*
X90505467Y-95097825D01*
X90204443Y-94916236D01*
X90204437Y-94916233D01*
X90201528Y-94914478D01*
X89876475Y-94763593D01*
X89706752Y-94706145D01*
X89540255Y-94649789D01*
X89540250Y-94649788D01*
X89537028Y-94648697D01*
X89302442Y-94596690D01*
X89190493Y-94571871D01*
X89190487Y-94571870D01*
X89187158Y-94571132D01*
X89183769Y-94570758D01*
X89183764Y-94570757D01*
X88834338Y-94532180D01*
X88834333Y-94532180D01*
X88830957Y-94531807D01*
X88827558Y-94531801D01*
X88827557Y-94531801D01*
X88658080Y-94531505D01*
X88472592Y-94531182D01*
X88359413Y-94543277D01*
X88119639Y-94568901D01*
X88119631Y-94568902D01*
X88116256Y-94569263D01*
X87766117Y-94645606D01*
X87426271Y-94759317D01*
X87423178Y-94760739D01*
X87423177Y-94760740D01*
X87416974Y-94763593D01*
X87100694Y-94909066D01*
X87097760Y-94910822D01*
X87097758Y-94910823D01*
X86862458Y-95051647D01*
X86793193Y-95093101D01*
X86790467Y-95095163D01*
X86790465Y-95095164D01*
X86566310Y-95264692D01*
X86507367Y-95309270D01*
X86246559Y-95555043D01*
X86013819Y-95827546D01*
X86011900Y-95830358D01*
X86011897Y-95830363D01*
X85918624Y-95967097D01*
X85811871Y-96123591D01*
X85643077Y-96439714D01*
X85509411Y-96772218D01*
X85508491Y-96775492D01*
X85508489Y-96775497D01*
X85413790Y-97112401D01*
X85412437Y-97117213D01*
X85411875Y-97120570D01*
X85411875Y-97120571D01*
X85373365Y-97350702D01*
X85353290Y-97470663D01*
X85345038Y-97613775D01*
X85341791Y-97670091D01*
X85317901Y-97736947D01*
X85261658Y-97780275D01*
X85190919Y-97786316D01*
X85128143Y-97753155D01*
X85093261Y-97691318D01*
X85090000Y-97662838D01*
X85090000Y-89662000D01*
X140564496Y-89662000D01*
X140584458Y-89851928D01*
X140643473Y-90033556D01*
X140738960Y-90198944D01*
X140866747Y-90340866D01*
X141021248Y-90453118D01*
X141027276Y-90455802D01*
X141027278Y-90455803D01*
X141189681Y-90528109D01*
X141195712Y-90530794D01*
X141289113Y-90550647D01*
X141376056Y-90569128D01*
X141376061Y-90569128D01*
X141382513Y-90570500D01*
X141573487Y-90570500D01*
X141579939Y-90569128D01*
X141579944Y-90569128D01*
X141666887Y-90550647D01*
X141760288Y-90530794D01*
X141766319Y-90528109D01*
X141928722Y-90455803D01*
X141928724Y-90455802D01*
X141934752Y-90453118D01*
X142089253Y-90340866D01*
X142093668Y-90335963D01*
X142098580Y-90331540D01*
X142099705Y-90332789D01*
X142153014Y-90299949D01*
X142186200Y-90295500D01*
X143957406Y-90295500D01*
X144025527Y-90315502D01*
X144046501Y-90332405D01*
X145864878Y-92150782D01*
X145898904Y-92213094D01*
X145901092Y-92226703D01*
X145918458Y-92391928D01*
X145977473Y-92573556D01*
X146072960Y-92738944D01*
X146200747Y-92880866D01*
X146355248Y-92993118D01*
X146361276Y-92995802D01*
X146361278Y-92995803D01*
X146523681Y-93068109D01*
X146529712Y-93070794D01*
X146623113Y-93090647D01*
X146710056Y-93109128D01*
X146710061Y-93109128D01*
X146716513Y-93110500D01*
X146907487Y-93110500D01*
X146913939Y-93109128D01*
X146913944Y-93109128D01*
X147000888Y-93090647D01*
X147094288Y-93070794D01*
X147100319Y-93068109D01*
X147262722Y-92995803D01*
X147262724Y-92995802D01*
X147268752Y-92993118D01*
X147423253Y-92880866D01*
X147551040Y-92738944D01*
X147646527Y-92573556D01*
X147705542Y-92391928D01*
X147725504Y-92202000D01*
X147705542Y-92012072D01*
X147646527Y-91830444D01*
X147551040Y-91665056D01*
X147423253Y-91523134D01*
X147268752Y-91410882D01*
X147262724Y-91408198D01*
X147262722Y-91408197D01*
X147100319Y-91335891D01*
X147100318Y-91335891D01*
X147094288Y-91333206D01*
X147000888Y-91313353D01*
X146913944Y-91294872D01*
X146913939Y-91294872D01*
X146907487Y-91293500D01*
X146851595Y-91293500D01*
X146783474Y-91273498D01*
X146762500Y-91256595D01*
X144775652Y-89269747D01*
X144768112Y-89261461D01*
X144764000Y-89254982D01*
X144714348Y-89208356D01*
X144711507Y-89205602D01*
X144691770Y-89185865D01*
X144688573Y-89183385D01*
X144679551Y-89175680D01*
X144653100Y-89150841D01*
X144647321Y-89145414D01*
X144640375Y-89141595D01*
X144640372Y-89141593D01*
X144629566Y-89135652D01*
X144613047Y-89124801D01*
X144607048Y-89120148D01*
X144597041Y-89112386D01*
X144589772Y-89109241D01*
X144589768Y-89109238D01*
X144556463Y-89094826D01*
X144545813Y-89089609D01*
X144507060Y-89068305D01*
X144487437Y-89063267D01*
X144468734Y-89056863D01*
X144457420Y-89051967D01*
X144457419Y-89051967D01*
X144450145Y-89048819D01*
X144442322Y-89047580D01*
X144442312Y-89047577D01*
X144406476Y-89041901D01*
X144394856Y-89039495D01*
X144359711Y-89030472D01*
X144359710Y-89030472D01*
X144352030Y-89028500D01*
X144331776Y-89028500D01*
X144312065Y-89026949D01*
X144299886Y-89025020D01*
X144292057Y-89023780D01*
X144284165Y-89024526D01*
X144248039Y-89027941D01*
X144236181Y-89028500D01*
X142186200Y-89028500D01*
X142118079Y-89008498D01*
X142098853Y-88992157D01*
X142098580Y-88992460D01*
X142093668Y-88988037D01*
X142089253Y-88983134D01*
X141934752Y-88870882D01*
X141928724Y-88868198D01*
X141928722Y-88868197D01*
X141766319Y-88795891D01*
X141766318Y-88795891D01*
X141760288Y-88793206D01*
X141666887Y-88773353D01*
X141579944Y-88754872D01*
X141579939Y-88754872D01*
X141573487Y-88753500D01*
X141382513Y-88753500D01*
X141376061Y-88754872D01*
X141376056Y-88754872D01*
X141289113Y-88773353D01*
X141195712Y-88793206D01*
X141189682Y-88795891D01*
X141189681Y-88795891D01*
X141027278Y-88868197D01*
X141027276Y-88868198D01*
X141021248Y-88870882D01*
X140866747Y-88983134D01*
X140862326Y-88988044D01*
X140862325Y-88988045D01*
X140753203Y-89109238D01*
X140738960Y-89125056D01*
X140643473Y-89290444D01*
X140584458Y-89472072D01*
X140564496Y-89662000D01*
X85090000Y-89662000D01*
X85090000Y-79722695D01*
X89823251Y-79722695D01*
X89836110Y-79945715D01*
X89837247Y-79950761D01*
X89837248Y-79950767D01*
X89858275Y-80044069D01*
X89885222Y-80163639D01*
X89917723Y-80243680D01*
X89963167Y-80355595D01*
X89969266Y-80370616D01*
X90020942Y-80454944D01*
X90083291Y-80556688D01*
X90085987Y-80561088D01*
X90232250Y-80729938D01*
X90404126Y-80872632D01*
X90597000Y-80985338D01*
X90805692Y-81065030D01*
X90810760Y-81066061D01*
X90810763Y-81066062D01*
X90905862Y-81085410D01*
X91024597Y-81109567D01*
X91029772Y-81109757D01*
X91029774Y-81109757D01*
X91242673Y-81117564D01*
X91242677Y-81117564D01*
X91247837Y-81117753D01*
X91252957Y-81117097D01*
X91252959Y-81117097D01*
X91464288Y-81090025D01*
X91464289Y-81090025D01*
X91469416Y-81089368D01*
X91474366Y-81087883D01*
X91678429Y-81026661D01*
X91678434Y-81026659D01*
X91683384Y-81025174D01*
X91883994Y-80926896D01*
X92065860Y-80797173D01*
X92224096Y-80639489D01*
X92283594Y-80556689D01*
X92354453Y-80458077D01*
X92355776Y-80459028D01*
X92402645Y-80415857D01*
X92472580Y-80403625D01*
X92538026Y-80431144D01*
X92565875Y-80462994D01*
X92625987Y-80561088D01*
X92772250Y-80729938D01*
X92944126Y-80872632D01*
X93137000Y-80985338D01*
X93345692Y-81065030D01*
X93350760Y-81066061D01*
X93350763Y-81066062D01*
X93445862Y-81085410D01*
X93564597Y-81109567D01*
X93569772Y-81109757D01*
X93569774Y-81109757D01*
X93782673Y-81117564D01*
X93782677Y-81117564D01*
X93787837Y-81117753D01*
X93792957Y-81117097D01*
X93792959Y-81117097D01*
X94004288Y-81090025D01*
X94004289Y-81090025D01*
X94009416Y-81089368D01*
X94014366Y-81087883D01*
X94218429Y-81026661D01*
X94218434Y-81026659D01*
X94223384Y-81025174D01*
X94423994Y-80926896D01*
X94605860Y-80797173D01*
X94764096Y-80639489D01*
X94823594Y-80556689D01*
X94894453Y-80458077D01*
X94895776Y-80459028D01*
X94942645Y-80415857D01*
X95012580Y-80403625D01*
X95078026Y-80431144D01*
X95105875Y-80462994D01*
X95165987Y-80561088D01*
X95312250Y-80729938D01*
X95484126Y-80872632D01*
X95677000Y-80985338D01*
X95885692Y-81065030D01*
X95890760Y-81066061D01*
X95890763Y-81066062D01*
X95985862Y-81085410D01*
X96104597Y-81109567D01*
X96109772Y-81109757D01*
X96109774Y-81109757D01*
X96322673Y-81117564D01*
X96322677Y-81117564D01*
X96327837Y-81117753D01*
X96332957Y-81117097D01*
X96332959Y-81117097D01*
X96544288Y-81090025D01*
X96544289Y-81090025D01*
X96549416Y-81089368D01*
X96554366Y-81087883D01*
X96758429Y-81026661D01*
X96758434Y-81026659D01*
X96763384Y-81025174D01*
X96963994Y-80926896D01*
X97145860Y-80797173D01*
X97304096Y-80639489D01*
X97363594Y-80556689D01*
X97434453Y-80458077D01*
X97435640Y-80458930D01*
X97482960Y-80415362D01*
X97552897Y-80403145D01*
X97618338Y-80430678D01*
X97646166Y-80462511D01*
X97703694Y-80556388D01*
X97709777Y-80564699D01*
X97849213Y-80725667D01*
X97856580Y-80732883D01*
X98020434Y-80868916D01*
X98028881Y-80874831D01*
X98212756Y-80982279D01*
X98222042Y-80986729D01*
X98421001Y-81062703D01*
X98430899Y-81065579D01*
X98534250Y-81086606D01*
X98548299Y-81085410D01*
X98552000Y-81075065D01*
X98552000Y-81074517D01*
X99060000Y-81074517D01*
X99064064Y-81088359D01*
X99077478Y-81090393D01*
X99084184Y-81089534D01*
X99094262Y-81087392D01*
X99298255Y-81026191D01*
X99307842Y-81022433D01*
X99499095Y-80928739D01*
X99507945Y-80923464D01*
X99681328Y-80799792D01*
X99689193Y-80793145D01*
X99793897Y-80688805D01*
X99856268Y-80654889D01*
X99927075Y-80660077D01*
X99983837Y-80702723D01*
X100000819Y-80733826D01*
X100045385Y-80852705D01*
X100132739Y-80969261D01*
X100249295Y-81056615D01*
X100385684Y-81107745D01*
X100447866Y-81114500D01*
X102244134Y-81114500D01*
X102306316Y-81107745D01*
X102442705Y-81056615D01*
X102559261Y-80969261D01*
X102646615Y-80852705D01*
X102697745Y-80716316D01*
X102704500Y-80654134D01*
X102704500Y-78857866D01*
X102697745Y-78795684D01*
X102646615Y-78659295D01*
X102559261Y-78542739D01*
X102442705Y-78455385D01*
X102306316Y-78404255D01*
X102244134Y-78397500D01*
X100447866Y-78397500D01*
X100385684Y-78404255D01*
X100249295Y-78455385D01*
X100132739Y-78542739D01*
X100045385Y-78659295D01*
X100042233Y-78667703D01*
X100042232Y-78667705D01*
X100000722Y-78778433D01*
X99958081Y-78835198D01*
X99891519Y-78859898D01*
X99822170Y-78844691D01*
X99789546Y-78819004D01*
X99738799Y-78763234D01*
X99731273Y-78756215D01*
X99564139Y-78624222D01*
X99555552Y-78618517D01*
X99369117Y-78515599D01*
X99359705Y-78511369D01*
X99158959Y-78440280D01*
X99148988Y-78437646D01*
X99077837Y-78424972D01*
X99064540Y-78426432D01*
X99060000Y-78440989D01*
X99060000Y-81074517D01*
X98552000Y-81074517D01*
X98552000Y-78439102D01*
X98548082Y-78425758D01*
X98533806Y-78423771D01*
X98495324Y-78429660D01*
X98485288Y-78432051D01*
X98282868Y-78498212D01*
X98273359Y-78502209D01*
X98084463Y-78600542D01*
X98075738Y-78606036D01*
X97905433Y-78733905D01*
X97897726Y-78740748D01*
X97750590Y-78894717D01*
X97744109Y-78902722D01*
X97639498Y-79056074D01*
X97584587Y-79101076D01*
X97514062Y-79109247D01*
X97450315Y-79077993D01*
X97429618Y-79053509D01*
X97348822Y-78928617D01*
X97348820Y-78928614D01*
X97346014Y-78924277D01*
X97195670Y-78759051D01*
X97191619Y-78755852D01*
X97191615Y-78755848D01*
X97024414Y-78623800D01*
X97024410Y-78623798D01*
X97020359Y-78620598D01*
X96984028Y-78600542D01*
X96968136Y-78591769D01*
X96824789Y-78512638D01*
X96819920Y-78510914D01*
X96819916Y-78510912D01*
X96619087Y-78439795D01*
X96619083Y-78439794D01*
X96614212Y-78438069D01*
X96609119Y-78437162D01*
X96609116Y-78437161D01*
X96399373Y-78399800D01*
X96399367Y-78399799D01*
X96394284Y-78398894D01*
X96320452Y-78397992D01*
X96176081Y-78396228D01*
X96176079Y-78396228D01*
X96170911Y-78396165D01*
X95950091Y-78429955D01*
X95737756Y-78499357D01*
X95539607Y-78602507D01*
X95535474Y-78605610D01*
X95535471Y-78605612D01*
X95452771Y-78667705D01*
X95360965Y-78736635D01*
X95206629Y-78898138D01*
X95099201Y-79055621D01*
X95044293Y-79100621D01*
X94973768Y-79108792D01*
X94910021Y-79077538D01*
X94889324Y-79053054D01*
X94808822Y-78928617D01*
X94808820Y-78928614D01*
X94806014Y-78924277D01*
X94655670Y-78759051D01*
X94651619Y-78755852D01*
X94651615Y-78755848D01*
X94484414Y-78623800D01*
X94484410Y-78623798D01*
X94480359Y-78620598D01*
X94444028Y-78600542D01*
X94428136Y-78591769D01*
X94284789Y-78512638D01*
X94279920Y-78510914D01*
X94279916Y-78510912D01*
X94079087Y-78439795D01*
X94079083Y-78439794D01*
X94074212Y-78438069D01*
X94069119Y-78437162D01*
X94069116Y-78437161D01*
X93859373Y-78399800D01*
X93859367Y-78399799D01*
X93854284Y-78398894D01*
X93780452Y-78397992D01*
X93636081Y-78396228D01*
X93636079Y-78396228D01*
X93630911Y-78396165D01*
X93410091Y-78429955D01*
X93197756Y-78499357D01*
X92999607Y-78602507D01*
X92995474Y-78605610D01*
X92995471Y-78605612D01*
X92912771Y-78667705D01*
X92820965Y-78736635D01*
X92666629Y-78898138D01*
X92559201Y-79055621D01*
X92504293Y-79100621D01*
X92433768Y-79108792D01*
X92370021Y-79077538D01*
X92349324Y-79053054D01*
X92268822Y-78928617D01*
X92268820Y-78928614D01*
X92266014Y-78924277D01*
X92115670Y-78759051D01*
X92111619Y-78755852D01*
X92111615Y-78755848D01*
X91944414Y-78623800D01*
X91944410Y-78623798D01*
X91940359Y-78620598D01*
X91904028Y-78600542D01*
X91888136Y-78591769D01*
X91744789Y-78512638D01*
X91739920Y-78510914D01*
X91739916Y-78510912D01*
X91539087Y-78439795D01*
X91539083Y-78439794D01*
X91534212Y-78438069D01*
X91529119Y-78437162D01*
X91529116Y-78437161D01*
X91319373Y-78399800D01*
X91319367Y-78399799D01*
X91314284Y-78398894D01*
X91240452Y-78397992D01*
X91096081Y-78396228D01*
X91096079Y-78396228D01*
X91090911Y-78396165D01*
X90870091Y-78429955D01*
X90657756Y-78499357D01*
X90459607Y-78602507D01*
X90455474Y-78605610D01*
X90455471Y-78605612D01*
X90372771Y-78667705D01*
X90280965Y-78736635D01*
X90126629Y-78898138D01*
X90000743Y-79082680D01*
X89906688Y-79285305D01*
X89846989Y-79500570D01*
X89823251Y-79722695D01*
X85090000Y-79722695D01*
X85090000Y-71120000D01*
X99162496Y-71120000D01*
X99163186Y-71126565D01*
X99177265Y-71260516D01*
X99182458Y-71309928D01*
X99241473Y-71491556D01*
X99336960Y-71656944D01*
X99341378Y-71661851D01*
X99341379Y-71661852D01*
X99452418Y-71785173D01*
X99464747Y-71798866D01*
X99619248Y-71911118D01*
X99625276Y-71913802D01*
X99625278Y-71913803D01*
X99759929Y-71973753D01*
X99793712Y-71988794D01*
X99887112Y-72008647D01*
X99974056Y-72027128D01*
X99974061Y-72027128D01*
X99980513Y-72028500D01*
X100171487Y-72028500D01*
X100177939Y-72027128D01*
X100177944Y-72027128D01*
X100264888Y-72008647D01*
X100358288Y-71988794D01*
X100392071Y-71973753D01*
X100526722Y-71913803D01*
X100526724Y-71913802D01*
X100532752Y-71911118D01*
X100604671Y-71858866D01*
X100665671Y-71814546D01*
X100687253Y-71798866D01*
X100691668Y-71793963D01*
X100696580Y-71789540D01*
X100697705Y-71790789D01*
X100751014Y-71757949D01*
X100784200Y-71753500D01*
X114327777Y-71753500D01*
X114395898Y-71773502D01*
X114421412Y-71795189D01*
X114478747Y-71858866D01*
X114577843Y-71930864D01*
X114625608Y-71965567D01*
X114633248Y-71971118D01*
X114639276Y-71973802D01*
X114639278Y-71973803D01*
X114801681Y-72046109D01*
X114807712Y-72048794D01*
X114901112Y-72068647D01*
X114988056Y-72087128D01*
X114988061Y-72087128D01*
X114994513Y-72088500D01*
X115185487Y-72088500D01*
X115191939Y-72087128D01*
X115191944Y-72087128D01*
X115278888Y-72068647D01*
X115372288Y-72048794D01*
X115378319Y-72046109D01*
X115540722Y-71973803D01*
X115540724Y-71973802D01*
X115546752Y-71971118D01*
X115554393Y-71965567D01*
X115602157Y-71930864D01*
X115701253Y-71858866D01*
X115763674Y-71789540D01*
X115824621Y-71721852D01*
X115824622Y-71721851D01*
X115829040Y-71716944D01*
X115924527Y-71551556D01*
X115983542Y-71369928D01*
X115994762Y-71263181D01*
X116002814Y-71186565D01*
X116003504Y-71180000D01*
X115983542Y-70990072D01*
X115924527Y-70808444D01*
X115829040Y-70643056D01*
X115793897Y-70604025D01*
X115705675Y-70506045D01*
X115705674Y-70506044D01*
X115701253Y-70501134D01*
X115546752Y-70388882D01*
X115540724Y-70386198D01*
X115540722Y-70386197D01*
X115378319Y-70313891D01*
X115378318Y-70313891D01*
X115372288Y-70311206D01*
X115278888Y-70291353D01*
X115191944Y-70272872D01*
X115191939Y-70272872D01*
X115185487Y-70271500D01*
X114994513Y-70271500D01*
X114988061Y-70272872D01*
X114988056Y-70272872D01*
X114901112Y-70291353D01*
X114807712Y-70311206D01*
X114801682Y-70313891D01*
X114801681Y-70313891D01*
X114639278Y-70386197D01*
X114639276Y-70386198D01*
X114633248Y-70388882D01*
X114627907Y-70392762D01*
X114627906Y-70392763D01*
X114532010Y-70462436D01*
X114465142Y-70486294D01*
X114457949Y-70486500D01*
X113934864Y-70486500D01*
X113866743Y-70466498D01*
X113820250Y-70412842D01*
X113810146Y-70342568D01*
X113839640Y-70277988D01*
X113845924Y-70271249D01*
X113960435Y-70157137D01*
X113964096Y-70153489D01*
X114001161Y-70101908D01*
X114091435Y-69976277D01*
X114094453Y-69972077D01*
X114135434Y-69889159D01*
X114191136Y-69776453D01*
X114191137Y-69776451D01*
X114193430Y-69771811D01*
X114251872Y-69579458D01*
X114256865Y-69563023D01*
X114256865Y-69563021D01*
X114258370Y-69558069D01*
X114287529Y-69336590D01*
X114289156Y-69270000D01*
X114270852Y-69047361D01*
X114216431Y-68830702D01*
X114127354Y-68625840D01*
X114087042Y-68563527D01*
X114008822Y-68442617D01*
X114008820Y-68442614D01*
X114006014Y-68438277D01*
X113855670Y-68273051D01*
X113851619Y-68269852D01*
X113851615Y-68269848D01*
X113684414Y-68137800D01*
X113684410Y-68137798D01*
X113680359Y-68134598D01*
X113484789Y-68026638D01*
X113479920Y-68024914D01*
X113479916Y-68024912D01*
X113279087Y-67953795D01*
X113279083Y-67953794D01*
X113274212Y-67952069D01*
X113269119Y-67951162D01*
X113269116Y-67951161D01*
X113059373Y-67913800D01*
X113059367Y-67913799D01*
X113054284Y-67912894D01*
X112980452Y-67911992D01*
X112836081Y-67910228D01*
X112836079Y-67910228D01*
X112830911Y-67910165D01*
X112610091Y-67943955D01*
X112397756Y-68013357D01*
X112367443Y-68029137D01*
X112210142Y-68111023D01*
X112199607Y-68116507D01*
X112195474Y-68119610D01*
X112195471Y-68119612D01*
X112025100Y-68247530D01*
X112020965Y-68250635D01*
X111866629Y-68412138D01*
X111863715Y-68416410D01*
X111863714Y-68416411D01*
X111808831Y-68496866D01*
X111740743Y-68596680D01*
X111704017Y-68675800D01*
X111652441Y-68786912D01*
X111646688Y-68799305D01*
X111586989Y-69014570D01*
X111563251Y-69236695D01*
X111563548Y-69241848D01*
X111563548Y-69241851D01*
X111569011Y-69336590D01*
X111576110Y-69459715D01*
X111577247Y-69464761D01*
X111577248Y-69464767D01*
X111588195Y-69513341D01*
X111625222Y-69677639D01*
X111709266Y-69884616D01*
X111825987Y-70075088D01*
X111972250Y-70243938D01*
X111995113Y-70262919D01*
X111995880Y-70263556D01*
X112035515Y-70322459D01*
X112037013Y-70393439D01*
X111999898Y-70453962D01*
X111935954Y-70484811D01*
X111915395Y-70486500D01*
X107434864Y-70486500D01*
X107366743Y-70466498D01*
X107320250Y-70412842D01*
X107310146Y-70342568D01*
X107339640Y-70277988D01*
X107345924Y-70271249D01*
X107460435Y-70157137D01*
X107464096Y-70153489D01*
X107501161Y-70101908D01*
X107591435Y-69976277D01*
X107594453Y-69972077D01*
X107635434Y-69889159D01*
X107691136Y-69776453D01*
X107691137Y-69776451D01*
X107693430Y-69771811D01*
X107751872Y-69579458D01*
X107756865Y-69563023D01*
X107756865Y-69563021D01*
X107758370Y-69558069D01*
X107787529Y-69336590D01*
X107789156Y-69270000D01*
X107770852Y-69047361D01*
X107716431Y-68830702D01*
X107627354Y-68625840D01*
X107587042Y-68563527D01*
X107508822Y-68442617D01*
X107508820Y-68442614D01*
X107506014Y-68438277D01*
X107355670Y-68273051D01*
X107351619Y-68269852D01*
X107351615Y-68269848D01*
X107184414Y-68137800D01*
X107184410Y-68137798D01*
X107180359Y-68134598D01*
X106984789Y-68026638D01*
X106979920Y-68024914D01*
X106979916Y-68024912D01*
X106779087Y-67953795D01*
X106779083Y-67953794D01*
X106774212Y-67952069D01*
X106769119Y-67951162D01*
X106769116Y-67951161D01*
X106559373Y-67913800D01*
X106559367Y-67913799D01*
X106554284Y-67912894D01*
X106480452Y-67911992D01*
X106336081Y-67910228D01*
X106336079Y-67910228D01*
X106330911Y-67910165D01*
X106110091Y-67943955D01*
X105897756Y-68013357D01*
X105867443Y-68029137D01*
X105710142Y-68111023D01*
X105699607Y-68116507D01*
X105695474Y-68119610D01*
X105695471Y-68119612D01*
X105525100Y-68247530D01*
X105520965Y-68250635D01*
X105366629Y-68412138D01*
X105363715Y-68416410D01*
X105363714Y-68416411D01*
X105308831Y-68496866D01*
X105240743Y-68596680D01*
X105204017Y-68675800D01*
X105152441Y-68786912D01*
X105146688Y-68799305D01*
X105086989Y-69014570D01*
X105063251Y-69236695D01*
X105063548Y-69241848D01*
X105063548Y-69241851D01*
X105069011Y-69336590D01*
X105076110Y-69459715D01*
X105077247Y-69464761D01*
X105077248Y-69464767D01*
X105088195Y-69513341D01*
X105125222Y-69677639D01*
X105209266Y-69884616D01*
X105325987Y-70075088D01*
X105472250Y-70243938D01*
X105495113Y-70262919D01*
X105495880Y-70263556D01*
X105535515Y-70322459D01*
X105537013Y-70393439D01*
X105499898Y-70453962D01*
X105435954Y-70484811D01*
X105415395Y-70486500D01*
X100784200Y-70486500D01*
X100716079Y-70466498D01*
X100696853Y-70450157D01*
X100696580Y-70450460D01*
X100691668Y-70446037D01*
X100687253Y-70441134D01*
X100532752Y-70328882D01*
X100526724Y-70326198D01*
X100526722Y-70326197D01*
X100364319Y-70253891D01*
X100364318Y-70253891D01*
X100358288Y-70251206D01*
X100264888Y-70231353D01*
X100177944Y-70212872D01*
X100177939Y-70212872D01*
X100171487Y-70211500D01*
X99980513Y-70211500D01*
X99974061Y-70212872D01*
X99974056Y-70212872D01*
X99887112Y-70231353D01*
X99793712Y-70251206D01*
X99787682Y-70253891D01*
X99787681Y-70253891D01*
X99625278Y-70326197D01*
X99625276Y-70326198D01*
X99619248Y-70328882D01*
X99464747Y-70441134D01*
X99460326Y-70446044D01*
X99460325Y-70446045D01*
X99375133Y-70540661D01*
X99336960Y-70583056D01*
X99241473Y-70748444D01*
X99182458Y-70930072D01*
X99162496Y-71120000D01*
X85090000Y-71120000D01*
X85090000Y-69236695D01*
X90077251Y-69236695D01*
X90077548Y-69241848D01*
X90077548Y-69241851D01*
X90083011Y-69336590D01*
X90090110Y-69459715D01*
X90091247Y-69464761D01*
X90091248Y-69464767D01*
X90102195Y-69513341D01*
X90139222Y-69677639D01*
X90223266Y-69884616D01*
X90339987Y-70075088D01*
X90486250Y-70243938D01*
X90658126Y-70386632D01*
X90851000Y-70499338D01*
X91059692Y-70579030D01*
X91064760Y-70580061D01*
X91064763Y-70580062D01*
X91172017Y-70601883D01*
X91278597Y-70623567D01*
X91283772Y-70623757D01*
X91283774Y-70623757D01*
X91496673Y-70631564D01*
X91496677Y-70631564D01*
X91501837Y-70631753D01*
X91506957Y-70631097D01*
X91506959Y-70631097D01*
X91718288Y-70604025D01*
X91718289Y-70604025D01*
X91723416Y-70603368D01*
X91791119Y-70583056D01*
X91932429Y-70540661D01*
X91932434Y-70540659D01*
X91937384Y-70539174D01*
X92137994Y-70440896D01*
X92319860Y-70311173D01*
X92478096Y-70153489D01*
X92515161Y-70101908D01*
X92605435Y-69976277D01*
X92608453Y-69972077D01*
X92649434Y-69889159D01*
X92705136Y-69776453D01*
X92705137Y-69776451D01*
X92707430Y-69771811D01*
X92765872Y-69579458D01*
X92770865Y-69563023D01*
X92770865Y-69563021D01*
X92772370Y-69558069D01*
X92801529Y-69336590D01*
X92803156Y-69270000D01*
X92800418Y-69236695D01*
X96577251Y-69236695D01*
X96577548Y-69241848D01*
X96577548Y-69241851D01*
X96583011Y-69336590D01*
X96590110Y-69459715D01*
X96591247Y-69464761D01*
X96591248Y-69464767D01*
X96602195Y-69513341D01*
X96639222Y-69677639D01*
X96723266Y-69884616D01*
X96839987Y-70075088D01*
X96986250Y-70243938D01*
X97158126Y-70386632D01*
X97351000Y-70499338D01*
X97559692Y-70579030D01*
X97564760Y-70580061D01*
X97564763Y-70580062D01*
X97672017Y-70601883D01*
X97778597Y-70623567D01*
X97783772Y-70623757D01*
X97783774Y-70623757D01*
X97996673Y-70631564D01*
X97996677Y-70631564D01*
X98001837Y-70631753D01*
X98006957Y-70631097D01*
X98006959Y-70631097D01*
X98218288Y-70604025D01*
X98218289Y-70604025D01*
X98223416Y-70603368D01*
X98291119Y-70583056D01*
X98432429Y-70540661D01*
X98432434Y-70540659D01*
X98437384Y-70539174D01*
X98637994Y-70440896D01*
X98819860Y-70311173D01*
X98978096Y-70153489D01*
X99015161Y-70101908D01*
X99105435Y-69976277D01*
X99108453Y-69972077D01*
X99149434Y-69889159D01*
X99205136Y-69776453D01*
X99205137Y-69776451D01*
X99207430Y-69771811D01*
X99265872Y-69579458D01*
X99270865Y-69563023D01*
X99270865Y-69563021D01*
X99272370Y-69558069D01*
X99301529Y-69336590D01*
X99303156Y-69270000D01*
X99284852Y-69047361D01*
X99230431Y-68830702D01*
X99141354Y-68625840D01*
X99101042Y-68563527D01*
X99022822Y-68442617D01*
X99022820Y-68442614D01*
X99020014Y-68438277D01*
X98869670Y-68273051D01*
X98865619Y-68269852D01*
X98865615Y-68269848D01*
X98698414Y-68137800D01*
X98698410Y-68137798D01*
X98694359Y-68134598D01*
X98498789Y-68026638D01*
X98493920Y-68024914D01*
X98493916Y-68024912D01*
X98293087Y-67953795D01*
X98293083Y-67953794D01*
X98288212Y-67952069D01*
X98283119Y-67951162D01*
X98283116Y-67951161D01*
X98073373Y-67913800D01*
X98073367Y-67913799D01*
X98068284Y-67912894D01*
X97994452Y-67911992D01*
X97850081Y-67910228D01*
X97850079Y-67910228D01*
X97844911Y-67910165D01*
X97624091Y-67943955D01*
X97411756Y-68013357D01*
X97381443Y-68029137D01*
X97224142Y-68111023D01*
X97213607Y-68116507D01*
X97209474Y-68119610D01*
X97209471Y-68119612D01*
X97039100Y-68247530D01*
X97034965Y-68250635D01*
X96880629Y-68412138D01*
X96877715Y-68416410D01*
X96877714Y-68416411D01*
X96822831Y-68496866D01*
X96754743Y-68596680D01*
X96718017Y-68675800D01*
X96666441Y-68786912D01*
X96660688Y-68799305D01*
X96600989Y-69014570D01*
X96577251Y-69236695D01*
X92800418Y-69236695D01*
X92784852Y-69047361D01*
X92730431Y-68830702D01*
X92641354Y-68625840D01*
X92601042Y-68563527D01*
X92522822Y-68442617D01*
X92522820Y-68442614D01*
X92520014Y-68438277D01*
X92369670Y-68273051D01*
X92365619Y-68269852D01*
X92365615Y-68269848D01*
X92198414Y-68137800D01*
X92198410Y-68137798D01*
X92194359Y-68134598D01*
X91998789Y-68026638D01*
X91993920Y-68024914D01*
X91993916Y-68024912D01*
X91793087Y-67953795D01*
X91793083Y-67953794D01*
X91788212Y-67952069D01*
X91783119Y-67951162D01*
X91783116Y-67951161D01*
X91573373Y-67913800D01*
X91573367Y-67913799D01*
X91568284Y-67912894D01*
X91494452Y-67911992D01*
X91350081Y-67910228D01*
X91350079Y-67910228D01*
X91344911Y-67910165D01*
X91124091Y-67943955D01*
X90911756Y-68013357D01*
X90881443Y-68029137D01*
X90724142Y-68111023D01*
X90713607Y-68116507D01*
X90709474Y-68119610D01*
X90709471Y-68119612D01*
X90539100Y-68247530D01*
X90534965Y-68250635D01*
X90380629Y-68412138D01*
X90377715Y-68416410D01*
X90377714Y-68416411D01*
X90322831Y-68496866D01*
X90254743Y-68596680D01*
X90218017Y-68675800D01*
X90166441Y-68786912D01*
X90160688Y-68799305D01*
X90100989Y-69014570D01*
X90077251Y-69236695D01*
X85090000Y-69236695D01*
X85090000Y-64736695D01*
X90077251Y-64736695D01*
X90077548Y-64741848D01*
X90077548Y-64741851D01*
X90083202Y-64839908D01*
X90090110Y-64959715D01*
X90091247Y-64964761D01*
X90091248Y-64964767D01*
X90112275Y-65058069D01*
X90139222Y-65177639D01*
X90182640Y-65284565D01*
X90208361Y-65347908D01*
X90223266Y-65384616D01*
X90243686Y-65417938D01*
X90331317Y-65560939D01*
X90339987Y-65575088D01*
X90486250Y-65743938D01*
X90658126Y-65886632D01*
X90851000Y-65999338D01*
X90855825Y-66001180D01*
X90855826Y-66001181D01*
X90881686Y-66011056D01*
X91059692Y-66079030D01*
X91064760Y-66080061D01*
X91064763Y-66080062D01*
X91172017Y-66101883D01*
X91278597Y-66123567D01*
X91283772Y-66123757D01*
X91283774Y-66123757D01*
X91496673Y-66131564D01*
X91496677Y-66131564D01*
X91501837Y-66131753D01*
X91506957Y-66131097D01*
X91506959Y-66131097D01*
X91718288Y-66104025D01*
X91718289Y-66104025D01*
X91723416Y-66103368D01*
X91728366Y-66101883D01*
X91932429Y-66040661D01*
X91932434Y-66040659D01*
X91937384Y-66039174D01*
X92137994Y-65940896D01*
X92319860Y-65811173D01*
X92325958Y-65805097D01*
X92456328Y-65675181D01*
X92478096Y-65653489D01*
X92515161Y-65601908D01*
X92605435Y-65476277D01*
X92608453Y-65472077D01*
X92678110Y-65331137D01*
X92705136Y-65276453D01*
X92705137Y-65276451D01*
X92707430Y-65271811D01*
X92745631Y-65146077D01*
X92770865Y-65063023D01*
X92770865Y-65063021D01*
X92772370Y-65058069D01*
X92801529Y-64836590D01*
X92803156Y-64770000D01*
X92800418Y-64736695D01*
X96577251Y-64736695D01*
X96577548Y-64741848D01*
X96577548Y-64741851D01*
X96583202Y-64839908D01*
X96590110Y-64959715D01*
X96591247Y-64964761D01*
X96591248Y-64964767D01*
X96612275Y-65058069D01*
X96639222Y-65177639D01*
X96682640Y-65284565D01*
X96708361Y-65347908D01*
X96723266Y-65384616D01*
X96743686Y-65417938D01*
X96831317Y-65560939D01*
X96839987Y-65575088D01*
X96986250Y-65743938D01*
X97158126Y-65886632D01*
X97351000Y-65999338D01*
X97355825Y-66001180D01*
X97355826Y-66001181D01*
X97381686Y-66011056D01*
X97559692Y-66079030D01*
X97564760Y-66080061D01*
X97564763Y-66080062D01*
X97672017Y-66101883D01*
X97778597Y-66123567D01*
X97783772Y-66123757D01*
X97783774Y-66123757D01*
X97996673Y-66131564D01*
X97996677Y-66131564D01*
X98001837Y-66131753D01*
X98006957Y-66131097D01*
X98006959Y-66131097D01*
X98218288Y-66104025D01*
X98218289Y-66104025D01*
X98223416Y-66103368D01*
X98228366Y-66101883D01*
X98432429Y-66040661D01*
X98432434Y-66040659D01*
X98437384Y-66039174D01*
X98637994Y-65940896D01*
X98819860Y-65811173D01*
X98825958Y-65805097D01*
X98956328Y-65675181D01*
X98978096Y-65653489D01*
X99015161Y-65601908D01*
X99105435Y-65476277D01*
X99108453Y-65472077D01*
X99178110Y-65331137D01*
X99205136Y-65276453D01*
X99205137Y-65276451D01*
X99207430Y-65271811D01*
X99245631Y-65146077D01*
X99270865Y-65063023D01*
X99270865Y-65063021D01*
X99272370Y-65058069D01*
X99301529Y-64836590D01*
X99303156Y-64770000D01*
X99300418Y-64736695D01*
X105063251Y-64736695D01*
X105063548Y-64741848D01*
X105063548Y-64741851D01*
X105069202Y-64839908D01*
X105076110Y-64959715D01*
X105077247Y-64964761D01*
X105077248Y-64964767D01*
X105098275Y-65058069D01*
X105125222Y-65177639D01*
X105168640Y-65284565D01*
X105194361Y-65347908D01*
X105209266Y-65384616D01*
X105229686Y-65417938D01*
X105317317Y-65560939D01*
X105325987Y-65575088D01*
X105472250Y-65743938D01*
X105644126Y-65886632D01*
X105837000Y-65999338D01*
X105841825Y-66001180D01*
X105841826Y-66001181D01*
X105867686Y-66011056D01*
X106045692Y-66079030D01*
X106050760Y-66080061D01*
X106050763Y-66080062D01*
X106158017Y-66101883D01*
X106264597Y-66123567D01*
X106269772Y-66123757D01*
X106269774Y-66123757D01*
X106482673Y-66131564D01*
X106482677Y-66131564D01*
X106487837Y-66131753D01*
X106492957Y-66131097D01*
X106492959Y-66131097D01*
X106704288Y-66104025D01*
X106704289Y-66104025D01*
X106709416Y-66103368D01*
X106714366Y-66101883D01*
X106918429Y-66040661D01*
X106918434Y-66040659D01*
X106923384Y-66039174D01*
X107123994Y-65940896D01*
X107305860Y-65811173D01*
X107311958Y-65805097D01*
X107442328Y-65675181D01*
X107464096Y-65653489D01*
X107501161Y-65601908D01*
X107591435Y-65476277D01*
X107594453Y-65472077D01*
X107664110Y-65331137D01*
X107691136Y-65276453D01*
X107691137Y-65276451D01*
X107693430Y-65271811D01*
X107731631Y-65146077D01*
X107756865Y-65063023D01*
X107756865Y-65063021D01*
X107758370Y-65058069D01*
X107787529Y-64836590D01*
X107789156Y-64770000D01*
X107786418Y-64736695D01*
X111563251Y-64736695D01*
X111563548Y-64741848D01*
X111563548Y-64741851D01*
X111569202Y-64839908D01*
X111576110Y-64959715D01*
X111577247Y-64964761D01*
X111577248Y-64964767D01*
X111598275Y-65058069D01*
X111625222Y-65177639D01*
X111668640Y-65284565D01*
X111694361Y-65347908D01*
X111709266Y-65384616D01*
X111729686Y-65417938D01*
X111817317Y-65560939D01*
X111825987Y-65575088D01*
X111972250Y-65743938D01*
X112144126Y-65886632D01*
X112337000Y-65999338D01*
X112341825Y-66001180D01*
X112341826Y-66001181D01*
X112367686Y-66011056D01*
X112545692Y-66079030D01*
X112550760Y-66080061D01*
X112550763Y-66080062D01*
X112658017Y-66101883D01*
X112764597Y-66123567D01*
X112769772Y-66123757D01*
X112769774Y-66123757D01*
X112982673Y-66131564D01*
X112982677Y-66131564D01*
X112987837Y-66131753D01*
X112992957Y-66131097D01*
X112992959Y-66131097D01*
X113204288Y-66104025D01*
X113204289Y-66104025D01*
X113209416Y-66103368D01*
X113214366Y-66101883D01*
X113418429Y-66040661D01*
X113418434Y-66040659D01*
X113423384Y-66039174D01*
X113623994Y-65940896D01*
X113805860Y-65811173D01*
X113811958Y-65805097D01*
X113942328Y-65675181D01*
X113964096Y-65653489D01*
X114001161Y-65601908D01*
X114091435Y-65476277D01*
X114094453Y-65472077D01*
X114164110Y-65331137D01*
X114191136Y-65276453D01*
X114191137Y-65276451D01*
X114193430Y-65271811D01*
X114231631Y-65146077D01*
X114256865Y-65063023D01*
X114256865Y-65063021D01*
X114258370Y-65058069D01*
X114287529Y-64836590D01*
X114289156Y-64770000D01*
X114270852Y-64547361D01*
X114216431Y-64330702D01*
X114127354Y-64125840D01*
X114084254Y-64059217D01*
X114008822Y-63942617D01*
X114008820Y-63942614D01*
X114006014Y-63938277D01*
X113855670Y-63773051D01*
X113851619Y-63769852D01*
X113851615Y-63769848D01*
X113684414Y-63637800D01*
X113684410Y-63637798D01*
X113680359Y-63634598D01*
X113663221Y-63625137D01*
X113600314Y-63590411D01*
X113484789Y-63526638D01*
X113479920Y-63524914D01*
X113479916Y-63524912D01*
X113279087Y-63453795D01*
X113279083Y-63453794D01*
X113274212Y-63452069D01*
X113269119Y-63451162D01*
X113269116Y-63451161D01*
X113059373Y-63413800D01*
X113059367Y-63413799D01*
X113054284Y-63412894D01*
X112980452Y-63411992D01*
X112836081Y-63410228D01*
X112836079Y-63410228D01*
X112830911Y-63410165D01*
X112610091Y-63443955D01*
X112397756Y-63513357D01*
X112199607Y-63616507D01*
X112195474Y-63619610D01*
X112195471Y-63619612D01*
X112025100Y-63747530D01*
X112020965Y-63750635D01*
X111866629Y-63912138D01*
X111863715Y-63916410D01*
X111863714Y-63916411D01*
X111806725Y-63999954D01*
X111740743Y-64096680D01*
X111704017Y-64175800D01*
X111652441Y-64286912D01*
X111646688Y-64299305D01*
X111586989Y-64514570D01*
X111563251Y-64736695D01*
X107786418Y-64736695D01*
X107770852Y-64547361D01*
X107716431Y-64330702D01*
X107627354Y-64125840D01*
X107584254Y-64059217D01*
X107508822Y-63942617D01*
X107508820Y-63942614D01*
X107506014Y-63938277D01*
X107355670Y-63773051D01*
X107351619Y-63769852D01*
X107351615Y-63769848D01*
X107184414Y-63637800D01*
X107184410Y-63637798D01*
X107180359Y-63634598D01*
X107163221Y-63625137D01*
X107100314Y-63590411D01*
X106984789Y-63526638D01*
X106979920Y-63524914D01*
X106979916Y-63524912D01*
X106779087Y-63453795D01*
X106779083Y-63453794D01*
X106774212Y-63452069D01*
X106769119Y-63451162D01*
X106769116Y-63451161D01*
X106559373Y-63413800D01*
X106559367Y-63413799D01*
X106554284Y-63412894D01*
X106480452Y-63411992D01*
X106336081Y-63410228D01*
X106336079Y-63410228D01*
X106330911Y-63410165D01*
X106110091Y-63443955D01*
X105897756Y-63513357D01*
X105699607Y-63616507D01*
X105695474Y-63619610D01*
X105695471Y-63619612D01*
X105525100Y-63747530D01*
X105520965Y-63750635D01*
X105366629Y-63912138D01*
X105363715Y-63916410D01*
X105363714Y-63916411D01*
X105306725Y-63999954D01*
X105240743Y-64096680D01*
X105204017Y-64175800D01*
X105152441Y-64286912D01*
X105146688Y-64299305D01*
X105086989Y-64514570D01*
X105063251Y-64736695D01*
X99300418Y-64736695D01*
X99284852Y-64547361D01*
X99230431Y-64330702D01*
X99141354Y-64125840D01*
X99098254Y-64059217D01*
X99022822Y-63942617D01*
X99022820Y-63942614D01*
X99020014Y-63938277D01*
X98869670Y-63773051D01*
X98865619Y-63769852D01*
X98865615Y-63769848D01*
X98698414Y-63637800D01*
X98698410Y-63637798D01*
X98694359Y-63634598D01*
X98677221Y-63625137D01*
X98614314Y-63590411D01*
X98498789Y-63526638D01*
X98493920Y-63524914D01*
X98493916Y-63524912D01*
X98293087Y-63453795D01*
X98293083Y-63453794D01*
X98288212Y-63452069D01*
X98283119Y-63451162D01*
X98283116Y-63451161D01*
X98073373Y-63413800D01*
X98073367Y-63413799D01*
X98068284Y-63412894D01*
X97994452Y-63411992D01*
X97850081Y-63410228D01*
X97850079Y-63410228D01*
X97844911Y-63410165D01*
X97624091Y-63443955D01*
X97411756Y-63513357D01*
X97213607Y-63616507D01*
X97209474Y-63619610D01*
X97209471Y-63619612D01*
X97039100Y-63747530D01*
X97034965Y-63750635D01*
X96880629Y-63912138D01*
X96877715Y-63916410D01*
X96877714Y-63916411D01*
X96820725Y-63999954D01*
X96754743Y-64096680D01*
X96718017Y-64175800D01*
X96666441Y-64286912D01*
X96660688Y-64299305D01*
X96600989Y-64514570D01*
X96577251Y-64736695D01*
X92800418Y-64736695D01*
X92784852Y-64547361D01*
X92730431Y-64330702D01*
X92641354Y-64125840D01*
X92598254Y-64059217D01*
X92522822Y-63942617D01*
X92522820Y-63942614D01*
X92520014Y-63938277D01*
X92369670Y-63773051D01*
X92365619Y-63769852D01*
X92365615Y-63769848D01*
X92198414Y-63637800D01*
X92198410Y-63637798D01*
X92194359Y-63634598D01*
X92177221Y-63625137D01*
X92114314Y-63590411D01*
X91998789Y-63526638D01*
X91993920Y-63524914D01*
X91993916Y-63524912D01*
X91793087Y-63453795D01*
X91793083Y-63453794D01*
X91788212Y-63452069D01*
X91783119Y-63451162D01*
X91783116Y-63451161D01*
X91573373Y-63413800D01*
X91573367Y-63413799D01*
X91568284Y-63412894D01*
X91494452Y-63411992D01*
X91350081Y-63410228D01*
X91350079Y-63410228D01*
X91344911Y-63410165D01*
X91124091Y-63443955D01*
X90911756Y-63513357D01*
X90713607Y-63616507D01*
X90709474Y-63619610D01*
X90709471Y-63619612D01*
X90539100Y-63747530D01*
X90534965Y-63750635D01*
X90380629Y-63912138D01*
X90377715Y-63916410D01*
X90377714Y-63916411D01*
X90320725Y-63999954D01*
X90254743Y-64096680D01*
X90218017Y-64175800D01*
X90166441Y-64286912D01*
X90160688Y-64299305D01*
X90100989Y-64514570D01*
X90077251Y-64736695D01*
X85090000Y-64736695D01*
X85090000Y-58849983D01*
X85110002Y-58781862D01*
X85163658Y-58735369D01*
X85233932Y-58725265D01*
X85298512Y-58754759D01*
X85336896Y-58814485D01*
X85341839Y-58843608D01*
X85346801Y-58941548D01*
X85350792Y-59020340D01*
X85351329Y-59023695D01*
X85351330Y-59023701D01*
X85379985Y-59202598D01*
X85407470Y-59374195D01*
X85502033Y-59719859D01*
X85633374Y-60053288D01*
X85664151Y-60111909D01*
X85790012Y-60351639D01*
X85799957Y-60370582D01*
X85801858Y-60373411D01*
X85801864Y-60373421D01*
X85985083Y-60646077D01*
X85999834Y-60668029D01*
X86230665Y-60942150D01*
X86489751Y-61189738D01*
X86774061Y-61407897D01*
X86806056Y-61427350D01*
X87077355Y-61592303D01*
X87077360Y-61592306D01*
X87080270Y-61594075D01*
X87083358Y-61595521D01*
X87083357Y-61595521D01*
X87401710Y-61744649D01*
X87401720Y-61744653D01*
X87404794Y-61746093D01*
X87408012Y-61747195D01*
X87408015Y-61747196D01*
X87740615Y-61861071D01*
X87740623Y-61861073D01*
X87743838Y-61862174D01*
X88093435Y-61940959D01*
X88145728Y-61946917D01*
X88446114Y-61981142D01*
X88446122Y-61981142D01*
X88449497Y-61981527D01*
X88452901Y-61981545D01*
X88452904Y-61981545D01*
X88647227Y-61982562D01*
X88807857Y-61983403D01*
X88811243Y-61983053D01*
X88811245Y-61983053D01*
X89160932Y-61946917D01*
X89160941Y-61946916D01*
X89164324Y-61946566D01*
X89167657Y-61945852D01*
X89167660Y-61945851D01*
X89370074Y-61902457D01*
X89514727Y-61871446D01*
X89854968Y-61758922D01*
X90181066Y-61610311D01*
X90317846Y-61529097D01*
X90486262Y-61429099D01*
X90486267Y-61429096D01*
X90489207Y-61427350D01*
X90498905Y-61420069D01*
X90644282Y-61310916D01*
X90775786Y-61212180D01*
X91037451Y-60967319D01*
X91271140Y-60695630D01*
X91438582Y-60452000D01*
X91472190Y-60403101D01*
X91472195Y-60403094D01*
X91474120Y-60400292D01*
X91475732Y-60397298D01*
X91475737Y-60397290D01*
X91642395Y-60087772D01*
X91644017Y-60084760D01*
X91751030Y-59821218D01*
X91777562Y-59755877D01*
X91777564Y-59755872D01*
X91778842Y-59752724D01*
X91780337Y-59747478D01*
X91850846Y-59499954D01*
X91877020Y-59408070D01*
X91884766Y-59362757D01*
X91913254Y-59196095D01*
X115390001Y-59196095D01*
X115390338Y-59202614D01*
X115400257Y-59298206D01*
X115403149Y-59311600D01*
X115454588Y-59465784D01*
X115460761Y-59478962D01*
X115546063Y-59616807D01*
X115555099Y-59628208D01*
X115669829Y-59742739D01*
X115681240Y-59751751D01*
X115819243Y-59836816D01*
X115832424Y-59842963D01*
X115986710Y-59894138D01*
X116000086Y-59897005D01*
X116094438Y-59906672D01*
X116100854Y-59907000D01*
X116125885Y-59907000D01*
X116141124Y-59902525D01*
X116142329Y-59901135D01*
X116144000Y-59893452D01*
X116144000Y-58946115D01*
X116139525Y-58930876D01*
X116138135Y-58929671D01*
X116130452Y-58928000D01*
X115408116Y-58928000D01*
X115392877Y-58932475D01*
X115391672Y-58933865D01*
X115390001Y-58941548D01*
X115390001Y-59196095D01*
X91913254Y-59196095D01*
X91936829Y-59058175D01*
X91936829Y-59058173D01*
X91937401Y-59054828D01*
X91939480Y-59020850D01*
X91958911Y-58703137D01*
X91959278Y-58697131D01*
X91959359Y-58674000D01*
X91944622Y-58401885D01*
X115390000Y-58401885D01*
X115394475Y-58417124D01*
X115395865Y-58418329D01*
X115403548Y-58420000D01*
X116125885Y-58420000D01*
X116141124Y-58415525D01*
X116142329Y-58414135D01*
X116144000Y-58406452D01*
X116144000Y-56827114D01*
X116139525Y-56811875D01*
X116138135Y-56810670D01*
X116130452Y-56808999D01*
X115408116Y-56808999D01*
X115392877Y-56813474D01*
X115391672Y-56814864D01*
X115390001Y-56822547D01*
X115390001Y-57077094D01*
X115390338Y-57083613D01*
X115400257Y-57179205D01*
X115403149Y-57192599D01*
X115454588Y-57346783D01*
X115460761Y-57359961D01*
X115546063Y-57497806D01*
X115555099Y-57509207D01*
X115571317Y-57525397D01*
X115605396Y-57587680D01*
X115600393Y-57658500D01*
X115571472Y-57703588D01*
X115554261Y-57720829D01*
X115545249Y-57732240D01*
X115460184Y-57870243D01*
X115454037Y-57883424D01*
X115402862Y-58037710D01*
X115399995Y-58051086D01*
X115390328Y-58145438D01*
X115390000Y-58151855D01*
X115390000Y-58401885D01*
X91944622Y-58401885D01*
X91939979Y-58316159D01*
X91882066Y-57962505D01*
X91786297Y-57617173D01*
X91783243Y-57609497D01*
X91655052Y-57287369D01*
X91653793Y-57284205D01*
X91605290Y-57192599D01*
X91487702Y-56970513D01*
X91487698Y-56970506D01*
X91486103Y-56967494D01*
X91285190Y-56670746D01*
X91278514Y-56662873D01*
X91093522Y-56444739D01*
X91053403Y-56397432D01*
X90793454Y-56150750D01*
X90508384Y-55933585D01*
X90505472Y-55931828D01*
X90505467Y-55931825D01*
X90204443Y-55750236D01*
X90204437Y-55750233D01*
X90201528Y-55748478D01*
X89923512Y-55619427D01*
X89879571Y-55599030D01*
X89879569Y-55599029D01*
X89876475Y-55597593D01*
X89706752Y-55540145D01*
X89540255Y-55483789D01*
X89540250Y-55483788D01*
X89537028Y-55482697D01*
X89338681Y-55438724D01*
X89190493Y-55405871D01*
X89190487Y-55405870D01*
X89187158Y-55405132D01*
X89183769Y-55404758D01*
X89183764Y-55404757D01*
X88862044Y-55369239D01*
X88796530Y-55341883D01*
X88756206Y-55283449D01*
X88753874Y-55212491D01*
X88790276Y-55151536D01*
X88853854Y-55119939D01*
X88875871Y-55118000D01*
X115860469Y-55118000D01*
X115928590Y-55138002D01*
G37*
%TD.AperFunction*%
%TD*%
M02*
