M48
; DRILL file {KiCad (6.0.2)} date Thu Mar 10 01:55:44 2022
; FORMAT={-:-/ absolute / inch / decimal}
; #@! TF.CreationDate,2022-03-10T01:55:44-05:00
; #@! TF.GenerationSoftware,Kicad,Pcbnew,(6.0.2)
; #@! TF.FileFunction,Plated,1,2,PTH
FMAT,2
INCH
; #@! TA.AperFunction,Plated,PTH,ViaDrill
T1C0.0157
; #@! TA.AperFunction,Plated,PTH,ComponentDrill
T2C0.0394
; #@! TA.AperFunction,Plated,PTH,ComponentDrill
T3C0.1260
%
G90
G05
T1
X3.56Y-3.52
X3.71Y-2.28
X3.94Y-2.8
X4.13Y-3.53
X4.5311Y-2.8024
X4.7135Y-2.2665
X4.91Y-2.32
X5.13Y-3.1
X5.13Y-3.41
X5.47Y-2.96
X5.55Y-2.52
X5.55Y-2.57
X5.55Y-2.62
X5.55Y-2.67
X5.5551Y-2.3549
X5.57Y-3.53
X5.59Y-3.04
X5.78Y-3.63
X5.85Y-3.04
X5.89Y-3.19
X6.81Y-3.89
X7.1587Y-3.5469
T2
X3.59Y-3.14
X3.6Y-2.55
X3.6Y-2.7272
X3.69Y-3.14
X3.79Y-3.14
X3.8559Y-2.55
X3.8559Y-2.7272
X3.89Y-3.14
X3.99Y-3.14
X4.19Y-2.55
X4.19Y-2.7272
X4.4459Y-2.55
X4.4459Y-2.7272
X5.6Y-3.85
X5.7Y-3.85
X5.8Y-3.85
X5.85Y-2.27
X5.85Y-2.37
X5.85Y-2.47
X5.85Y-2.57
X5.85Y-2.67
X5.9Y-3.85
X6.0Y-3.85
X6.1Y-3.85
X6.3Y-2.36
X6.3Y-2.5372
X6.3Y-2.78
X6.3Y-2.9572
X6.5559Y-2.36
X6.5559Y-2.5372
X6.5559Y-2.78
X6.5559Y-2.9572
X6.82Y-2.58
X6.82Y-2.7572
X7.0759Y-2.58
X7.0759Y-2.7572
T3
X3.49Y-2.31
X3.49Y-3.852
X7.08Y-2.31
X7.08Y-3.85
T0
M30
