%TF.GenerationSoftware,KiCad,Pcbnew,(6.0.2)*%
%TF.CreationDate,2022-03-10T00:50:20-05:00*%
%TF.ProjectId,controller,636f6e74-726f-46c6-9c65-722e6b696361,rev?*%
%TF.SameCoordinates,Original*%
%TF.FileFunction,Legend,Bot*%
%TF.FilePolarity,Positive*%
%FSLAX46Y46*%
G04 Gerber Fmt 4.6, Leading zero omitted, Abs format (unit mm)*
G04 Created by KiCad (PCBNEW (6.0.2)) date 2022-03-10 00:50:20*
%MOMM*%
%LPD*%
G01*
G04 APERTURE LIST*
%ADD10C,0.150000*%
%ADD11C,0.120000*%
G04 APERTURE END LIST*
D10*
%TO.C,C4*%
X114466666Y-56999142D02*
X114514285Y-57046761D01*
X114657142Y-57094380D01*
X114752380Y-57094380D01*
X114895238Y-57046761D01*
X114990476Y-56951523D01*
X115038095Y-56856285D01*
X115085714Y-56665809D01*
X115085714Y-56522952D01*
X115038095Y-56332476D01*
X114990476Y-56237238D01*
X114895238Y-56142000D01*
X114752380Y-56094380D01*
X114657142Y-56094380D01*
X114514285Y-56142000D01*
X114466666Y-56189619D01*
X113609523Y-56427714D02*
X113609523Y-57094380D01*
X113847619Y-56046761D02*
X114085714Y-56761047D01*
X113466666Y-56761047D01*
%TO.C,C5*%
X114466666Y-59285142D02*
X114514285Y-59332761D01*
X114657142Y-59380380D01*
X114752380Y-59380380D01*
X114895238Y-59332761D01*
X114990476Y-59237523D01*
X115038095Y-59142285D01*
X115085714Y-58951809D01*
X115085714Y-58808952D01*
X115038095Y-58618476D01*
X114990476Y-58523238D01*
X114895238Y-58428000D01*
X114752380Y-58380380D01*
X114657142Y-58380380D01*
X114514285Y-58428000D01*
X114466666Y-58475619D01*
X113561904Y-58380380D02*
X114038095Y-58380380D01*
X114085714Y-58856571D01*
X114038095Y-58808952D01*
X113942857Y-58761333D01*
X113704761Y-58761333D01*
X113609523Y-58808952D01*
X113561904Y-58856571D01*
X113514285Y-58951809D01*
X113514285Y-59189904D01*
X113561904Y-59285142D01*
X113609523Y-59332761D01*
X113704761Y-59380380D01*
X113942857Y-59380380D01*
X114038095Y-59332761D01*
X114085714Y-59285142D01*
D11*
%TO.C,C4*%
X117609252Y-55819999D02*
X117086748Y-55819999D01*
X117609252Y-57289999D02*
X117086748Y-57289999D01*
%TO.C,C5*%
X117609252Y-59409000D02*
X117086748Y-59409000D01*
X117609252Y-57939000D02*
X117086748Y-57939000D01*
%TD*%
M02*
