%TF.GenerationSoftware,KiCad,Pcbnew,(6.0.2)*%
%TF.CreationDate,2022-03-10T00:50:20-05:00*%
%TF.ProjectId,controller,636f6e74-726f-46c6-9c65-722e6b696361,rev?*%
%TF.SameCoordinates,Original*%
%TF.FileFunction,Soldermask,Bot*%
%TF.FilePolarity,Negative*%
%FSLAX46Y46*%
G04 Gerber Fmt 4.6, Leading zero omitted, Abs format (unit mm)*
G04 Created by KiCad (PCBNEW (6.0.2)) date 2022-03-10 00:50:20*
%MOMM*%
%LPD*%
G01*
G04 APERTURE LIST*
G04 Aperture macros list*
%AMRoundRect*
0 Rectangle with rounded corners*
0 $1 Rounding radius*
0 $2 $3 $4 $5 $6 $7 $8 $9 X,Y pos of 4 corners*
0 Add a 4 corners polygon primitive as box body*
4,1,4,$2,$3,$4,$5,$6,$7,$8,$9,$2,$3,0*
0 Add four circle primitives for the rounded corners*
1,1,$1+$1,$2,$3*
1,1,$1+$1,$4,$5*
1,1,$1+$1,$6,$7*
1,1,$1+$1,$8,$9*
0 Add four rect primitives between the rounded corners*
20,1,$1+$1,$2,$3,$4,$5,0*
20,1,$1+$1,$4,$5,$6,$7,0*
20,1,$1+$1,$6,$7,$8,$9,0*
20,1,$1+$1,$8,$9,$2,$3,0*%
G04 Aperture macros list end*
%ADD10R,1.700000X1.700000*%
%ADD11O,1.700000X1.700000*%
%ADD12C,1.700000*%
%ADD13C,5.600000*%
%ADD14RoundRect,0.250000X0.250000X0.475000X-0.250000X0.475000X-0.250000X-0.475000X0.250000X-0.475000X0*%
G04 APERTURE END LIST*
D10*
%TO.C,J2*%
X148590000Y-57658000D03*
D11*
X148590000Y-60198000D03*
X148590000Y-62738000D03*
X148590000Y-65278000D03*
X148590000Y-67818000D03*
%TD*%
D12*
%TO.C,SW4*%
X91440000Y-64770000D03*
X97940000Y-64770000D03*
X91440000Y-69270000D03*
X97940000Y-69270000D03*
%TD*%
%TO.C,SW5*%
X160020000Y-59944000D03*
X166520000Y-59944000D03*
X160020000Y-64444000D03*
X166520000Y-64444000D03*
%TD*%
%TO.C,SW6*%
X173228000Y-65532000D03*
X179728000Y-65532000D03*
X173228000Y-70032000D03*
X179728000Y-70032000D03*
%TD*%
%TO.C,SW7*%
X160020000Y-70612000D03*
X166520000Y-70612000D03*
X160020000Y-75112000D03*
X166520000Y-75112000D03*
%TD*%
D10*
%TO.C,J1*%
X101346000Y-79756000D03*
D11*
X98806000Y-79756000D03*
X96266000Y-79756000D03*
X93726000Y-79756000D03*
X91186000Y-79756000D03*
%TD*%
D10*
%TO.C,J3*%
X154940000Y-97790000D03*
D11*
X152400000Y-97790000D03*
X149860000Y-97790000D03*
X147320000Y-97790000D03*
X144780000Y-97790000D03*
X142240000Y-97790000D03*
%TD*%
D12*
%TO.C,SW3*%
X106426000Y-64770000D03*
X112926000Y-64770000D03*
X106426000Y-69270000D03*
X112926000Y-69270000D03*
%TD*%
D13*
%TO.C,REF\u002A\u002A*%
X179832000Y-97790000D03*
%TD*%
%TO.C,REF\u002A\u002A*%
X179832000Y-58674000D03*
%TD*%
%TO.C,REF\u002A\u002A*%
X88646000Y-97840000D03*
%TD*%
%TO.C,REF\u002A\u002A*%
X88646000Y-58674000D03*
%TD*%
D14*
%TO.C,C4*%
X118298000Y-56554999D03*
X116398000Y-56554999D03*
%TD*%
%TO.C,C5*%
X118298000Y-58674000D03*
X116398000Y-58674000D03*
%TD*%
M02*
