%TF.GenerationSoftware,KiCad,Pcbnew,(6.0.2)*%
%TF.CreationDate,2022-03-10T00:26:05-05:00*%
%TF.ProjectId,tower,746f7765-722e-46b6-9963-61645f706362,rev?*%
%TF.SameCoordinates,Original*%
%TF.FileFunction,Copper,L2,Bot*%
%TF.FilePolarity,Positive*%
%FSLAX46Y46*%
G04 Gerber Fmt 4.6, Leading zero omitted, Abs format (unit mm)*
G04 Created by KiCad (PCBNEW (6.0.2)) date 2022-03-10 00:26:05*
%MOMM*%
%LPD*%
G01*
G04 APERTURE LIST*
G04 Aperture macros list*
%AMRoundRect*
0 Rectangle with rounded corners*
0 $1 Rounding radius*
0 $2 $3 $4 $5 $6 $7 $8 $9 X,Y pos of 4 corners*
0 Add a 4 corners polygon primitive as box body*
4,1,4,$2,$3,$4,$5,$6,$7,$8,$9,$2,$3,0*
0 Add four circle primitives for the rounded corners*
1,1,$1+$1,$2,$3*
1,1,$1+$1,$4,$5*
1,1,$1+$1,$6,$7*
1,1,$1+$1,$8,$9*
0 Add four rect primitives between the rounded corners*
20,1,$1+$1,$2,$3,$4,$5,0*
20,1,$1+$1,$4,$5,$6,$7,0*
20,1,$1+$1,$6,$7,$8,$9,0*
20,1,$1+$1,$8,$9,$2,$3,0*%
G04 Aperture macros list end*
%TA.AperFunction,ComponentPad*%
%ADD10O,1.900000X1.200000*%
%TD*%
%TA.AperFunction,ComponentPad*%
%ADD11C,1.450000*%
%TD*%
%TA.AperFunction,ComponentPad*%
%ADD12R,1.700000X1.700000*%
%TD*%
%TA.AperFunction,ComponentPad*%
%ADD13O,1.700000X1.700000*%
%TD*%
%TA.AperFunction,ComponentPad*%
%ADD14C,5.600000*%
%TD*%
%TA.AperFunction,SMDPad,CuDef*%
%ADD15RoundRect,0.250000X-0.250000X-0.475000X0.250000X-0.475000X0.250000X0.475000X-0.250000X0.475000X0*%
%TD*%
%TA.AperFunction,ViaPad*%
%ADD16C,0.800000*%
%TD*%
%TA.AperFunction,Conductor*%
%ADD17C,0.250000*%
%TD*%
%TA.AperFunction,Conductor*%
%ADD18C,0.254000*%
%TD*%
G04 APERTURE END LIST*
D10*
%TO.P,J1,6,Shield*%
%TO.N,GND*%
X199997500Y-96920000D03*
X199997500Y-103920000D03*
D11*
X197297500Y-97920000D03*
X197297500Y-102920000D03*
%TD*%
D12*
%TO.P,J2,1,Pin_1*%
%TO.N,GND*%
X145015000Y-101165000D03*
D13*
%TO.P,J2,2,Pin_2*%
%TO.N,CTS*%
X147555000Y-101165000D03*
%TO.P,J2,3,Pin_3*%
%TO.N,unconnected-(J2-Pad3)*%
X150095000Y-101165000D03*
%TO.P,J2,4,Pin_4*%
%TO.N,TX*%
X152635000Y-101165000D03*
%TO.P,J2,5,Pin_5*%
%TO.N,RX*%
X155175000Y-101165000D03*
%TO.P,J2,6,Pin_6*%
%TO.N,DTR*%
X157715000Y-101165000D03*
%TD*%
D12*
%TO.P,J3,1,Pin_1*%
%TO.N,VOUT*%
X177130000Y-109435000D03*
D13*
%TO.P,J3,2,Pin_2*%
%TO.N,GND*%
X179670000Y-109435000D03*
%TO.P,J3,3,Pin_3*%
%TO.N,5V*%
X182210000Y-109435000D03*
%TO.P,J3,4,Pin_4*%
%TO.N,SHDN*%
X184750000Y-109435000D03*
%TO.P,J3,5,Pin_5*%
%TO.N,PG*%
X187290000Y-109435000D03*
%TD*%
D12*
%TO.P,J5,1,Pin_1*%
%TO.N,VOUT*%
X187960000Y-62230000D03*
D13*
%TO.P,J5,2,Pin_2*%
%TO.N,GND*%
X185420000Y-62230000D03*
%TO.P,J5,3,Pin_3*%
%TO.N,SCK*%
X187960000Y-64770000D03*
%TO.P,J5,4,Pin_4*%
%TO.N,MISO*%
X185420000Y-64770000D03*
%TO.P,J5,5,Pin_5*%
%TO.N,MOSI*%
X187960000Y-67310000D03*
%TO.P,J5,6,Pin_6*%
%TO.N,CS*%
X185420000Y-67310000D03*
%TO.P,J5,7,Pin_7*%
%TO.N,INT*%
X187960000Y-69850000D03*
%TO.P,J5,8,Pin_8*%
%TO.N,PDN*%
X185420000Y-69850000D03*
%TO.P,J5,9,Pin_9*%
%TO.N,AUDIO_L*%
X187960000Y-72390000D03*
%TO.P,J5,10,Pin_10*%
%TO.N,NC*%
X185420000Y-72390000D03*
%TO.P,J5,11,Pin_11*%
%TO.N,GPIO0*%
X187960000Y-74930000D03*
%TO.P,J5,12,Pin_12*%
%TO.N,GPIO1*%
X185420000Y-74930000D03*
%TO.P,J5,13,Pin_13*%
%TO.N,GPIO2*%
X187960000Y-77470000D03*
%TO.P,J5,14,Pin_14*%
%TO.N,GPIO3*%
X185420000Y-77470000D03*
%TO.P,J5,15,Pin_15*%
%TO.N,NC*%
X187960000Y-80010000D03*
%TO.P,J5,16,Pin_16*%
X185420000Y-80010000D03*
%TO.P,J5,17,Pin_17*%
X187960000Y-82550000D03*
%TO.P,J5,18,Pin_18*%
%TO.N,5V*%
X185420000Y-82550000D03*
%TO.P,J5,19,Pin_19*%
%TO.N,GND*%
X187960000Y-85090000D03*
%TO.P,J5,20,Pin_20*%
X185420000Y-85090000D03*
%TD*%
D14*
%TO.P,REF\u002A\u002A,1*%
%TO.N,N/C*%
X107696000Y-110490000D03*
%TD*%
%TO.P,REF\u002A\u002A,1*%
%TO.N,N/C*%
X197340000Y-61480000D03*
%TD*%
%TO.P,REF\u002A\u002A,1*%
%TO.N,N/C*%
X197104000Y-110490000D03*
%TD*%
%TO.P,REF\u002A\u002A,1*%
%TO.N,N/C*%
X107560000Y-73440000D03*
%TD*%
D15*
%TO.P,C4,1*%
%TO.N,VOUT*%
X149418000Y-58420000D03*
%TO.P,C4,2*%
%TO.N,GND*%
X151318000Y-58420000D03*
%TD*%
%TO.P,C5,1*%
%TO.N,VOUT*%
X149418000Y-61468000D03*
%TO.P,C5,2*%
%TO.N,GND*%
X151318000Y-61468000D03*
%TD*%
D16*
%TO.N,CS*%
X158750000Y-68580000D03*
%TO.N,GPIO2*%
X161090000Y-78740000D03*
X163830000Y-78740000D03*
%TO.N,CTS*%
X152350000Y-86530000D03*
%TO.N,RX*%
X160020000Y-63500000D03*
%TO.N,TX*%
X160020000Y-62230000D03*
%TO.N,GPIO1*%
X180340000Y-74930000D03*
%TO.N,MOSI*%
X167640000Y-59690000D03*
%TO.N,PG*%
X137560000Y-68520000D03*
X137670000Y-80680000D03*
%TO.N,VOUT*%
X148590000Y-59944000D03*
X149606000Y-95250000D03*
X181610000Y-57150000D03*
X130085500Y-91820000D03*
%TO.N,GND*%
X165040000Y-102560000D03*
X193802000Y-66294000D03*
X137360000Y-59730000D03*
X115062000Y-75184000D03*
X114808000Y-58928000D03*
X193802000Y-93218000D03*
X115316000Y-110744000D03*
X195540000Y-99130000D03*
X148430000Y-76910000D03*
X143490000Y-78190000D03*
X141478000Y-110744000D03*
X153940000Y-61330000D03*
X193802000Y-80010000D03*
X137340000Y-57140000D03*
X191970000Y-110020000D03*
%TD*%
D17*
%TO.N,CS*%
X184150000Y-68580000D02*
X185420000Y-67310000D01*
X158750000Y-68580000D02*
X184150000Y-68580000D01*
%TO.N,GPIO2*%
X163830000Y-78740000D02*
X161090000Y-78740000D01*
%TO.N,CTS*%
X152350000Y-96370000D02*
X152350000Y-86530000D01*
X147555000Y-101165000D02*
X152350000Y-96370000D01*
D18*
%TO.N,RX*%
X155175001Y-101165000D02*
X156399992Y-99940008D01*
D17*
X156400000Y-67120000D02*
X160020000Y-63500000D01*
D18*
X156399992Y-99940008D02*
X156399992Y-97790000D01*
D17*
X156400000Y-97790000D02*
X156400000Y-67120000D01*
D18*
%TO.N,TX*%
X152635001Y-101165000D02*
X155399994Y-98400006D01*
X155399994Y-98400006D02*
X155399994Y-97790000D01*
D17*
X155400000Y-97790000D02*
X155400000Y-66850000D01*
X155400000Y-66850000D02*
X160020000Y-62230000D01*
%TO.N,GPIO1*%
X180340000Y-74930000D02*
X185420000Y-74930000D01*
%TO.N,MOSI*%
X186784999Y-66134999D02*
X187960000Y-67310000D01*
X167640000Y-59690000D02*
X174084999Y-66134999D01*
X174084999Y-66134999D02*
X186784999Y-66134999D01*
%TO.N,NC*%
X187960000Y-82550000D02*
X187960000Y-80010000D01*
X185420000Y-80010000D02*
X186785489Y-78644511D01*
X186785489Y-78644511D02*
X186785489Y-73755489D01*
X187960000Y-80010000D02*
X185420000Y-80010000D01*
X186785489Y-73755489D02*
X185420000Y-72390000D01*
%TO.N,PG*%
X137680000Y-68640000D02*
X137560000Y-68520000D01*
X137670000Y-80680000D02*
X137670000Y-68630000D01*
X137670000Y-68630000D02*
X137560000Y-68520000D01*
%TO.N,VOUT*%
X148590000Y-59944000D02*
X148590000Y-59248000D01*
X148590000Y-59248000D02*
X149418000Y-58420000D01*
X149606000Y-95250000D02*
X133515500Y-95250000D01*
X133515500Y-95250000D02*
X130085500Y-91820000D01*
X148590000Y-60640000D02*
X149418000Y-61468000D01*
X149418000Y-63882000D02*
X149418000Y-95062000D01*
X149418000Y-95062000D02*
X149606000Y-95250000D01*
X166361386Y-59944000D02*
X161281386Y-59944000D01*
X166361386Y-59944000D02*
X169155386Y-57150000D01*
X169155386Y-57150000D02*
X181610000Y-57150000D01*
X148590000Y-59944000D02*
X148590000Y-60640000D01*
X157343386Y-63882000D02*
X149418000Y-63882000D01*
X149418000Y-61468000D02*
X149418000Y-63882000D01*
X161281386Y-59944000D02*
X157343386Y-63882000D01*
%TD*%
%TA.AperFunction,Conductor*%
%TO.N,GND*%
G36*
X168531413Y-56662002D02*
G01*
X168577906Y-56715658D01*
X168588010Y-56785932D01*
X168558516Y-56850512D01*
X168552388Y-56857094D01*
X167261596Y-58147885D01*
X166135886Y-59273595D01*
X166073574Y-59307621D01*
X166046791Y-59310500D01*
X161360153Y-59310500D01*
X161348970Y-59309973D01*
X161341477Y-59308298D01*
X161333551Y-59308547D01*
X161333550Y-59308547D01*
X161273400Y-59310438D01*
X161269441Y-59310500D01*
X161241530Y-59310500D01*
X161237596Y-59310997D01*
X161237595Y-59310997D01*
X161237530Y-59311005D01*
X161225693Y-59311938D01*
X161193435Y-59312952D01*
X161189416Y-59313078D01*
X161181497Y-59313327D01*
X161162043Y-59318979D01*
X161142686Y-59322987D01*
X161130456Y-59324532D01*
X161130455Y-59324532D01*
X161122589Y-59325526D01*
X161115218Y-59328445D01*
X161115216Y-59328445D01*
X161081474Y-59341804D01*
X161070244Y-59345649D01*
X161035403Y-59355771D01*
X161035402Y-59355771D01*
X161027793Y-59357982D01*
X161020974Y-59362015D01*
X161020969Y-59362017D01*
X161010358Y-59368293D01*
X160992610Y-59376988D01*
X160973769Y-59384448D01*
X160967353Y-59389110D01*
X160967352Y-59389110D01*
X160937999Y-59410436D01*
X160928079Y-59416952D01*
X160896851Y-59435420D01*
X160896848Y-59435422D01*
X160890024Y-59439458D01*
X160875703Y-59453779D01*
X160860670Y-59466619D01*
X160844279Y-59478528D01*
X160839228Y-59484634D01*
X160816088Y-59512605D01*
X160808098Y-59521384D01*
X157117886Y-63211595D01*
X157055574Y-63245621D01*
X157028791Y-63248500D01*
X150177500Y-63248500D01*
X150109379Y-63228498D01*
X150062886Y-63174842D01*
X150051500Y-63122500D01*
X150051500Y-62667899D01*
X150071502Y-62599778D01*
X150111197Y-62560755D01*
X150136120Y-62545332D01*
X150142348Y-62541478D01*
X150267305Y-62416303D01*
X150270102Y-62411765D01*
X150327353Y-62371176D01*
X150398276Y-62367946D01*
X150459687Y-62403572D01*
X150467062Y-62412068D01*
X150475098Y-62422207D01*
X150589829Y-62536739D01*
X150601240Y-62545751D01*
X150739243Y-62630816D01*
X150752424Y-62636963D01*
X150906710Y-62688138D01*
X150920086Y-62691005D01*
X151014438Y-62700672D01*
X151020854Y-62701000D01*
X151045885Y-62701000D01*
X151061124Y-62696525D01*
X151062329Y-62695135D01*
X151064000Y-62687452D01*
X151064000Y-62682884D01*
X151572000Y-62682884D01*
X151576475Y-62698123D01*
X151577865Y-62699328D01*
X151585548Y-62700999D01*
X151615095Y-62700999D01*
X151621614Y-62700662D01*
X151717206Y-62690743D01*
X151730600Y-62687851D01*
X151884784Y-62636412D01*
X151897962Y-62630239D01*
X152035807Y-62544937D01*
X152047208Y-62535901D01*
X152161739Y-62421171D01*
X152170751Y-62409760D01*
X152255816Y-62271757D01*
X152261963Y-62258576D01*
X152313138Y-62104290D01*
X152316005Y-62090914D01*
X152325672Y-61996562D01*
X152326000Y-61990146D01*
X152326000Y-61740115D01*
X152321525Y-61724876D01*
X152320135Y-61723671D01*
X152312452Y-61722000D01*
X151590115Y-61722000D01*
X151574876Y-61726475D01*
X151573671Y-61727865D01*
X151572000Y-61735548D01*
X151572000Y-62682884D01*
X151064000Y-62682884D01*
X151064000Y-61195885D01*
X151572000Y-61195885D01*
X151576475Y-61211124D01*
X151577865Y-61212329D01*
X151585548Y-61214000D01*
X152307884Y-61214000D01*
X152323123Y-61209525D01*
X152324328Y-61208135D01*
X152325999Y-61200452D01*
X152325999Y-60945905D01*
X152325662Y-60939386D01*
X152315743Y-60843794D01*
X152312851Y-60830400D01*
X152261412Y-60676216D01*
X152255239Y-60663038D01*
X152169937Y-60525193D01*
X152160901Y-60513792D01*
X152046171Y-60399261D01*
X152034760Y-60390249D01*
X151896757Y-60305184D01*
X151883576Y-60299037D01*
X151729290Y-60247862D01*
X151715914Y-60244995D01*
X151621562Y-60235328D01*
X151615145Y-60235000D01*
X151590115Y-60235000D01*
X151574876Y-60239475D01*
X151573671Y-60240865D01*
X151572000Y-60248548D01*
X151572000Y-61195885D01*
X151064000Y-61195885D01*
X151064000Y-60253116D01*
X151059525Y-60237877D01*
X151058135Y-60236672D01*
X151050452Y-60235001D01*
X151020905Y-60235001D01*
X151014386Y-60235338D01*
X150918794Y-60245257D01*
X150905400Y-60248149D01*
X150751216Y-60299588D01*
X150738038Y-60305761D01*
X150600193Y-60391063D01*
X150588792Y-60400099D01*
X150474262Y-60514828D01*
X150467206Y-60523762D01*
X150409288Y-60564823D01*
X150338365Y-60568053D01*
X150276954Y-60532426D01*
X150270154Y-60524593D01*
X150266478Y-60518652D01*
X150141303Y-60393695D01*
X150111615Y-60375395D01*
X149996968Y-60304725D01*
X149996966Y-60304724D01*
X149990738Y-60300885D01*
X149884236Y-60265560D01*
X149829389Y-60247368D01*
X149829387Y-60247368D01*
X149822861Y-60245203D01*
X149816025Y-60244503D01*
X149816022Y-60244502D01*
X149772969Y-60240091D01*
X149718400Y-60234500D01*
X149612909Y-60234500D01*
X149544788Y-60214498D01*
X149498295Y-60160842D01*
X149487599Y-60095330D01*
X149502814Y-59950565D01*
X149503504Y-59944000D01*
X149487599Y-59792670D01*
X149500371Y-59722832D01*
X149548873Y-59670985D01*
X149612909Y-59653500D01*
X149718400Y-59653500D01*
X149721646Y-59653163D01*
X149721650Y-59653163D01*
X149817308Y-59643238D01*
X149817312Y-59643237D01*
X149824166Y-59642526D01*
X149830702Y-59640345D01*
X149830704Y-59640345D01*
X149984998Y-59588868D01*
X149991946Y-59586550D01*
X150142348Y-59493478D01*
X150267305Y-59368303D01*
X150270102Y-59363765D01*
X150327353Y-59323176D01*
X150398276Y-59319946D01*
X150459687Y-59355572D01*
X150467062Y-59364068D01*
X150475098Y-59374207D01*
X150589829Y-59488739D01*
X150601240Y-59497751D01*
X150739243Y-59582816D01*
X150752424Y-59588963D01*
X150906710Y-59640138D01*
X150920086Y-59643005D01*
X151014438Y-59652672D01*
X151020854Y-59653000D01*
X151045885Y-59653000D01*
X151061124Y-59648525D01*
X151062329Y-59647135D01*
X151064000Y-59639452D01*
X151064000Y-59634884D01*
X151572000Y-59634884D01*
X151576475Y-59650123D01*
X151577865Y-59651328D01*
X151585548Y-59652999D01*
X151615095Y-59652999D01*
X151621614Y-59652662D01*
X151717206Y-59642743D01*
X151730600Y-59639851D01*
X151884784Y-59588412D01*
X151897962Y-59582239D01*
X152035807Y-59496937D01*
X152047208Y-59487901D01*
X152161739Y-59373171D01*
X152170751Y-59361760D01*
X152255816Y-59223757D01*
X152261963Y-59210576D01*
X152313138Y-59056290D01*
X152316005Y-59042914D01*
X152325672Y-58948562D01*
X152326000Y-58942146D01*
X152326000Y-58692115D01*
X152321525Y-58676876D01*
X152320135Y-58675671D01*
X152312452Y-58674000D01*
X151590115Y-58674000D01*
X151574876Y-58678475D01*
X151573671Y-58679865D01*
X151572000Y-58687548D01*
X151572000Y-59634884D01*
X151064000Y-59634884D01*
X151064000Y-58147885D01*
X151572000Y-58147885D01*
X151576475Y-58163124D01*
X151577865Y-58164329D01*
X151585548Y-58166000D01*
X152307884Y-58166000D01*
X152323123Y-58161525D01*
X152324328Y-58160135D01*
X152325999Y-58152452D01*
X152325999Y-57897905D01*
X152325662Y-57891386D01*
X152315743Y-57795794D01*
X152312851Y-57782400D01*
X152261412Y-57628216D01*
X152255239Y-57615038D01*
X152169937Y-57477193D01*
X152160901Y-57465792D01*
X152046171Y-57351261D01*
X152034760Y-57342249D01*
X151896757Y-57257184D01*
X151883576Y-57251037D01*
X151729290Y-57199862D01*
X151715914Y-57196995D01*
X151621562Y-57187328D01*
X151615145Y-57187000D01*
X151590115Y-57187000D01*
X151574876Y-57191475D01*
X151573671Y-57192865D01*
X151572000Y-57200548D01*
X151572000Y-58147885D01*
X151064000Y-58147885D01*
X151064000Y-57205116D01*
X151059525Y-57189877D01*
X151058135Y-57188672D01*
X151050452Y-57187001D01*
X151020905Y-57187001D01*
X151014386Y-57187338D01*
X150918794Y-57197257D01*
X150905400Y-57200149D01*
X150751216Y-57251588D01*
X150738038Y-57257761D01*
X150600193Y-57343063D01*
X150588792Y-57352099D01*
X150474262Y-57466828D01*
X150467206Y-57475762D01*
X150409288Y-57516823D01*
X150338365Y-57520053D01*
X150276954Y-57484426D01*
X150270154Y-57476593D01*
X150266478Y-57470652D01*
X150141303Y-57345695D01*
X150121300Y-57333365D01*
X149996968Y-57256725D01*
X149996966Y-57256724D01*
X149990738Y-57252885D01*
X149910995Y-57226436D01*
X149829389Y-57199368D01*
X149829387Y-57199368D01*
X149822861Y-57197203D01*
X149816025Y-57196503D01*
X149816022Y-57196502D01*
X149772969Y-57192091D01*
X149718400Y-57186500D01*
X149117600Y-57186500D01*
X149114354Y-57186837D01*
X149114350Y-57186837D01*
X149018692Y-57196762D01*
X149018688Y-57196763D01*
X149011834Y-57197474D01*
X149005298Y-57199655D01*
X149005296Y-57199655D01*
X148988928Y-57205116D01*
X148844054Y-57253450D01*
X148693652Y-57346522D01*
X148568695Y-57471697D01*
X148564855Y-57477927D01*
X148564854Y-57477928D01*
X148534434Y-57527279D01*
X148475885Y-57622262D01*
X148420203Y-57790139D01*
X148419503Y-57796975D01*
X148419502Y-57796978D01*
X148417102Y-57820405D01*
X148409500Y-57894600D01*
X148409500Y-58480405D01*
X148389498Y-58548526D01*
X148372595Y-58569500D01*
X148197747Y-58744348D01*
X148189461Y-58751888D01*
X148182982Y-58756000D01*
X148177557Y-58761777D01*
X148136357Y-58805651D01*
X148133602Y-58808493D01*
X148113865Y-58828230D01*
X148111385Y-58831427D01*
X148103682Y-58840447D01*
X148073414Y-58872679D01*
X148069595Y-58879625D01*
X148069593Y-58879628D01*
X148063652Y-58890434D01*
X148052801Y-58906953D01*
X148040386Y-58922959D01*
X148037241Y-58930228D01*
X148037238Y-58930232D01*
X148022826Y-58963537D01*
X148017609Y-58974187D01*
X147996305Y-59012940D01*
X147994334Y-59020615D01*
X147994334Y-59020616D01*
X147991267Y-59032562D01*
X147984863Y-59051266D01*
X147976819Y-59069855D01*
X147975580Y-59077678D01*
X147975577Y-59077688D01*
X147969901Y-59113524D01*
X147967495Y-59125144D01*
X147960329Y-59153056D01*
X147956500Y-59167970D01*
X147956500Y-59188224D01*
X147954949Y-59207934D01*
X147951780Y-59227943D01*
X147952526Y-59235835D01*
X147952277Y-59243758D01*
X147950369Y-59243698D01*
X147938820Y-59303335D01*
X147920519Y-59329803D01*
X147850960Y-59407056D01*
X147755473Y-59572444D01*
X147696458Y-59754072D01*
X147695768Y-59760633D01*
X147695768Y-59760635D01*
X147694099Y-59776513D01*
X147676496Y-59944000D01*
X147677186Y-59950565D01*
X147691863Y-60090205D01*
X147696458Y-60133928D01*
X147755473Y-60315556D01*
X147758776Y-60321278D01*
X147758777Y-60321279D01*
X147811281Y-60412218D01*
X147850960Y-60480944D01*
X147909714Y-60546196D01*
X147923960Y-60562018D01*
X147954677Y-60626026D01*
X147956262Y-60642381D01*
X147956438Y-60647995D01*
X147956500Y-60651943D01*
X147956500Y-60679856D01*
X147956997Y-60683790D01*
X147956997Y-60683791D01*
X147957005Y-60683856D01*
X147957938Y-60695693D01*
X147959327Y-60739889D01*
X147963408Y-60753935D01*
X147964978Y-60759339D01*
X147968987Y-60778700D01*
X147971526Y-60798797D01*
X147974445Y-60806168D01*
X147974445Y-60806170D01*
X147987804Y-60839912D01*
X147991649Y-60851142D01*
X147997671Y-60871869D01*
X148003982Y-60893593D01*
X148008015Y-60900412D01*
X148008017Y-60900417D01*
X148014293Y-60911028D01*
X148022988Y-60928776D01*
X148030448Y-60947617D01*
X148035110Y-60954033D01*
X148035110Y-60954034D01*
X148056436Y-60983387D01*
X148062952Y-60993307D01*
X148073628Y-61011358D01*
X148085458Y-61031362D01*
X148099779Y-61045683D01*
X148112619Y-61060716D01*
X148124528Y-61077107D01*
X148130633Y-61082158D01*
X148130638Y-61082163D01*
X148158598Y-61105294D01*
X148167376Y-61113281D01*
X148284311Y-61230215D01*
X148372595Y-61318499D01*
X148406620Y-61380811D01*
X148409500Y-61407595D01*
X148409500Y-61993400D01*
X148409837Y-61996646D01*
X148409837Y-61996650D01*
X148419618Y-62090914D01*
X148420474Y-62099166D01*
X148422655Y-62105702D01*
X148422655Y-62105704D01*
X148447507Y-62180195D01*
X148476450Y-62266946D01*
X148569522Y-62417348D01*
X148694697Y-62542305D01*
X148700927Y-62546145D01*
X148724618Y-62560749D01*
X148772110Y-62613522D01*
X148784500Y-62668008D01*
X148784500Y-63810207D01*
X148782268Y-63833816D01*
X148780725Y-63841906D01*
X148784251Y-63897951D01*
X148784500Y-63905862D01*
X148784500Y-94490500D01*
X148764498Y-94558621D01*
X148710842Y-94605114D01*
X148658500Y-94616500D01*
X133830094Y-94616500D01*
X133761973Y-94596498D01*
X133740999Y-94579595D01*
X131032622Y-91871217D01*
X130998596Y-91808905D01*
X130996407Y-91795292D01*
X130979732Y-91636635D01*
X130979732Y-91636633D01*
X130979042Y-91630072D01*
X130920027Y-91448444D01*
X130824540Y-91283056D01*
X130696753Y-91141134D01*
X130542252Y-91028882D01*
X130536224Y-91026198D01*
X130536222Y-91026197D01*
X130373819Y-90953891D01*
X130373818Y-90953891D01*
X130367788Y-90951206D01*
X130274387Y-90931353D01*
X130187444Y-90912872D01*
X130187439Y-90912872D01*
X130180987Y-90911500D01*
X129990013Y-90911500D01*
X129983561Y-90912872D01*
X129983556Y-90912872D01*
X129896613Y-90931353D01*
X129803212Y-90951206D01*
X129797182Y-90953891D01*
X129797181Y-90953891D01*
X129634778Y-91026197D01*
X129634776Y-91026198D01*
X129628748Y-91028882D01*
X129474247Y-91141134D01*
X129346460Y-91283056D01*
X129250973Y-91448444D01*
X129191958Y-91630072D01*
X129171996Y-91820000D01*
X129191958Y-92009928D01*
X129250973Y-92191556D01*
X129346460Y-92356944D01*
X129474247Y-92498866D01*
X129628748Y-92611118D01*
X129634776Y-92613802D01*
X129634778Y-92613803D01*
X129797181Y-92686109D01*
X129803212Y-92688794D01*
X129896612Y-92708647D01*
X129983556Y-92727128D01*
X129983561Y-92727128D01*
X129990013Y-92728500D01*
X130045906Y-92728500D01*
X130114027Y-92748502D01*
X130135001Y-92765405D01*
X133011843Y-95642247D01*
X133019387Y-95650537D01*
X133023500Y-95657018D01*
X133029277Y-95662443D01*
X133073167Y-95703658D01*
X133076009Y-95706413D01*
X133095731Y-95726135D01*
X133098855Y-95728558D01*
X133098859Y-95728562D01*
X133098924Y-95728612D01*
X133107945Y-95736317D01*
X133140179Y-95766586D01*
X133147127Y-95770405D01*
X133147129Y-95770407D01*
X133157932Y-95776346D01*
X133174459Y-95787202D01*
X133184198Y-95794757D01*
X133184200Y-95794758D01*
X133190460Y-95799614D01*
X133231040Y-95817174D01*
X133241688Y-95822391D01*
X133253219Y-95828730D01*
X133280440Y-95843695D01*
X133288116Y-95845666D01*
X133288119Y-95845667D01*
X133300062Y-95848733D01*
X133318767Y-95855137D01*
X133337355Y-95863181D01*
X133345178Y-95864420D01*
X133345188Y-95864423D01*
X133381024Y-95870099D01*
X133392644Y-95872505D01*
X133427789Y-95881528D01*
X133435470Y-95883500D01*
X133455724Y-95883500D01*
X133475434Y-95885051D01*
X133495443Y-95888220D01*
X133503335Y-95887474D01*
X133539461Y-95884059D01*
X133551319Y-95883500D01*
X148897800Y-95883500D01*
X148965921Y-95903502D01*
X148985147Y-95919843D01*
X148985420Y-95919540D01*
X148990332Y-95923963D01*
X148994747Y-95928866D01*
X149003298Y-95935079D01*
X149065979Y-95980619D01*
X149149248Y-96041118D01*
X149155276Y-96043802D01*
X149155278Y-96043803D01*
X149317681Y-96116109D01*
X149323712Y-96118794D01*
X149417112Y-96138647D01*
X149504056Y-96157128D01*
X149504061Y-96157128D01*
X149510513Y-96158500D01*
X149701487Y-96158500D01*
X149707939Y-96157128D01*
X149707944Y-96157128D01*
X149794887Y-96138647D01*
X149888288Y-96118794D01*
X149894319Y-96116109D01*
X150056722Y-96043803D01*
X150056724Y-96043802D01*
X150062752Y-96041118D01*
X150217253Y-95928866D01*
X150253851Y-95888220D01*
X150340621Y-95791852D01*
X150340622Y-95791851D01*
X150345040Y-95786944D01*
X150420053Y-95657018D01*
X150437223Y-95627279D01*
X150437224Y-95627278D01*
X150440527Y-95621556D01*
X150499542Y-95439928D01*
X150519504Y-95250000D01*
X150499542Y-95060072D01*
X150440527Y-94878444D01*
X150345040Y-94713056D01*
X150217253Y-94571134D01*
X150103439Y-94488443D01*
X150060085Y-94432221D01*
X150051500Y-94386507D01*
X150051500Y-64641500D01*
X150071502Y-64573379D01*
X150125158Y-64526886D01*
X150177500Y-64515500D01*
X156534405Y-64515500D01*
X156602526Y-64535502D01*
X156649019Y-64589158D01*
X156659123Y-64659432D01*
X156629629Y-64724012D01*
X156623500Y-64730595D01*
X155007747Y-66346348D01*
X154999461Y-66353888D01*
X154992982Y-66358000D01*
X154987557Y-66363777D01*
X154946357Y-66407651D01*
X154943602Y-66410493D01*
X154923865Y-66430230D01*
X154921385Y-66433427D01*
X154913682Y-66442447D01*
X154883414Y-66474679D01*
X154879595Y-66481625D01*
X154879593Y-66481628D01*
X154873652Y-66492434D01*
X154862801Y-66508953D01*
X154850386Y-66524959D01*
X154847241Y-66532228D01*
X154847238Y-66532232D01*
X154832826Y-66565537D01*
X154827609Y-66576187D01*
X154806305Y-66614940D01*
X154804334Y-66622615D01*
X154804334Y-66622616D01*
X154801267Y-66634562D01*
X154794863Y-66653266D01*
X154786819Y-66671855D01*
X154785580Y-66679678D01*
X154785577Y-66679688D01*
X154779901Y-66715524D01*
X154777495Y-66727144D01*
X154768472Y-66762289D01*
X154766500Y-66769970D01*
X154766500Y-66790224D01*
X154764949Y-66809934D01*
X154761780Y-66829943D01*
X154762526Y-66837835D01*
X154765941Y-66873961D01*
X154766500Y-66885819D01*
X154766500Y-97693837D01*
X154765828Y-97704522D01*
X154764494Y-97709718D01*
X154764494Y-98084583D01*
X154744492Y-98152704D01*
X154727589Y-98173678D01*
X153907054Y-98994214D01*
X153089945Y-99811323D01*
X153027633Y-99845348D01*
X152978754Y-99846275D01*
X152768373Y-99808800D01*
X152768367Y-99808799D01*
X152763284Y-99807894D01*
X152689452Y-99806992D01*
X152545081Y-99805228D01*
X152545079Y-99805228D01*
X152539911Y-99805165D01*
X152319091Y-99838955D01*
X152106756Y-99908357D01*
X152076443Y-99924137D01*
X151955996Y-99986838D01*
X151908607Y-100011507D01*
X151904474Y-100014610D01*
X151904471Y-100014612D01*
X151821450Y-100076946D01*
X151729965Y-100145635D01*
X151575629Y-100307138D01*
X151468201Y-100464621D01*
X151413293Y-100509621D01*
X151342768Y-100517792D01*
X151279021Y-100486538D01*
X151258324Y-100462054D01*
X151177822Y-100337617D01*
X151177820Y-100337614D01*
X151175014Y-100333277D01*
X151024670Y-100168051D01*
X151020619Y-100164852D01*
X151020615Y-100164848D01*
X150853414Y-100032800D01*
X150853410Y-100032798D01*
X150849359Y-100029598D01*
X150653789Y-99921638D01*
X150648920Y-99919914D01*
X150648916Y-99919912D01*
X150448087Y-99848795D01*
X150448083Y-99848794D01*
X150443212Y-99847069D01*
X150438119Y-99846162D01*
X150438116Y-99846161D01*
X150228373Y-99808800D01*
X150228367Y-99808799D01*
X150223284Y-99807894D01*
X150112011Y-99806535D01*
X150044141Y-99785702D01*
X149998307Y-99731483D01*
X149989062Y-99661091D01*
X150019341Y-99596875D01*
X150024456Y-99591449D01*
X152742253Y-96873652D01*
X152750539Y-96866112D01*
X152757018Y-96862000D01*
X152803644Y-96812348D01*
X152806398Y-96809507D01*
X152826135Y-96789770D01*
X152828615Y-96786573D01*
X152836320Y-96777551D01*
X152861159Y-96751100D01*
X152866586Y-96745321D01*
X152870405Y-96738375D01*
X152870407Y-96738372D01*
X152876348Y-96727566D01*
X152887199Y-96711047D01*
X152894758Y-96701301D01*
X152899614Y-96695041D01*
X152902759Y-96687772D01*
X152902762Y-96687768D01*
X152917174Y-96654463D01*
X152922391Y-96643813D01*
X152943695Y-96605060D01*
X152948733Y-96585437D01*
X152955137Y-96566734D01*
X152960033Y-96555420D01*
X152960033Y-96555419D01*
X152963181Y-96548145D01*
X152964420Y-96540322D01*
X152964423Y-96540312D01*
X152970099Y-96504476D01*
X152972505Y-96492856D01*
X152981528Y-96457711D01*
X152981528Y-96457710D01*
X152983500Y-96450030D01*
X152983500Y-96429776D01*
X152985051Y-96410065D01*
X152986980Y-96397886D01*
X152988220Y-96390057D01*
X152984059Y-96346038D01*
X152983500Y-96334181D01*
X152983500Y-87232524D01*
X153003502Y-87164403D01*
X153015858Y-87148221D01*
X153089040Y-87066944D01*
X153184527Y-86901556D01*
X153243542Y-86719928D01*
X153263504Y-86530000D01*
X153262814Y-86523435D01*
X153244232Y-86346635D01*
X153244232Y-86346633D01*
X153243542Y-86340072D01*
X153184527Y-86158444D01*
X153089040Y-85993056D01*
X153067349Y-85968965D01*
X152965675Y-85856045D01*
X152965674Y-85856044D01*
X152961253Y-85851134D01*
X152806752Y-85738882D01*
X152800724Y-85736198D01*
X152800722Y-85736197D01*
X152638319Y-85663891D01*
X152638318Y-85663891D01*
X152632288Y-85661206D01*
X152538887Y-85641353D01*
X152451944Y-85622872D01*
X152451939Y-85622872D01*
X152445487Y-85621500D01*
X152254513Y-85621500D01*
X152248061Y-85622872D01*
X152248056Y-85622872D01*
X152161113Y-85641353D01*
X152067712Y-85661206D01*
X152061682Y-85663891D01*
X152061681Y-85663891D01*
X151899278Y-85736197D01*
X151899276Y-85736198D01*
X151893248Y-85738882D01*
X151738747Y-85851134D01*
X151734326Y-85856044D01*
X151734325Y-85856045D01*
X151632652Y-85968965D01*
X151610960Y-85993056D01*
X151515473Y-86158444D01*
X151456458Y-86340072D01*
X151455768Y-86346633D01*
X151455768Y-86346635D01*
X151437186Y-86523435D01*
X151436496Y-86530000D01*
X151456458Y-86719928D01*
X151515473Y-86901556D01*
X151610960Y-87066944D01*
X151684137Y-87148215D01*
X151714853Y-87212221D01*
X151716500Y-87232524D01*
X151716500Y-96055406D01*
X151696498Y-96123527D01*
X151679595Y-96144501D01*
X148012345Y-99811750D01*
X147950033Y-99845776D01*
X147901154Y-99846702D01*
X147688373Y-99808800D01*
X147688367Y-99808799D01*
X147683284Y-99807894D01*
X147609452Y-99806992D01*
X147465081Y-99805228D01*
X147465079Y-99805228D01*
X147459911Y-99805165D01*
X147239091Y-99838955D01*
X147026756Y-99908357D01*
X146996443Y-99924137D01*
X146875996Y-99986838D01*
X146828607Y-100011507D01*
X146824474Y-100014610D01*
X146824471Y-100014612D01*
X146741450Y-100076946D01*
X146649965Y-100145635D01*
X146646393Y-100149373D01*
X146568898Y-100230466D01*
X146507374Y-100265895D01*
X146436462Y-100262438D01*
X146378676Y-100221192D01*
X146359823Y-100187644D01*
X146318324Y-100076946D01*
X146309786Y-100061351D01*
X146233285Y-99959276D01*
X146220724Y-99946715D01*
X146118649Y-99870214D01*
X146103054Y-99861676D01*
X145982606Y-99816522D01*
X145967351Y-99812895D01*
X145916486Y-99807369D01*
X145909672Y-99807000D01*
X145287115Y-99807000D01*
X145271876Y-99811475D01*
X145270671Y-99812865D01*
X145269000Y-99820548D01*
X145269000Y-102504884D01*
X145273475Y-102520123D01*
X145274865Y-102521328D01*
X145282548Y-102522999D01*
X145909669Y-102522999D01*
X145916490Y-102522629D01*
X145967352Y-102517105D01*
X145982604Y-102513479D01*
X146103054Y-102468324D01*
X146118649Y-102459786D01*
X146220724Y-102383285D01*
X146233285Y-102370724D01*
X146309786Y-102268649D01*
X146318324Y-102253054D01*
X146359225Y-102143952D01*
X146401867Y-102087188D01*
X146468428Y-102062488D01*
X146537777Y-102077696D01*
X146572444Y-102105684D01*
X146597865Y-102135031D01*
X146597869Y-102135035D01*
X146601250Y-102138938D01*
X146773126Y-102281632D01*
X146966000Y-102394338D01*
X147174692Y-102474030D01*
X147179760Y-102475061D01*
X147179763Y-102475062D01*
X147287017Y-102496883D01*
X147393597Y-102518567D01*
X147398772Y-102518757D01*
X147398774Y-102518757D01*
X147611673Y-102526564D01*
X147611677Y-102526564D01*
X147616837Y-102526753D01*
X147621957Y-102526097D01*
X147621959Y-102526097D01*
X147833288Y-102499025D01*
X147833289Y-102499025D01*
X147838416Y-102498368D01*
X147860655Y-102491696D01*
X148047429Y-102435661D01*
X148047434Y-102435659D01*
X148052384Y-102434174D01*
X148252994Y-102335896D01*
X148434860Y-102206173D01*
X148593096Y-102048489D01*
X148723453Y-101867077D01*
X148724776Y-101868028D01*
X148771645Y-101824857D01*
X148841580Y-101812625D01*
X148907026Y-101840144D01*
X148934875Y-101871994D01*
X148943972Y-101886839D01*
X148994987Y-101970088D01*
X149141250Y-102138938D01*
X149313126Y-102281632D01*
X149506000Y-102394338D01*
X149714692Y-102474030D01*
X149719760Y-102475061D01*
X149719763Y-102475062D01*
X149827017Y-102496883D01*
X149933597Y-102518567D01*
X149938772Y-102518757D01*
X149938774Y-102518757D01*
X150151673Y-102526564D01*
X150151677Y-102526564D01*
X150156837Y-102526753D01*
X150161957Y-102526097D01*
X150161959Y-102526097D01*
X150373288Y-102499025D01*
X150373289Y-102499025D01*
X150378416Y-102498368D01*
X150400655Y-102491696D01*
X150587429Y-102435661D01*
X150587434Y-102435659D01*
X150592384Y-102434174D01*
X150792994Y-102335896D01*
X150974860Y-102206173D01*
X151133096Y-102048489D01*
X151263453Y-101867077D01*
X151264776Y-101868028D01*
X151311645Y-101824857D01*
X151381580Y-101812625D01*
X151447026Y-101840144D01*
X151474875Y-101871994D01*
X151483972Y-101886839D01*
X151534987Y-101970088D01*
X151681250Y-102138938D01*
X151853126Y-102281632D01*
X152046000Y-102394338D01*
X152254692Y-102474030D01*
X152259760Y-102475061D01*
X152259763Y-102475062D01*
X152367017Y-102496883D01*
X152473597Y-102518567D01*
X152478772Y-102518757D01*
X152478774Y-102518757D01*
X152691673Y-102526564D01*
X152691677Y-102526564D01*
X152696837Y-102526753D01*
X152701957Y-102526097D01*
X152701959Y-102526097D01*
X152913288Y-102499025D01*
X152913289Y-102499025D01*
X152918416Y-102498368D01*
X152940655Y-102491696D01*
X153127429Y-102435661D01*
X153127434Y-102435659D01*
X153132384Y-102434174D01*
X153332994Y-102335896D01*
X153514860Y-102206173D01*
X153673096Y-102048489D01*
X153803453Y-101867077D01*
X153804776Y-101868028D01*
X153851645Y-101824857D01*
X153921580Y-101812625D01*
X153987026Y-101840144D01*
X154014875Y-101871994D01*
X154023972Y-101886839D01*
X154074987Y-101970088D01*
X154221250Y-102138938D01*
X154393126Y-102281632D01*
X154586000Y-102394338D01*
X154794692Y-102474030D01*
X154799760Y-102475061D01*
X154799763Y-102475062D01*
X154907017Y-102496883D01*
X155013597Y-102518567D01*
X155018772Y-102518757D01*
X155018774Y-102518757D01*
X155231673Y-102526564D01*
X155231677Y-102526564D01*
X155236837Y-102526753D01*
X155241957Y-102526097D01*
X155241959Y-102526097D01*
X155453288Y-102499025D01*
X155453289Y-102499025D01*
X155458416Y-102498368D01*
X155480655Y-102491696D01*
X155667429Y-102435661D01*
X155667434Y-102435659D01*
X155672384Y-102434174D01*
X155872994Y-102335896D01*
X156054860Y-102206173D01*
X156213096Y-102048489D01*
X156343453Y-101867077D01*
X156344776Y-101868028D01*
X156391645Y-101824857D01*
X156461580Y-101812625D01*
X156527026Y-101840144D01*
X156554875Y-101871994D01*
X156563972Y-101886839D01*
X156614987Y-101970088D01*
X156761250Y-102138938D01*
X156933126Y-102281632D01*
X157126000Y-102394338D01*
X157334692Y-102474030D01*
X157339760Y-102475061D01*
X157339763Y-102475062D01*
X157447017Y-102496883D01*
X157553597Y-102518567D01*
X157558772Y-102518757D01*
X157558774Y-102518757D01*
X157771673Y-102526564D01*
X157771677Y-102526564D01*
X157776837Y-102526753D01*
X157781957Y-102526097D01*
X157781959Y-102526097D01*
X157993288Y-102499025D01*
X157993289Y-102499025D01*
X157998416Y-102498368D01*
X158020655Y-102491696D01*
X158207429Y-102435661D01*
X158207434Y-102435659D01*
X158212384Y-102434174D01*
X158412994Y-102335896D01*
X158594860Y-102206173D01*
X158753096Y-102048489D01*
X158869253Y-101886839D01*
X196629927Y-101886839D01*
X196636995Y-101900285D01*
X197284688Y-102547978D01*
X197298632Y-102555592D01*
X197300465Y-102555461D01*
X197307080Y-102551210D01*
X197958726Y-101899564D01*
X197965156Y-101887789D01*
X197955860Y-101875774D01*
X197920863Y-101851269D01*
X197911368Y-101845786D01*
X197725804Y-101759256D01*
X197715512Y-101755510D01*
X197517741Y-101702518D01*
X197506946Y-101700615D01*
X197302975Y-101682769D01*
X197292025Y-101682769D01*
X197088054Y-101700615D01*
X197077259Y-101702518D01*
X196879488Y-101755510D01*
X196869196Y-101759256D01*
X196683632Y-101845786D01*
X196674137Y-101851269D01*
X196638303Y-101876360D01*
X196629927Y-101886839D01*
X158869253Y-101886839D01*
X158883453Y-101867077D01*
X158904320Y-101824857D01*
X158980136Y-101671453D01*
X158980137Y-101671451D01*
X158982430Y-101666811D01*
X159047370Y-101453069D01*
X159076529Y-101231590D01*
X159078156Y-101165000D01*
X159059852Y-100942361D01*
X159005431Y-100725702D01*
X158916354Y-100520840D01*
X158795014Y-100333277D01*
X158644670Y-100168051D01*
X158640619Y-100164852D01*
X158640615Y-100164848D01*
X158473414Y-100032800D01*
X158473410Y-100032798D01*
X158469359Y-100029598D01*
X158273789Y-99921638D01*
X158268920Y-99919914D01*
X158268916Y-99919912D01*
X158068087Y-99848795D01*
X158068083Y-99848794D01*
X158063212Y-99847069D01*
X158058119Y-99846162D01*
X158058116Y-99846161D01*
X157848373Y-99808800D01*
X157848367Y-99808799D01*
X157843284Y-99807894D01*
X157769452Y-99806992D01*
X157625081Y-99805228D01*
X157625079Y-99805228D01*
X157619911Y-99805165D01*
X157399091Y-99838955D01*
X157200637Y-99903820D01*
X157129673Y-99905971D01*
X157068812Y-99869415D01*
X157037375Y-99805758D01*
X157035492Y-99784055D01*
X157035492Y-98952211D01*
X196629844Y-98952211D01*
X196639140Y-98964226D01*
X196674137Y-98988731D01*
X196683632Y-98994214D01*
X196869196Y-99080744D01*
X196879488Y-99084490D01*
X197077259Y-99137482D01*
X197088054Y-99139385D01*
X197292025Y-99157231D01*
X197302975Y-99157231D01*
X197506946Y-99139385D01*
X197517741Y-99137482D01*
X197715512Y-99084490D01*
X197725804Y-99080744D01*
X197911368Y-98994214D01*
X197920863Y-98988731D01*
X197956697Y-98963640D01*
X197965073Y-98953161D01*
X197958005Y-98939715D01*
X197310312Y-98292022D01*
X197296368Y-98284408D01*
X197294535Y-98284539D01*
X197287920Y-98288790D01*
X196636274Y-98940436D01*
X196629844Y-98952211D01*
X157035492Y-98952211D01*
X157035492Y-97925475D01*
X196060269Y-97925475D01*
X196078115Y-98129446D01*
X196080018Y-98140241D01*
X196133010Y-98338012D01*
X196136756Y-98348304D01*
X196223286Y-98533868D01*
X196228769Y-98543363D01*
X196253860Y-98579197D01*
X196264339Y-98587573D01*
X196277785Y-98580505D01*
X196925478Y-97932812D01*
X196931856Y-97921132D01*
X197661908Y-97921132D01*
X197662039Y-97922965D01*
X197666290Y-97929580D01*
X198317936Y-98581226D01*
X198329711Y-98587656D01*
X198341726Y-98578360D01*
X198366231Y-98543363D01*
X198371714Y-98533868D01*
X198458244Y-98348304D01*
X198461990Y-98338012D01*
X198514982Y-98140241D01*
X198516885Y-98129446D01*
X198534731Y-97925475D01*
X198534731Y-97914525D01*
X198516885Y-97710554D01*
X198514982Y-97699762D01*
X198498073Y-97636656D01*
X198499763Y-97565679D01*
X198539557Y-97506883D01*
X198604821Y-97478935D01*
X198674835Y-97490708D01*
X198722549Y-97531144D01*
X198801462Y-97642390D01*
X198809261Y-97651425D01*
X198953331Y-97789342D01*
X198962696Y-97796738D01*
X199130241Y-97904921D01*
X199140845Y-97910417D01*
X199325812Y-97984961D01*
X199337270Y-97988355D01*
X199534428Y-98026857D01*
X199543291Y-98027934D01*
X199546000Y-98028000D01*
X199725385Y-98028000D01*
X199740624Y-98023525D01*
X199741829Y-98022135D01*
X199743500Y-98014452D01*
X199743500Y-98009885D01*
X200251500Y-98009885D01*
X200255975Y-98025124D01*
X200257365Y-98026329D01*
X200265048Y-98028000D01*
X200397332Y-98028000D01*
X200403308Y-98027715D01*
X200551994Y-98013529D01*
X200563728Y-98011270D01*
X200755099Y-97955128D01*
X200766175Y-97950698D01*
X200943478Y-97859381D01*
X200953524Y-97852931D01*
X201110357Y-97729738D01*
X201119006Y-97721501D01*
X201249712Y-97570877D01*
X201256647Y-97561153D01*
X201356510Y-97388533D01*
X201361484Y-97377669D01*
X201426907Y-97189273D01*
X201427148Y-97188284D01*
X201425680Y-97177992D01*
X201412115Y-97174000D01*
X200269615Y-97174000D01*
X200254376Y-97178475D01*
X200253171Y-97179865D01*
X200251500Y-97187548D01*
X200251500Y-98009885D01*
X199743500Y-98009885D01*
X199743500Y-97192115D01*
X199739025Y-97176876D01*
X199737635Y-97175671D01*
X199729952Y-97174000D01*
X198587098Y-97174000D01*
X198573568Y-97177973D01*
X198569404Y-97206938D01*
X198539911Y-97271519D01*
X198480185Y-97309903D01*
X198409188Y-97309903D01*
X198349462Y-97271520D01*
X198341475Y-97261280D01*
X198341142Y-97260805D01*
X198330661Y-97252427D01*
X198317215Y-97259495D01*
X197669522Y-97907188D01*
X197661908Y-97921132D01*
X196931856Y-97921132D01*
X196933092Y-97918868D01*
X196932961Y-97917035D01*
X196928710Y-97910420D01*
X196277064Y-97258774D01*
X196265289Y-97252344D01*
X196253274Y-97261640D01*
X196228769Y-97296637D01*
X196223286Y-97306132D01*
X196136756Y-97491696D01*
X196133010Y-97501988D01*
X196080018Y-97699759D01*
X196078115Y-97710554D01*
X196060269Y-97914525D01*
X196060269Y-97925475D01*
X157035492Y-97925475D01*
X157035492Y-97750017D01*
X157034494Y-97742117D01*
X157033500Y-97726325D01*
X157033500Y-96886839D01*
X196629927Y-96886839D01*
X196636995Y-96900285D01*
X197284688Y-97547978D01*
X197298632Y-97555592D01*
X197300465Y-97555461D01*
X197307080Y-97551210D01*
X197958726Y-96899564D01*
X197965156Y-96887789D01*
X197955860Y-96875774D01*
X197920863Y-96851269D01*
X197911368Y-96845786D01*
X197725804Y-96759256D01*
X197715512Y-96755510D01*
X197517741Y-96702518D01*
X197506946Y-96700615D01*
X197302975Y-96682769D01*
X197292025Y-96682769D01*
X197088054Y-96700615D01*
X197077259Y-96702518D01*
X196879488Y-96755510D01*
X196869196Y-96759256D01*
X196683632Y-96845786D01*
X196674137Y-96851269D01*
X196638303Y-96876360D01*
X196629927Y-96886839D01*
X157033500Y-96886839D01*
X157033500Y-96651716D01*
X198567852Y-96651716D01*
X198569320Y-96662008D01*
X198582885Y-96666000D01*
X199725385Y-96666000D01*
X199740624Y-96661525D01*
X199741829Y-96660135D01*
X199743500Y-96652452D01*
X199743500Y-96647885D01*
X200251500Y-96647885D01*
X200255975Y-96663124D01*
X200257365Y-96664329D01*
X200265048Y-96666000D01*
X201407902Y-96666000D01*
X201421433Y-96662027D01*
X201422788Y-96652601D01*
X201401306Y-96563463D01*
X201397417Y-96552168D01*
X201314871Y-96370618D01*
X201308924Y-96360276D01*
X201193532Y-96197603D01*
X201185739Y-96188575D01*
X201041669Y-96050658D01*
X201032304Y-96043262D01*
X200864759Y-95935079D01*
X200854155Y-95929583D01*
X200669188Y-95855039D01*
X200657730Y-95851645D01*
X200460572Y-95813143D01*
X200451709Y-95812066D01*
X200449000Y-95812000D01*
X200269615Y-95812000D01*
X200254376Y-95816475D01*
X200253171Y-95817865D01*
X200251500Y-95825548D01*
X200251500Y-96647885D01*
X199743500Y-96647885D01*
X199743500Y-95830115D01*
X199739025Y-95814876D01*
X199737635Y-95813671D01*
X199729952Y-95812000D01*
X199597668Y-95812000D01*
X199591692Y-95812285D01*
X199443006Y-95826471D01*
X199431272Y-95828730D01*
X199239901Y-95884872D01*
X199228825Y-95889302D01*
X199051522Y-95980619D01*
X199041476Y-95987069D01*
X198884643Y-96110262D01*
X198875994Y-96118499D01*
X198745288Y-96269123D01*
X198738353Y-96278847D01*
X198638490Y-96451467D01*
X198633516Y-96462331D01*
X198568093Y-96650727D01*
X198567852Y-96651716D01*
X157033500Y-96651716D01*
X157033500Y-85357966D01*
X184088257Y-85357966D01*
X184118565Y-85492446D01*
X184121645Y-85502275D01*
X184201770Y-85699603D01*
X184206413Y-85708794D01*
X184317694Y-85890388D01*
X184323777Y-85898699D01*
X184463213Y-86059667D01*
X184470580Y-86066883D01*
X184634434Y-86202916D01*
X184642881Y-86208831D01*
X184826756Y-86316279D01*
X184836042Y-86320729D01*
X185035001Y-86396703D01*
X185044899Y-86399579D01*
X185148250Y-86420606D01*
X185162299Y-86419410D01*
X185166000Y-86409065D01*
X185166000Y-86408517D01*
X185674000Y-86408517D01*
X185678064Y-86422359D01*
X185691478Y-86424393D01*
X185698184Y-86423534D01*
X185708262Y-86421392D01*
X185912255Y-86360191D01*
X185921842Y-86356433D01*
X186113095Y-86262739D01*
X186121945Y-86257464D01*
X186295328Y-86133792D01*
X186303200Y-86127139D01*
X186454052Y-85976812D01*
X186460730Y-85968965D01*
X186588022Y-85791819D01*
X186589147Y-85792627D01*
X186636669Y-85748876D01*
X186706607Y-85736661D01*
X186772046Y-85764197D01*
X186799870Y-85796028D01*
X186857690Y-85890383D01*
X186863777Y-85898699D01*
X187003213Y-86059667D01*
X187010580Y-86066883D01*
X187174434Y-86202916D01*
X187182881Y-86208831D01*
X187366756Y-86316279D01*
X187376042Y-86320729D01*
X187575001Y-86396703D01*
X187584899Y-86399579D01*
X187688250Y-86420606D01*
X187702299Y-86419410D01*
X187706000Y-86409065D01*
X187706000Y-86408517D01*
X188214000Y-86408517D01*
X188218064Y-86422359D01*
X188231478Y-86424393D01*
X188238184Y-86423534D01*
X188248262Y-86421392D01*
X188452255Y-86360191D01*
X188461842Y-86356433D01*
X188653095Y-86262739D01*
X188661945Y-86257464D01*
X188835328Y-86133792D01*
X188843200Y-86127139D01*
X188994052Y-85976812D01*
X189000730Y-85968965D01*
X189125003Y-85796020D01*
X189130313Y-85787183D01*
X189224670Y-85596267D01*
X189228469Y-85586672D01*
X189290377Y-85382910D01*
X189292555Y-85372837D01*
X189293986Y-85361962D01*
X189291775Y-85347778D01*
X189278617Y-85344000D01*
X188232115Y-85344000D01*
X188216876Y-85348475D01*
X188215671Y-85349865D01*
X188214000Y-85357548D01*
X188214000Y-86408517D01*
X187706000Y-86408517D01*
X187706000Y-85362115D01*
X187701525Y-85346876D01*
X187700135Y-85345671D01*
X187692452Y-85344000D01*
X185692115Y-85344000D01*
X185676876Y-85348475D01*
X185675671Y-85349865D01*
X185674000Y-85357548D01*
X185674000Y-86408517D01*
X185166000Y-86408517D01*
X185166000Y-85362115D01*
X185161525Y-85346876D01*
X185160135Y-85345671D01*
X185152452Y-85344000D01*
X184103225Y-85344000D01*
X184089694Y-85347973D01*
X184088257Y-85357966D01*
X157033500Y-85357966D01*
X157033500Y-78740000D01*
X160176496Y-78740000D01*
X160177186Y-78746565D01*
X160190381Y-78872104D01*
X160196458Y-78929928D01*
X160255473Y-79111556D01*
X160258776Y-79117278D01*
X160258777Y-79117279D01*
X160278903Y-79152138D01*
X160350960Y-79276944D01*
X160355378Y-79281851D01*
X160355379Y-79281852D01*
X160404746Y-79336680D01*
X160478747Y-79418866D01*
X160633248Y-79531118D01*
X160639276Y-79533802D01*
X160639278Y-79533803D01*
X160801681Y-79606109D01*
X160807712Y-79608794D01*
X160901113Y-79628647D01*
X160988056Y-79647128D01*
X160988061Y-79647128D01*
X160994513Y-79648500D01*
X161185487Y-79648500D01*
X161191939Y-79647128D01*
X161191944Y-79647128D01*
X161278887Y-79628647D01*
X161372288Y-79608794D01*
X161378319Y-79606109D01*
X161540722Y-79533803D01*
X161540724Y-79533802D01*
X161546752Y-79531118D01*
X161620547Y-79477503D01*
X161694854Y-79423515D01*
X161701253Y-79418866D01*
X161705668Y-79413963D01*
X161710580Y-79409540D01*
X161711705Y-79410789D01*
X161765014Y-79377949D01*
X161798200Y-79373500D01*
X163121800Y-79373500D01*
X163189921Y-79393502D01*
X163209147Y-79409843D01*
X163209420Y-79409540D01*
X163214332Y-79413963D01*
X163218747Y-79418866D01*
X163225146Y-79423515D01*
X163299454Y-79477503D01*
X163373248Y-79531118D01*
X163379276Y-79533802D01*
X163379278Y-79533803D01*
X163541681Y-79606109D01*
X163547712Y-79608794D01*
X163641113Y-79628647D01*
X163728056Y-79647128D01*
X163728061Y-79647128D01*
X163734513Y-79648500D01*
X163925487Y-79648500D01*
X163931939Y-79647128D01*
X163931944Y-79647128D01*
X164018887Y-79628647D01*
X164112288Y-79608794D01*
X164118319Y-79606109D01*
X164280722Y-79533803D01*
X164280724Y-79533802D01*
X164286752Y-79531118D01*
X164441253Y-79418866D01*
X164515254Y-79336680D01*
X164564621Y-79281852D01*
X164564622Y-79281851D01*
X164569040Y-79276944D01*
X164641097Y-79152138D01*
X164661223Y-79117279D01*
X164661224Y-79117278D01*
X164664527Y-79111556D01*
X164723542Y-78929928D01*
X164729620Y-78872104D01*
X164742814Y-78746565D01*
X164743504Y-78740000D01*
X164723542Y-78550072D01*
X164664527Y-78368444D01*
X164569040Y-78203056D01*
X164541147Y-78172077D01*
X164445675Y-78066045D01*
X164445674Y-78066044D01*
X164441253Y-78061134D01*
X164318311Y-77971811D01*
X164292094Y-77952763D01*
X164292093Y-77952762D01*
X164286752Y-77948882D01*
X164280724Y-77946198D01*
X164280722Y-77946197D01*
X164118319Y-77873891D01*
X164118318Y-77873891D01*
X164112288Y-77871206D01*
X164018888Y-77851353D01*
X163931944Y-77832872D01*
X163931939Y-77832872D01*
X163925487Y-77831500D01*
X163734513Y-77831500D01*
X163728061Y-77832872D01*
X163728056Y-77832872D01*
X163641112Y-77851353D01*
X163547712Y-77871206D01*
X163541682Y-77873891D01*
X163541681Y-77873891D01*
X163379278Y-77946197D01*
X163379276Y-77946198D01*
X163373248Y-77948882D01*
X163367907Y-77952762D01*
X163367906Y-77952763D01*
X163341689Y-77971811D01*
X163218747Y-78061134D01*
X163214332Y-78066037D01*
X163209420Y-78070460D01*
X163208295Y-78069211D01*
X163154986Y-78102051D01*
X163121800Y-78106500D01*
X161798200Y-78106500D01*
X161730079Y-78086498D01*
X161710853Y-78070157D01*
X161710580Y-78070460D01*
X161705668Y-78066037D01*
X161701253Y-78061134D01*
X161578311Y-77971811D01*
X161552094Y-77952763D01*
X161552093Y-77952762D01*
X161546752Y-77948882D01*
X161540724Y-77946198D01*
X161540722Y-77946197D01*
X161378319Y-77873891D01*
X161378318Y-77873891D01*
X161372288Y-77871206D01*
X161278888Y-77851353D01*
X161191944Y-77832872D01*
X161191939Y-77832872D01*
X161185487Y-77831500D01*
X160994513Y-77831500D01*
X160988061Y-77832872D01*
X160988056Y-77832872D01*
X160901112Y-77851353D01*
X160807712Y-77871206D01*
X160801682Y-77873891D01*
X160801681Y-77873891D01*
X160639278Y-77946197D01*
X160639276Y-77946198D01*
X160633248Y-77948882D01*
X160627907Y-77952762D01*
X160627906Y-77952763D01*
X160601689Y-77971811D01*
X160478747Y-78061134D01*
X160474326Y-78066044D01*
X160474325Y-78066045D01*
X160378854Y-78172077D01*
X160350960Y-78203056D01*
X160255473Y-78368444D01*
X160196458Y-78550072D01*
X160176496Y-78740000D01*
X157033500Y-78740000D01*
X157033500Y-67434594D01*
X157053502Y-67366473D01*
X157070405Y-67345499D01*
X159970500Y-64445405D01*
X160032812Y-64411379D01*
X160059595Y-64408500D01*
X160115487Y-64408500D01*
X160121939Y-64407128D01*
X160121944Y-64407128D01*
X160208887Y-64388647D01*
X160302288Y-64368794D01*
X160376574Y-64335720D01*
X160470722Y-64293803D01*
X160470724Y-64293802D01*
X160476752Y-64291118D01*
X160490120Y-64281406D01*
X160553855Y-64235099D01*
X160631253Y-64178866D01*
X160682913Y-64121492D01*
X160754621Y-64041852D01*
X160754622Y-64041851D01*
X160759040Y-64036944D01*
X160831097Y-63912138D01*
X160851223Y-63877279D01*
X160851224Y-63877278D01*
X160854527Y-63871556D01*
X160913542Y-63689928D01*
X160918565Y-63642143D01*
X160932814Y-63506565D01*
X160933504Y-63500000D01*
X160916994Y-63342916D01*
X160914232Y-63316635D01*
X160914232Y-63316633D01*
X160913542Y-63310072D01*
X160854527Y-63128444D01*
X160759040Y-62963056D01*
X160746662Y-62949309D01*
X160715946Y-62885303D01*
X160724710Y-62814850D01*
X160746661Y-62780693D01*
X160759040Y-62766944D01*
X160837967Y-62630239D01*
X160851223Y-62607279D01*
X160851224Y-62607278D01*
X160854527Y-62601556D01*
X160913542Y-62419928D01*
X160919006Y-62367946D01*
X160932814Y-62236565D01*
X160933504Y-62230000D01*
X160913542Y-62040072D01*
X160854527Y-61858444D01*
X160759040Y-61693056D01*
X160682313Y-61607842D01*
X160651595Y-61543835D01*
X160660360Y-61473381D01*
X160686854Y-61434437D01*
X161506886Y-60614405D01*
X161569198Y-60580379D01*
X161595981Y-60577500D01*
X166282619Y-60577500D01*
X166293802Y-60578027D01*
X166301295Y-60579702D01*
X166309221Y-60579453D01*
X166309222Y-60579453D01*
X166369372Y-60577562D01*
X166373331Y-60577500D01*
X166401242Y-60577500D01*
X166405177Y-60577003D01*
X166405242Y-60576995D01*
X166417079Y-60576062D01*
X166449337Y-60575048D01*
X166453356Y-60574922D01*
X166461275Y-60574673D01*
X166480729Y-60569021D01*
X166500086Y-60565013D01*
X166512316Y-60563468D01*
X166512317Y-60563468D01*
X166520183Y-60562474D01*
X166527554Y-60559555D01*
X166527556Y-60559555D01*
X166561298Y-60546196D01*
X166572528Y-60542351D01*
X166607369Y-60532229D01*
X166607370Y-60532229D01*
X166614979Y-60530018D01*
X166621798Y-60525985D01*
X166621803Y-60525983D01*
X166632414Y-60519707D01*
X166650162Y-60511012D01*
X166669003Y-60503552D01*
X166704773Y-60477564D01*
X166714693Y-60471048D01*
X166745921Y-60452580D01*
X166745924Y-60452578D01*
X166752748Y-60448542D01*
X166767069Y-60434221D01*
X166782103Y-60421380D01*
X166792080Y-60414131D01*
X166798493Y-60409472D01*
X166826684Y-60375395D01*
X166834674Y-60366616D01*
X166841843Y-60359447D01*
X166904155Y-60325421D01*
X166974970Y-60330486D01*
X167018762Y-60360276D01*
X167019423Y-60359541D01*
X167024325Y-60363954D01*
X167028747Y-60368866D01*
X167183248Y-60481118D01*
X167189276Y-60483802D01*
X167189278Y-60483803D01*
X167298488Y-60532426D01*
X167357712Y-60558794D01*
X167443378Y-60577003D01*
X167538056Y-60597128D01*
X167538061Y-60597128D01*
X167544513Y-60598500D01*
X167600406Y-60598500D01*
X167668527Y-60618502D01*
X167689501Y-60635405D01*
X170635840Y-63581745D01*
X173581347Y-66527252D01*
X173588887Y-66535538D01*
X173592999Y-66542017D01*
X173598776Y-66547442D01*
X173642650Y-66588642D01*
X173645492Y-66591397D01*
X173665229Y-66611134D01*
X173668426Y-66613614D01*
X173677446Y-66621317D01*
X173709678Y-66651585D01*
X173716624Y-66655404D01*
X173716627Y-66655406D01*
X173727433Y-66661347D01*
X173743952Y-66672198D01*
X173759958Y-66684613D01*
X173767227Y-66687758D01*
X173767231Y-66687761D01*
X173800536Y-66702173D01*
X173811186Y-66707390D01*
X173849939Y-66728694D01*
X173857614Y-66730665D01*
X173857615Y-66730665D01*
X173869561Y-66733732D01*
X173888266Y-66740136D01*
X173906854Y-66748180D01*
X173914677Y-66749419D01*
X173914687Y-66749422D01*
X173950523Y-66755098D01*
X173962143Y-66757504D01*
X173997288Y-66766527D01*
X174004969Y-66768499D01*
X174025223Y-66768499D01*
X174044933Y-66770050D01*
X174064942Y-66773219D01*
X174072834Y-66772473D01*
X174098466Y-66770050D01*
X174108961Y-66769058D01*
X174120818Y-66768499D01*
X183994626Y-66768499D01*
X184062747Y-66788501D01*
X184109240Y-66842157D01*
X184119344Y-66912431D01*
X184116043Y-66928171D01*
X184080989Y-67054570D01*
X184057251Y-67276695D01*
X184057548Y-67281848D01*
X184057548Y-67281851D01*
X184063011Y-67376590D01*
X184070110Y-67499715D01*
X184071247Y-67504761D01*
X184071248Y-67504767D01*
X184103453Y-67647668D01*
X184098917Y-67718520D01*
X184069631Y-67764464D01*
X183924500Y-67909595D01*
X183862188Y-67943621D01*
X183835405Y-67946500D01*
X159458200Y-67946500D01*
X159390079Y-67926498D01*
X159370853Y-67910157D01*
X159370580Y-67910460D01*
X159365668Y-67906037D01*
X159361253Y-67901134D01*
X159285430Y-67846045D01*
X159212094Y-67792763D01*
X159212093Y-67792762D01*
X159206752Y-67788882D01*
X159200724Y-67786198D01*
X159200722Y-67786197D01*
X159038319Y-67713891D01*
X159038318Y-67713891D01*
X159032288Y-67711206D01*
X158938888Y-67691353D01*
X158851944Y-67672872D01*
X158851939Y-67672872D01*
X158845487Y-67671500D01*
X158654513Y-67671500D01*
X158648061Y-67672872D01*
X158648056Y-67672872D01*
X158561112Y-67691353D01*
X158467712Y-67711206D01*
X158461682Y-67713891D01*
X158461681Y-67713891D01*
X158299278Y-67786197D01*
X158299276Y-67786198D01*
X158293248Y-67788882D01*
X158287907Y-67792762D01*
X158287906Y-67792763D01*
X158261689Y-67811811D01*
X158138747Y-67901134D01*
X158134326Y-67906044D01*
X158134325Y-67906045D01*
X158038854Y-68012077D01*
X158010960Y-68043056D01*
X157915473Y-68208444D01*
X157856458Y-68390072D01*
X157836496Y-68580000D01*
X157837186Y-68586565D01*
X157850381Y-68712104D01*
X157856458Y-68769928D01*
X157915473Y-68951556D01*
X157918776Y-68957278D01*
X157918777Y-68957279D01*
X157938903Y-68992138D01*
X158010960Y-69116944D01*
X158015378Y-69121851D01*
X158015379Y-69121852D01*
X158096773Y-69212249D01*
X158138747Y-69258866D01*
X158232281Y-69326823D01*
X158279881Y-69361406D01*
X158293248Y-69371118D01*
X158299276Y-69373802D01*
X158299278Y-69373803D01*
X158393426Y-69415720D01*
X158467712Y-69448794D01*
X158561112Y-69468647D01*
X158648056Y-69487128D01*
X158648061Y-69487128D01*
X158654513Y-69488500D01*
X158845487Y-69488500D01*
X158851939Y-69487128D01*
X158851944Y-69487128D01*
X158938888Y-69468647D01*
X159032288Y-69448794D01*
X159106574Y-69415720D01*
X159200722Y-69373803D01*
X159200724Y-69373802D01*
X159206752Y-69371118D01*
X159220120Y-69361406D01*
X159339671Y-69274546D01*
X159361253Y-69258866D01*
X159365668Y-69253963D01*
X159370580Y-69249540D01*
X159371705Y-69250789D01*
X159425014Y-69217949D01*
X159458200Y-69213500D01*
X184021527Y-69213500D01*
X184089648Y-69233502D01*
X184136141Y-69287158D01*
X184146245Y-69357432D01*
X184140745Y-69379182D01*
X184140688Y-69379305D01*
X184080989Y-69594570D01*
X184057251Y-69816695D01*
X184057548Y-69821848D01*
X184057548Y-69821851D01*
X184063011Y-69916590D01*
X184070110Y-70039715D01*
X184071247Y-70044761D01*
X184071248Y-70044767D01*
X184090723Y-70131182D01*
X184119222Y-70257639D01*
X184203266Y-70464616D01*
X184254019Y-70547438D01*
X184317291Y-70650688D01*
X184319987Y-70655088D01*
X184466250Y-70823938D01*
X184638126Y-70966632D01*
X184708595Y-71007811D01*
X184711445Y-71009476D01*
X184760169Y-71061114D01*
X184773240Y-71130897D01*
X184746509Y-71196669D01*
X184706055Y-71230027D01*
X184693607Y-71236507D01*
X184689474Y-71239610D01*
X184689471Y-71239612D01*
X184665247Y-71257800D01*
X184514965Y-71370635D01*
X184360629Y-71532138D01*
X184234743Y-71716680D01*
X184140688Y-71919305D01*
X184080989Y-72134570D01*
X184057251Y-72356695D01*
X184057548Y-72361848D01*
X184057548Y-72361851D01*
X184063011Y-72456590D01*
X184070110Y-72579715D01*
X184071247Y-72584761D01*
X184071248Y-72584767D01*
X184091119Y-72672939D01*
X184119222Y-72797639D01*
X184203266Y-73004616D01*
X184319987Y-73195088D01*
X184466250Y-73363938D01*
X184638126Y-73506632D01*
X184708595Y-73547811D01*
X184711445Y-73549476D01*
X184760169Y-73601114D01*
X184773240Y-73670897D01*
X184746509Y-73736669D01*
X184706055Y-73770027D01*
X184693607Y-73776507D01*
X184689474Y-73779610D01*
X184689471Y-73779612D01*
X184630119Y-73824175D01*
X184514965Y-73910635D01*
X184360629Y-74072138D01*
X184357715Y-74076410D01*
X184357714Y-74076411D01*
X184245095Y-74241504D01*
X184190184Y-74286507D01*
X184141007Y-74296500D01*
X181048200Y-74296500D01*
X180980079Y-74276498D01*
X180960853Y-74260157D01*
X180960580Y-74260460D01*
X180955668Y-74256037D01*
X180951253Y-74251134D01*
X180845184Y-74174070D01*
X180802094Y-74142763D01*
X180802093Y-74142762D01*
X180796752Y-74138882D01*
X180790724Y-74136198D01*
X180790722Y-74136197D01*
X180628319Y-74063891D01*
X180628318Y-74063891D01*
X180622288Y-74061206D01*
X180528887Y-74041353D01*
X180441944Y-74022872D01*
X180441939Y-74022872D01*
X180435487Y-74021500D01*
X180244513Y-74021500D01*
X180238061Y-74022872D01*
X180238056Y-74022872D01*
X180151113Y-74041353D01*
X180057712Y-74061206D01*
X180051682Y-74063891D01*
X180051681Y-74063891D01*
X179889278Y-74136197D01*
X179889276Y-74136198D01*
X179883248Y-74138882D01*
X179728747Y-74251134D01*
X179724326Y-74256044D01*
X179724325Y-74256045D01*
X179697498Y-74285840D01*
X179600960Y-74393056D01*
X179505473Y-74558444D01*
X179446458Y-74740072D01*
X179426496Y-74930000D01*
X179427186Y-74936565D01*
X179433844Y-74999908D01*
X179446458Y-75119928D01*
X179505473Y-75301556D01*
X179600960Y-75466944D01*
X179728747Y-75608866D01*
X179749116Y-75623665D01*
X179861814Y-75705545D01*
X179883248Y-75721118D01*
X179889276Y-75723802D01*
X179889278Y-75723803D01*
X179923389Y-75738990D01*
X180057712Y-75798794D01*
X180144009Y-75817137D01*
X180238056Y-75837128D01*
X180238061Y-75837128D01*
X180244513Y-75838500D01*
X180435487Y-75838500D01*
X180441939Y-75837128D01*
X180441944Y-75837128D01*
X180535991Y-75817137D01*
X180622288Y-75798794D01*
X180756611Y-75738990D01*
X180790722Y-75723803D01*
X180790724Y-75723802D01*
X180796752Y-75721118D01*
X180818187Y-75705545D01*
X180930884Y-75623665D01*
X180951253Y-75608866D01*
X180955668Y-75603963D01*
X180960580Y-75599540D01*
X180961705Y-75600789D01*
X181015014Y-75567949D01*
X181048200Y-75563500D01*
X184144274Y-75563500D01*
X184212395Y-75583502D01*
X184251707Y-75623665D01*
X184319987Y-75735088D01*
X184466250Y-75903938D01*
X184638126Y-76046632D01*
X184708595Y-76087811D01*
X184711445Y-76089476D01*
X184760169Y-76141114D01*
X184773240Y-76210897D01*
X184746509Y-76276669D01*
X184706055Y-76310027D01*
X184693607Y-76316507D01*
X184689474Y-76319610D01*
X184689471Y-76319612D01*
X184519100Y-76447530D01*
X184514965Y-76450635D01*
X184360629Y-76612138D01*
X184357715Y-76616410D01*
X184357714Y-76616411D01*
X184295683Y-76707345D01*
X184234743Y-76796680D01*
X184140688Y-76999305D01*
X184080989Y-77214570D01*
X184057251Y-77436695D01*
X184057548Y-77441848D01*
X184057548Y-77441851D01*
X184063011Y-77536590D01*
X184070110Y-77659715D01*
X184071247Y-77664761D01*
X184071248Y-77664767D01*
X184091119Y-77752939D01*
X184119222Y-77877639D01*
X184203266Y-78084616D01*
X184319987Y-78275088D01*
X184466250Y-78443938D01*
X184638126Y-78586632D01*
X184708595Y-78627811D01*
X184711445Y-78629476D01*
X184760169Y-78681114D01*
X184773240Y-78750897D01*
X184746509Y-78816669D01*
X184706055Y-78850027D01*
X184693607Y-78856507D01*
X184689474Y-78859610D01*
X184689471Y-78859612D01*
X184519100Y-78987530D01*
X184514965Y-78990635D01*
X184360629Y-79152138D01*
X184357715Y-79156410D01*
X184357714Y-79156411D01*
X184347251Y-79171749D01*
X184234743Y-79336680D01*
X184219003Y-79370590D01*
X184146290Y-79527237D01*
X184140688Y-79539305D01*
X184080989Y-79754570D01*
X184057251Y-79976695D01*
X184057548Y-79981848D01*
X184057548Y-79981851D01*
X184063011Y-80076590D01*
X184070110Y-80199715D01*
X184071247Y-80204761D01*
X184071248Y-80204767D01*
X184079178Y-80239954D01*
X184119222Y-80417639D01*
X184157461Y-80511811D01*
X184196919Y-80608984D01*
X184203266Y-80624616D01*
X184244997Y-80692715D01*
X184317286Y-80810680D01*
X184319987Y-80815088D01*
X184466250Y-80983938D01*
X184638126Y-81126632D01*
X184708595Y-81167811D01*
X184711445Y-81169476D01*
X184760169Y-81221114D01*
X184773240Y-81290897D01*
X184746509Y-81356669D01*
X184706055Y-81390027D01*
X184693607Y-81396507D01*
X184689474Y-81399610D01*
X184689471Y-81399612D01*
X184519100Y-81527530D01*
X184514965Y-81530635D01*
X184460979Y-81587128D01*
X184364344Y-81688251D01*
X184360629Y-81692138D01*
X184234743Y-81876680D01*
X184140688Y-82079305D01*
X184080989Y-82294570D01*
X184057251Y-82516695D01*
X184057548Y-82521848D01*
X184057548Y-82521851D01*
X184063011Y-82616590D01*
X184070110Y-82739715D01*
X184071247Y-82744761D01*
X184071248Y-82744767D01*
X184091119Y-82832939D01*
X184119222Y-82957639D01*
X184203266Y-83164616D01*
X184254019Y-83247438D01*
X184317291Y-83350688D01*
X184319987Y-83355088D01*
X184466250Y-83523938D01*
X184638126Y-83666632D01*
X184711955Y-83709774D01*
X184760679Y-83761412D01*
X184773750Y-83831195D01*
X184747019Y-83896967D01*
X184706562Y-83930327D01*
X184698457Y-83934546D01*
X184689738Y-83940036D01*
X184519433Y-84067905D01*
X184511726Y-84074748D01*
X184364590Y-84228717D01*
X184358104Y-84236727D01*
X184238098Y-84412649D01*
X184233000Y-84421623D01*
X184143338Y-84614783D01*
X184139775Y-84624470D01*
X184084389Y-84824183D01*
X184085912Y-84832607D01*
X184098292Y-84836000D01*
X189278344Y-84836000D01*
X189291875Y-84832027D01*
X189293180Y-84822947D01*
X189251214Y-84655875D01*
X189247894Y-84646124D01*
X189162972Y-84450814D01*
X189158105Y-84441739D01*
X189042426Y-84262926D01*
X189036136Y-84254757D01*
X188892806Y-84097240D01*
X188885273Y-84090215D01*
X188718139Y-83958222D01*
X188709556Y-83952520D01*
X188672602Y-83932120D01*
X188622631Y-83881687D01*
X188607859Y-83812245D01*
X188632975Y-83745839D01*
X188660327Y-83719232D01*
X188683797Y-83702491D01*
X188839860Y-83591173D01*
X188998096Y-83433489D01*
X189057594Y-83350689D01*
X189125435Y-83256277D01*
X189128453Y-83252077D01*
X189149320Y-83209857D01*
X189225136Y-83056453D01*
X189225137Y-83056451D01*
X189227430Y-83051811D01*
X189292370Y-82838069D01*
X189321529Y-82616590D01*
X189323156Y-82550000D01*
X189304852Y-82327361D01*
X189250431Y-82110702D01*
X189161354Y-81905840D01*
X189040014Y-81718277D01*
X188889670Y-81553051D01*
X188885619Y-81549852D01*
X188885615Y-81549848D01*
X188718414Y-81417800D01*
X188718410Y-81417798D01*
X188714359Y-81414598D01*
X188673053Y-81391796D01*
X188623084Y-81341364D01*
X188608312Y-81271921D01*
X188633428Y-81205516D01*
X188660780Y-81178909D01*
X188704603Y-81147650D01*
X188839860Y-81051173D01*
X188998096Y-80893489D01*
X189057594Y-80810689D01*
X189125435Y-80716277D01*
X189128453Y-80712077D01*
X189138023Y-80692715D01*
X189225136Y-80516453D01*
X189225137Y-80516451D01*
X189227430Y-80511811D01*
X189292370Y-80298069D01*
X189321529Y-80076590D01*
X189322608Y-80032422D01*
X189323074Y-80013365D01*
X189323074Y-80013361D01*
X189323156Y-80010000D01*
X189304852Y-79787361D01*
X189250431Y-79570702D01*
X189161354Y-79365840D01*
X189103845Y-79276944D01*
X189042822Y-79182617D01*
X189042820Y-79182614D01*
X189040014Y-79178277D01*
X188889670Y-79013051D01*
X188885619Y-79009852D01*
X188885615Y-79009848D01*
X188718414Y-78877800D01*
X188718410Y-78877798D01*
X188714359Y-78874598D01*
X188673053Y-78851796D01*
X188623084Y-78801364D01*
X188608312Y-78731921D01*
X188633428Y-78665516D01*
X188660780Y-78638909D01*
X188704603Y-78607650D01*
X188839860Y-78511173D01*
X188998096Y-78353489D01*
X189057594Y-78270689D01*
X189125435Y-78176277D01*
X189128453Y-78172077D01*
X189227430Y-77971811D01*
X189292370Y-77758069D01*
X189321529Y-77536590D01*
X189323156Y-77470000D01*
X189304852Y-77247361D01*
X189250431Y-77030702D01*
X189161354Y-76825840D01*
X189084696Y-76707345D01*
X189042822Y-76642617D01*
X189042820Y-76642614D01*
X189040014Y-76638277D01*
X188889670Y-76473051D01*
X188885619Y-76469852D01*
X188885615Y-76469848D01*
X188718414Y-76337800D01*
X188718410Y-76337798D01*
X188714359Y-76334598D01*
X188673053Y-76311796D01*
X188623084Y-76261364D01*
X188608312Y-76191921D01*
X188633428Y-76125516D01*
X188660780Y-76098909D01*
X188704603Y-76067650D01*
X188839860Y-75971173D01*
X188998096Y-75813489D01*
X189007670Y-75800166D01*
X189125435Y-75636277D01*
X189128453Y-75632077D01*
X189132611Y-75623665D01*
X189225136Y-75436453D01*
X189225137Y-75436451D01*
X189227430Y-75431811D01*
X189292370Y-75218069D01*
X189321529Y-74996590D01*
X189323156Y-74930000D01*
X189304852Y-74707361D01*
X189250431Y-74490702D01*
X189161354Y-74285840D01*
X189069260Y-74143484D01*
X189042822Y-74102617D01*
X189042820Y-74102614D01*
X189040014Y-74098277D01*
X188889670Y-73933051D01*
X188885619Y-73929852D01*
X188885615Y-73929848D01*
X188718414Y-73797800D01*
X188718410Y-73797798D01*
X188714359Y-73794598D01*
X188673053Y-73771796D01*
X188623084Y-73721364D01*
X188608312Y-73651921D01*
X188633428Y-73585516D01*
X188660780Y-73558909D01*
X188704603Y-73527650D01*
X188839860Y-73431173D01*
X188846020Y-73425035D01*
X188994435Y-73277137D01*
X188998096Y-73273489D01*
X189057594Y-73190689D01*
X189125435Y-73096277D01*
X189128453Y-73092077D01*
X189131674Y-73085561D01*
X189225136Y-72896453D01*
X189225137Y-72896451D01*
X189227430Y-72891811D01*
X189292370Y-72678069D01*
X189321529Y-72456590D01*
X189323156Y-72390000D01*
X189304852Y-72167361D01*
X189250431Y-71950702D01*
X189161354Y-71745840D01*
X189040014Y-71558277D01*
X188889670Y-71393051D01*
X188885619Y-71389852D01*
X188885615Y-71389848D01*
X188718414Y-71257800D01*
X188718410Y-71257798D01*
X188714359Y-71254598D01*
X188673053Y-71231796D01*
X188623084Y-71181364D01*
X188608312Y-71111921D01*
X188633428Y-71045516D01*
X188660780Y-71018909D01*
X188704603Y-70987650D01*
X188839860Y-70891173D01*
X188998096Y-70733489D01*
X189057594Y-70650689D01*
X189125435Y-70556277D01*
X189128453Y-70552077D01*
X189147036Y-70514478D01*
X189225136Y-70356453D01*
X189225137Y-70356451D01*
X189227430Y-70351811D01*
X189282893Y-70169263D01*
X189290865Y-70143023D01*
X189290865Y-70143021D01*
X189292370Y-70138069D01*
X189321529Y-69916590D01*
X189323156Y-69850000D01*
X189304852Y-69627361D01*
X189250431Y-69410702D01*
X189161354Y-69205840D01*
X189103845Y-69116944D01*
X189042822Y-69022617D01*
X189042820Y-69022614D01*
X189040014Y-69018277D01*
X188889670Y-68853051D01*
X188885619Y-68849852D01*
X188885615Y-68849848D01*
X188718414Y-68717800D01*
X188718410Y-68717798D01*
X188714359Y-68714598D01*
X188673053Y-68691796D01*
X188623084Y-68641364D01*
X188608312Y-68571921D01*
X188633428Y-68505516D01*
X188660780Y-68478909D01*
X188704603Y-68447650D01*
X188839860Y-68351173D01*
X188998096Y-68193489D01*
X189128453Y-68012077D01*
X189149320Y-67969857D01*
X189225136Y-67816453D01*
X189225137Y-67816451D01*
X189227430Y-67811811D01*
X189277301Y-67647668D01*
X189290865Y-67603023D01*
X189290865Y-67603021D01*
X189292370Y-67598069D01*
X189321529Y-67376590D01*
X189323156Y-67310000D01*
X189304852Y-67087361D01*
X189250431Y-66870702D01*
X189161354Y-66665840D01*
X189077377Y-66536031D01*
X189042822Y-66482617D01*
X189042820Y-66482614D01*
X189040014Y-66478277D01*
X188889670Y-66313051D01*
X188885619Y-66309852D01*
X188885615Y-66309848D01*
X188718414Y-66177800D01*
X188718410Y-66177798D01*
X188714359Y-66174598D01*
X188673053Y-66151796D01*
X188623084Y-66101364D01*
X188608312Y-66031921D01*
X188633428Y-65965516D01*
X188660780Y-65938909D01*
X188704603Y-65907650D01*
X188839860Y-65811173D01*
X188998096Y-65653489D01*
X189128453Y-65472077D01*
X189132152Y-65464594D01*
X189225136Y-65276453D01*
X189225137Y-65276451D01*
X189227430Y-65271811D01*
X189292370Y-65058069D01*
X189321529Y-64836590D01*
X189322682Y-64789403D01*
X189323074Y-64773365D01*
X189323074Y-64773361D01*
X189323156Y-64770000D01*
X189304852Y-64547361D01*
X189250431Y-64330702D01*
X189161354Y-64125840D01*
X189103845Y-64036944D01*
X189042822Y-63942617D01*
X189042820Y-63942614D01*
X189040014Y-63938277D01*
X189036532Y-63934450D01*
X188892798Y-63776488D01*
X188861746Y-63712642D01*
X188870141Y-63642143D01*
X188915317Y-63587375D01*
X188941761Y-63573706D01*
X189048297Y-63533767D01*
X189056705Y-63530615D01*
X189173261Y-63443261D01*
X189260615Y-63326705D01*
X189311745Y-63190316D01*
X189318500Y-63128134D01*
X189318500Y-61468434D01*
X194026661Y-61468434D01*
X194044792Y-61826340D01*
X194045329Y-61829695D01*
X194045330Y-61829701D01*
X194079026Y-62040072D01*
X194101470Y-62180195D01*
X194196033Y-62525859D01*
X194327374Y-62859288D01*
X194358151Y-62917909D01*
X194471984Y-63134729D01*
X194493957Y-63176582D01*
X194495858Y-63179411D01*
X194495864Y-63179421D01*
X194605729Y-63342916D01*
X194693834Y-63474029D01*
X194924665Y-63748150D01*
X195183751Y-63995738D01*
X195468061Y-64213897D01*
X195500056Y-64233350D01*
X195771355Y-64398303D01*
X195771360Y-64398306D01*
X195774270Y-64400075D01*
X195798401Y-64411379D01*
X196095710Y-64550649D01*
X196095720Y-64550653D01*
X196098794Y-64552093D01*
X196102012Y-64553195D01*
X196102015Y-64553196D01*
X196434615Y-64667071D01*
X196434623Y-64667073D01*
X196437838Y-64668174D01*
X196787435Y-64746959D01*
X196839728Y-64752917D01*
X197140114Y-64787142D01*
X197140122Y-64787142D01*
X197143497Y-64787527D01*
X197146901Y-64787545D01*
X197146904Y-64787545D01*
X197341227Y-64788562D01*
X197501857Y-64789403D01*
X197505243Y-64789053D01*
X197505245Y-64789053D01*
X197854932Y-64752917D01*
X197854941Y-64752916D01*
X197858324Y-64752566D01*
X197861657Y-64751852D01*
X197861660Y-64751851D01*
X198034186Y-64714864D01*
X198208727Y-64677446D01*
X198548968Y-64564922D01*
X198875066Y-64416311D01*
X199063719Y-64304297D01*
X199180262Y-64235099D01*
X199180267Y-64235096D01*
X199183207Y-64233350D01*
X199469786Y-64018180D01*
X199731451Y-63773319D01*
X199965140Y-63501630D01*
X200091141Y-63318297D01*
X200166190Y-63209101D01*
X200166195Y-63209094D01*
X200168120Y-63206292D01*
X200169732Y-63203298D01*
X200169737Y-63203290D01*
X200336395Y-62893772D01*
X200338017Y-62890760D01*
X200457017Y-62597697D01*
X200471562Y-62561877D01*
X200471564Y-62561872D01*
X200472842Y-62558724D01*
X200476538Y-62545751D01*
X200511730Y-62422207D01*
X200571020Y-62214070D01*
X200601835Y-62033794D01*
X200630829Y-61864175D01*
X200630829Y-61864173D01*
X200631401Y-61860828D01*
X200633511Y-61826340D01*
X200650342Y-61551134D01*
X200653278Y-61503131D01*
X200653359Y-61480000D01*
X200633979Y-61122159D01*
X200576066Y-60768505D01*
X200480297Y-60423173D01*
X200477243Y-60415497D01*
X200349052Y-60093369D01*
X200347793Y-60090205D01*
X200317768Y-60033498D01*
X200181702Y-59776513D01*
X200181698Y-59776506D01*
X200180103Y-59773494D01*
X199979190Y-59476746D01*
X199947568Y-59439458D01*
X199840601Y-59313327D01*
X199747403Y-59203432D01*
X199487454Y-58956750D01*
X199223932Y-58756000D01*
X199205091Y-58741647D01*
X199205089Y-58741646D01*
X199202384Y-58739585D01*
X199199472Y-58737828D01*
X199199467Y-58737825D01*
X198898443Y-58556236D01*
X198898437Y-58556233D01*
X198895528Y-58554478D01*
X198570475Y-58403593D01*
X198400751Y-58346145D01*
X198234255Y-58289789D01*
X198234250Y-58289788D01*
X198231028Y-58288697D01*
X198032681Y-58244724D01*
X197884493Y-58211871D01*
X197884487Y-58211870D01*
X197881158Y-58211132D01*
X197877769Y-58210758D01*
X197877764Y-58210757D01*
X197528338Y-58172180D01*
X197528333Y-58172180D01*
X197524957Y-58171807D01*
X197521558Y-58171801D01*
X197521557Y-58171801D01*
X197352080Y-58171505D01*
X197166592Y-58171182D01*
X197053413Y-58183277D01*
X196813639Y-58208901D01*
X196813631Y-58208902D01*
X196810256Y-58209263D01*
X196460117Y-58285606D01*
X196120271Y-58399317D01*
X196117178Y-58400739D01*
X196117177Y-58400740D01*
X196110974Y-58403593D01*
X195794694Y-58549066D01*
X195791760Y-58550822D01*
X195791758Y-58550823D01*
X195555676Y-58692115D01*
X195487193Y-58733101D01*
X195484467Y-58735163D01*
X195484465Y-58735164D01*
X195210787Y-58942146D01*
X195201367Y-58949270D01*
X195198882Y-58951612D01*
X195198877Y-58951616D01*
X195133802Y-59012940D01*
X194940559Y-59195043D01*
X194938347Y-59197633D01*
X194938345Y-59197635D01*
X194919146Y-59220114D01*
X194707819Y-59467546D01*
X194705900Y-59470358D01*
X194705897Y-59470363D01*
X194631975Y-59578729D01*
X194505871Y-59763591D01*
X194337077Y-60079714D01*
X194203411Y-60412218D01*
X194202491Y-60415492D01*
X194202489Y-60415497D01*
X194111307Y-60739889D01*
X194106437Y-60757213D01*
X194105875Y-60760570D01*
X194105875Y-60760571D01*
X194050327Y-61092517D01*
X194047290Y-61110663D01*
X194026661Y-61468434D01*
X189318500Y-61468434D01*
X189318500Y-61331866D01*
X189311745Y-61269684D01*
X189260615Y-61133295D01*
X189173261Y-61016739D01*
X189056705Y-60929385D01*
X188920316Y-60878255D01*
X188858134Y-60871500D01*
X187061866Y-60871500D01*
X186999684Y-60878255D01*
X186863295Y-60929385D01*
X186746739Y-61016739D01*
X186659385Y-61133295D01*
X186656233Y-61141703D01*
X186656232Y-61141705D01*
X186614722Y-61252433D01*
X186572081Y-61309198D01*
X186505519Y-61333898D01*
X186436170Y-61318691D01*
X186403546Y-61293004D01*
X186352799Y-61237234D01*
X186345273Y-61230215D01*
X186178139Y-61098222D01*
X186169552Y-61092517D01*
X185983117Y-60989599D01*
X185973705Y-60985369D01*
X185772959Y-60914280D01*
X185762988Y-60911646D01*
X185691837Y-60898972D01*
X185678540Y-60900432D01*
X185674000Y-60914989D01*
X185674000Y-62358000D01*
X185653998Y-62426121D01*
X185600342Y-62472614D01*
X185548000Y-62484000D01*
X184103225Y-62484000D01*
X184089694Y-62487973D01*
X184088257Y-62497966D01*
X184118565Y-62632446D01*
X184121645Y-62642275D01*
X184201770Y-62839603D01*
X184206413Y-62848794D01*
X184317694Y-63030388D01*
X184323777Y-63038699D01*
X184463213Y-63199667D01*
X184470580Y-63206883D01*
X184634434Y-63342916D01*
X184642881Y-63348831D01*
X184711969Y-63389203D01*
X184760693Y-63440842D01*
X184773764Y-63510625D01*
X184747033Y-63576396D01*
X184706584Y-63609752D01*
X184693607Y-63616507D01*
X184689474Y-63619610D01*
X184689471Y-63619612D01*
X184565567Y-63712642D01*
X184514965Y-63750635D01*
X184360629Y-63912138D01*
X184234743Y-64096680D01*
X184219003Y-64130590D01*
X184146290Y-64287237D01*
X184140688Y-64299305D01*
X184080989Y-64514570D01*
X184057251Y-64736695D01*
X184057548Y-64741848D01*
X184057548Y-64741851D01*
X184063011Y-64836590D01*
X184070110Y-64959715D01*
X184071247Y-64964761D01*
X184071248Y-64964767D01*
X184091119Y-65052939D01*
X184119222Y-65177639D01*
X184151723Y-65257680D01*
X184180315Y-65328095D01*
X184187411Y-65398736D01*
X184155189Y-65462000D01*
X184093879Y-65497800D01*
X184063572Y-65501499D01*
X174399593Y-65501499D01*
X174331472Y-65481497D01*
X174310498Y-65464594D01*
X170810088Y-61964183D01*
X184084389Y-61964183D01*
X184085912Y-61972607D01*
X184098292Y-61976000D01*
X185147885Y-61976000D01*
X185163124Y-61971525D01*
X185164329Y-61970135D01*
X185166000Y-61962452D01*
X185166000Y-60913102D01*
X185162082Y-60899758D01*
X185147806Y-60897771D01*
X185109324Y-60903660D01*
X185099288Y-60906051D01*
X184896868Y-60972212D01*
X184887359Y-60976209D01*
X184698463Y-61074542D01*
X184689738Y-61080036D01*
X184519433Y-61207905D01*
X184511726Y-61214748D01*
X184364590Y-61368717D01*
X184358104Y-61376727D01*
X184238098Y-61552649D01*
X184233000Y-61561623D01*
X184143338Y-61754783D01*
X184139775Y-61764470D01*
X184084389Y-61964183D01*
X170810088Y-61964183D01*
X168587122Y-59741217D01*
X168553096Y-59678905D01*
X168550907Y-59665292D01*
X168534232Y-59506635D01*
X168534232Y-59506633D01*
X168533542Y-59500072D01*
X168474527Y-59318444D01*
X168470228Y-59310997D01*
X168410724Y-59207935D01*
X168379040Y-59153056D01*
X168302312Y-59067841D01*
X168271595Y-59003833D01*
X168280360Y-58933380D01*
X168306854Y-58894436D01*
X169380885Y-57820405D01*
X169443197Y-57786379D01*
X169469980Y-57783500D01*
X180901800Y-57783500D01*
X180969921Y-57803502D01*
X180989147Y-57819843D01*
X180989420Y-57819540D01*
X180994332Y-57823963D01*
X180998747Y-57828866D01*
X181020329Y-57844546D01*
X181093771Y-57897905D01*
X181153248Y-57941118D01*
X181159276Y-57943802D01*
X181159278Y-57943803D01*
X181321681Y-58016109D01*
X181327712Y-58018794D01*
X181421112Y-58038647D01*
X181508056Y-58057128D01*
X181508061Y-58057128D01*
X181514513Y-58058500D01*
X181705487Y-58058500D01*
X181711939Y-58057128D01*
X181711944Y-58057128D01*
X181798888Y-58038647D01*
X181892288Y-58018794D01*
X181898319Y-58016109D01*
X182060722Y-57943803D01*
X182060724Y-57943802D01*
X182066752Y-57941118D01*
X182221253Y-57828866D01*
X182257298Y-57788834D01*
X182344621Y-57691852D01*
X182344622Y-57691851D01*
X182349040Y-57686944D01*
X182444527Y-57521556D01*
X182503542Y-57339928D01*
X182512691Y-57252885D01*
X182522814Y-57156565D01*
X182523504Y-57150000D01*
X182503542Y-56960072D01*
X182486911Y-56908887D01*
X182453785Y-56806936D01*
X182451757Y-56735969D01*
X182488420Y-56675171D01*
X182552132Y-56643845D01*
X182573618Y-56642000D01*
X202566000Y-56642000D01*
X202634121Y-56662002D01*
X202680614Y-56715658D01*
X202692000Y-56768000D01*
X202692000Y-113666000D01*
X202671998Y-113734121D01*
X202618342Y-113780614D01*
X202566000Y-113792000D01*
X198416954Y-113792000D01*
X198348833Y-113771998D01*
X198302340Y-113718342D01*
X198292236Y-113648068D01*
X198321730Y-113583488D01*
X198364703Y-113551345D01*
X198635954Y-113427729D01*
X198639066Y-113426311D01*
X198733052Y-113370506D01*
X198944262Y-113245099D01*
X198944267Y-113245096D01*
X198947207Y-113243350D01*
X199233786Y-113028180D01*
X199495451Y-112783319D01*
X199729140Y-112511630D01*
X199835750Y-112356512D01*
X199930190Y-112219101D01*
X199930195Y-112219094D01*
X199932120Y-112216292D01*
X199933732Y-112213298D01*
X199933737Y-112213290D01*
X200100395Y-111903772D01*
X200102017Y-111900760D01*
X200236842Y-111568724D01*
X200247142Y-111532568D01*
X200267527Y-111461006D01*
X200335020Y-111224070D01*
X200395401Y-110870828D01*
X200397511Y-110836340D01*
X200415125Y-110548327D01*
X200417278Y-110513131D01*
X200417359Y-110490000D01*
X200397979Y-110132159D01*
X200340066Y-109778505D01*
X200244297Y-109433173D01*
X200241243Y-109425497D01*
X200113052Y-109103369D01*
X200111793Y-109100205D01*
X200059118Y-109000720D01*
X199945702Y-108786513D01*
X199945698Y-108786506D01*
X199944103Y-108783494D01*
X199743190Y-108486746D01*
X199705133Y-108441870D01*
X199587550Y-108303222D01*
X199511403Y-108213432D01*
X199251454Y-107966750D01*
X198966384Y-107749585D01*
X198963472Y-107747828D01*
X198963467Y-107747825D01*
X198662443Y-107566236D01*
X198662437Y-107566233D01*
X198659528Y-107564478D01*
X198334475Y-107413593D01*
X198164752Y-107356145D01*
X197998255Y-107299789D01*
X197998250Y-107299788D01*
X197995028Y-107298697D01*
X197796681Y-107254724D01*
X197648493Y-107221871D01*
X197648487Y-107221870D01*
X197645158Y-107221132D01*
X197641769Y-107220758D01*
X197641764Y-107220757D01*
X197292338Y-107182180D01*
X197292333Y-107182180D01*
X197288957Y-107181807D01*
X197285558Y-107181801D01*
X197285557Y-107181801D01*
X197116080Y-107181505D01*
X196930592Y-107181182D01*
X196817413Y-107193277D01*
X196577639Y-107218901D01*
X196577631Y-107218902D01*
X196574256Y-107219263D01*
X196224117Y-107295606D01*
X195884271Y-107409317D01*
X195881178Y-107410739D01*
X195881177Y-107410740D01*
X195874974Y-107413593D01*
X195558694Y-107559066D01*
X195251193Y-107743101D01*
X195248467Y-107745163D01*
X195248465Y-107745164D01*
X195242620Y-107749585D01*
X194965367Y-107959270D01*
X194704559Y-108205043D01*
X194471819Y-108477546D01*
X194469900Y-108480358D01*
X194469897Y-108480363D01*
X194429023Y-108540283D01*
X194269871Y-108773591D01*
X194101077Y-109089714D01*
X193967411Y-109422218D01*
X193966491Y-109425492D01*
X193966489Y-109425497D01*
X193881453Y-109728023D01*
X193870437Y-109767213D01*
X193811290Y-110120663D01*
X193790661Y-110478434D01*
X193790833Y-110481829D01*
X193790833Y-110481830D01*
X193806603Y-110793131D01*
X193808792Y-110836340D01*
X193809329Y-110839695D01*
X193809330Y-110839701D01*
X193814316Y-110870828D01*
X193865470Y-111190195D01*
X193960033Y-111535859D01*
X194091374Y-111869288D01*
X194257957Y-112186582D01*
X194259858Y-112189411D01*
X194259864Y-112189421D01*
X194443569Y-112462800D01*
X194457834Y-112484029D01*
X194688665Y-112758150D01*
X194947751Y-113005738D01*
X195232061Y-113223897D01*
X195264056Y-113243350D01*
X195535355Y-113408303D01*
X195535360Y-113408306D01*
X195538270Y-113410075D01*
X195541358Y-113411521D01*
X195541357Y-113411521D01*
X195841030Y-113551898D01*
X195894233Y-113598908D01*
X195913575Y-113667219D01*
X195892915Y-113735143D01*
X195838812Y-113781115D01*
X195787581Y-113792000D01*
X109008954Y-113792000D01*
X108940833Y-113771998D01*
X108894340Y-113718342D01*
X108884236Y-113648068D01*
X108913730Y-113583488D01*
X108956703Y-113551345D01*
X109227954Y-113427729D01*
X109231066Y-113426311D01*
X109325052Y-113370506D01*
X109536262Y-113245099D01*
X109536267Y-113245096D01*
X109539207Y-113243350D01*
X109825786Y-113028180D01*
X110087451Y-112783319D01*
X110321140Y-112511630D01*
X110427750Y-112356512D01*
X110522190Y-112219101D01*
X110522195Y-112219094D01*
X110524120Y-112216292D01*
X110525732Y-112213298D01*
X110525737Y-112213290D01*
X110692395Y-111903772D01*
X110694017Y-111900760D01*
X110828842Y-111568724D01*
X110839142Y-111532568D01*
X110859527Y-111461006D01*
X110927020Y-111224070D01*
X110987401Y-110870828D01*
X110989511Y-110836340D01*
X111007125Y-110548327D01*
X111009278Y-110513131D01*
X111009359Y-110490000D01*
X111000863Y-110333134D01*
X175771500Y-110333134D01*
X175778255Y-110395316D01*
X175829385Y-110531705D01*
X175916739Y-110648261D01*
X176033295Y-110735615D01*
X176169684Y-110786745D01*
X176231866Y-110793500D01*
X178028134Y-110793500D01*
X178090316Y-110786745D01*
X178226705Y-110735615D01*
X178343261Y-110648261D01*
X178430615Y-110531705D01*
X178450451Y-110478792D01*
X178474798Y-110413848D01*
X178517440Y-110357084D01*
X178584001Y-110332384D01*
X178653350Y-110347592D01*
X178688017Y-110375580D01*
X178713218Y-110404673D01*
X178720580Y-110411883D01*
X178884434Y-110547916D01*
X178892881Y-110553831D01*
X179076756Y-110661279D01*
X179086042Y-110665729D01*
X179285001Y-110741703D01*
X179294899Y-110744579D01*
X179398250Y-110765606D01*
X179412299Y-110764410D01*
X179416000Y-110754065D01*
X179416000Y-110753517D01*
X179924000Y-110753517D01*
X179928064Y-110767359D01*
X179941478Y-110769393D01*
X179948184Y-110768534D01*
X179958262Y-110766392D01*
X180162255Y-110705191D01*
X180171842Y-110701433D01*
X180363095Y-110607739D01*
X180371945Y-110602464D01*
X180545328Y-110478792D01*
X180553200Y-110472139D01*
X180704052Y-110321812D01*
X180710730Y-110313965D01*
X180838022Y-110136819D01*
X180839279Y-110137722D01*
X180886373Y-110094362D01*
X180956311Y-110082145D01*
X181021751Y-110109678D01*
X181049579Y-110141511D01*
X181109987Y-110240088D01*
X181256250Y-110408938D01*
X181428126Y-110551632D01*
X181621000Y-110664338D01*
X181829692Y-110744030D01*
X181834760Y-110745061D01*
X181834763Y-110745062D01*
X181929862Y-110764410D01*
X182048597Y-110788567D01*
X182053772Y-110788757D01*
X182053774Y-110788757D01*
X182266673Y-110796564D01*
X182266677Y-110796564D01*
X182271837Y-110796753D01*
X182276957Y-110796097D01*
X182276959Y-110796097D01*
X182488288Y-110769025D01*
X182488289Y-110769025D01*
X182493416Y-110768368D01*
X182498366Y-110766883D01*
X182702429Y-110705661D01*
X182702434Y-110705659D01*
X182707384Y-110704174D01*
X182907994Y-110605896D01*
X183089860Y-110476173D01*
X183248096Y-110318489D01*
X183378453Y-110137077D01*
X183379776Y-110138028D01*
X183426645Y-110094857D01*
X183496580Y-110082625D01*
X183562026Y-110110144D01*
X183589875Y-110141994D01*
X183649987Y-110240088D01*
X183796250Y-110408938D01*
X183968126Y-110551632D01*
X184161000Y-110664338D01*
X184369692Y-110744030D01*
X184374760Y-110745061D01*
X184374763Y-110745062D01*
X184469862Y-110764410D01*
X184588597Y-110788567D01*
X184593772Y-110788757D01*
X184593774Y-110788757D01*
X184806673Y-110796564D01*
X184806677Y-110796564D01*
X184811837Y-110796753D01*
X184816957Y-110796097D01*
X184816959Y-110796097D01*
X185028288Y-110769025D01*
X185028289Y-110769025D01*
X185033416Y-110768368D01*
X185038366Y-110766883D01*
X185242429Y-110705661D01*
X185242434Y-110705659D01*
X185247384Y-110704174D01*
X185447994Y-110605896D01*
X185629860Y-110476173D01*
X185788096Y-110318489D01*
X185918453Y-110137077D01*
X185919776Y-110138028D01*
X185966645Y-110094857D01*
X186036580Y-110082625D01*
X186102026Y-110110144D01*
X186129875Y-110141994D01*
X186189987Y-110240088D01*
X186336250Y-110408938D01*
X186508126Y-110551632D01*
X186701000Y-110664338D01*
X186909692Y-110744030D01*
X186914760Y-110745061D01*
X186914763Y-110745062D01*
X187009862Y-110764410D01*
X187128597Y-110788567D01*
X187133772Y-110788757D01*
X187133774Y-110788757D01*
X187346673Y-110796564D01*
X187346677Y-110796564D01*
X187351837Y-110796753D01*
X187356957Y-110796097D01*
X187356959Y-110796097D01*
X187568288Y-110769025D01*
X187568289Y-110769025D01*
X187573416Y-110768368D01*
X187578366Y-110766883D01*
X187782429Y-110705661D01*
X187782434Y-110705659D01*
X187787384Y-110704174D01*
X187987994Y-110605896D01*
X188169860Y-110476173D01*
X188328096Y-110318489D01*
X188458453Y-110137077D01*
X188464882Y-110124070D01*
X188555136Y-109941453D01*
X188555137Y-109941451D01*
X188557430Y-109936811D01*
X188622370Y-109723069D01*
X188651529Y-109501590D01*
X188653156Y-109435000D01*
X188634852Y-109212361D01*
X188580431Y-108995702D01*
X188491354Y-108790840D01*
X188370014Y-108603277D01*
X188219670Y-108438051D01*
X188215619Y-108434852D01*
X188215615Y-108434848D01*
X188048414Y-108302800D01*
X188048410Y-108302798D01*
X188044359Y-108299598D01*
X188008028Y-108279542D01*
X187992136Y-108270769D01*
X187848789Y-108191638D01*
X187843920Y-108189914D01*
X187843916Y-108189912D01*
X187643087Y-108118795D01*
X187643083Y-108118794D01*
X187638212Y-108117069D01*
X187633119Y-108116162D01*
X187633116Y-108116161D01*
X187423373Y-108078800D01*
X187423367Y-108078799D01*
X187418284Y-108077894D01*
X187344452Y-108076992D01*
X187200081Y-108075228D01*
X187200079Y-108075228D01*
X187194911Y-108075165D01*
X186974091Y-108108955D01*
X186761756Y-108178357D01*
X186563607Y-108281507D01*
X186559474Y-108284610D01*
X186559471Y-108284612D01*
X186389100Y-108412530D01*
X186384965Y-108415635D01*
X186230629Y-108577138D01*
X186123201Y-108734621D01*
X186068293Y-108779621D01*
X185997768Y-108787792D01*
X185934021Y-108756538D01*
X185913324Y-108732054D01*
X185832822Y-108607617D01*
X185832820Y-108607614D01*
X185830014Y-108603277D01*
X185679670Y-108438051D01*
X185675619Y-108434852D01*
X185675615Y-108434848D01*
X185508414Y-108302800D01*
X185508410Y-108302798D01*
X185504359Y-108299598D01*
X185468028Y-108279542D01*
X185452136Y-108270769D01*
X185308789Y-108191638D01*
X185303920Y-108189914D01*
X185303916Y-108189912D01*
X185103087Y-108118795D01*
X185103083Y-108118794D01*
X185098212Y-108117069D01*
X185093119Y-108116162D01*
X185093116Y-108116161D01*
X184883373Y-108078800D01*
X184883367Y-108078799D01*
X184878284Y-108077894D01*
X184804452Y-108076992D01*
X184660081Y-108075228D01*
X184660079Y-108075228D01*
X184654911Y-108075165D01*
X184434091Y-108108955D01*
X184221756Y-108178357D01*
X184023607Y-108281507D01*
X184019474Y-108284610D01*
X184019471Y-108284612D01*
X183849100Y-108412530D01*
X183844965Y-108415635D01*
X183690629Y-108577138D01*
X183583201Y-108734621D01*
X183528293Y-108779621D01*
X183457768Y-108787792D01*
X183394021Y-108756538D01*
X183373324Y-108732054D01*
X183292822Y-108607617D01*
X183292820Y-108607614D01*
X183290014Y-108603277D01*
X183139670Y-108438051D01*
X183135619Y-108434852D01*
X183135615Y-108434848D01*
X182968414Y-108302800D01*
X182968410Y-108302798D01*
X182964359Y-108299598D01*
X182928028Y-108279542D01*
X182912136Y-108270769D01*
X182768789Y-108191638D01*
X182763920Y-108189914D01*
X182763916Y-108189912D01*
X182563087Y-108118795D01*
X182563083Y-108118794D01*
X182558212Y-108117069D01*
X182553119Y-108116162D01*
X182553116Y-108116161D01*
X182343373Y-108078800D01*
X182343367Y-108078799D01*
X182338284Y-108077894D01*
X182264452Y-108076992D01*
X182120081Y-108075228D01*
X182120079Y-108075228D01*
X182114911Y-108075165D01*
X181894091Y-108108955D01*
X181681756Y-108178357D01*
X181483607Y-108281507D01*
X181479474Y-108284610D01*
X181479471Y-108284612D01*
X181309100Y-108412530D01*
X181304965Y-108415635D01*
X181150629Y-108577138D01*
X181043204Y-108734618D01*
X181042898Y-108735066D01*
X180987987Y-108780069D01*
X180917462Y-108788240D01*
X180853715Y-108756986D01*
X180833018Y-108732502D01*
X180752426Y-108607926D01*
X180746136Y-108599757D01*
X180602806Y-108442240D01*
X180595273Y-108435215D01*
X180428139Y-108303222D01*
X180419552Y-108297517D01*
X180233117Y-108194599D01*
X180223705Y-108190369D01*
X180022959Y-108119280D01*
X180012988Y-108116646D01*
X179941837Y-108103972D01*
X179928540Y-108105432D01*
X179924000Y-108119989D01*
X179924000Y-110753517D01*
X179416000Y-110753517D01*
X179416000Y-108118102D01*
X179412082Y-108104758D01*
X179397806Y-108102771D01*
X179359324Y-108108660D01*
X179349288Y-108111051D01*
X179146868Y-108177212D01*
X179137359Y-108181209D01*
X178948463Y-108279542D01*
X178939738Y-108285036D01*
X178769433Y-108412905D01*
X178761726Y-108419748D01*
X178684478Y-108500584D01*
X178622954Y-108536014D01*
X178552042Y-108532557D01*
X178494255Y-108491311D01*
X178475402Y-108457763D01*
X178433767Y-108346703D01*
X178430615Y-108338295D01*
X178343261Y-108221739D01*
X178226705Y-108134385D01*
X178090316Y-108083255D01*
X178028134Y-108076500D01*
X176231866Y-108076500D01*
X176169684Y-108083255D01*
X176033295Y-108134385D01*
X175916739Y-108221739D01*
X175829385Y-108338295D01*
X175778255Y-108474684D01*
X175771500Y-108536866D01*
X175771500Y-110333134D01*
X111000863Y-110333134D01*
X110989979Y-110132159D01*
X110932066Y-109778505D01*
X110836297Y-109433173D01*
X110833243Y-109425497D01*
X110705052Y-109103369D01*
X110703793Y-109100205D01*
X110651118Y-109000720D01*
X110537702Y-108786513D01*
X110537698Y-108786506D01*
X110536103Y-108783494D01*
X110335190Y-108486746D01*
X110297133Y-108441870D01*
X110179550Y-108303222D01*
X110103403Y-108213432D01*
X109843454Y-107966750D01*
X109558384Y-107749585D01*
X109555472Y-107747828D01*
X109555467Y-107747825D01*
X109254443Y-107566236D01*
X109254437Y-107566233D01*
X109251528Y-107564478D01*
X108926475Y-107413593D01*
X108756752Y-107356145D01*
X108590255Y-107299789D01*
X108590250Y-107299788D01*
X108587028Y-107298697D01*
X108388681Y-107254724D01*
X108240493Y-107221871D01*
X108240487Y-107221870D01*
X108237158Y-107221132D01*
X108233769Y-107220758D01*
X108233764Y-107220757D01*
X107884338Y-107182180D01*
X107884333Y-107182180D01*
X107880957Y-107181807D01*
X107877558Y-107181801D01*
X107877557Y-107181801D01*
X107708080Y-107181505D01*
X107522592Y-107181182D01*
X107409413Y-107193277D01*
X107169639Y-107218901D01*
X107169631Y-107218902D01*
X107166256Y-107219263D01*
X106816117Y-107295606D01*
X106476271Y-107409317D01*
X106473178Y-107410739D01*
X106473177Y-107410740D01*
X106466974Y-107413593D01*
X106150694Y-107559066D01*
X105843193Y-107743101D01*
X105840467Y-107745163D01*
X105840465Y-107745164D01*
X105834620Y-107749585D01*
X105557367Y-107959270D01*
X105296559Y-108205043D01*
X105063819Y-108477546D01*
X105061900Y-108480358D01*
X105061897Y-108480363D01*
X105021023Y-108540283D01*
X104861871Y-108773591D01*
X104693077Y-109089714D01*
X104559411Y-109422218D01*
X104558491Y-109425492D01*
X104558489Y-109425497D01*
X104473453Y-109728023D01*
X104462437Y-109767213D01*
X104403290Y-110120663D01*
X104382661Y-110478434D01*
X104382833Y-110481829D01*
X104382833Y-110481830D01*
X104398603Y-110793131D01*
X104400792Y-110836340D01*
X104401329Y-110839695D01*
X104401330Y-110839701D01*
X104406316Y-110870828D01*
X104457470Y-111190195D01*
X104552033Y-111535859D01*
X104683374Y-111869288D01*
X104849957Y-112186582D01*
X104851858Y-112189411D01*
X104851864Y-112189421D01*
X105035569Y-112462800D01*
X105049834Y-112484029D01*
X105280665Y-112758150D01*
X105539751Y-113005738D01*
X105824061Y-113223897D01*
X105856056Y-113243350D01*
X106127355Y-113408303D01*
X106127360Y-113408306D01*
X106130270Y-113410075D01*
X106133358Y-113411521D01*
X106133357Y-113411521D01*
X106433030Y-113551898D01*
X106486233Y-113598908D01*
X106505575Y-113667219D01*
X106484915Y-113735143D01*
X106430812Y-113781115D01*
X106379581Y-113792000D01*
X103758000Y-113792000D01*
X103689879Y-113771998D01*
X103643386Y-113718342D01*
X103632000Y-113666000D01*
X103632000Y-104669690D01*
X119717037Y-104669690D01*
X119744025Y-104892715D01*
X119810082Y-105107435D01*
X119812652Y-105112415D01*
X119812654Y-105112419D01*
X119877852Y-105238738D01*
X119913118Y-105307064D01*
X120049877Y-105485292D01*
X120216036Y-105636485D01*
X120220783Y-105639463D01*
X120220786Y-105639465D01*
X120349229Y-105720036D01*
X120406344Y-105755864D01*
X120614783Y-105839656D01*
X120834767Y-105885213D01*
X120839378Y-105885479D01*
X120839379Y-105885479D01*
X120889952Y-105888395D01*
X120889956Y-105888395D01*
X120891775Y-105888500D01*
X121036999Y-105888500D01*
X121039786Y-105888251D01*
X121039792Y-105888251D01*
X121109929Y-105881991D01*
X121203762Y-105873617D01*
X121209176Y-105872136D01*
X121209181Y-105872135D01*
X121336912Y-105837191D01*
X121420451Y-105814337D01*
X121425509Y-105811925D01*
X121425513Y-105811923D01*
X121543042Y-105755864D01*
X121623218Y-105717622D01*
X121805654Y-105586529D01*
X121961992Y-105425201D01*
X122087290Y-105238738D01*
X122177588Y-105033033D01*
X122179198Y-105026329D01*
X122228722Y-104820046D01*
X122228722Y-104820045D01*
X122230032Y-104814589D01*
X122238710Y-104664083D01*
X122242640Y-104595917D01*
X122242640Y-104595914D01*
X122242963Y-104590310D01*
X122215975Y-104367285D01*
X122160634Y-104187399D01*
X198572212Y-104187399D01*
X198593694Y-104276537D01*
X198597583Y-104287832D01*
X198680129Y-104469382D01*
X198686076Y-104479724D01*
X198801468Y-104642397D01*
X198809261Y-104651425D01*
X198953331Y-104789342D01*
X198962696Y-104796738D01*
X199130241Y-104904921D01*
X199140845Y-104910417D01*
X199325812Y-104984961D01*
X199337270Y-104988355D01*
X199534428Y-105026857D01*
X199543291Y-105027934D01*
X199546000Y-105028000D01*
X199725385Y-105028000D01*
X199740624Y-105023525D01*
X199741829Y-105022135D01*
X199743500Y-105014452D01*
X199743500Y-105009885D01*
X200251500Y-105009885D01*
X200255975Y-105025124D01*
X200257365Y-105026329D01*
X200265048Y-105028000D01*
X200397332Y-105028000D01*
X200403308Y-105027715D01*
X200551994Y-105013529D01*
X200563728Y-105011270D01*
X200755099Y-104955128D01*
X200766175Y-104950698D01*
X200943478Y-104859381D01*
X200953524Y-104852931D01*
X201110357Y-104729738D01*
X201119006Y-104721501D01*
X201249712Y-104570877D01*
X201256647Y-104561153D01*
X201356510Y-104388533D01*
X201361484Y-104377669D01*
X201426907Y-104189273D01*
X201427148Y-104188284D01*
X201425680Y-104177992D01*
X201412115Y-104174000D01*
X200269615Y-104174000D01*
X200254376Y-104178475D01*
X200253171Y-104179865D01*
X200251500Y-104187548D01*
X200251500Y-105009885D01*
X199743500Y-105009885D01*
X199743500Y-104192115D01*
X199739025Y-104176876D01*
X199737635Y-104175671D01*
X199729952Y-104174000D01*
X198587098Y-104174000D01*
X198573567Y-104177973D01*
X198572212Y-104187399D01*
X122160634Y-104187399D01*
X122149918Y-104152565D01*
X122143116Y-104139385D01*
X122049454Y-103957919D01*
X122049454Y-103957918D01*
X122046882Y-103952936D01*
X122046326Y-103952211D01*
X196629844Y-103952211D01*
X196639140Y-103964226D01*
X196674137Y-103988731D01*
X196683632Y-103994214D01*
X196869196Y-104080744D01*
X196879488Y-104084490D01*
X197077259Y-104137482D01*
X197088054Y-104139385D01*
X197292025Y-104157231D01*
X197302975Y-104157231D01*
X197506946Y-104139385D01*
X197517741Y-104137482D01*
X197715512Y-104084490D01*
X197725804Y-104080744D01*
X197911368Y-103994214D01*
X197920863Y-103988731D01*
X197956697Y-103963640D01*
X197965073Y-103953161D01*
X197958005Y-103939715D01*
X197310312Y-103292022D01*
X197296368Y-103284408D01*
X197294535Y-103284539D01*
X197287920Y-103288790D01*
X196636274Y-103940436D01*
X196629844Y-103952211D01*
X122046326Y-103952211D01*
X121910123Y-103774708D01*
X121743964Y-103623515D01*
X121739217Y-103620537D01*
X121739214Y-103620535D01*
X121558405Y-103507115D01*
X121553656Y-103504136D01*
X121345217Y-103420344D01*
X121125233Y-103374787D01*
X121120622Y-103374521D01*
X121120621Y-103374521D01*
X121070048Y-103371605D01*
X121070044Y-103371605D01*
X121068225Y-103371500D01*
X120923001Y-103371500D01*
X120920214Y-103371749D01*
X120920208Y-103371749D01*
X120850071Y-103378009D01*
X120756238Y-103386383D01*
X120750824Y-103387864D01*
X120750819Y-103387865D01*
X120636262Y-103419205D01*
X120539549Y-103445663D01*
X120534491Y-103448075D01*
X120534487Y-103448077D01*
X120438165Y-103494021D01*
X120336782Y-103542378D01*
X120154346Y-103673471D01*
X119998008Y-103834799D01*
X119872710Y-104021262D01*
X119782412Y-104226967D01*
X119781103Y-104232418D01*
X119781102Y-104232422D01*
X119750012Y-104361923D01*
X119729968Y-104445411D01*
X119729645Y-104451016D01*
X119718611Y-104642397D01*
X119717037Y-104669690D01*
X103632000Y-104669690D01*
X103632000Y-102925475D01*
X196060269Y-102925475D01*
X196078115Y-103129446D01*
X196080018Y-103140241D01*
X196133010Y-103338012D01*
X196136756Y-103348304D01*
X196223286Y-103533868D01*
X196228769Y-103543363D01*
X196253860Y-103579197D01*
X196264339Y-103587573D01*
X196277785Y-103580505D01*
X196925478Y-102932812D01*
X196931856Y-102921132D01*
X197661908Y-102921132D01*
X197662039Y-102922965D01*
X197666290Y-102929580D01*
X198317936Y-103581226D01*
X198329711Y-103587656D01*
X198356861Y-103566651D01*
X198357803Y-103567868D01*
X198393430Y-103539390D01*
X198464049Y-103532080D01*
X198527410Y-103564111D01*
X198563395Y-103625312D01*
X198565925Y-103638201D01*
X198569320Y-103662008D01*
X198582885Y-103666000D01*
X199725385Y-103666000D01*
X199740624Y-103661525D01*
X199741829Y-103660135D01*
X199743500Y-103652452D01*
X199743500Y-103647885D01*
X200251500Y-103647885D01*
X200255975Y-103663124D01*
X200257365Y-103664329D01*
X200265048Y-103666000D01*
X201407902Y-103666000D01*
X201421433Y-103662027D01*
X201422788Y-103652601D01*
X201401306Y-103563463D01*
X201397417Y-103552168D01*
X201314871Y-103370618D01*
X201308924Y-103360276D01*
X201193532Y-103197603D01*
X201185739Y-103188575D01*
X201041669Y-103050658D01*
X201032304Y-103043262D01*
X200864759Y-102935079D01*
X200854155Y-102929583D01*
X200669188Y-102855039D01*
X200657730Y-102851645D01*
X200460572Y-102813143D01*
X200451709Y-102812066D01*
X200449000Y-102812000D01*
X200269615Y-102812000D01*
X200254376Y-102816475D01*
X200253171Y-102817865D01*
X200251500Y-102825548D01*
X200251500Y-103647885D01*
X199743500Y-103647885D01*
X199743500Y-102830115D01*
X199739025Y-102814876D01*
X199737635Y-102813671D01*
X199729952Y-102812000D01*
X199597668Y-102812000D01*
X199591692Y-102812285D01*
X199443006Y-102826471D01*
X199431272Y-102828730D01*
X199239901Y-102884872D01*
X199228825Y-102889302D01*
X199051522Y-102980619D01*
X199041476Y-102987069D01*
X198884643Y-103110262D01*
X198875994Y-103118499D01*
X198745288Y-103269123D01*
X198738353Y-103278847D01*
X198730725Y-103292032D01*
X198679300Y-103340981D01*
X198609574Y-103354356D01*
X198543686Y-103327911D01*
X198502555Y-103270043D01*
X198499954Y-103196326D01*
X198514982Y-103140241D01*
X198516885Y-103129446D01*
X198534731Y-102925475D01*
X198534731Y-102914525D01*
X198516885Y-102710554D01*
X198514982Y-102699759D01*
X198461990Y-102501988D01*
X198458244Y-102491696D01*
X198371714Y-102306132D01*
X198366231Y-102296637D01*
X198341140Y-102260803D01*
X198330661Y-102252427D01*
X198317215Y-102259495D01*
X197669522Y-102907188D01*
X197661908Y-102921132D01*
X196931856Y-102921132D01*
X196933092Y-102918868D01*
X196932961Y-102917035D01*
X196928710Y-102910420D01*
X196277064Y-102258774D01*
X196265289Y-102252344D01*
X196253274Y-102261640D01*
X196228769Y-102296637D01*
X196223286Y-102306132D01*
X196136756Y-102491696D01*
X196133010Y-102501988D01*
X196080018Y-102699759D01*
X196078115Y-102710554D01*
X196060269Y-102914525D01*
X196060269Y-102925475D01*
X103632000Y-102925475D01*
X103632000Y-102059669D01*
X143657001Y-102059669D01*
X143657371Y-102066490D01*
X143662895Y-102117352D01*
X143666521Y-102132604D01*
X143711676Y-102253054D01*
X143720214Y-102268649D01*
X143796715Y-102370724D01*
X143809276Y-102383285D01*
X143911351Y-102459786D01*
X143926946Y-102468324D01*
X144047394Y-102513478D01*
X144062649Y-102517105D01*
X144113514Y-102522631D01*
X144120328Y-102523000D01*
X144742885Y-102523000D01*
X144758124Y-102518525D01*
X144759329Y-102517135D01*
X144761000Y-102509452D01*
X144761000Y-101437115D01*
X144756525Y-101421876D01*
X144755135Y-101420671D01*
X144747452Y-101419000D01*
X143675116Y-101419000D01*
X143659877Y-101423475D01*
X143658672Y-101424865D01*
X143657001Y-101432548D01*
X143657001Y-102059669D01*
X103632000Y-102059669D01*
X103632000Y-100892885D01*
X143657000Y-100892885D01*
X143661475Y-100908124D01*
X143662865Y-100909329D01*
X143670548Y-100911000D01*
X144742885Y-100911000D01*
X144758124Y-100906525D01*
X144759329Y-100905135D01*
X144761000Y-100897452D01*
X144761000Y-99825116D01*
X144756525Y-99809877D01*
X144755135Y-99808672D01*
X144747452Y-99807001D01*
X144120331Y-99807001D01*
X144113510Y-99807371D01*
X144062648Y-99812895D01*
X144047396Y-99816521D01*
X143926946Y-99861676D01*
X143911351Y-99870214D01*
X143809276Y-99946715D01*
X143796715Y-99959276D01*
X143720214Y-100061351D01*
X143711676Y-100076946D01*
X143666522Y-100197394D01*
X143662895Y-100212649D01*
X143657369Y-100263514D01*
X143657000Y-100270328D01*
X143657000Y-100892885D01*
X103632000Y-100892885D01*
X103632000Y-80469690D01*
X119717037Y-80469690D01*
X119744025Y-80692715D01*
X119810082Y-80907435D01*
X119812652Y-80912415D01*
X119812654Y-80912419D01*
X119884468Y-81051556D01*
X119913118Y-81107064D01*
X120049877Y-81285292D01*
X120216036Y-81436485D01*
X120220783Y-81439463D01*
X120220786Y-81439465D01*
X120401595Y-81552885D01*
X120406344Y-81555864D01*
X120614783Y-81639656D01*
X120834767Y-81685213D01*
X120839378Y-81685479D01*
X120839379Y-81685479D01*
X120889952Y-81688395D01*
X120889956Y-81688395D01*
X120891775Y-81688500D01*
X121036999Y-81688500D01*
X121039786Y-81688251D01*
X121039792Y-81688251D01*
X121109929Y-81681991D01*
X121203762Y-81673617D01*
X121209176Y-81672136D01*
X121209181Y-81672135D01*
X121336912Y-81637191D01*
X121420451Y-81614337D01*
X121425509Y-81611925D01*
X121425513Y-81611923D01*
X121543042Y-81555864D01*
X121623218Y-81517622D01*
X121805654Y-81386529D01*
X121908067Y-81280847D01*
X121958089Y-81229229D01*
X121958091Y-81229226D01*
X121961992Y-81225201D01*
X122087290Y-81038738D01*
X122177588Y-80833033D01*
X122180960Y-80818990D01*
X122228722Y-80620046D01*
X122228722Y-80620045D01*
X122230032Y-80614589D01*
X122238710Y-80464083D01*
X122242640Y-80395917D01*
X122242640Y-80395914D01*
X122242963Y-80390310D01*
X122215975Y-80167285D01*
X122149918Y-79952565D01*
X122084798Y-79826396D01*
X122049454Y-79757919D01*
X122049454Y-79757918D01*
X122046882Y-79752936D01*
X121910123Y-79574708D01*
X121743964Y-79423515D01*
X121739217Y-79420537D01*
X121739214Y-79420535D01*
X121558405Y-79307115D01*
X121553656Y-79304136D01*
X121345217Y-79220344D01*
X121125233Y-79174787D01*
X121120622Y-79174521D01*
X121120621Y-79174521D01*
X121070048Y-79171605D01*
X121070044Y-79171605D01*
X121068225Y-79171500D01*
X120923001Y-79171500D01*
X120920214Y-79171749D01*
X120920208Y-79171749D01*
X120850071Y-79178009D01*
X120756238Y-79186383D01*
X120750824Y-79187864D01*
X120750819Y-79187865D01*
X120636262Y-79219205D01*
X120539549Y-79245663D01*
X120534491Y-79248075D01*
X120534487Y-79248077D01*
X120485955Y-79271226D01*
X120336782Y-79342378D01*
X120154346Y-79473471D01*
X120150439Y-79477503D01*
X120023209Y-79608794D01*
X119998008Y-79634799D01*
X119872710Y-79821262D01*
X119782412Y-80026967D01*
X119781103Y-80032418D01*
X119781102Y-80032422D01*
X119750012Y-80161923D01*
X119729968Y-80245411D01*
X119717037Y-80469690D01*
X103632000Y-80469690D01*
X103632000Y-73428434D01*
X104246661Y-73428434D01*
X104264792Y-73786340D01*
X104265329Y-73789695D01*
X104265330Y-73789701D01*
X104270316Y-73820828D01*
X104321470Y-74140195D01*
X104416033Y-74485859D01*
X104547374Y-74819288D01*
X104578151Y-74877909D01*
X104701768Y-75113365D01*
X104713957Y-75136582D01*
X104715858Y-75139411D01*
X104715864Y-75139421D01*
X104768714Y-75218069D01*
X104913834Y-75434029D01*
X105144665Y-75708150D01*
X105403751Y-75955738D01*
X105688061Y-76173897D01*
X105748915Y-76210897D01*
X105991355Y-76358303D01*
X105991360Y-76358306D01*
X105994270Y-76360075D01*
X105997358Y-76361521D01*
X105997357Y-76361521D01*
X106315710Y-76510649D01*
X106315720Y-76510653D01*
X106318794Y-76512093D01*
X106322012Y-76513195D01*
X106322015Y-76513196D01*
X106654615Y-76627071D01*
X106654623Y-76627073D01*
X106657838Y-76628174D01*
X107007435Y-76706959D01*
X107059728Y-76712917D01*
X107360114Y-76747142D01*
X107360122Y-76747142D01*
X107363497Y-76747527D01*
X107366901Y-76747545D01*
X107366904Y-76747545D01*
X107561227Y-76748562D01*
X107721857Y-76749403D01*
X107725243Y-76749053D01*
X107725245Y-76749053D01*
X108074932Y-76712917D01*
X108074941Y-76712916D01*
X108078324Y-76712566D01*
X108081657Y-76711852D01*
X108081660Y-76711851D01*
X108404606Y-76642617D01*
X108428727Y-76637446D01*
X108768968Y-76524922D01*
X109095066Y-76376311D01*
X109347144Y-76226638D01*
X109400262Y-76195099D01*
X109400267Y-76195096D01*
X109403207Y-76193350D01*
X109689786Y-75978180D01*
X109951451Y-75733319D01*
X110185140Y-75461630D01*
X110352535Y-75218069D01*
X110386190Y-75169101D01*
X110386195Y-75169094D01*
X110388120Y-75166292D01*
X110389732Y-75163298D01*
X110389737Y-75163290D01*
X110556395Y-74853772D01*
X110558017Y-74850760D01*
X110646768Y-74632191D01*
X110691562Y-74521877D01*
X110691564Y-74521872D01*
X110692842Y-74518724D01*
X110700825Y-74490702D01*
X110730038Y-74388148D01*
X110791020Y-74174070D01*
X110817099Y-74021500D01*
X110850829Y-73824175D01*
X110850829Y-73824173D01*
X110851401Y-73820828D01*
X110852810Y-73797800D01*
X110873168Y-73464928D01*
X110873278Y-73463131D01*
X110873359Y-73440000D01*
X110853979Y-73082159D01*
X110796066Y-72728505D01*
X110700297Y-72383173D01*
X110697243Y-72375497D01*
X110569052Y-72053369D01*
X110567793Y-72050205D01*
X110406640Y-71745840D01*
X110401702Y-71736513D01*
X110401698Y-71736506D01*
X110400103Y-71733494D01*
X110199190Y-71436746D01*
X109967403Y-71163432D01*
X109707454Y-70916750D01*
X109471678Y-70737137D01*
X109425091Y-70701647D01*
X109425089Y-70701646D01*
X109422384Y-70699585D01*
X109419472Y-70697828D01*
X109419467Y-70697825D01*
X109118443Y-70516236D01*
X109118437Y-70516233D01*
X109115528Y-70514478D01*
X108790475Y-70363593D01*
X108491586Y-70262425D01*
X108454255Y-70249789D01*
X108454250Y-70249788D01*
X108451028Y-70248697D01*
X108252681Y-70204724D01*
X108104493Y-70171871D01*
X108104487Y-70171870D01*
X108101158Y-70171132D01*
X108097769Y-70170758D01*
X108097764Y-70170757D01*
X107748338Y-70132180D01*
X107748333Y-70132180D01*
X107744957Y-70131807D01*
X107741558Y-70131801D01*
X107741557Y-70131801D01*
X107572080Y-70131505D01*
X107386592Y-70131182D01*
X107275792Y-70143023D01*
X107033639Y-70168901D01*
X107033631Y-70168902D01*
X107030256Y-70169263D01*
X106680117Y-70245606D01*
X106340271Y-70359317D01*
X106337178Y-70360739D01*
X106337177Y-70360740D01*
X106330974Y-70363593D01*
X106014694Y-70509066D01*
X106011760Y-70510822D01*
X106011758Y-70510823D01*
X105778059Y-70650689D01*
X105707193Y-70693101D01*
X105704467Y-70695163D01*
X105704465Y-70695164D01*
X105450114Y-70887529D01*
X105421367Y-70909270D01*
X105160559Y-71155043D01*
X104927819Y-71427546D01*
X104925900Y-71430358D01*
X104925897Y-71430363D01*
X104859020Y-71528401D01*
X104725871Y-71723591D01*
X104557077Y-72039714D01*
X104423411Y-72372218D01*
X104422491Y-72375492D01*
X104422489Y-72375497D01*
X104366539Y-72574547D01*
X104326437Y-72717213D01*
X104267290Y-73070663D01*
X104246661Y-73428434D01*
X103632000Y-73428434D01*
X103632000Y-68520000D01*
X136646496Y-68520000D01*
X136666458Y-68709928D01*
X136725473Y-68891556D01*
X136820960Y-69056944D01*
X136948747Y-69198866D01*
X136954093Y-69202750D01*
X136954094Y-69202751D01*
X136984562Y-69224888D01*
X137027915Y-69281111D01*
X137036500Y-69326823D01*
X137036500Y-79977476D01*
X137016498Y-80045597D01*
X137004142Y-80061779D01*
X136930960Y-80143056D01*
X136835473Y-80308444D01*
X136776458Y-80490072D01*
X136756496Y-80680000D01*
X136776458Y-80869928D01*
X136835473Y-81051556D01*
X136930960Y-81216944D01*
X136935378Y-81221851D01*
X136935379Y-81221852D01*
X136999762Y-81293357D01*
X137058747Y-81358866D01*
X137107267Y-81394118D01*
X137169682Y-81439465D01*
X137213248Y-81471118D01*
X137219276Y-81473802D01*
X137219278Y-81473803D01*
X137381681Y-81546109D01*
X137387712Y-81548794D01*
X137481112Y-81568647D01*
X137568056Y-81587128D01*
X137568061Y-81587128D01*
X137574513Y-81588500D01*
X137765487Y-81588500D01*
X137771939Y-81587128D01*
X137771944Y-81587128D01*
X137858888Y-81568647D01*
X137952288Y-81548794D01*
X137958319Y-81546109D01*
X138120722Y-81473803D01*
X138120724Y-81473802D01*
X138126752Y-81471118D01*
X138170319Y-81439465D01*
X138232733Y-81394118D01*
X138281253Y-81358866D01*
X138340238Y-81293357D01*
X138404621Y-81221852D01*
X138404622Y-81221851D01*
X138409040Y-81216944D01*
X138504527Y-81051556D01*
X138563542Y-80869928D01*
X138583504Y-80680000D01*
X138563542Y-80490072D01*
X138504527Y-80308444D01*
X138409040Y-80143056D01*
X138335863Y-80061785D01*
X138305147Y-79997779D01*
X138303500Y-79977476D01*
X138303500Y-69082980D01*
X138320381Y-69019980D01*
X138391223Y-68897279D01*
X138391224Y-68897278D01*
X138394527Y-68891556D01*
X138453542Y-68709928D01*
X138473504Y-68520000D01*
X138453542Y-68330072D01*
X138394527Y-68148444D01*
X138299040Y-67983056D01*
X138246421Y-67924616D01*
X138175675Y-67846045D01*
X138175674Y-67846044D01*
X138171253Y-67841134D01*
X138016752Y-67728882D01*
X138010724Y-67726198D01*
X138010722Y-67726197D01*
X137848319Y-67653891D01*
X137848318Y-67653891D01*
X137842288Y-67651206D01*
X137748887Y-67631353D01*
X137661944Y-67612872D01*
X137661939Y-67612872D01*
X137655487Y-67611500D01*
X137464513Y-67611500D01*
X137458061Y-67612872D01*
X137458056Y-67612872D01*
X137371113Y-67631353D01*
X137277712Y-67651206D01*
X137271682Y-67653891D01*
X137271681Y-67653891D01*
X137109278Y-67726197D01*
X137109276Y-67726198D01*
X137103248Y-67728882D01*
X136948747Y-67841134D01*
X136944326Y-67846044D01*
X136944325Y-67846045D01*
X136873580Y-67924616D01*
X136820960Y-67983056D01*
X136725473Y-68148444D01*
X136666458Y-68330072D01*
X136646496Y-68520000D01*
X103632000Y-68520000D01*
X103632000Y-56768000D01*
X103652002Y-56699879D01*
X103705658Y-56653386D01*
X103758000Y-56642000D01*
X168463292Y-56642000D01*
X168531413Y-56662002D01*
G37*
%TD.AperFunction*%
%TD*%
M02*
