%TF.GenerationSoftware,KiCad,Pcbnew,(6.0.2)*%
%TF.CreationDate,2022-03-10T00:26:05-05:00*%
%TF.ProjectId,tower,746f7765-722e-46b6-9963-61645f706362,rev?*%
%TF.SameCoordinates,Original*%
%TF.FileFunction,Legend,Top*%
%TF.FilePolarity,Positive*%
%FSLAX46Y46*%
G04 Gerber Fmt 4.6, Leading zero omitted, Abs format (unit mm)*
G04 Created by KiCad (PCBNEW (6.0.2)) date 2022-03-10 00:26:05*
%MOMM*%
%LPD*%
G01*
G04 APERTURE LIST*
%ADD10C,0.150000*%
%ADD11C,0.254000*%
%ADD12C,0.120000*%
%ADD13C,0.200000*%
%ADD14C,0.100000*%
G04 APERTURE END LIST*
D10*
X194149047Y-106441428D02*
X194910952Y-106441428D01*
X194530000Y-106822380D02*
X194530000Y-106060476D01*
X165219047Y-101121428D02*
X165980952Y-101121428D01*
X103775595Y-57727380D02*
X103775595Y-56727380D01*
X104156547Y-56727380D01*
X104251785Y-56775000D01*
X104299404Y-56822619D01*
X104347023Y-56917857D01*
X104347023Y-57060714D01*
X104299404Y-57155952D01*
X104251785Y-57203571D01*
X104156547Y-57251190D01*
X103775595Y-57251190D01*
X105204166Y-57060714D02*
X105204166Y-57727380D01*
X104775595Y-57060714D02*
X104775595Y-57584523D01*
X104823214Y-57679761D01*
X104918452Y-57727380D01*
X105061309Y-57727380D01*
X105156547Y-57679761D01*
X105204166Y-57632142D01*
X105680357Y-57727380D02*
X105680357Y-57060714D01*
X105680357Y-57251190D02*
X105727976Y-57155952D01*
X105775595Y-57108333D01*
X105870833Y-57060714D01*
X105966071Y-57060714D01*
X106727976Y-57727380D02*
X106727976Y-56727380D01*
X106727976Y-57679761D02*
X106632738Y-57727380D01*
X106442261Y-57727380D01*
X106347023Y-57679761D01*
X106299404Y-57632142D01*
X106251785Y-57536904D01*
X106251785Y-57251190D01*
X106299404Y-57155952D01*
X106347023Y-57108333D01*
X106442261Y-57060714D01*
X106632738Y-57060714D01*
X106727976Y-57108333D01*
X107632738Y-57060714D02*
X107632738Y-57727380D01*
X107204166Y-57060714D02*
X107204166Y-57584523D01*
X107251785Y-57679761D01*
X107347023Y-57727380D01*
X107489880Y-57727380D01*
X107585119Y-57679761D01*
X107632738Y-57632142D01*
X108489880Y-57679761D02*
X108394642Y-57727380D01*
X108204166Y-57727380D01*
X108108928Y-57679761D01*
X108061309Y-57584523D01*
X108061309Y-57203571D01*
X108108928Y-57108333D01*
X108204166Y-57060714D01*
X108394642Y-57060714D01*
X108489880Y-57108333D01*
X108537500Y-57203571D01*
X108537500Y-57298809D01*
X108061309Y-57394047D01*
X109727976Y-56727380D02*
X109727976Y-57536904D01*
X109775595Y-57632142D01*
X109823214Y-57679761D01*
X109918452Y-57727380D01*
X110108928Y-57727380D01*
X110204166Y-57679761D01*
X110251785Y-57632142D01*
X110299404Y-57536904D01*
X110299404Y-56727380D01*
X110775595Y-57060714D02*
X110775595Y-57727380D01*
X110775595Y-57155952D02*
X110823214Y-57108333D01*
X110918452Y-57060714D01*
X111061309Y-57060714D01*
X111156547Y-57108333D01*
X111204166Y-57203571D01*
X111204166Y-57727380D01*
X111680357Y-57727380D02*
X111680357Y-57060714D01*
X111680357Y-56727380D02*
X111632738Y-56775000D01*
X111680357Y-56822619D01*
X111727976Y-56775000D01*
X111680357Y-56727380D01*
X111680357Y-56822619D01*
X112061309Y-57060714D02*
X112299404Y-57727380D01*
X112537500Y-57060714D01*
X113299404Y-57679761D02*
X113204166Y-57727380D01*
X113013690Y-57727380D01*
X112918452Y-57679761D01*
X112870833Y-57584523D01*
X112870833Y-57203571D01*
X112918452Y-57108333D01*
X113013690Y-57060714D01*
X113204166Y-57060714D01*
X113299404Y-57108333D01*
X113347023Y-57203571D01*
X113347023Y-57298809D01*
X112870833Y-57394047D01*
X113775595Y-57727380D02*
X113775595Y-57060714D01*
X113775595Y-57251190D02*
X113823214Y-57155952D01*
X113870833Y-57108333D01*
X113966071Y-57060714D01*
X114061309Y-57060714D01*
X114347023Y-57679761D02*
X114442261Y-57727380D01*
X114632738Y-57727380D01*
X114727976Y-57679761D01*
X114775595Y-57584523D01*
X114775595Y-57536904D01*
X114727976Y-57441666D01*
X114632738Y-57394047D01*
X114489880Y-57394047D01*
X114394642Y-57346428D01*
X114347023Y-57251190D01*
X114347023Y-57203571D01*
X114394642Y-57108333D01*
X114489880Y-57060714D01*
X114632738Y-57060714D01*
X114727976Y-57108333D01*
X115204166Y-57727380D02*
X115204166Y-57060714D01*
X115204166Y-56727380D02*
X115156547Y-56775000D01*
X115204166Y-56822619D01*
X115251785Y-56775000D01*
X115204166Y-56727380D01*
X115204166Y-56822619D01*
X115537500Y-57060714D02*
X115918452Y-57060714D01*
X115680357Y-56727380D02*
X115680357Y-57584523D01*
X115727976Y-57679761D01*
X115823214Y-57727380D01*
X115918452Y-57727380D01*
X116156547Y-57060714D02*
X116394642Y-57727380D01*
X116632738Y-57060714D02*
X116394642Y-57727380D01*
X116299404Y-57965476D01*
X116251785Y-58013095D01*
X116156547Y-58060714D01*
X117775595Y-57203571D02*
X118108928Y-57203571D01*
X118251785Y-57727380D02*
X117775595Y-57727380D01*
X117775595Y-56727380D01*
X118251785Y-56727380D01*
X119251785Y-57632142D02*
X119204166Y-57679761D01*
X119061309Y-57727380D01*
X118966071Y-57727380D01*
X118823214Y-57679761D01*
X118727976Y-57584523D01*
X118680357Y-57489285D01*
X118632738Y-57298809D01*
X118632738Y-57155952D01*
X118680357Y-56965476D01*
X118727976Y-56870238D01*
X118823214Y-56775000D01*
X118966071Y-56727380D01*
X119061309Y-56727380D01*
X119204166Y-56775000D01*
X119251785Y-56822619D01*
X119680357Y-57203571D02*
X120013690Y-57203571D01*
X120156547Y-57727380D02*
X119680357Y-57727380D01*
X119680357Y-56727380D01*
X120156547Y-56727380D01*
X121775595Y-57060714D02*
X121775595Y-57727380D01*
X121537500Y-56679761D02*
X121299404Y-57394047D01*
X121918452Y-57394047D01*
X122204166Y-56727380D02*
X122870833Y-56727380D01*
X122442261Y-57727380D01*
X123156547Y-56727380D02*
X123823214Y-56727380D01*
X123394642Y-57727380D01*
X124204166Y-57632142D02*
X124251785Y-57679761D01*
X124204166Y-57727380D01*
X124156547Y-57679761D01*
X124204166Y-57632142D01*
X124204166Y-57727380D01*
X124204166Y-57108333D02*
X124251785Y-57155952D01*
X124204166Y-57203571D01*
X124156547Y-57155952D01*
X124204166Y-57108333D01*
X124204166Y-57203571D01*
X125394642Y-57679761D02*
X125537500Y-57727380D01*
X125775595Y-57727380D01*
X125870833Y-57679761D01*
X125918452Y-57632142D01*
X125966071Y-57536904D01*
X125966071Y-57441666D01*
X125918452Y-57346428D01*
X125870833Y-57298809D01*
X125775595Y-57251190D01*
X125585119Y-57203571D01*
X125489880Y-57155952D01*
X125442261Y-57108333D01*
X125394642Y-57013095D01*
X125394642Y-56917857D01*
X125442261Y-56822619D01*
X125489880Y-56775000D01*
X125585119Y-56727380D01*
X125823214Y-56727380D01*
X125966071Y-56775000D01*
X126775595Y-57679761D02*
X126680357Y-57727380D01*
X126489880Y-57727380D01*
X126394642Y-57679761D01*
X126347023Y-57584523D01*
X126347023Y-57203571D01*
X126394642Y-57108333D01*
X126489880Y-57060714D01*
X126680357Y-57060714D01*
X126775595Y-57108333D01*
X126823214Y-57203571D01*
X126823214Y-57298809D01*
X126347023Y-57394047D01*
X127251785Y-57060714D02*
X127251785Y-57727380D01*
X127251785Y-57155952D02*
X127299404Y-57108333D01*
X127394642Y-57060714D01*
X127537500Y-57060714D01*
X127632738Y-57108333D01*
X127680357Y-57203571D01*
X127680357Y-57727380D01*
X128156547Y-57727380D02*
X128156547Y-57060714D01*
X128156547Y-56727380D02*
X128108928Y-56775000D01*
X128156547Y-56822619D01*
X128204166Y-56775000D01*
X128156547Y-56727380D01*
X128156547Y-56822619D01*
X128775595Y-57727380D02*
X128680357Y-57679761D01*
X128632738Y-57632142D01*
X128585119Y-57536904D01*
X128585119Y-57251190D01*
X128632738Y-57155952D01*
X128680357Y-57108333D01*
X128775595Y-57060714D01*
X128918452Y-57060714D01*
X129013690Y-57108333D01*
X129061309Y-57155952D01*
X129108928Y-57251190D01*
X129108928Y-57536904D01*
X129061309Y-57632142D01*
X129013690Y-57679761D01*
X128918452Y-57727380D01*
X128775595Y-57727380D01*
X129537500Y-57727380D02*
X129537500Y-57060714D01*
X129537500Y-57251190D02*
X129585119Y-57155952D01*
X129632738Y-57108333D01*
X129727976Y-57060714D01*
X129823214Y-57060714D01*
X130918452Y-57727380D02*
X130918452Y-56727380D01*
X131156547Y-56727380D01*
X131299404Y-56775000D01*
X131394642Y-56870238D01*
X131442261Y-56965476D01*
X131489880Y-57155952D01*
X131489880Y-57298809D01*
X131442261Y-57489285D01*
X131394642Y-57584523D01*
X131299404Y-57679761D01*
X131156547Y-57727380D01*
X130918452Y-57727380D01*
X132299404Y-57679761D02*
X132204166Y-57727380D01*
X132013690Y-57727380D01*
X131918452Y-57679761D01*
X131870833Y-57584523D01*
X131870833Y-57203571D01*
X131918452Y-57108333D01*
X132013690Y-57060714D01*
X132204166Y-57060714D01*
X132299404Y-57108333D01*
X132347023Y-57203571D01*
X132347023Y-57298809D01*
X131870833Y-57394047D01*
X132727976Y-57679761D02*
X132823214Y-57727380D01*
X133013690Y-57727380D01*
X133108928Y-57679761D01*
X133156547Y-57584523D01*
X133156547Y-57536904D01*
X133108928Y-57441666D01*
X133013690Y-57394047D01*
X132870833Y-57394047D01*
X132775595Y-57346428D01*
X132727976Y-57251190D01*
X132727976Y-57203571D01*
X132775595Y-57108333D01*
X132870833Y-57060714D01*
X133013690Y-57060714D01*
X133108928Y-57108333D01*
X133585119Y-57727380D02*
X133585119Y-57060714D01*
X133585119Y-56727380D02*
X133537500Y-56775000D01*
X133585119Y-56822619D01*
X133632738Y-56775000D01*
X133585119Y-56727380D01*
X133585119Y-56822619D01*
X134489880Y-57060714D02*
X134489880Y-57870238D01*
X134442261Y-57965476D01*
X134394642Y-58013095D01*
X134299404Y-58060714D01*
X134156547Y-58060714D01*
X134061309Y-58013095D01*
X134489880Y-57679761D02*
X134394642Y-57727380D01*
X134204166Y-57727380D01*
X134108928Y-57679761D01*
X134061309Y-57632142D01*
X134013690Y-57536904D01*
X134013690Y-57251190D01*
X134061309Y-57155952D01*
X134108928Y-57108333D01*
X134204166Y-57060714D01*
X134394642Y-57060714D01*
X134489880Y-57108333D01*
X134966071Y-57060714D02*
X134966071Y-57727380D01*
X134966071Y-57155952D02*
X135013690Y-57108333D01*
X135108928Y-57060714D01*
X135251785Y-57060714D01*
X135347023Y-57108333D01*
X135394642Y-57203571D01*
X135394642Y-57727380D01*
X104299404Y-58385000D02*
X104204166Y-58337380D01*
X104061309Y-58337380D01*
X103918452Y-58385000D01*
X103823214Y-58480238D01*
X103775595Y-58575476D01*
X103727976Y-58765952D01*
X103727976Y-58908809D01*
X103775595Y-59099285D01*
X103823214Y-59194523D01*
X103918452Y-59289761D01*
X104061309Y-59337380D01*
X104156547Y-59337380D01*
X104299404Y-59289761D01*
X104347023Y-59242142D01*
X104347023Y-58908809D01*
X104156547Y-58908809D01*
X104775595Y-59337380D02*
X104775595Y-58670714D01*
X104775595Y-58861190D02*
X104823214Y-58765952D01*
X104870833Y-58718333D01*
X104966071Y-58670714D01*
X105061309Y-58670714D01*
X105537500Y-59337380D02*
X105442261Y-59289761D01*
X105394642Y-59242142D01*
X105347023Y-59146904D01*
X105347023Y-58861190D01*
X105394642Y-58765952D01*
X105442261Y-58718333D01*
X105537500Y-58670714D01*
X105680357Y-58670714D01*
X105775595Y-58718333D01*
X105823214Y-58765952D01*
X105870833Y-58861190D01*
X105870833Y-59146904D01*
X105823214Y-59242142D01*
X105775595Y-59289761D01*
X105680357Y-59337380D01*
X105537500Y-59337380D01*
X106727976Y-58670714D02*
X106727976Y-59337380D01*
X106299404Y-58670714D02*
X106299404Y-59194523D01*
X106347023Y-59289761D01*
X106442261Y-59337380D01*
X106585119Y-59337380D01*
X106680357Y-59289761D01*
X106727976Y-59242142D01*
X107204166Y-58670714D02*
X107204166Y-59670714D01*
X107204166Y-58718333D02*
X107299404Y-58670714D01*
X107489880Y-58670714D01*
X107585119Y-58718333D01*
X107632738Y-58765952D01*
X107680357Y-58861190D01*
X107680357Y-59146904D01*
X107632738Y-59242142D01*
X107585119Y-59289761D01*
X107489880Y-59337380D01*
X107299404Y-59337380D01*
X107204166Y-59289761D01*
X109299404Y-58337380D02*
X109108928Y-58337380D01*
X109013690Y-58385000D01*
X108966071Y-58432619D01*
X108870833Y-58575476D01*
X108823214Y-58765952D01*
X108823214Y-59146904D01*
X108870833Y-59242142D01*
X108918452Y-59289761D01*
X109013690Y-59337380D01*
X109204166Y-59337380D01*
X109299404Y-59289761D01*
X109347023Y-59242142D01*
X109394642Y-59146904D01*
X109394642Y-58908809D01*
X109347023Y-58813571D01*
X109299404Y-58765952D01*
X109204166Y-58718333D01*
X109013690Y-58718333D01*
X108918452Y-58765952D01*
X108870833Y-58813571D01*
X108823214Y-58908809D01*
X109823214Y-59242142D02*
X109870833Y-59289761D01*
X109823214Y-59337380D01*
X109775595Y-59289761D01*
X109823214Y-59242142D01*
X109823214Y-59337380D01*
X109823214Y-58718333D02*
X109870833Y-58765952D01*
X109823214Y-58813571D01*
X109775595Y-58765952D01*
X109823214Y-58718333D01*
X109823214Y-58813571D01*
X111061309Y-59337380D02*
X111061309Y-58337380D01*
X111394642Y-59051666D01*
X111727976Y-58337380D01*
X111727976Y-59337380D01*
X112632738Y-59337380D02*
X112632738Y-58813571D01*
X112585119Y-58718333D01*
X112489880Y-58670714D01*
X112299404Y-58670714D01*
X112204166Y-58718333D01*
X112632738Y-59289761D02*
X112537500Y-59337380D01*
X112299404Y-59337380D01*
X112204166Y-59289761D01*
X112156547Y-59194523D01*
X112156547Y-59099285D01*
X112204166Y-59004047D01*
X112299404Y-58956428D01*
X112537500Y-58956428D01*
X112632738Y-58908809D01*
X113108928Y-59337380D02*
X113108928Y-58670714D01*
X113108928Y-58861190D02*
X113156547Y-58765952D01*
X113204166Y-58718333D01*
X113299404Y-58670714D01*
X113394642Y-58670714D01*
X113727976Y-59337380D02*
X113727976Y-58670714D01*
X113727976Y-58337380D02*
X113680357Y-58385000D01*
X113727976Y-58432619D01*
X113775595Y-58385000D01*
X113727976Y-58337380D01*
X113727976Y-58432619D01*
X114347023Y-59337380D02*
X114251785Y-59289761D01*
X114204166Y-59242142D01*
X114156547Y-59146904D01*
X114156547Y-58861190D01*
X114204166Y-58765952D01*
X114251785Y-58718333D01*
X114347023Y-58670714D01*
X114489880Y-58670714D01*
X114585119Y-58718333D01*
X114632738Y-58765952D01*
X114680357Y-58861190D01*
X114680357Y-59146904D01*
X114632738Y-59242142D01*
X114585119Y-59289761D01*
X114489880Y-59337380D01*
X114347023Y-59337380D01*
X115870833Y-59337380D02*
X115870833Y-58337380D01*
X116442261Y-59337380D02*
X116013690Y-58765952D01*
X116442261Y-58337380D02*
X115870833Y-58908809D01*
X117299404Y-59337380D02*
X117299404Y-58813571D01*
X117251785Y-58718333D01*
X117156547Y-58670714D01*
X116966071Y-58670714D01*
X116870833Y-58718333D01*
X117299404Y-59289761D02*
X117204166Y-59337380D01*
X116966071Y-59337380D01*
X116870833Y-59289761D01*
X116823214Y-59194523D01*
X116823214Y-59099285D01*
X116870833Y-59004047D01*
X116966071Y-58956428D01*
X117204166Y-58956428D01*
X117299404Y-58908809D01*
X117775595Y-59337380D02*
X117775595Y-58670714D01*
X117775595Y-58861190D02*
X117823214Y-58765952D01*
X117870833Y-58718333D01*
X117966071Y-58670714D01*
X118061309Y-58670714D01*
X118251785Y-58670714D02*
X118632738Y-58670714D01*
X118394642Y-58337380D02*
X118394642Y-59194523D01*
X118442261Y-59289761D01*
X118537500Y-59337380D01*
X118632738Y-59337380D01*
X103680357Y-59947380D02*
X104299404Y-59947380D01*
X103966071Y-60328333D01*
X104108928Y-60328333D01*
X104204166Y-60375952D01*
X104251785Y-60423571D01*
X104299404Y-60518809D01*
X104299404Y-60756904D01*
X104251785Y-60852142D01*
X104204166Y-60899761D01*
X104108928Y-60947380D01*
X103823214Y-60947380D01*
X103727976Y-60899761D01*
X103680357Y-60852142D01*
X105442261Y-59899761D02*
X104585119Y-61185476D01*
X106299404Y-60947380D02*
X105727976Y-60947380D01*
X106013690Y-60947380D02*
X106013690Y-59947380D01*
X105918452Y-60090238D01*
X105823214Y-60185476D01*
X105727976Y-60233095D01*
X107442261Y-59899761D02*
X106585119Y-61185476D01*
X107727976Y-60042619D02*
X107775595Y-59995000D01*
X107870833Y-59947380D01*
X108108928Y-59947380D01*
X108204166Y-59995000D01*
X108251785Y-60042619D01*
X108299404Y-60137857D01*
X108299404Y-60233095D01*
X108251785Y-60375952D01*
X107680357Y-60947380D01*
X108299404Y-60947380D01*
X108918452Y-59947380D02*
X109013690Y-59947380D01*
X109108928Y-59995000D01*
X109156547Y-60042619D01*
X109204166Y-60137857D01*
X109251785Y-60328333D01*
X109251785Y-60566428D01*
X109204166Y-60756904D01*
X109156547Y-60852142D01*
X109108928Y-60899761D01*
X109013690Y-60947380D01*
X108918452Y-60947380D01*
X108823214Y-60899761D01*
X108775595Y-60852142D01*
X108727976Y-60756904D01*
X108680357Y-60566428D01*
X108680357Y-60328333D01*
X108727976Y-60137857D01*
X108775595Y-60042619D01*
X108823214Y-59995000D01*
X108918452Y-59947380D01*
X109632738Y-60042619D02*
X109680357Y-59995000D01*
X109775595Y-59947380D01*
X110013690Y-59947380D01*
X110108928Y-59995000D01*
X110156547Y-60042619D01*
X110204166Y-60137857D01*
X110204166Y-60233095D01*
X110156547Y-60375952D01*
X109585119Y-60947380D01*
X110204166Y-60947380D01*
X110585119Y-60042619D02*
X110632738Y-59995000D01*
X110727976Y-59947380D01*
X110966071Y-59947380D01*
X111061309Y-59995000D01*
X111108928Y-60042619D01*
X111156547Y-60137857D01*
X111156547Y-60233095D01*
X111108928Y-60375952D01*
X110537500Y-60947380D01*
X111156547Y-60947380D01*
X103632738Y-63167380D02*
X104204166Y-63167380D01*
X103918452Y-64167380D02*
X103918452Y-63167380D01*
X104680357Y-64167380D02*
X104585119Y-64119761D01*
X104537500Y-64072142D01*
X104489880Y-63976904D01*
X104489880Y-63691190D01*
X104537500Y-63595952D01*
X104585119Y-63548333D01*
X104680357Y-63500714D01*
X104823214Y-63500714D01*
X104918452Y-63548333D01*
X104966071Y-63595952D01*
X105013690Y-63691190D01*
X105013690Y-63976904D01*
X104966071Y-64072142D01*
X104918452Y-64119761D01*
X104823214Y-64167380D01*
X104680357Y-64167380D01*
X105347023Y-63500714D02*
X105537500Y-64167380D01*
X105727976Y-63691190D01*
X105918452Y-64167380D01*
X106108928Y-63500714D01*
X106870833Y-64119761D02*
X106775595Y-64167380D01*
X106585119Y-64167380D01*
X106489880Y-64119761D01*
X106442261Y-64024523D01*
X106442261Y-63643571D01*
X106489880Y-63548333D01*
X106585119Y-63500714D01*
X106775595Y-63500714D01*
X106870833Y-63548333D01*
X106918452Y-63643571D01*
X106918452Y-63738809D01*
X106442261Y-63834047D01*
X107347023Y-64167380D02*
X107347023Y-63500714D01*
X107347023Y-63691190D02*
X107394642Y-63595952D01*
X107442261Y-63548333D01*
X107537500Y-63500714D01*
X107632738Y-63500714D01*
X108727976Y-64167380D02*
X108727976Y-63167380D01*
X109108928Y-63167380D01*
X109204166Y-63215000D01*
X109251785Y-63262619D01*
X109299404Y-63357857D01*
X109299404Y-63500714D01*
X109251785Y-63595952D01*
X109204166Y-63643571D01*
X109108928Y-63691190D01*
X108727976Y-63691190D01*
X110299404Y-64072142D02*
X110251785Y-64119761D01*
X110108928Y-64167380D01*
X110013690Y-64167380D01*
X109870833Y-64119761D01*
X109775595Y-64024523D01*
X109727976Y-63929285D01*
X109680357Y-63738809D01*
X109680357Y-63595952D01*
X109727976Y-63405476D01*
X109775595Y-63310238D01*
X109870833Y-63215000D01*
X110013690Y-63167380D01*
X110108928Y-63167380D01*
X110251785Y-63215000D01*
X110299404Y-63262619D01*
X111061309Y-63643571D02*
X111204166Y-63691190D01*
X111251785Y-63738809D01*
X111299404Y-63834047D01*
X111299404Y-63976904D01*
X111251785Y-64072142D01*
X111204166Y-64119761D01*
X111108928Y-64167380D01*
X110727976Y-64167380D01*
X110727976Y-63167380D01*
X111061309Y-63167380D01*
X111156547Y-63215000D01*
X111204166Y-63262619D01*
X111251785Y-63357857D01*
X111251785Y-63453095D01*
X111204166Y-63548333D01*
X111156547Y-63595952D01*
X111061309Y-63643571D01*
X110727976Y-63643571D01*
X103632738Y-64777380D02*
X103966071Y-65777380D01*
X104299404Y-64777380D01*
X105013690Y-65729761D02*
X104918452Y-65777380D01*
X104727976Y-65777380D01*
X104632738Y-65729761D01*
X104585119Y-65634523D01*
X104585119Y-65253571D01*
X104632738Y-65158333D01*
X104727976Y-65110714D01*
X104918452Y-65110714D01*
X105013690Y-65158333D01*
X105061309Y-65253571D01*
X105061309Y-65348809D01*
X104585119Y-65444047D01*
X105489880Y-65777380D02*
X105489880Y-65110714D01*
X105489880Y-65301190D02*
X105537500Y-65205952D01*
X105585119Y-65158333D01*
X105680357Y-65110714D01*
X105775595Y-65110714D01*
X106061309Y-65729761D02*
X106156547Y-65777380D01*
X106347023Y-65777380D01*
X106442261Y-65729761D01*
X106489880Y-65634523D01*
X106489880Y-65586904D01*
X106442261Y-65491666D01*
X106347023Y-65444047D01*
X106204166Y-65444047D01*
X106108928Y-65396428D01*
X106061309Y-65301190D01*
X106061309Y-65253571D01*
X106108928Y-65158333D01*
X106204166Y-65110714D01*
X106347023Y-65110714D01*
X106442261Y-65158333D01*
X106918452Y-65777380D02*
X106918452Y-65110714D01*
X106918452Y-64777380D02*
X106870833Y-64825000D01*
X106918452Y-64872619D01*
X106966071Y-64825000D01*
X106918452Y-64777380D01*
X106918452Y-64872619D01*
X107537500Y-65777380D02*
X107442261Y-65729761D01*
X107394642Y-65682142D01*
X107347023Y-65586904D01*
X107347023Y-65301190D01*
X107394642Y-65205952D01*
X107442261Y-65158333D01*
X107537500Y-65110714D01*
X107680357Y-65110714D01*
X107775595Y-65158333D01*
X107823214Y-65205952D01*
X107870833Y-65301190D01*
X107870833Y-65586904D01*
X107823214Y-65682142D01*
X107775595Y-65729761D01*
X107680357Y-65777380D01*
X107537500Y-65777380D01*
X108299404Y-65110714D02*
X108299404Y-65777380D01*
X108299404Y-65205952D02*
X108347023Y-65158333D01*
X108442261Y-65110714D01*
X108585119Y-65110714D01*
X108680357Y-65158333D01*
X108727976Y-65253571D01*
X108727976Y-65777380D01*
X109204166Y-65682142D02*
X109251785Y-65729761D01*
X109204166Y-65777380D01*
X109156547Y-65729761D01*
X109204166Y-65682142D01*
X109204166Y-65777380D01*
X109204166Y-65158333D02*
X109251785Y-65205952D01*
X109204166Y-65253571D01*
X109156547Y-65205952D01*
X109204166Y-65158333D01*
X109204166Y-65253571D01*
X112489880Y-65777380D02*
X111918452Y-65777380D01*
X112204166Y-65777380D02*
X112204166Y-64777380D01*
X112108928Y-64920238D01*
X112013690Y-65015476D01*
X111918452Y-65063095D01*
X112918452Y-65682142D02*
X112966071Y-65729761D01*
X112918452Y-65777380D01*
X112870833Y-65729761D01*
X112918452Y-65682142D01*
X112918452Y-65777380D01*
X113585119Y-64777380D02*
X113680357Y-64777380D01*
X113775595Y-64825000D01*
X113823214Y-64872619D01*
X113870833Y-64967857D01*
X113918452Y-65158333D01*
X113918452Y-65396428D01*
X113870833Y-65586904D01*
X113823214Y-65682142D01*
X113775595Y-65729761D01*
X113680357Y-65777380D01*
X113585119Y-65777380D01*
X113489880Y-65729761D01*
X113442261Y-65682142D01*
X113394642Y-65586904D01*
X113347023Y-65396428D01*
X113347023Y-65158333D01*
X113394642Y-64967857D01*
X113442261Y-64872619D01*
X113489880Y-64825000D01*
X113585119Y-64777380D01*
X103727976Y-67101666D02*
X104204166Y-67101666D01*
X103632738Y-67387380D02*
X103966071Y-66387380D01*
X104299404Y-67387380D01*
X105061309Y-66720714D02*
X105061309Y-67387380D01*
X104632738Y-66720714D02*
X104632738Y-67244523D01*
X104680357Y-67339761D01*
X104775595Y-67387380D01*
X104918452Y-67387380D01*
X105013690Y-67339761D01*
X105061309Y-67292142D01*
X105394642Y-66720714D02*
X105775595Y-66720714D01*
X105537500Y-66387380D02*
X105537500Y-67244523D01*
X105585119Y-67339761D01*
X105680357Y-67387380D01*
X105775595Y-67387380D01*
X106108928Y-67387380D02*
X106108928Y-66387380D01*
X106537500Y-67387380D02*
X106537500Y-66863571D01*
X106489880Y-66768333D01*
X106394642Y-66720714D01*
X106251785Y-66720714D01*
X106156547Y-66768333D01*
X106108928Y-66815952D01*
X107156547Y-67387380D02*
X107061309Y-67339761D01*
X107013690Y-67292142D01*
X106966071Y-67196904D01*
X106966071Y-66911190D01*
X107013690Y-66815952D01*
X107061309Y-66768333D01*
X107156547Y-66720714D01*
X107299404Y-66720714D01*
X107394642Y-66768333D01*
X107442261Y-66815952D01*
X107489880Y-66911190D01*
X107489880Y-67196904D01*
X107442261Y-67292142D01*
X107394642Y-67339761D01*
X107299404Y-67387380D01*
X107156547Y-67387380D01*
X107918452Y-67387380D02*
X107918452Y-66720714D01*
X107918452Y-66911190D02*
X107966071Y-66815952D01*
X108013690Y-66768333D01*
X108108928Y-66720714D01*
X108204166Y-66720714D01*
X108489880Y-67339761D02*
X108585119Y-67387380D01*
X108775595Y-67387380D01*
X108870833Y-67339761D01*
X108918452Y-67244523D01*
X108918452Y-67196904D01*
X108870833Y-67101666D01*
X108775595Y-67054047D01*
X108632738Y-67054047D01*
X108537500Y-67006428D01*
X108489880Y-66911190D01*
X108489880Y-66863571D01*
X108537500Y-66768333D01*
X108632738Y-66720714D01*
X108775595Y-66720714D01*
X108870833Y-66768333D01*
X109347023Y-67292142D02*
X109394642Y-67339761D01*
X109347023Y-67387380D01*
X109299404Y-67339761D01*
X109347023Y-67292142D01*
X109347023Y-67387380D01*
X109347023Y-66768333D02*
X109394642Y-66815952D01*
X109347023Y-66863571D01*
X109299404Y-66815952D01*
X109347023Y-66768333D01*
X109347023Y-66863571D01*
X112061309Y-67101666D02*
X112537500Y-67101666D01*
X111966071Y-67387380D02*
X112299404Y-66387380D01*
X112632738Y-67387380D01*
X112966071Y-66720714D02*
X112966071Y-67387380D01*
X112966071Y-66815952D02*
X113013690Y-66768333D01*
X113108928Y-66720714D01*
X113251785Y-66720714D01*
X113347023Y-66768333D01*
X113394642Y-66863571D01*
X113394642Y-67387380D01*
X114299404Y-67387380D02*
X114299404Y-66387380D01*
X114299404Y-67339761D02*
X114204166Y-67387380D01*
X114013690Y-67387380D01*
X113918452Y-67339761D01*
X113870833Y-67292142D01*
X113823214Y-67196904D01*
X113823214Y-66911190D01*
X113870833Y-66815952D01*
X113918452Y-66768333D01*
X114013690Y-66720714D01*
X114204166Y-66720714D01*
X114299404Y-66768333D01*
X114775595Y-67387380D02*
X114775595Y-66720714D01*
X114775595Y-66911190D02*
X114823214Y-66815952D01*
X114870833Y-66768333D01*
X114966071Y-66720714D01*
X115061309Y-66720714D01*
X115775595Y-67339761D02*
X115680357Y-67387380D01*
X115489880Y-67387380D01*
X115394642Y-67339761D01*
X115347023Y-67244523D01*
X115347023Y-66863571D01*
X115394642Y-66768333D01*
X115489880Y-66720714D01*
X115680357Y-66720714D01*
X115775595Y-66768333D01*
X115823214Y-66863571D01*
X115823214Y-66958809D01*
X115347023Y-67054047D01*
X117013690Y-67387380D02*
X117013690Y-66387380D01*
X117013690Y-66863571D02*
X117585119Y-66863571D01*
X117585119Y-67387380D02*
X117585119Y-66387380D01*
X118489880Y-67387380D02*
X118489880Y-66863571D01*
X118442261Y-66768333D01*
X118347023Y-66720714D01*
X118156547Y-66720714D01*
X118061309Y-66768333D01*
X118489880Y-67339761D02*
X118394642Y-67387380D01*
X118156547Y-67387380D01*
X118061309Y-67339761D01*
X118013690Y-67244523D01*
X118013690Y-67149285D01*
X118061309Y-67054047D01*
X118156547Y-67006428D01*
X118394642Y-67006428D01*
X118489880Y-66958809D01*
X118823214Y-66720714D02*
X119204166Y-66720714D01*
X118966071Y-66387380D02*
X118966071Y-67244523D01*
X119013690Y-67339761D01*
X119108928Y-67387380D01*
X119204166Y-67387380D01*
X119966071Y-66720714D02*
X119966071Y-67387380D01*
X119537500Y-66720714D02*
X119537500Y-67244523D01*
X119585119Y-67339761D01*
X119680357Y-67387380D01*
X119823214Y-67387380D01*
X119918452Y-67339761D01*
X119966071Y-67292142D01*
X120394642Y-67339761D02*
X120489880Y-67387380D01*
X120680357Y-67387380D01*
X120775595Y-67339761D01*
X120823214Y-67244523D01*
X120823214Y-67196904D01*
X120775595Y-67101666D01*
X120680357Y-67054047D01*
X120537500Y-67054047D01*
X120442261Y-67006428D01*
X120394642Y-66911190D01*
X120394642Y-66863571D01*
X120442261Y-66768333D01*
X120537500Y-66720714D01*
X120680357Y-66720714D01*
X120775595Y-66768333D01*
X121251785Y-67387380D02*
X121251785Y-66387380D01*
X121680357Y-67387380D02*
X121680357Y-66863571D01*
X121632738Y-66768333D01*
X121537500Y-66720714D01*
X121394642Y-66720714D01*
X121299404Y-66768333D01*
X121251785Y-66815952D01*
X122156547Y-67387380D02*
X122156547Y-66720714D01*
X122156547Y-66387380D02*
X122108928Y-66435000D01*
X122156547Y-66482619D01*
X122204166Y-66435000D01*
X122156547Y-66387380D01*
X122156547Y-66482619D01*
X122632738Y-67387380D02*
X122632738Y-66387380D01*
X122727976Y-67006428D02*
X123013690Y-67387380D01*
X123013690Y-66720714D02*
X122632738Y-67101666D01*
X123870833Y-67387380D02*
X123870833Y-66863571D01*
X123823214Y-66768333D01*
X123727976Y-66720714D01*
X123537500Y-66720714D01*
X123442261Y-66768333D01*
X123870833Y-67339761D02*
X123775595Y-67387380D01*
X123537500Y-67387380D01*
X123442261Y-67339761D01*
X123394642Y-67244523D01*
X123394642Y-67149285D01*
X123442261Y-67054047D01*
X123537500Y-67006428D01*
X123775595Y-67006428D01*
X123870833Y-66958809D01*
X124347023Y-66720714D02*
X124347023Y-67387380D01*
X124347023Y-66815952D02*
X124394642Y-66768333D01*
X124489880Y-66720714D01*
X124632738Y-66720714D01*
X124727976Y-66768333D01*
X124775595Y-66863571D01*
X124775595Y-67387380D01*
X125394642Y-67387380D02*
X125299404Y-67339761D01*
X125251785Y-67292142D01*
X125204166Y-67196904D01*
X125204166Y-66911190D01*
X125251785Y-66815952D01*
X125299404Y-66768333D01*
X125394642Y-66720714D01*
X125537500Y-66720714D01*
X125632738Y-66768333D01*
X125680357Y-66815952D01*
X125727976Y-66911190D01*
X125727976Y-67196904D01*
X125680357Y-67292142D01*
X125632738Y-67339761D01*
X125537500Y-67387380D01*
X125394642Y-67387380D01*
X112156547Y-68997380D02*
X112156547Y-67997380D01*
X112394642Y-67997380D01*
X112537500Y-68045000D01*
X112632738Y-68140238D01*
X112680357Y-68235476D01*
X112727976Y-68425952D01*
X112727976Y-68568809D01*
X112680357Y-68759285D01*
X112632738Y-68854523D01*
X112537500Y-68949761D01*
X112394642Y-68997380D01*
X112156547Y-68997380D01*
X113585119Y-68997380D02*
X113585119Y-68473571D01*
X113537500Y-68378333D01*
X113442261Y-68330714D01*
X113251785Y-68330714D01*
X113156547Y-68378333D01*
X113585119Y-68949761D02*
X113489880Y-68997380D01*
X113251785Y-68997380D01*
X113156547Y-68949761D01*
X113108928Y-68854523D01*
X113108928Y-68759285D01*
X113156547Y-68664047D01*
X113251785Y-68616428D01*
X113489880Y-68616428D01*
X113585119Y-68568809D01*
X115013690Y-68521190D02*
X115013690Y-68997380D01*
X114680357Y-67997380D02*
X115013690Y-68521190D01*
X115347023Y-67997380D01*
X116061309Y-68949761D02*
X115966071Y-68997380D01*
X115775595Y-68997380D01*
X115680357Y-68949761D01*
X115632738Y-68854523D01*
X115632738Y-68473571D01*
X115680357Y-68378333D01*
X115775595Y-68330714D01*
X115966071Y-68330714D01*
X116061309Y-68378333D01*
X116108928Y-68473571D01*
X116108928Y-68568809D01*
X115632738Y-68664047D01*
X116680357Y-68997380D02*
X116585119Y-68949761D01*
X116537500Y-68902142D01*
X116489880Y-68806904D01*
X116489880Y-68521190D01*
X116537500Y-68425952D01*
X116585119Y-68378333D01*
X116680357Y-68330714D01*
X116823214Y-68330714D01*
X116918452Y-68378333D01*
X116966071Y-68425952D01*
X117013690Y-68521190D01*
X117013690Y-68806904D01*
X116966071Y-68902142D01*
X116918452Y-68949761D01*
X116823214Y-68997380D01*
X116680357Y-68997380D01*
X117442261Y-68330714D02*
X117442261Y-68997380D01*
X117442261Y-68425952D02*
X117489880Y-68378333D01*
X117585119Y-68330714D01*
X117727976Y-68330714D01*
X117823214Y-68378333D01*
X117870833Y-68473571D01*
X117870833Y-68997380D01*
X119108928Y-68997380D02*
X119108928Y-67997380D01*
X119680357Y-68997380D01*
X119680357Y-67997380D01*
X120585119Y-68997380D02*
X120585119Y-68473571D01*
X120537500Y-68378333D01*
X120442261Y-68330714D01*
X120251785Y-68330714D01*
X120156547Y-68378333D01*
X120585119Y-68949761D02*
X120489880Y-68997380D01*
X120251785Y-68997380D01*
X120156547Y-68949761D01*
X120108928Y-68854523D01*
X120108928Y-68759285D01*
X120156547Y-68664047D01*
X120251785Y-68616428D01*
X120489880Y-68616428D01*
X120585119Y-68568809D01*
X121061309Y-68997380D02*
X121061309Y-68330714D01*
X121061309Y-68425952D02*
X121108928Y-68378333D01*
X121204166Y-68330714D01*
X121347023Y-68330714D01*
X121442261Y-68378333D01*
X121489880Y-68473571D01*
X121489880Y-68997380D01*
X121489880Y-68473571D02*
X121537500Y-68378333D01*
X121632738Y-68330714D01*
X121775595Y-68330714D01*
X121870833Y-68378333D01*
X121918452Y-68473571D01*
X121918452Y-68997380D01*
X112442261Y-69607380D02*
X112442261Y-70321666D01*
X112394642Y-70464523D01*
X112299404Y-70559761D01*
X112156547Y-70607380D01*
X112061309Y-70607380D01*
X113347023Y-70607380D02*
X113347023Y-70083571D01*
X113299404Y-69988333D01*
X113204166Y-69940714D01*
X113013690Y-69940714D01*
X112918452Y-69988333D01*
X113347023Y-70559761D02*
X113251785Y-70607380D01*
X113013690Y-70607380D01*
X112918452Y-70559761D01*
X112870833Y-70464523D01*
X112870833Y-70369285D01*
X112918452Y-70274047D01*
X113013690Y-70226428D01*
X113251785Y-70226428D01*
X113347023Y-70178809D01*
X113823214Y-70607380D02*
X113823214Y-69607380D01*
X113918452Y-70226428D02*
X114204166Y-70607380D01*
X114204166Y-69940714D02*
X113823214Y-70321666D01*
X115013690Y-70559761D02*
X114918452Y-70607380D01*
X114727976Y-70607380D01*
X114632738Y-70559761D01*
X114585119Y-70464523D01*
X114585119Y-70083571D01*
X114632738Y-69988333D01*
X114727976Y-69940714D01*
X114918452Y-69940714D01*
X115013690Y-69988333D01*
X115061309Y-70083571D01*
X115061309Y-70178809D01*
X114585119Y-70274047D01*
X116251785Y-70607380D02*
X116251785Y-69607380D01*
X116489880Y-69607380D01*
X116632738Y-69655000D01*
X116727976Y-69750238D01*
X116775595Y-69845476D01*
X116823214Y-70035952D01*
X116823214Y-70178809D01*
X116775595Y-70369285D01*
X116727976Y-70464523D01*
X116632738Y-70559761D01*
X116489880Y-70607380D01*
X116251785Y-70607380D01*
X117394642Y-70607380D02*
X117299404Y-70559761D01*
X117251785Y-70512142D01*
X117204166Y-70416904D01*
X117204166Y-70131190D01*
X117251785Y-70035952D01*
X117299404Y-69988333D01*
X117394642Y-69940714D01*
X117537500Y-69940714D01*
X117632738Y-69988333D01*
X117680357Y-70035952D01*
X117727976Y-70131190D01*
X117727976Y-70416904D01*
X117680357Y-70512142D01*
X117632738Y-70559761D01*
X117537500Y-70607380D01*
X117394642Y-70607380D01*
X118585119Y-70607380D02*
X118585119Y-70083571D01*
X118537500Y-69988333D01*
X118442261Y-69940714D01*
X118251785Y-69940714D01*
X118156547Y-69988333D01*
X118585119Y-70559761D02*
X118489880Y-70607380D01*
X118251785Y-70607380D01*
X118156547Y-70559761D01*
X118108928Y-70464523D01*
X118108928Y-70369285D01*
X118156547Y-70274047D01*
X118251785Y-70226428D01*
X118489880Y-70226428D01*
X118585119Y-70178809D01*
X119061309Y-69940714D02*
X119061309Y-70607380D01*
X119061309Y-70035952D02*
X119108928Y-69988333D01*
X119204166Y-69940714D01*
X119347023Y-69940714D01*
X119442261Y-69988333D01*
X119489880Y-70083571D01*
X119489880Y-70607380D01*
X112442261Y-71217380D02*
X112442261Y-71931666D01*
X112394642Y-72074523D01*
X112299404Y-72169761D01*
X112156547Y-72217380D01*
X112061309Y-72217380D01*
X113061309Y-72217380D02*
X112966071Y-72169761D01*
X112918452Y-72122142D01*
X112870833Y-72026904D01*
X112870833Y-71741190D01*
X112918452Y-71645952D01*
X112966071Y-71598333D01*
X113061309Y-71550714D01*
X113204166Y-71550714D01*
X113299404Y-71598333D01*
X113347023Y-71645952D01*
X113394642Y-71741190D01*
X113394642Y-72026904D01*
X113347023Y-72122142D01*
X113299404Y-72169761D01*
X113204166Y-72217380D01*
X113061309Y-72217380D01*
X113823214Y-72217380D02*
X113823214Y-71550714D01*
X113823214Y-71741190D02*
X113870833Y-71645952D01*
X113918452Y-71598333D01*
X114013690Y-71550714D01*
X114108928Y-71550714D01*
X114870833Y-71550714D02*
X114870833Y-72360238D01*
X114823214Y-72455476D01*
X114775595Y-72503095D01*
X114680357Y-72550714D01*
X114537500Y-72550714D01*
X114442261Y-72503095D01*
X114870833Y-72169761D02*
X114775595Y-72217380D01*
X114585119Y-72217380D01*
X114489880Y-72169761D01*
X114442261Y-72122142D01*
X114394642Y-72026904D01*
X114394642Y-71741190D01*
X114442261Y-71645952D01*
X114489880Y-71598333D01*
X114585119Y-71550714D01*
X114775595Y-71550714D01*
X114870833Y-71598333D01*
X115727976Y-72169761D02*
X115632738Y-72217380D01*
X115442261Y-72217380D01*
X115347023Y-72169761D01*
X115299404Y-72074523D01*
X115299404Y-71693571D01*
X115347023Y-71598333D01*
X115442261Y-71550714D01*
X115632738Y-71550714D01*
X115727976Y-71598333D01*
X115775595Y-71693571D01*
X115775595Y-71788809D01*
X115299404Y-71884047D01*
X116918452Y-71931666D02*
X117394642Y-71931666D01*
X116823214Y-72217380D02*
X117156547Y-71217380D01*
X117489880Y-72217380D01*
X117823214Y-71550714D02*
X117823214Y-72550714D01*
X117823214Y-71598333D02*
X117918452Y-71550714D01*
X118108928Y-71550714D01*
X118204166Y-71598333D01*
X118251785Y-71645952D01*
X118299404Y-71741190D01*
X118299404Y-72026904D01*
X118251785Y-72122142D01*
X118204166Y-72169761D01*
X118108928Y-72217380D01*
X117918452Y-72217380D01*
X117823214Y-72169761D01*
X118870833Y-72217380D02*
X118775595Y-72169761D01*
X118727976Y-72122142D01*
X118680357Y-72026904D01*
X118680357Y-71741190D01*
X118727976Y-71645952D01*
X118775595Y-71598333D01*
X118870833Y-71550714D01*
X119013690Y-71550714D01*
X119108928Y-71598333D01*
X119156547Y-71645952D01*
X119204166Y-71741190D01*
X119204166Y-72026904D01*
X119156547Y-72122142D01*
X119108928Y-72169761D01*
X119013690Y-72217380D01*
X118870833Y-72217380D01*
X119775595Y-72217380D02*
X119680357Y-72169761D01*
X119632738Y-72074523D01*
X119632738Y-71217380D01*
X120299404Y-72217380D02*
X120204166Y-72169761D01*
X120156547Y-72122142D01*
X120108928Y-72026904D01*
X120108928Y-71741190D01*
X120156547Y-71645952D01*
X120204166Y-71598333D01*
X120299404Y-71550714D01*
X120442261Y-71550714D01*
X120537500Y-71598333D01*
X120585119Y-71645952D01*
X120632738Y-71741190D01*
X120632738Y-72026904D01*
X120585119Y-72122142D01*
X120537500Y-72169761D01*
X120442261Y-72217380D01*
X120299404Y-72217380D01*
X174618095Y-111672380D02*
X174951428Y-112672380D01*
X175284761Y-111672380D01*
X175808571Y-111672380D02*
X175999047Y-111672380D01*
X176094285Y-111720000D01*
X176189523Y-111815238D01*
X176237142Y-112005714D01*
X176237142Y-112339047D01*
X176189523Y-112529523D01*
X176094285Y-112624761D01*
X175999047Y-112672380D01*
X175808571Y-112672380D01*
X175713333Y-112624761D01*
X175618095Y-112529523D01*
X175570476Y-112339047D01*
X175570476Y-112005714D01*
X175618095Y-111815238D01*
X175713333Y-111720000D01*
X175808571Y-111672380D01*
X176665714Y-111672380D02*
X176665714Y-112481904D01*
X176713333Y-112577142D01*
X176760952Y-112624761D01*
X176856190Y-112672380D01*
X177046666Y-112672380D01*
X177141904Y-112624761D01*
X177189523Y-112577142D01*
X177237142Y-112481904D01*
X177237142Y-111672380D01*
X177570476Y-111672380D02*
X178141904Y-111672380D01*
X177856190Y-112672380D02*
X177856190Y-111672380D01*
X179148095Y-111740000D02*
X179052857Y-111692380D01*
X178910000Y-111692380D01*
X178767142Y-111740000D01*
X178671904Y-111835238D01*
X178624285Y-111930476D01*
X178576666Y-112120952D01*
X178576666Y-112263809D01*
X178624285Y-112454285D01*
X178671904Y-112549523D01*
X178767142Y-112644761D01*
X178910000Y-112692380D01*
X179005238Y-112692380D01*
X179148095Y-112644761D01*
X179195714Y-112597142D01*
X179195714Y-112263809D01*
X179005238Y-112263809D01*
X179624285Y-112692380D02*
X179624285Y-111692380D01*
X180195714Y-112692380D01*
X180195714Y-111692380D01*
X180671904Y-112692380D02*
X180671904Y-111692380D01*
X180910000Y-111692380D01*
X181052857Y-111740000D01*
X181148095Y-111835238D01*
X181195714Y-111930476D01*
X181243333Y-112120952D01*
X181243333Y-112263809D01*
X181195714Y-112454285D01*
X181148095Y-112549523D01*
X181052857Y-112644761D01*
X180910000Y-112692380D01*
X180671904Y-112692380D01*
X172759047Y-101121428D02*
X173520952Y-101121428D01*
X173140000Y-101502380D02*
X173140000Y-100740476D01*
X182289523Y-111662380D02*
X181813333Y-111662380D01*
X181765714Y-112138571D01*
X181813333Y-112090952D01*
X181908571Y-112043333D01*
X182146666Y-112043333D01*
X182241904Y-112090952D01*
X182289523Y-112138571D01*
X182337142Y-112233809D01*
X182337142Y-112471904D01*
X182289523Y-112567142D01*
X182241904Y-112614761D01*
X182146666Y-112662380D01*
X181908571Y-112662380D01*
X181813333Y-112614761D01*
X181765714Y-112567142D01*
X182622857Y-111662380D02*
X182956190Y-112662380D01*
X183289523Y-111662380D01*
X186758095Y-112492380D02*
X186758095Y-111492380D01*
X187139047Y-111492380D01*
X187234285Y-111540000D01*
X187281904Y-111587619D01*
X187329523Y-111682857D01*
X187329523Y-111825714D01*
X187281904Y-111920952D01*
X187234285Y-111968571D01*
X187139047Y-112016190D01*
X186758095Y-112016190D01*
X188281904Y-111540000D02*
X188186666Y-111492380D01*
X188043809Y-111492380D01*
X187900952Y-111540000D01*
X187805714Y-111635238D01*
X187758095Y-111730476D01*
X187710476Y-111920952D01*
X187710476Y-112063809D01*
X187758095Y-112254285D01*
X187805714Y-112349523D01*
X187900952Y-112444761D01*
X188043809Y-112492380D01*
X188139047Y-112492380D01*
X188281904Y-112444761D01*
X188329523Y-112397142D01*
X188329523Y-112063809D01*
X188139047Y-112063809D01*
%TO.C,C1*%
X164933333Y-87577142D02*
X164885714Y-87624761D01*
X164742857Y-87672380D01*
X164647619Y-87672380D01*
X164504761Y-87624761D01*
X164409523Y-87529523D01*
X164361904Y-87434285D01*
X164314285Y-87243809D01*
X164314285Y-87100952D01*
X164361904Y-86910476D01*
X164409523Y-86815238D01*
X164504761Y-86720000D01*
X164647619Y-86672380D01*
X164742857Y-86672380D01*
X164885714Y-86720000D01*
X164933333Y-86767619D01*
X165885714Y-87672380D02*
X165314285Y-87672380D01*
X165600000Y-87672380D02*
X165600000Y-86672380D01*
X165504761Y-86815238D01*
X165409523Y-86910476D01*
X165314285Y-86958095D01*
%TO.C,C2*%
X144613333Y-90937142D02*
X144565714Y-90984761D01*
X144422857Y-91032380D01*
X144327619Y-91032380D01*
X144184761Y-90984761D01*
X144089523Y-90889523D01*
X144041904Y-90794285D01*
X143994285Y-90603809D01*
X143994285Y-90460952D01*
X144041904Y-90270476D01*
X144089523Y-90175238D01*
X144184761Y-90080000D01*
X144327619Y-90032380D01*
X144422857Y-90032380D01*
X144565714Y-90080000D01*
X144613333Y-90127619D01*
X144994285Y-90127619D02*
X145041904Y-90080000D01*
X145137142Y-90032380D01*
X145375238Y-90032380D01*
X145470476Y-90080000D01*
X145518095Y-90127619D01*
X145565714Y-90222857D01*
X145565714Y-90318095D01*
X145518095Y-90460952D01*
X144946666Y-91032380D01*
X145565714Y-91032380D01*
%TO.C,C6*%
X186523333Y-57253142D02*
X186475714Y-57300761D01*
X186332857Y-57348380D01*
X186237619Y-57348380D01*
X186094761Y-57300761D01*
X185999523Y-57205523D01*
X185951904Y-57110285D01*
X185904285Y-56919809D01*
X185904285Y-56776952D01*
X185951904Y-56586476D01*
X185999523Y-56491238D01*
X186094761Y-56396000D01*
X186237619Y-56348380D01*
X186332857Y-56348380D01*
X186475714Y-56396000D01*
X186523333Y-56443619D01*
X187380476Y-56348380D02*
X187190000Y-56348380D01*
X187094761Y-56396000D01*
X187047142Y-56443619D01*
X186951904Y-56586476D01*
X186904285Y-56776952D01*
X186904285Y-57157904D01*
X186951904Y-57253142D01*
X186999523Y-57300761D01*
X187094761Y-57348380D01*
X187285238Y-57348380D01*
X187380476Y-57300761D01*
X187428095Y-57253142D01*
X187475714Y-57157904D01*
X187475714Y-56919809D01*
X187428095Y-56824571D01*
X187380476Y-56776952D01*
X187285238Y-56729333D01*
X187094761Y-56729333D01*
X186999523Y-56776952D01*
X186951904Y-56824571D01*
X186904285Y-56919809D01*
%TO.C,C7*%
X181503333Y-85029142D02*
X181455714Y-85076761D01*
X181312857Y-85124380D01*
X181217619Y-85124380D01*
X181074761Y-85076761D01*
X180979523Y-84981523D01*
X180931904Y-84886285D01*
X180884285Y-84695809D01*
X180884285Y-84552952D01*
X180931904Y-84362476D01*
X180979523Y-84267238D01*
X181074761Y-84172000D01*
X181217619Y-84124380D01*
X181312857Y-84124380D01*
X181455714Y-84172000D01*
X181503333Y-84219619D01*
X181836666Y-84124380D02*
X182503333Y-84124380D01*
X182074761Y-85124380D01*
%TO.C,J1*%
X195099880Y-100753333D02*
X195814166Y-100753333D01*
X195957023Y-100800952D01*
X196052261Y-100896190D01*
X196099880Y-101039047D01*
X196099880Y-101134285D01*
X196099880Y-99753333D02*
X196099880Y-100324761D01*
X196099880Y-100039047D02*
X195099880Y-100039047D01*
X195242738Y-100134285D01*
X195337976Y-100229523D01*
X195385595Y-100324761D01*
%TO.C,J2*%
X141697380Y-101498333D02*
X142411666Y-101498333D01*
X142554523Y-101545952D01*
X142649761Y-101641190D01*
X142697380Y-101784047D01*
X142697380Y-101879285D01*
X141792619Y-101069761D02*
X141745000Y-101022142D01*
X141697380Y-100926904D01*
X141697380Y-100688809D01*
X141745000Y-100593571D01*
X141792619Y-100545952D01*
X141887857Y-100498333D01*
X141983095Y-100498333D01*
X142125952Y-100545952D01*
X142697380Y-101117380D01*
X142697380Y-100498333D01*
%TO.C,J3*%
X173812380Y-109768333D02*
X174526666Y-109768333D01*
X174669523Y-109815952D01*
X174764761Y-109911190D01*
X174812380Y-110054047D01*
X174812380Y-110149285D01*
X173812380Y-109387380D02*
X173812380Y-108768333D01*
X174193333Y-109101666D01*
X174193333Y-108958809D01*
X174240952Y-108863571D01*
X174288571Y-108815952D01*
X174383809Y-108768333D01*
X174621904Y-108768333D01*
X174717142Y-108815952D01*
X174764761Y-108863571D01*
X174812380Y-108958809D01*
X174812380Y-109244523D01*
X174764761Y-109339761D01*
X174717142Y-109387380D01*
%TO.C,J5*%
X189912666Y-69556380D02*
X189912666Y-70270666D01*
X189865047Y-70413523D01*
X189769809Y-70508761D01*
X189626952Y-70556380D01*
X189531714Y-70556380D01*
X190865047Y-69556380D02*
X190388857Y-69556380D01*
X190341238Y-70032571D01*
X190388857Y-69984952D01*
X190484095Y-69937333D01*
X190722190Y-69937333D01*
X190817428Y-69984952D01*
X190865047Y-70032571D01*
X190912666Y-70127809D01*
X190912666Y-70365904D01*
X190865047Y-70461142D01*
X190817428Y-70508761D01*
X190722190Y-70556380D01*
X190484095Y-70556380D01*
X190388857Y-70508761D01*
X190341238Y-70461142D01*
D11*
%TO.C,Q1*%
X152209047Y-80455476D02*
X152088095Y-80395000D01*
X151967142Y-80274047D01*
X151785714Y-80092619D01*
X151664761Y-80032142D01*
X151543809Y-80032142D01*
X151604285Y-80334523D02*
X151483333Y-80274047D01*
X151362380Y-80153095D01*
X151301904Y-79911190D01*
X151301904Y-79487857D01*
X151362380Y-79245952D01*
X151483333Y-79125000D01*
X151604285Y-79064523D01*
X151846190Y-79064523D01*
X151967142Y-79125000D01*
X152088095Y-79245952D01*
X152148571Y-79487857D01*
X152148571Y-79911190D01*
X152088095Y-80153095D01*
X151967142Y-80274047D01*
X151846190Y-80334523D01*
X151604285Y-80334523D01*
X153358095Y-80334523D02*
X152632380Y-80334523D01*
X152995238Y-80334523D02*
X152995238Y-79064523D01*
X152874285Y-79245952D01*
X152753333Y-79366904D01*
X152632380Y-79427380D01*
%TO.C,Q2*%
X157249047Y-80335476D02*
X157128095Y-80275000D01*
X157007142Y-80154047D01*
X156825714Y-79972619D01*
X156704761Y-79912142D01*
X156583809Y-79912142D01*
X156644285Y-80214523D02*
X156523333Y-80154047D01*
X156402380Y-80033095D01*
X156341904Y-79791190D01*
X156341904Y-79367857D01*
X156402380Y-79125952D01*
X156523333Y-79005000D01*
X156644285Y-78944523D01*
X156886190Y-78944523D01*
X157007142Y-79005000D01*
X157128095Y-79125952D01*
X157188571Y-79367857D01*
X157188571Y-79791190D01*
X157128095Y-80033095D01*
X157007142Y-80154047D01*
X156886190Y-80214523D01*
X156644285Y-80214523D01*
X157672380Y-79065476D02*
X157732857Y-79005000D01*
X157853809Y-78944523D01*
X158156190Y-78944523D01*
X158277142Y-79005000D01*
X158337619Y-79065476D01*
X158398095Y-79186428D01*
X158398095Y-79307380D01*
X158337619Y-79488809D01*
X157611904Y-80214523D01*
X158398095Y-80214523D01*
D10*
%TO.C,R1*%
X180163333Y-62462380D02*
X179830000Y-61986190D01*
X179591904Y-62462380D02*
X179591904Y-61462380D01*
X179972857Y-61462380D01*
X180068095Y-61510000D01*
X180115714Y-61557619D01*
X180163333Y-61652857D01*
X180163333Y-61795714D01*
X180115714Y-61890952D01*
X180068095Y-61938571D01*
X179972857Y-61986190D01*
X179591904Y-61986190D01*
X181115714Y-62462380D02*
X180544285Y-62462380D01*
X180830000Y-62462380D02*
X180830000Y-61462380D01*
X180734761Y-61605238D01*
X180639523Y-61700476D01*
X180544285Y-61748095D01*
%TO.C,R2*%
X154773333Y-92272380D02*
X154440000Y-91796190D01*
X154201904Y-92272380D02*
X154201904Y-91272380D01*
X154582857Y-91272380D01*
X154678095Y-91320000D01*
X154725714Y-91367619D01*
X154773333Y-91462857D01*
X154773333Y-91605714D01*
X154725714Y-91700952D01*
X154678095Y-91748571D01*
X154582857Y-91796190D01*
X154201904Y-91796190D01*
X155154285Y-91367619D02*
X155201904Y-91320000D01*
X155297142Y-91272380D01*
X155535238Y-91272380D01*
X155630476Y-91320000D01*
X155678095Y-91367619D01*
X155725714Y-91462857D01*
X155725714Y-91558095D01*
X155678095Y-91700952D01*
X155106666Y-92272380D01*
X155725714Y-92272380D01*
%TO.C,R3*%
X154773333Y-88336380D02*
X154440000Y-87860190D01*
X154201904Y-88336380D02*
X154201904Y-87336380D01*
X154582857Y-87336380D01*
X154678095Y-87384000D01*
X154725714Y-87431619D01*
X154773333Y-87526857D01*
X154773333Y-87669714D01*
X154725714Y-87764952D01*
X154678095Y-87812571D01*
X154582857Y-87860190D01*
X154201904Y-87860190D01*
X155106666Y-87336380D02*
X155725714Y-87336380D01*
X155392380Y-87717333D01*
X155535238Y-87717333D01*
X155630476Y-87764952D01*
X155678095Y-87812571D01*
X155725714Y-87907809D01*
X155725714Y-88145904D01*
X155678095Y-88241142D01*
X155630476Y-88288761D01*
X155535238Y-88336380D01*
X155249523Y-88336380D01*
X155154285Y-88288761D01*
X155106666Y-88241142D01*
%TO.C,R4*%
X139533333Y-68142380D02*
X139200000Y-67666190D01*
X138961904Y-68142380D02*
X138961904Y-67142380D01*
X139342857Y-67142380D01*
X139438095Y-67190000D01*
X139485714Y-67237619D01*
X139533333Y-67332857D01*
X139533333Y-67475714D01*
X139485714Y-67570952D01*
X139438095Y-67618571D01*
X139342857Y-67666190D01*
X138961904Y-67666190D01*
X140390476Y-67475714D02*
X140390476Y-68142380D01*
X140152380Y-67094761D02*
X139914285Y-67809047D01*
X140533333Y-67809047D01*
%TO.C,R5*%
X136943333Y-58922380D02*
X136610000Y-58446190D01*
X136371904Y-58922380D02*
X136371904Y-57922380D01*
X136752857Y-57922380D01*
X136848095Y-57970000D01*
X136895714Y-58017619D01*
X136943333Y-58112857D01*
X136943333Y-58255714D01*
X136895714Y-58350952D01*
X136848095Y-58398571D01*
X136752857Y-58446190D01*
X136371904Y-58446190D01*
X137848095Y-57922380D02*
X137371904Y-57922380D01*
X137324285Y-58398571D01*
X137371904Y-58350952D01*
X137467142Y-58303333D01*
X137705238Y-58303333D01*
X137800476Y-58350952D01*
X137848095Y-58398571D01*
X137895714Y-58493809D01*
X137895714Y-58731904D01*
X137848095Y-58827142D01*
X137800476Y-58874761D01*
X137705238Y-58922380D01*
X137467142Y-58922380D01*
X137371904Y-58874761D01*
X137324285Y-58827142D01*
%TO.C,SW1*%
X164782666Y-84954761D02*
X164925523Y-85002380D01*
X165163619Y-85002380D01*
X165258857Y-84954761D01*
X165306476Y-84907142D01*
X165354095Y-84811904D01*
X165354095Y-84716666D01*
X165306476Y-84621428D01*
X165258857Y-84573809D01*
X165163619Y-84526190D01*
X164973142Y-84478571D01*
X164877904Y-84430952D01*
X164830285Y-84383333D01*
X164782666Y-84288095D01*
X164782666Y-84192857D01*
X164830285Y-84097619D01*
X164877904Y-84050000D01*
X164973142Y-84002380D01*
X165211238Y-84002380D01*
X165354095Y-84050000D01*
X165687428Y-84002380D02*
X165925523Y-85002380D01*
X166116000Y-84288095D01*
X166306476Y-85002380D01*
X166544571Y-84002380D01*
X167449333Y-85002380D02*
X166877904Y-85002380D01*
X167163619Y-85002380D02*
X167163619Y-84002380D01*
X167068380Y-84145238D01*
X166973142Y-84240476D01*
X166877904Y-84288095D01*
%TO.C,SW2*%
X143446666Y-80954761D02*
X143589523Y-81002380D01*
X143827619Y-81002380D01*
X143922857Y-80954761D01*
X143970476Y-80907142D01*
X144018095Y-80811904D01*
X144018095Y-80716666D01*
X143970476Y-80621428D01*
X143922857Y-80573809D01*
X143827619Y-80526190D01*
X143637142Y-80478571D01*
X143541904Y-80430952D01*
X143494285Y-80383333D01*
X143446666Y-80288095D01*
X143446666Y-80192857D01*
X143494285Y-80097619D01*
X143541904Y-80050000D01*
X143637142Y-80002380D01*
X143875238Y-80002380D01*
X144018095Y-80050000D01*
X144351428Y-80002380D02*
X144589523Y-81002380D01*
X144780000Y-80288095D01*
X144970476Y-81002380D01*
X145208571Y-80002380D01*
X145541904Y-80097619D02*
X145589523Y-80050000D01*
X145684761Y-80002380D01*
X145922857Y-80002380D01*
X146018095Y-80050000D01*
X146065714Y-80097619D01*
X146113333Y-80192857D01*
X146113333Y-80288095D01*
X146065714Y-80430952D01*
X145494285Y-81002380D01*
X146113333Y-81002380D01*
%TO.C,J4*%
X130172380Y-92863333D02*
X130886666Y-92863333D01*
X131029523Y-92910952D01*
X131124761Y-93006190D01*
X131172380Y-93149047D01*
X131172380Y-93244285D01*
X130505714Y-91958571D02*
X131172380Y-91958571D01*
X130124761Y-92196666D02*
X130839047Y-92434761D01*
X130839047Y-91815714D01*
D11*
%TO.C,D1*%
X191002619Y-108022523D02*
X191002619Y-106752523D01*
X191305000Y-106752523D01*
X191486428Y-106813000D01*
X191607380Y-106933952D01*
X191667857Y-107054904D01*
X191728333Y-107296809D01*
X191728333Y-107478238D01*
X191667857Y-107720142D01*
X191607380Y-107841095D01*
X191486428Y-107962047D01*
X191305000Y-108022523D01*
X191002619Y-108022523D01*
X192937857Y-108022523D02*
X192212142Y-108022523D01*
X192575000Y-108022523D02*
X192575000Y-106752523D01*
X192454047Y-106933952D01*
X192333095Y-107054904D01*
X192212142Y-107115380D01*
D10*
%TO.C,C3*%
X136943333Y-63607142D02*
X136895714Y-63654761D01*
X136752857Y-63702380D01*
X136657619Y-63702380D01*
X136514761Y-63654761D01*
X136419523Y-63559523D01*
X136371904Y-63464285D01*
X136324285Y-63273809D01*
X136324285Y-63130952D01*
X136371904Y-62940476D01*
X136419523Y-62845238D01*
X136514761Y-62750000D01*
X136657619Y-62702380D01*
X136752857Y-62702380D01*
X136895714Y-62750000D01*
X136943333Y-62797619D01*
X137276666Y-62702380D02*
X137895714Y-62702380D01*
X137562380Y-63083333D01*
X137705238Y-63083333D01*
X137800476Y-63130952D01*
X137848095Y-63178571D01*
X137895714Y-63273809D01*
X137895714Y-63511904D01*
X137848095Y-63607142D01*
X137800476Y-63654761D01*
X137705238Y-63702380D01*
X137419523Y-63702380D01*
X137324285Y-63654761D01*
X137276666Y-63607142D01*
%TO.C,IC1*%
X144222380Y-78006190D02*
X143222380Y-78006190D01*
X144127142Y-76958571D02*
X144174761Y-77006190D01*
X144222380Y-77149047D01*
X144222380Y-77244285D01*
X144174761Y-77387142D01*
X144079523Y-77482380D01*
X143984285Y-77530000D01*
X143793809Y-77577619D01*
X143650952Y-77577619D01*
X143460476Y-77530000D01*
X143365238Y-77482380D01*
X143270000Y-77387142D01*
X143222380Y-77244285D01*
X143222380Y-77149047D01*
X143270000Y-77006190D01*
X143317619Y-76958571D01*
X144222380Y-76006190D02*
X144222380Y-76577619D01*
X144222380Y-76291904D02*
X143222380Y-76291904D01*
X143365238Y-76387142D01*
X143460476Y-76482380D01*
X143508095Y-76577619D01*
D11*
%TO.C,D2*%
X168702619Y-100434523D02*
X168702619Y-99164523D01*
X169005000Y-99164523D01*
X169186428Y-99225000D01*
X169307380Y-99345952D01*
X169367857Y-99466904D01*
X169428333Y-99708809D01*
X169428333Y-99890238D01*
X169367857Y-100132142D01*
X169307380Y-100253095D01*
X169186428Y-100374047D01*
X169005000Y-100434523D01*
X168702619Y-100434523D01*
X169912142Y-99285476D02*
X169972619Y-99225000D01*
X170093571Y-99164523D01*
X170395952Y-99164523D01*
X170516904Y-99225000D01*
X170577380Y-99285476D01*
X170637857Y-99406428D01*
X170637857Y-99527380D01*
X170577380Y-99708809D01*
X169851666Y-100434523D01*
X170637857Y-100434523D01*
D10*
%TO.C,R6*%
X173762380Y-105306666D02*
X173286190Y-105640000D01*
X173762380Y-105878095D02*
X172762380Y-105878095D01*
X172762380Y-105497142D01*
X172810000Y-105401904D01*
X172857619Y-105354285D01*
X172952857Y-105306666D01*
X173095714Y-105306666D01*
X173190952Y-105354285D01*
X173238571Y-105401904D01*
X173286190Y-105497142D01*
X173286190Y-105878095D01*
X172762380Y-104449523D02*
X172762380Y-104640000D01*
X172810000Y-104735238D01*
X172857619Y-104782857D01*
X173000476Y-104878095D01*
X173190952Y-104925714D01*
X173571904Y-104925714D01*
X173667142Y-104878095D01*
X173714761Y-104830476D01*
X173762380Y-104735238D01*
X173762380Y-104544761D01*
X173714761Y-104449523D01*
X173667142Y-104401904D01*
X173571904Y-104354285D01*
X173333809Y-104354285D01*
X173238571Y-104401904D01*
X173190952Y-104449523D01*
X173143333Y-104544761D01*
X173143333Y-104735238D01*
X173190952Y-104830476D01*
X173238571Y-104878095D01*
X173333809Y-104925714D01*
%TO.C,R7*%
X134803333Y-64792380D02*
X134470000Y-64316190D01*
X134231904Y-64792380D02*
X134231904Y-63792380D01*
X134612857Y-63792380D01*
X134708095Y-63840000D01*
X134755714Y-63887619D01*
X134803333Y-63982857D01*
X134803333Y-64125714D01*
X134755714Y-64220952D01*
X134708095Y-64268571D01*
X134612857Y-64316190D01*
X134231904Y-64316190D01*
X135136666Y-63792380D02*
X135803333Y-63792380D01*
X135374761Y-64792380D01*
%TO.C,R8*%
X137033333Y-61322380D02*
X136700000Y-60846190D01*
X136461904Y-61322380D02*
X136461904Y-60322380D01*
X136842857Y-60322380D01*
X136938095Y-60370000D01*
X136985714Y-60417619D01*
X137033333Y-60512857D01*
X137033333Y-60655714D01*
X136985714Y-60750952D01*
X136938095Y-60798571D01*
X136842857Y-60846190D01*
X136461904Y-60846190D01*
X137604761Y-60750952D02*
X137509523Y-60703333D01*
X137461904Y-60655714D01*
X137414285Y-60560476D01*
X137414285Y-60512857D01*
X137461904Y-60417619D01*
X137509523Y-60370000D01*
X137604761Y-60322380D01*
X137795238Y-60322380D01*
X137890476Y-60370000D01*
X137938095Y-60417619D01*
X137985714Y-60512857D01*
X137985714Y-60560476D01*
X137938095Y-60655714D01*
X137890476Y-60703333D01*
X137795238Y-60750952D01*
X137604761Y-60750952D01*
X137509523Y-60798571D01*
X137461904Y-60846190D01*
X137414285Y-60941428D01*
X137414285Y-61131904D01*
X137461904Y-61227142D01*
X137509523Y-61274761D01*
X137604761Y-61322380D01*
X137795238Y-61322380D01*
X137890476Y-61274761D01*
X137938095Y-61227142D01*
X137985714Y-61131904D01*
X137985714Y-60941428D01*
X137938095Y-60846190D01*
X137890476Y-60798571D01*
X137795238Y-60750952D01*
D12*
%TO.C,C1*%
X164838748Y-89635000D02*
X165361252Y-89635000D01*
X164838748Y-88165000D02*
X165361252Y-88165000D01*
%TO.C,C2*%
X145041252Y-89635000D02*
X144518748Y-89635000D01*
X145041252Y-88165000D02*
X144518748Y-88165000D01*
%TO.C,C6*%
X186428748Y-59155000D02*
X186951252Y-59155000D01*
X186428748Y-57685000D02*
X186951252Y-57685000D01*
%TO.C,C7*%
X181408748Y-81905000D02*
X181931252Y-81905000D01*
X181408748Y-83375000D02*
X181931252Y-83375000D01*
%TO.C,J1*%
X196447500Y-102120000D02*
X196897500Y-102120000D01*
X198847500Y-104320000D02*
X196997500Y-104320000D01*
X196997500Y-96520000D02*
X196997500Y-96970000D01*
X196997500Y-104320000D02*
X196997500Y-103870000D01*
X196447500Y-102120000D02*
X196447500Y-101670000D01*
X201397500Y-96520000D02*
X201147500Y-96520000D01*
X201397500Y-104320000D02*
X201147500Y-104320000D01*
X198847500Y-96520000D02*
X196997500Y-96520000D01*
%TO.C,J2*%
X143685000Y-99835000D02*
X145015000Y-99835000D01*
X146285000Y-99835000D02*
X159045000Y-99835000D01*
X146285000Y-102495000D02*
X159045000Y-102495000D01*
X146285000Y-102495000D02*
X146285000Y-99835000D01*
X143685000Y-101165000D02*
X143685000Y-99835000D01*
X159045000Y-102495000D02*
X159045000Y-99835000D01*
%TO.C,J3*%
X178400000Y-108105000D02*
X188620000Y-108105000D01*
X178400000Y-110765000D02*
X178400000Y-108105000D01*
X175800000Y-109435000D02*
X175800000Y-108105000D01*
X175800000Y-108105000D02*
X177130000Y-108105000D01*
X178400000Y-110765000D02*
X188620000Y-110765000D01*
X188620000Y-110765000D02*
X188620000Y-108105000D01*
%TO.C,J5*%
X189290000Y-63500000D02*
X189290000Y-86420000D01*
X186690000Y-60900000D02*
X186690000Y-63500000D01*
X184090000Y-60900000D02*
X184090000Y-86420000D01*
X187960000Y-60900000D02*
X189290000Y-60900000D01*
X184090000Y-60900000D02*
X186690000Y-60900000D01*
X184090000Y-86420000D02*
X189290000Y-86420000D01*
X186690000Y-63500000D02*
X189290000Y-63500000D01*
X189290000Y-60900000D02*
X189290000Y-62230000D01*
D13*
%TO.C,Q1*%
X153850000Y-82350000D02*
X153850000Y-82750000D01*
X150900000Y-84200000D02*
X150900000Y-83100000D01*
X150950000Y-82350000D02*
X153850000Y-82350000D01*
X150950000Y-82750000D02*
X150950000Y-82350000D01*
X153850000Y-82750000D02*
X150950000Y-82750000D01*
%TO.C,Q2*%
X156030000Y-82750000D02*
X156030000Y-82350000D01*
X158930000Y-82350000D02*
X158930000Y-82750000D01*
X158930000Y-82750000D02*
X156030000Y-82750000D01*
X156030000Y-82350000D02*
X158930000Y-82350000D01*
X155980000Y-84200000D02*
X155980000Y-83100000D01*
D12*
%TO.C,R1*%
X180102936Y-62925000D02*
X180557064Y-62925000D01*
X180102936Y-64395000D02*
X180557064Y-64395000D01*
%TO.C,R2*%
X155167064Y-90905000D02*
X154712936Y-90905000D01*
X155167064Y-89435000D02*
X154712936Y-89435000D01*
%TO.C,R3*%
X154712936Y-85625000D02*
X155167064Y-85625000D01*
X154712936Y-87095000D02*
X155167064Y-87095000D01*
%TO.C,R4*%
X139927064Y-65305000D02*
X139472936Y-65305000D01*
X139927064Y-66775000D02*
X139472936Y-66775000D01*
%TO.C,R5*%
X139472936Y-59155000D02*
X139927064Y-59155000D01*
X139472936Y-57685000D02*
X139927064Y-57685000D01*
%TO.C,SW1*%
X166720000Y-81530000D02*
X166720000Y-81430000D01*
X166720000Y-83670000D02*
X163480000Y-83670000D01*
X163480000Y-81530000D02*
X163480000Y-81430000D01*
X166720000Y-81430000D02*
X163480000Y-81430000D01*
X166720000Y-83670000D02*
X166720000Y-83570000D01*
X163480000Y-83670000D02*
X163480000Y-83570000D01*
%TO.C,SW2*%
X143160000Y-83570000D02*
X143160000Y-83670000D01*
X146400000Y-81430000D02*
X146400000Y-81530000D01*
X146400000Y-83570000D02*
X146400000Y-83670000D01*
X143160000Y-81430000D02*
X143160000Y-81530000D01*
X143160000Y-83670000D02*
X146400000Y-83670000D01*
X143160000Y-81430000D02*
X146400000Y-81430000D01*
%TO.C,J4*%
X127380000Y-88730000D02*
X127380000Y-89230000D01*
X127380000Y-83730000D02*
X127380000Y-85030000D01*
X127380000Y-106530000D02*
X107180000Y-106530000D01*
X104280000Y-102930000D02*
X110580000Y-102930000D01*
X109580000Y-78530000D02*
X110280000Y-79530000D01*
X127380000Y-98730000D02*
X127380000Y-99930000D01*
X103580000Y-105830000D02*
X104320000Y-106530000D01*
X109580000Y-78530000D02*
X108280000Y-78530000D01*
X112480000Y-84030000D02*
X110580000Y-82130000D01*
X104280000Y-102930000D02*
X103580000Y-103630000D01*
X127380000Y-106330000D02*
X127380000Y-106530000D01*
X127380000Y-92030000D02*
X127380000Y-92530000D01*
X127380000Y-102930000D02*
X127380000Y-105230000D01*
X127380000Y-90430000D02*
X127380000Y-90830000D01*
X127380000Y-93730000D02*
X127380000Y-95030000D01*
X110280000Y-79530000D02*
X127380000Y-79530000D01*
X127380000Y-86230000D02*
X127380000Y-87530000D01*
X127380000Y-96230000D02*
X127380000Y-97530000D01*
X104400000Y-106530000D02*
X104320000Y-106530000D01*
X112480000Y-101030000D02*
X110580000Y-102930000D01*
X112480000Y-101030000D02*
X112480000Y-84030000D01*
X127380000Y-101230000D02*
X127380000Y-101630000D01*
X105580000Y-78530000D02*
X104280000Y-78530000D01*
X127380000Y-79530000D02*
X127380000Y-82530000D01*
X104280000Y-82130000D02*
X103580000Y-81430000D01*
X103580000Y-79230000D02*
X103580000Y-81430000D01*
X104280000Y-82130000D02*
X110580000Y-82130000D01*
X103580000Y-79230000D02*
X104280000Y-78530000D01*
X103580000Y-105790000D02*
X103580000Y-103630000D01*
D13*
%TO.C,D1*%
X190240000Y-105020000D02*
X192790000Y-105020000D01*
X191090000Y-106320000D02*
X192790000Y-106320000D01*
D12*
%TO.C,C3*%
X139961252Y-63945000D02*
X139438748Y-63945000D01*
X139961252Y-62475000D02*
X139438748Y-62475000D01*
%TO.C,IC1*%
X145180000Y-49515000D02*
X163420000Y-49515000D01*
X145180000Y-74480000D02*
X145180000Y-75260000D01*
X145180000Y-55935000D02*
X144800000Y-55935000D01*
X145180000Y-75260000D02*
X146180000Y-75260000D01*
X145180000Y-49515000D02*
X145180000Y-55935000D01*
X163420000Y-49515000D02*
X163420000Y-55935000D01*
X163420000Y-75260000D02*
X162420000Y-75260000D01*
X163420000Y-74480000D02*
X163420000Y-75260000D01*
D14*
%TO.C,D2*%
X167340000Y-102400000D02*
X167340000Y-102400000D01*
X167440000Y-102400000D02*
X167440000Y-102400000D01*
X167440000Y-102400000D02*
G75*
G03*
X167340000Y-102400000I-50000J0D01*
G01*
X167340000Y-102400000D02*
G75*
G03*
X167440000Y-102400000I50000J0D01*
G01*
D12*
%TO.C,R6*%
X175695000Y-105367064D02*
X175695000Y-104912936D01*
X174225000Y-105367064D02*
X174225000Y-104912936D01*
%TO.C,R7*%
X134742936Y-65255000D02*
X135197064Y-65255000D01*
X134742936Y-66725000D02*
X135197064Y-66725000D01*
%TO.C,R8*%
X139957064Y-61555000D02*
X139502936Y-61555000D01*
X139957064Y-60085000D02*
X139502936Y-60085000D01*
%TD*%
M02*
