%TF.GenerationSoftware,KiCad,Pcbnew,(6.0.2)*%
%TF.CreationDate,2022-03-10T00:26:05-05:00*%
%TF.ProjectId,tower,746f7765-722e-46b6-9963-61645f706362,rev?*%
%TF.SameCoordinates,Original*%
%TF.FileFunction,Legend,Bot*%
%TF.FilePolarity,Positive*%
%FSLAX46Y46*%
G04 Gerber Fmt 4.6, Leading zero omitted, Abs format (unit mm)*
G04 Created by KiCad (PCBNEW (6.0.2)) date 2022-03-10 00:26:05*
%MOMM*%
%LPD*%
G01*
G04 APERTURE LIST*
%ADD10C,0.150000*%
%ADD11C,0.120000*%
G04 APERTURE END LIST*
D10*
%TO.C,C4*%
X147740666Y-58777142D02*
X147788285Y-58824761D01*
X147931142Y-58872380D01*
X148026380Y-58872380D01*
X148169238Y-58824761D01*
X148264476Y-58729523D01*
X148312095Y-58634285D01*
X148359714Y-58443809D01*
X148359714Y-58300952D01*
X148312095Y-58110476D01*
X148264476Y-58015238D01*
X148169238Y-57920000D01*
X148026380Y-57872380D01*
X147931142Y-57872380D01*
X147788285Y-57920000D01*
X147740666Y-57967619D01*
X146883523Y-58205714D02*
X146883523Y-58872380D01*
X147121619Y-57824761D02*
X147359714Y-58539047D01*
X146740666Y-58539047D01*
%TO.C,C5*%
X147740666Y-61825142D02*
X147788285Y-61872761D01*
X147931142Y-61920380D01*
X148026380Y-61920380D01*
X148169238Y-61872761D01*
X148264476Y-61777523D01*
X148312095Y-61682285D01*
X148359714Y-61491809D01*
X148359714Y-61348952D01*
X148312095Y-61158476D01*
X148264476Y-61063238D01*
X148169238Y-60968000D01*
X148026380Y-60920380D01*
X147931142Y-60920380D01*
X147788285Y-60968000D01*
X147740666Y-61015619D01*
X146835904Y-60920380D02*
X147312095Y-60920380D01*
X147359714Y-61396571D01*
X147312095Y-61348952D01*
X147216857Y-61301333D01*
X146978761Y-61301333D01*
X146883523Y-61348952D01*
X146835904Y-61396571D01*
X146788285Y-61491809D01*
X146788285Y-61729904D01*
X146835904Y-61825142D01*
X146883523Y-61872761D01*
X146978761Y-61920380D01*
X147216857Y-61920380D01*
X147312095Y-61872761D01*
X147359714Y-61825142D01*
D11*
%TO.C,C4*%
X150106748Y-57685000D02*
X150629252Y-57685000D01*
X150106748Y-59155000D02*
X150629252Y-59155000D01*
%TO.C,C5*%
X150106748Y-60733000D02*
X150629252Y-60733000D01*
X150106748Y-62203000D02*
X150629252Y-62203000D01*
%TD*%
M02*
