M48
; DRILL file {KiCad (6.0.2)} date Thu Mar 10 01:56:03 2022
; FORMAT={-:-/ absolute / inch / decimal}
; #@! TF.CreationDate,2022-03-10T01:56:03-05:00
; #@! TF.GenerationSoftware,Kicad,Pcbnew,(6.0.2)
; #@! TF.FileFunction,Plated,1,2,PTH
FMAT,2
INCH
; #@! TA.AperFunction,Plated,PTH,ViaDrill
T1C0.0157
; #@! TA.AperFunction,Plated,PTH,ComponentDrill
T2C0.0236
; #@! TA.AperFunction,Plated,PTH,ComponentDrill
T3C0.0335
; #@! TA.AperFunction,Plated,PTH,ComponentDrill
T4C0.0394
; #@! TA.AperFunction,Plated,PTH,ComponentDrill
T5C0.1260
%
G90
G05
T1
X4.52Y-2.32
X4.53Y-2.96
X4.54Y-4.36
X5.1215Y-3.615
X5.4071Y-2.2496
X5.4079Y-2.3516
X5.4157Y-2.6976
X5.4201Y-3.1764
X5.57Y-4.36
X5.6492Y-3.0783
X5.8437Y-3.028
X5.85Y-2.36
X5.89Y-3.75
X5.998Y-3.4067
X6.0606Y-2.4146
X6.25Y-2.7
X6.3Y-2.45
X6.3Y-2.5
X6.3421Y-3.1
X6.45Y-3.1
X6.4976Y-4.0378
X6.6Y-2.35
X7.1Y-2.95
X7.15Y-2.25
X7.5579Y-4.3315
X7.63Y-2.61
X7.63Y-3.15
X7.63Y-3.67
X7.6984Y-3.9028
T3
X7.7676Y-3.8551
X7.7676Y-4.052
T4
X5.7093Y-3.9829
X5.8093Y-3.9829
X5.9093Y-3.9829
X6.0093Y-3.9829
X6.1093Y-3.9829
X6.2093Y-3.9829
X6.9736Y-4.3085
X7.0736Y-4.3085
X7.1736Y-4.3085
X7.2736Y-4.3085
X7.3Y-2.45
X7.3Y-2.55
X7.3Y-2.65
X7.3Y-2.75
X7.3Y-2.85
X7.3Y-2.95
X7.3Y-3.05
X7.3Y-3.15
X7.3Y-3.25
X7.3Y-3.35
X7.3736Y-4.3085
X7.4Y-2.45
X7.4Y-2.55
X7.4Y-2.65
X7.4Y-2.75
X7.4Y-2.85
X7.4Y-2.95
X7.4Y-3.05
X7.4Y-3.15
X7.4Y-3.25
X7.4Y-3.35
T5
X4.2346Y-2.8913
X4.24Y-4.35
X7.76Y-4.35
X7.7693Y-2.4205
T2
G00X7.8601Y-3.8157
M15
G01X7.8877Y-3.8157
M16
G05
G00X7.8877Y-4.0913
M15
G01X7.8601Y-4.0913
M16
G05
T0
M30
