%TF.GenerationSoftware,KiCad,Pcbnew,(6.0.2)*%
%TF.CreationDate,2022-03-10T00:26:05-05:00*%
%TF.ProjectId,tower,746f7765-722e-46b6-9963-61645f706362,rev?*%
%TF.SameCoordinates,Original*%
%TF.FileFunction,Soldermask,Bot*%
%TF.FilePolarity,Negative*%
%FSLAX46Y46*%
G04 Gerber Fmt 4.6, Leading zero omitted, Abs format (unit mm)*
G04 Created by KiCad (PCBNEW (6.0.2)) date 2022-03-10 00:26:05*
%MOMM*%
%LPD*%
G01*
G04 APERTURE LIST*
G04 Aperture macros list*
%AMRoundRect*
0 Rectangle with rounded corners*
0 $1 Rounding radius*
0 $2 $3 $4 $5 $6 $7 $8 $9 X,Y pos of 4 corners*
0 Add a 4 corners polygon primitive as box body*
4,1,4,$2,$3,$4,$5,$6,$7,$8,$9,$2,$3,0*
0 Add four circle primitives for the rounded corners*
1,1,$1+$1,$2,$3*
1,1,$1+$1,$4,$5*
1,1,$1+$1,$6,$7*
1,1,$1+$1,$8,$9*
0 Add four rect primitives between the rounded corners*
20,1,$1+$1,$2,$3,$4,$5,0*
20,1,$1+$1,$4,$5,$6,$7,0*
20,1,$1+$1,$6,$7,$8,$9,0*
20,1,$1+$1,$8,$9,$2,$3,0*%
G04 Aperture macros list end*
%ADD10O,1.900000X1.200000*%
%ADD11C,1.450000*%
%ADD12R,1.700000X1.700000*%
%ADD13O,1.700000X1.700000*%
%ADD14C,1.500000*%
%ADD15C,5.600000*%
%ADD16RoundRect,0.250000X-0.250000X-0.475000X0.250000X-0.475000X0.250000X0.475000X-0.250000X0.475000X0*%
G04 APERTURE END LIST*
D10*
%TO.C,J1*%
X199997500Y-96920000D03*
X199997500Y-103920000D03*
D11*
X197297500Y-97920000D03*
X197297500Y-102920000D03*
%TD*%
D12*
%TO.C,J2*%
X145015000Y-101165000D03*
D13*
X147555000Y-101165000D03*
X150095000Y-101165000D03*
X152635000Y-101165000D03*
X155175000Y-101165000D03*
X157715000Y-101165000D03*
%TD*%
D12*
%TO.C,J3*%
X177130000Y-109435000D03*
D13*
X179670000Y-109435000D03*
X182210000Y-109435000D03*
X184750000Y-109435000D03*
X187290000Y-109435000D03*
%TD*%
D12*
%TO.C,J5*%
X187960000Y-62230000D03*
D13*
X185420000Y-62230000D03*
X187960000Y-64770000D03*
X185420000Y-64770000D03*
X187960000Y-67310000D03*
X185420000Y-67310000D03*
X187960000Y-69850000D03*
X185420000Y-69850000D03*
X187960000Y-72390000D03*
X185420000Y-72390000D03*
X187960000Y-74930000D03*
X185420000Y-74930000D03*
X187960000Y-77470000D03*
X185420000Y-77470000D03*
X187960000Y-80010000D03*
X185420000Y-80010000D03*
X187960000Y-82550000D03*
X185420000Y-82550000D03*
X187960000Y-85090000D03*
X185420000Y-85090000D03*
%TD*%
D14*
%TO.C,J4*%
X120980000Y-104630000D03*
X120980000Y-80430000D03*
%TD*%
D15*
%TO.C,REF\u002A\u002A*%
X107696000Y-110490000D03*
%TD*%
%TO.C,REF\u002A\u002A*%
X197340000Y-61480000D03*
%TD*%
%TO.C,REF\u002A\u002A*%
X197104000Y-110490000D03*
%TD*%
%TO.C,REF\u002A\u002A*%
X107560000Y-73440000D03*
%TD*%
D16*
%TO.C,C4*%
X149418000Y-58420000D03*
X151318000Y-58420000D03*
%TD*%
%TO.C,C5*%
X149418000Y-61468000D03*
X151318000Y-61468000D03*
%TD*%
M02*
